<svg width="85" height="24" viewBox="0 0 85 24" fill="none" xmlns="http://www.w3.org/2000/svg">
<rect width="85" height="24" rx="12" fill="#E8F7E6"/>
<path d="M14.3762 17H12.7455L16.4095 6.81818H18.1844L21.8485 17H20.2178L17.3392 8.66761H17.2597L14.3762 17ZM14.6496 13.0128H19.9394V14.3054H14.6496V13.0128ZM26.2931 17.1541C25.5539 17.1541 24.9176 16.9867 24.384 16.652C23.8537 16.3139 23.446 15.8482 23.161 15.255C22.8759 14.6617 22.7334 13.9822 22.7334 13.2166C22.7334 12.4411 22.8792 11.7566 23.1709 11.1634C23.4626 10.5668 23.8735 10.1011 24.4039 9.76633C24.9342 9.43158 25.5589 9.2642 26.2781 9.2642C26.8582 9.2642 27.3752 9.37192 27.8293 9.58736C28.2834 9.79948 28.6496 10.0978 28.928 10.4822C29.2097 10.8667 29.3771 11.3158 29.4301 11.8295H27.9834C27.9039 11.4716 27.7216 11.1634 27.4365 10.9048C27.1548 10.6463 26.777 10.517 26.303 10.517C25.8887 10.517 25.5258 10.6264 25.2142 10.8452C24.906 11.0606 24.6657 11.3688 24.4933 11.7699C24.321 12.1676 24.2348 12.6383 24.2348 13.1818C24.2348 13.7386 24.3193 14.2192 24.4884 14.6236C24.6574 15.0279 24.896 15.3411 25.2043 15.5632C25.5158 15.7853 25.8821 15.8963 26.303 15.8963C26.5847 15.8963 26.8399 15.8449 27.0686 15.7422C27.3006 15.6361 27.4945 15.4853 27.6503 15.2898C27.8094 15.0942 27.9204 14.8589 27.9834 14.5838H29.4301C29.3771 15.0777 29.2164 15.5185 28.9479 15.9062C28.6794 16.294 28.3198 16.599 27.8691 16.821C27.4216 17.0431 26.8963 17.1541 26.2931 17.1541ZM34.5844 9.36364V10.5568H30.4133V9.36364H34.5844ZM31.5319 7.53409H33.0184V14.7578C33.0184 15.0462 33.0615 15.2633 33.1476 15.4091C33.2338 15.5516 33.3448 15.6494 33.4807 15.7024C33.6199 15.7521 33.7707 15.777 33.9331 15.777C34.0525 15.777 34.1569 15.7687 34.2464 15.7521C34.3358 15.7356 34.4055 15.7223 34.4552 15.7124L34.7236 16.9403C34.6375 16.9735 34.5148 17.0066 34.3557 17.0398C34.1966 17.0762 33.9978 17.0961 33.7591 17.0994C33.368 17.1061 33.0035 17.0365 32.6654 16.8906C32.3273 16.7448 32.0539 16.5194 31.8451 16.2145C31.6363 15.9096 31.5319 15.5268 31.5319 15.0661V7.53409ZM36.2288 17V9.36364H37.7153V17H36.2288ZM36.9795 8.18537C36.721 8.18537 36.4989 8.09919 36.3133 7.92685C36.131 7.75118 36.0399 7.54238 36.0399 7.30043C36.0399 7.05516 36.131 6.84635 36.3133 6.67401C36.4989 6.49834 36.721 6.41051 36.9795 6.41051C37.238 6.41051 37.4584 6.49834 37.6407 6.67401C37.8263 6.84635 37.9191 7.05516 37.9191 7.30043C37.9191 7.54238 37.8263 7.75118 37.6407 7.92685C37.4584 8.09919 37.238 8.18537 36.9795 8.18537ZM46.2478 9.36364L43.4786 17H41.8877L39.1135 9.36364H40.7094L42.6434 15.2401H42.7229L44.6519 9.36364H46.2478ZM50.6762 17.1541C49.9239 17.1541 49.2759 16.9934 48.7323 16.6719C48.1921 16.3471 47.7745 15.8913 47.4795 15.3047C47.1878 14.7147 47.042 14.0237 47.042 13.2315C47.042 12.4493 47.1878 11.7599 47.4795 11.1634C47.7745 10.5668 48.1855 10.1011 48.7124 9.76633C49.2427 9.43158 49.8625 9.2642 50.5718 9.2642C51.0027 9.2642 51.4203 9.33546 51.8247 9.47798C52.229 9.6205 52.5919 9.84422 52.9134 10.1491C53.2349 10.4541 53.4885 10.8501 53.6741 11.3374C53.8597 11.8213 53.9525 12.4096 53.9525 13.1023V13.6293H47.8822V12.5156H52.4958C52.4958 12.1245 52.4163 11.7782 52.2572 11.4766C52.0981 11.1716 51.8744 10.9313 51.586 10.7557C51.301 10.58 50.9662 10.4922 50.5818 10.4922C50.1642 10.4922 49.7996 10.5949 49.488 10.8004C49.1798 11.0026 48.9411 11.2678 48.7721 11.5959C48.6064 11.9207 48.5235 12.2737 48.5235 12.6548V13.5249C48.5235 14.0353 48.613 14.4695 48.792 14.8274C48.9743 15.1854 49.2278 15.4588 49.5526 15.6477C49.8775 15.8333 50.257 15.9261 50.6911 15.9261C50.9729 15.9261 51.2297 15.8864 51.4617 15.8068C51.6937 15.724 51.8943 15.6013 52.0633 15.4389C52.2323 15.2765 52.3616 15.076 52.4511 14.8374L53.858 15.0909C53.7454 15.5052 53.5432 15.8681 53.2515 16.1797C52.9632 16.4879 52.6002 16.7282 52.1627 16.9006C51.7285 17.0696 51.233 17.1541 50.6762 17.1541Z" fill="#0F7B05"/>
<path d="M58.8738 9.81815L64.0836 14.7215C64.597 15.2047 65.3978 15.2047 65.9112 14.7215L71.121 9.81815C71.3891 9.56581 71.4019 9.14389 71.1495 8.87578C70.8972 8.60766 70.4753 8.59487 70.2072 8.84722L64.9974 13.7505L59.7876 8.84722C59.5195 8.59487 59.0976 8.60766 58.8453 8.87577C58.5929 9.14389 58.6057 9.56581 58.8738 9.81815Z" fill="#0F7B05"/>
</svg>
