<svg width="96" height="24" viewBox="0 0 96 24" fill="none" xmlns="http://www.w3.org/2000/svg">
<rect width="96" height="24" rx="12" fill="#FEF6E7"/>
<path d="M14.2746 17H12.6439L16.308 6.81818H18.0828L21.7469 17H20.1162L17.2377 8.66761H17.1581L14.2746 17ZM14.548 13.0128H19.8378V14.3054H14.548V13.0128ZM23.0979 17V9.36364H24.5347V10.5767H24.6143C24.7535 10.1657 24.9987 9.84257 25.3501 9.60724C25.7047 9.36861 26.1057 9.24929 26.5532 9.24929C26.646 9.24929 26.7554 9.2526 26.8813 9.25923C27.0106 9.26586 27.1117 9.27415 27.1846 9.28409V10.706C27.1249 10.6894 27.0189 10.6712 26.8664 10.6513C26.7139 10.6281 26.5615 10.6165 26.409 10.6165C26.0577 10.6165 25.7445 10.6911 25.4694 10.8402C25.1976 10.986 24.9822 11.1899 24.8231 11.4517C24.664 11.7102 24.5844 12.0052 24.5844 12.3366V17H23.0979ZM28.5903 17V6.81818H30.0768V10.6016H30.1663C30.2525 10.4425 30.3767 10.2585 30.5392 10.0497C30.7016 9.84091 30.9269 9.65862 31.2153 9.50284C31.5036 9.34375 31.8848 9.2642 32.3588 9.2642C32.9752 9.2642 33.5254 9.41998 34.0093 9.73153C34.4932 10.0431 34.8727 10.4922 35.1478 11.0788C35.4262 11.6655 35.5654 12.3714 35.5654 13.1967C35.5654 14.022 35.4279 14.7296 35.1528 15.3196C34.8777 15.9062 34.4999 16.3587 34.0193 16.6768C33.5387 16.9917 32.9901 17.1491 32.3737 17.1491C31.9097 17.1491 31.5302 17.0713 31.2352 16.9155C30.9435 16.7597 30.7148 16.5774 30.5491 16.3686C30.3834 16.1598 30.2558 15.9742 30.1663 15.8118H30.042V17H28.5903ZM30.047 13.1818C30.047 13.7187 30.1249 14.1894 30.2806 14.5938C30.4364 14.9981 30.6618 15.3146 30.9568 15.5433C31.2517 15.7687 31.613 15.8814 32.0406 15.8814C32.4847 15.8814 32.8559 15.7637 33.1542 15.5284C33.4525 15.2898 33.6779 14.9666 33.8303 14.5589C33.9861 14.1513 34.064 13.6922 34.064 13.1818C34.064 12.678 33.9878 12.2256 33.8353 11.8246C33.6862 11.4235 33.4608 11.107 33.1592 10.875C32.8609 10.643 32.488 10.527 32.0406 10.527C31.6097 10.527 31.2451 10.638 30.9468 10.8601C30.6518 11.0821 30.4281 11.392 30.2757 11.7898C30.1232 12.1875 30.047 12.6515 30.047 13.1818ZM37.2346 17V9.36364H38.7211V17H37.2346ZM37.9854 8.18537C37.7268 8.18537 37.5048 8.09919 37.3192 7.92685C37.1369 7.75118 37.0457 7.54238 37.0457 7.30043C37.0457 7.05516 37.1369 6.84635 37.3192 6.67401C37.5048 6.49834 37.7268 6.41051 37.9854 6.41051C38.2439 6.41051 38.4643 6.49834 38.6466 6.67401C38.8322 6.84635 38.925 7.05516 38.925 7.30043C38.925 7.54238 38.8322 7.75118 38.6466 7.92685C38.4643 8.09919 38.2439 8.18537 37.9854 8.18537ZM44.2856 9.36364V10.5568H40.1144V9.36364H44.2856ZM41.233 7.53409H42.7195V14.7578C42.7195 15.0462 42.7626 15.2633 42.8488 15.4091C42.935 15.5516 43.046 15.6494 43.1819 15.7024C43.3211 15.7521 43.4719 15.777 43.6343 15.777C43.7536 15.777 43.858 15.7687 43.9475 15.7521C44.037 15.7356 44.1066 15.7223 44.1563 15.7124L44.4248 16.9403C44.3386 16.9735 44.216 17.0066 44.0569 17.0398C43.8978 17.0762 43.699 17.0961 43.4603 17.0994C43.0692 17.1061 42.7046 17.0365 42.3666 16.8906C42.0285 16.7448 41.7551 16.5194 41.5463 16.2145C41.3374 15.9096 41.233 15.5268 41.233 15.0661V7.53409ZM45.93 17V9.36364H47.3667V10.5767H47.4463C47.5855 10.1657 47.8308 9.84257 48.1821 9.60724C48.5367 9.36861 48.9378 9.24929 49.3852 9.24929C49.478 9.24929 49.5874 9.2526 49.7133 9.25923C49.8426 9.26586 49.9437 9.27415 50.0166 9.28409V10.706C49.9569 10.6894 49.8509 10.6712 49.6984 10.6513C49.546 10.6281 49.3935 10.6165 49.241 10.6165C48.8897 10.6165 48.5765 10.6911 48.3014 10.8402C48.0296 10.986 47.8142 11.1899 47.6551 11.4517C47.496 11.7102 47.4165 12.0052 47.4165 12.3366V17H45.93ZM53.4569 17.169C52.973 17.169 52.5355 17.0795 52.1444 16.9006C51.7533 16.7183 51.4434 16.4548 51.2148 16.1101C50.9894 15.7654 50.8767 15.3428 50.8767 14.8423C50.8767 14.4115 50.9595 14.0568 51.1253 13.7784C51.291 13.5 51.5147 13.2796 51.7964 13.1172C52.0782 12.9548 52.393 12.8321 52.741 12.7493C53.089 12.6664 53.4437 12.6035 53.805 12.5604C54.2623 12.5073 54.6336 12.4643 54.9186 12.4311C55.2036 12.3946 55.4108 12.3366 55.54 12.2571C55.6693 12.1776 55.7339 12.0483 55.7339 11.8693V11.8345C55.7339 11.4003 55.6113 11.0639 55.366 10.8253C55.1241 10.5866 54.7628 10.4673 54.2822 10.4673C53.7818 10.4673 53.3873 10.5784 53.099 10.8004C52.814 11.0192 52.6167 11.2628 52.5074 11.5312L51.1104 11.2131C51.2761 10.7491 51.518 10.3745 51.8362 10.0895C52.1577 9.80114 52.5273 9.59233 52.9449 9.46307C53.3625 9.33049 53.8016 9.2642 54.2623 9.2642C54.5673 9.2642 54.8904 9.30066 55.2318 9.37358C55.5765 9.44318 55.898 9.57244 56.1963 9.76136C56.4979 9.95028 56.7448 10.2204 56.9371 10.5717C57.1293 10.9197 57.2254 11.3722 57.2254 11.929V17H55.7737V15.956H55.714C55.6179 16.1482 55.4738 16.3371 55.2815 16.5227C55.0893 16.7083 54.8424 16.8625 54.5407 16.9851C54.2391 17.1077 53.8779 17.169 53.4569 17.169ZM53.7801 15.9759C54.1911 15.9759 54.5424 15.8946 54.8341 15.7322C55.1291 15.5698 55.3528 15.3577 55.5052 15.0959C55.661 14.8307 55.7389 14.5473 55.7389 14.2457V13.2614C55.6859 13.3144 55.5831 13.3641 55.4307 13.4105C55.2815 13.4536 55.1108 13.4917 54.9186 13.5249C54.7264 13.5547 54.5391 13.5829 54.3568 13.6094C54.1745 13.6326 54.022 13.6525 53.8994 13.669C53.6111 13.7055 53.3476 13.7668 53.1089 13.853C52.8736 13.9392 52.6847 14.0634 52.5422 14.2259C52.403 14.3849 52.3334 14.5971 52.3334 14.8622C52.3334 15.2301 52.4693 15.5085 52.741 15.6974C53.0128 15.883 53.3592 15.9759 53.7801 15.9759ZM62.77 9.36364V10.5568H58.5988V9.36364H62.77ZM59.7174 7.53409H61.2039V14.7578C61.2039 15.0462 61.247 15.2633 61.3332 15.4091C61.4194 15.5516 61.5304 15.6494 61.6663 15.7024C61.8055 15.7521 61.9563 15.777 62.1187 15.777C62.238 15.777 62.3424 15.7687 62.4319 15.7521C62.5214 15.7356 62.591 15.7223 62.6407 15.7124L62.9092 16.9403C62.823 16.9735 62.7004 17.0066 62.5413 17.0398C62.3822 17.0762 62.1833 17.0961 61.9447 17.0994C61.5536 17.1061 61.189 17.0365 60.8509 16.8906C60.5129 16.7448 60.2394 16.5194 60.0306 16.2145C59.8218 15.9096 59.7174 15.5268 59.7174 15.0661V7.53409ZM64.4143 17V9.36364H65.9008V17H64.4143ZM65.165 8.18537C64.9065 8.18537 64.6845 8.09919 64.4988 7.92685C64.3166 7.75118 64.2254 7.54238 64.2254 7.30043C64.2254 7.05516 64.3166 6.84635 64.4988 6.67401C64.6845 6.49834 64.9065 6.41051 65.165 6.41051C65.4236 6.41051 65.644 6.49834 65.8263 6.67401C66.0119 6.84635 66.1047 7.05516 66.1047 7.30043C66.1047 7.54238 66.0119 7.75118 65.8263 7.92685C65.644 8.09919 65.4236 8.18537 65.165 8.18537ZM71.1173 17.1541C70.4014 17.1541 69.7766 16.9901 69.243 16.6619C68.7094 16.3338 68.2951 15.8748 68.0001 15.2848C67.7051 14.6948 67.5576 14.0054 67.5576 13.2166C67.5576 12.4245 67.7051 11.7318 68.0001 11.1385C68.2951 10.5452 68.7094 10.0845 69.243 9.75639C69.7766 9.42827 70.4014 9.2642 71.1173 9.2642C71.8332 9.2642 72.4579 9.42827 72.9916 9.75639C73.5252 10.0845 73.9395 10.5452 74.2345 11.1385C74.5294 11.7318 74.6769 12.4245 74.6769 13.2166C74.6769 14.0054 74.5294 14.6948 74.2345 15.2848C73.9395 15.8748 73.5252 16.3338 72.9916 16.6619C72.4579 16.9901 71.8332 17.1541 71.1173 17.1541ZM71.1222 15.9062C71.5863 15.9062 71.9707 15.7836 72.2757 15.5384C72.5806 15.2931 72.806 14.9666 72.9518 14.5589C73.1009 14.1513 73.1755 13.7022 73.1755 13.2116C73.1755 12.7244 73.1009 12.277 72.9518 11.8693C72.806 11.4583 72.5806 11.1286 72.2757 10.88C71.9707 10.6314 71.5863 10.5071 71.1222 10.5071C70.6549 10.5071 70.2671 10.6314 69.9589 10.88C69.654 11.1286 69.4269 11.4583 69.2778 11.8693C69.132 12.277 69.059 12.7244 69.059 13.2116C69.059 13.7022 69.132 14.1513 69.2778 14.5589C69.4269 14.9666 69.654 15.2931 69.9589 15.5384C70.2671 15.7836 70.6549 15.9062 71.1222 15.9062ZM77.8227 12.4659V17H76.3362V9.36364H77.7631V10.6065H77.8575C78.0332 10.2022 78.3083 9.87737 78.6828 9.6321C79.0606 9.38684 79.5363 9.2642 80.1096 9.2642C80.63 9.2642 81.0857 9.37358 81.4768 9.59233C81.8679 9.80777 82.1712 10.1293 82.3866 10.5568C82.6021 10.9844 82.7098 11.513 82.7098 12.1428V17H81.2233V12.3217C81.2233 11.7682 81.0791 11.3357 80.7907 11.0241C80.5024 10.7093 80.1063 10.5518 79.6025 10.5518C79.2578 10.5518 78.9513 10.6264 78.6828 10.7756C78.4176 10.9247 78.2072 11.1435 78.0514 11.4318C77.8989 11.7169 77.8227 12.0616 77.8227 12.4659Z" fill="#DD900D"/>
</svg>
