<svg width="403" height="218" viewBox="0 0 403 218" fill="none" xmlns="http://www.w3.org/2000/svg">
<path d="M16.6989 10.2727V19H15.642V11.8068H15.5739C15.5341 11.8864 15.4318 11.9773 15.267 12.0795C15.1023 12.179 14.8892 12.267 14.6278 12.3438C14.3665 12.4176 14.0682 12.4545 13.733 12.4545V11.5682C14.071 11.5682 14.3636 11.5071 14.6108 11.3849C14.858 11.2628 15.0639 11.1193 15.2287 10.9545C15.3963 10.7898 15.5227 10.6406 15.608 10.5071C15.696 10.3736 15.7472 10.2955 15.7614 10.2727H16.6989ZM20.9389 19L18.5526 10.2727H19.6264L21.4503 17.3807H21.5355L23.3935 10.2727H24.5866L26.4446 17.3807H26.5298L28.3537 10.2727H29.4276L27.0412 19H25.9503L24.0241 12.0455H23.956L22.0298 19H20.9389ZM30.7443 19V10.2727H31.8011V14.6023H31.9034L35.8239 10.2727H37.2045L33.5398 14.2102L37.2045 19H35.9261L32.892 14.9432L31.8011 16.1705V19H30.7443Z" fill="#667185"/>
<path d="M92.3004 10.2727V19H91.2436V11.8068H91.1754C91.1357 11.8864 91.0334 11.9773 90.8686 12.0795C90.7038 12.179 90.4908 12.267 90.2294 12.3438C89.968 12.4176 89.6697 12.4545 89.3345 12.4545V11.5682C89.6726 11.5682 89.9652 11.5071 90.2124 11.3849C90.4595 11.2628 90.6655 11.1193 90.8303 10.9545C90.9979 10.7898 91.1243 10.6406 91.2095 10.5071C91.2976 10.3736 91.3487 10.2955 91.3629 10.2727H92.3004ZM94.9553 10.2727H96.2166L99.1825 17.517H99.2848L102.251 10.2727H103.512V19H102.523V12.3693H102.438L99.7109 19H98.7564L96.0291 12.3693H95.9439V19H94.9553V10.2727Z" fill="#667185"/>
<path d="M155.902 17.2102V16.3409L159.737 10.2727H160.368V11.6193H159.942L157.044 16.2045V16.2727H162.209V17.2102H155.902ZM160.01 19V16.946V16.5412V10.2727H161.016V19H160.01ZM163.959 10.2727H165.221L168.186 17.517H168.289L171.255 10.2727H172.516V19H171.527V12.3693H171.442L168.715 19H167.76L165.033 12.3693H164.948V19H163.959V10.2727Z" fill="#667185"/>
<path d="M228.496 19.1193C227.911 19.1193 227.393 19.0156 226.945 18.8082C226.499 18.598 226.151 18.3097 225.901 17.9432C225.651 17.5739 225.527 17.1534 225.53 16.6818C225.527 16.3125 225.599 15.9716 225.747 15.6591C225.895 15.3437 226.097 15.081 226.352 14.8707C226.611 14.6577 226.899 14.5227 227.217 14.4659V14.4148C226.8 14.3068 226.467 14.0724 226.22 13.7116C225.973 13.348 225.851 12.9347 225.854 12.4716C225.851 12.0284 225.963 11.6321 226.19 11.2827C226.418 10.9332 226.73 10.6577 227.128 10.456C227.528 10.2543 227.984 10.1534 228.496 10.1534C229.001 10.1534 229.453 10.2543 229.851 10.456C230.249 10.6577 230.561 10.9332 230.788 11.2827C231.018 11.6321 231.135 12.0284 231.138 12.4716C231.135 12.9347 231.009 13.348 230.759 13.7116C230.511 14.0724 230.183 14.3068 229.774 14.4148V14.4659C230.089 14.5227 230.374 14.6577 230.626 14.8707C230.879 15.081 231.081 15.3437 231.232 15.6591C231.382 15.9716 231.459 16.3125 231.462 16.6818C231.459 17.1534 231.331 17.5739 231.078 17.9432C230.828 18.3097 230.48 18.598 230.034 18.8082C229.591 19.0156 229.078 19.1193 228.496 19.1193ZM228.496 18.1818C228.891 18.1818 229.232 18.1179 229.518 17.9901C229.805 17.8622 230.027 17.6818 230.183 17.4489C230.339 17.2159 230.419 16.9432 230.422 16.6307C230.419 16.3011 230.334 16.0099 230.166 15.7571C229.999 15.5043 229.77 15.3054 229.48 15.1605C229.193 15.0156 228.865 14.9432 228.496 14.9432C228.124 14.9432 227.791 15.0156 227.499 15.1605C227.209 15.3054 226.98 15.5043 226.812 15.7571C226.648 16.0099 226.567 16.3011 226.57 16.6307C226.567 16.9432 226.642 17.2159 226.795 17.4489C226.952 17.6818 227.175 17.8622 227.464 17.9901C227.754 18.1179 228.098 18.1818 228.496 18.1818ZM228.496 14.0398C228.808 14.0398 229.085 13.9773 229.327 13.8523C229.571 13.7273 229.763 13.5526 229.902 13.3281C230.041 13.1037 230.112 12.8409 230.115 12.5398C230.112 12.2443 230.043 11.9872 229.906 11.7685C229.77 11.5469 229.581 11.3764 229.339 11.2571C229.098 11.1349 228.817 11.0739 228.496 11.0739C228.169 11.0739 227.884 11.1349 227.639 11.2571C227.395 11.3764 227.206 11.5469 227.072 11.7685C226.939 11.9872 226.874 12.2443 226.876 12.5398C226.874 12.8409 226.94 13.1037 227.077 13.3281C227.216 13.5526 227.408 13.7273 227.652 13.8523C227.896 13.9773 228.178 14.0398 228.496 14.0398ZM233.248 10.2727H234.51L237.475 17.517H237.578L240.544 10.2727H241.805V19H240.816V12.3693H240.731L238.004 19H237.049L234.322 12.3693H234.237V19H233.248V10.2727Z" fill="#667185"/>
<rect x="294.898" y="0.5" width="33" height="28" rx="7.5" fill="#E8F7E6"/>
<rect x="294.898" y="0.5" width="33" height="28" rx="7.5" stroke="#139D06"/>
<path d="M310.097 10.2727V19H309.04V11.8068H308.972C308.933 11.8864 308.83 11.9773 308.665 12.0795C308.501 12.179 308.288 12.267 308.026 12.3438C307.765 12.4176 307.467 12.4545 307.131 12.4545V11.5682C307.469 11.5682 307.762 11.5071 308.009 11.3849C308.256 11.2628 308.462 11.1193 308.627 10.9545C308.795 10.7898 308.921 10.6406 309.006 10.5071C309.094 10.3736 309.146 10.2955 309.16 10.2727H310.097ZM312.002 10.2727H313.212L315.633 14.3466H315.735L318.156 10.2727H319.366L316.212 15.4034V19H315.156V15.4034L312.002 10.2727Z" fill="#475367"/>
<path d="M380.057 10.2727H381.318L384.284 17.517H384.386L387.352 10.2727H388.614V19H387.625V12.3693H387.54L384.812 19H383.858L381.131 12.3693H381.045V19H380.057V10.2727ZM392.522 19.1534C392.108 19.1534 391.731 19.0753 391.393 18.919C391.055 18.7599 390.787 18.5312 390.588 18.233C390.389 17.9318 390.289 17.5682 390.289 17.142C390.289 16.767 390.363 16.4631 390.511 16.2301C390.659 15.9943 390.856 15.8097 391.103 15.6761C391.35 15.5426 391.623 15.4432 391.922 15.3778C392.223 15.3097 392.525 15.2557 392.829 15.2159C393.227 15.1648 393.549 15.1264 393.797 15.1009C394.047 15.0724 394.228 15.0256 394.342 14.9602C394.458 14.8949 394.517 14.7812 394.517 14.6193V14.5852C394.517 14.1648 394.402 13.8381 394.172 13.6051C393.944 13.3722 393.599 13.2557 393.136 13.2557C392.656 13.2557 392.279 13.3608 392.007 13.571C391.734 13.7812 391.542 14.0057 391.431 14.2443L390.477 13.9034C390.647 13.5057 390.875 13.196 391.159 12.9744C391.446 12.75 391.758 12.5937 392.096 12.5057C392.437 12.4148 392.772 12.3693 393.102 12.3693C393.312 12.3693 393.554 12.3949 393.826 12.446C394.102 12.4943 394.368 12.5952 394.623 12.7486C394.882 12.902 395.096 13.1335 395.267 13.4432C395.437 13.7528 395.522 14.1676 395.522 14.6875V19H394.517V18.1136H394.466C394.397 18.2557 394.284 18.4077 394.125 18.5696C393.966 18.7315 393.754 18.8693 393.49 18.983C393.225 19.0966 392.903 19.1534 392.522 19.1534ZM392.676 18.25C393.074 18.25 393.409 18.1719 393.681 18.0156C393.957 17.8594 394.164 17.6577 394.304 17.4105C394.446 17.1634 394.517 16.9034 394.517 16.6307V15.7102C394.474 15.7614 394.38 15.8082 394.235 15.8509C394.093 15.8906 393.929 15.9261 393.741 15.9574C393.556 15.9858 393.376 16.0114 393.2 16.0341C393.027 16.054 392.886 16.071 392.778 16.0852C392.517 16.1193 392.272 16.1747 392.045 16.2514C391.821 16.3253 391.639 16.4375 391.5 16.5881C391.363 16.7358 391.295 16.9375 391.295 17.1932C391.295 17.5426 391.424 17.8068 391.683 17.9858C391.944 18.1619 392.275 18.25 392.676 18.25ZM398.108 12.4545L399.676 15.1307L401.244 12.4545H402.403L400.29 15.7273L402.403 19H401.244L399.676 16.4602L398.108 19H396.949L399.028 15.7273L396.949 12.4545H398.108Z" fill="#667185"/>
<path d="M36.8494 203.461C36.3023 203.461 35.8364 203.312 35.4515 203.014C35.0667 202.714 34.7726 202.28 34.5693 201.711C34.366 201.14 34.2643 200.45 34.2643 199.642C34.2643 198.838 34.366 198.152 34.5693 197.583C34.775 197.012 35.0703 196.576 35.4552 196.276C35.8424 195.973 36.3072 195.822 36.8494 195.822C37.3916 195.822 37.8551 195.973 38.2399 196.276C38.6272 196.576 38.9225 197.012 39.1258 197.583C39.3316 198.152 39.4344 198.838 39.4344 199.642C39.4344 200.45 39.3328 201.14 39.1295 201.711C38.9261 202.28 38.632 202.714 38.2472 203.014C37.8623 203.312 37.3964 203.461 36.8494 203.461ZM36.8494 202.662C37.3916 202.662 37.8127 202.401 38.1129 201.878C38.413 201.355 38.5631 200.61 38.5631 199.642C38.5631 198.998 38.4941 198.449 38.3561 197.997C38.2206 197.544 38.0245 197.199 37.7679 196.962C37.5138 196.725 37.2076 196.606 36.8494 196.606C36.312 196.606 35.8921 196.871 35.5895 197.401C35.2869 197.929 35.1357 198.676 35.1357 199.642C35.1357 200.285 35.2034 200.832 35.339 201.283C35.4745 201.733 35.6694 202.075 35.9235 202.31C36.1801 202.545 36.4887 202.662 36.8494 202.662Z" fill="#475367"/>
<path d="M46.8594 199.859H402.56" stroke="#D0D5DD" stroke-width="0.852008"/>
<path d="M21.8436 175.07V174.417L24.298 171.73C24.586 171.415 24.8232 171.142 25.0096 170.91C25.196 170.675 25.3339 170.454 25.4235 170.249C25.5155 170.041 25.5615 169.823 25.5615 169.595C25.5615 169.334 25.4985 169.107 25.3727 168.916C25.2492 168.725 25.0798 168.577 24.8644 168.473C24.6489 168.369 24.4069 168.317 24.1382 168.317C23.8526 168.317 23.6033 168.376 23.3903 168.495C23.1797 168.611 23.0163 168.775 22.9001 168.985C22.7864 169.196 22.7295 169.443 22.7295 169.726H21.8727C21.8727 169.29 21.9731 168.908 22.174 168.579C22.3749 168.249 22.6484 167.993 22.9945 167.809C23.3431 167.625 23.734 167.533 24.1673 167.533C24.603 167.533 24.989 167.625 25.3255 167.809C25.6619 167.993 25.9257 168.241 26.117 168.553C26.3082 168.865 26.4038 169.213 26.4038 169.595C26.4038 169.869 26.3542 170.136 26.2549 170.398C26.1581 170.657 25.9887 170.946 25.7466 171.265C25.507 171.582 25.1742 171.97 24.7482 172.427L23.0781 174.213V174.272H26.5345V175.07H21.8436ZM30.4593 175.172C29.9123 175.172 29.4463 175.023 29.0615 174.725C28.6766 174.425 28.3825 173.991 28.1792 173.422C27.9759 172.851 27.8742 172.161 27.8742 171.352C27.8742 170.549 27.9759 169.863 28.1792 169.294C28.385 168.723 28.6803 168.287 29.0651 167.987C29.4524 167.684 29.9171 167.533 30.4593 167.533C31.0015 167.533 31.465 167.684 31.8499 167.987C32.2371 168.287 32.5324 168.723 32.7358 169.294C32.9415 169.863 33.0444 170.549 33.0444 171.352C33.0444 172.161 32.9427 172.851 32.7394 173.422C32.5361 173.991 32.242 174.425 31.8571 174.725C31.4723 175.023 31.0063 175.172 30.4593 175.172ZM30.4593 174.373C31.0015 174.373 31.4227 174.112 31.7228 173.589C32.0229 173.066 32.173 172.321 32.173 171.352C32.173 170.709 32.104 170.16 31.9661 169.708C31.8305 169.255 31.6344 168.91 31.3779 168.673C31.1237 168.436 30.8175 168.317 30.4593 168.317C29.922 168.317 29.502 168.582 29.1994 169.112C28.8969 169.64 28.7456 170.387 28.7456 171.352C28.7456 171.996 28.8134 172.543 28.9489 172.994C29.0845 173.444 29.2793 173.786 29.5335 174.021C29.79 174.256 30.0987 174.373 30.4593 174.373ZM36.8494 175.172C36.3023 175.172 35.8364 175.023 35.4515 174.725C35.0667 174.425 34.7726 173.991 34.5693 173.422C34.366 172.851 34.2643 172.161 34.2643 171.352C34.2643 170.549 34.366 169.863 34.5693 169.294C34.775 168.723 35.0703 168.287 35.4552 167.987C35.8424 167.684 36.3072 167.533 36.8494 167.533C37.3916 167.533 37.8551 167.684 38.2399 167.987C38.6272 168.287 38.9225 168.723 39.1258 169.294C39.3316 169.863 39.4344 170.549 39.4344 171.352C39.4344 172.161 39.3328 172.851 39.1295 173.422C38.9261 173.991 38.632 174.425 38.2472 174.725C37.8623 175.023 37.3964 175.172 36.8494 175.172ZM36.8494 174.373C37.3916 174.373 37.8127 174.112 38.1129 173.589C38.413 173.066 38.5631 172.321 38.5631 171.352C38.5631 170.709 38.4941 170.16 38.3561 169.708C38.2206 169.255 38.0245 168.91 37.7679 168.673C37.5138 168.436 37.2076 168.317 36.8494 168.317C36.312 168.317 35.8921 168.582 35.5895 169.112C35.2869 169.64 35.1357 170.387 35.1357 171.352C35.1357 171.996 35.2034 172.543 35.339 172.994C35.4745 173.444 35.6694 173.786 35.9235 174.021C36.1801 174.256 36.4887 174.373 36.8494 174.373Z" fill="#475367"/>
<path d="M46.8594 171.57H402.999" stroke="#D0D5DD" stroke-width="0.852008" stroke-dasharray="3.41 3.41"/>
<path d="M21.2999 145.264V144.523L24.5676 139.353H25.1049V140.501H24.7418L22.2729 144.407V144.465H26.6734V145.264H21.2999ZM24.7999 146.789V145.039V144.694V139.353H25.6568V146.789H24.7999ZM30.4593 146.891C29.9123 146.891 29.4463 146.742 29.0615 146.444C28.6766 146.144 28.3825 145.71 28.1792 145.141C27.9759 144.569 27.8742 143.88 27.8742 143.071C27.8742 142.268 27.9759 141.581 28.1792 141.013C28.385 140.441 28.6803 140.006 29.0651 139.706C29.4524 139.403 29.9171 139.252 30.4593 139.252C31.0015 139.252 31.465 139.403 31.8499 139.706C32.2371 140.006 32.5324 140.441 32.7358 141.013C32.9415 141.581 33.0444 142.268 33.0444 143.071C33.0444 143.88 32.9427 144.569 32.7394 145.141C32.5361 145.71 32.242 146.144 31.8571 146.444C31.4723 146.742 31.0063 146.891 30.4593 146.891ZM30.4593 146.092C31.0015 146.092 31.4227 145.831 31.7228 145.308C32.0229 144.785 32.173 144.039 32.173 143.071C32.173 142.427 32.104 141.879 31.9661 141.426C31.8305 140.974 31.6344 140.629 31.3779 140.392C31.1237 140.155 30.8175 140.036 30.4593 140.036C29.922 140.036 29.502 140.301 29.1994 140.831C28.8969 141.359 28.7456 142.105 28.7456 143.071C28.7456 143.715 28.8134 144.262 28.9489 144.712C29.0845 145.163 29.2793 145.505 29.5335 145.74C29.79 145.975 30.0987 146.092 30.4593 146.092ZM36.8494 146.891C36.3023 146.891 35.8364 146.742 35.4515 146.444C35.0667 146.144 34.7726 145.71 34.5693 145.141C34.366 144.569 34.2643 143.88 34.2643 143.071C34.2643 142.268 34.366 141.581 34.5693 141.013C34.775 140.441 35.0703 140.006 35.4552 139.706C35.8424 139.403 36.3072 139.252 36.8494 139.252C37.3916 139.252 37.8551 139.403 38.2399 139.706C38.6272 140.006 38.9225 140.441 39.1258 141.013C39.3316 141.581 39.4344 142.268 39.4344 143.071C39.4344 143.88 39.3328 144.569 39.1295 145.141C38.9261 145.71 38.632 146.144 38.2472 146.444C37.8623 146.742 37.3964 146.891 36.8494 146.891ZM36.8494 146.092C37.3916 146.092 37.8127 145.831 38.1129 145.308C38.413 144.785 38.5631 144.039 38.5631 143.071C38.5631 142.427 38.4941 141.879 38.3561 141.426C38.2206 140.974 38.0245 140.629 37.7679 140.392C37.5138 140.155 37.2076 140.036 36.8494 140.036C36.312 140.036 35.8921 140.301 35.5895 140.831C35.2869 141.359 35.1357 142.105 35.1357 143.071C35.1357 143.715 35.2034 144.262 35.339 144.712C35.4745 145.163 35.6694 145.505 35.9235 145.74C36.1801 145.975 36.4887 146.092 36.8494 146.092Z" fill="#475367"/>
<path d="M46.8594 143.289H402.999" stroke="#D0D5DD" stroke-width="0.852008" stroke-dasharray="3.41 3.41"/>
<path d="M21.9888 116.155C21.9937 115.923 22.0288 115.682 22.0941 115.433C22.1595 115.183 22.2696 114.906 22.4245 114.601C22.5794 114.296 22.7924 113.943 23.0635 113.541L24.7337 111.072H25.7212L23.7606 113.933C23.8478 113.904 23.9373 113.88 24.0293 113.86C24.1237 113.841 24.2181 113.831 24.3125 113.831C24.7627 113.831 25.1645 113.936 25.5179 114.144C25.8737 114.352 26.1533 114.636 26.3566 114.997C26.5623 115.358 26.6652 115.768 26.6652 116.228C26.6652 116.688 26.5635 117.097 26.3602 117.455C26.1593 117.813 25.8822 118.095 25.5288 118.301C25.1778 118.507 24.7772 118.609 24.327 118.609C23.872 118.609 23.4678 118.504 23.1144 118.294C22.761 118.081 22.4838 117.79 22.2829 117.422C22.082 117.052 21.984 116.63 21.9888 116.155ZM22.8457 116.213C22.8457 116.528 22.9086 116.806 23.0345 117.048C23.1603 117.29 23.3346 117.48 23.5573 117.618C23.78 117.756 24.0366 117.825 24.327 117.825C24.6175 117.825 24.874 117.757 25.0967 117.622C25.3194 117.484 25.4937 117.295 25.6196 117.056C25.7454 116.813 25.8084 116.538 25.8084 116.228C25.8084 115.913 25.7454 115.636 25.6196 115.396C25.4937 115.157 25.3194 114.969 25.0967 114.834C24.874 114.698 24.6175 114.63 24.327 114.63C24.0366 114.63 23.78 114.698 23.5573 114.834C23.3346 114.967 23.1603 115.153 23.0345 115.393C22.9086 115.63 22.8457 115.903 22.8457 116.213ZM30.4593 118.609C29.9123 118.609 29.4463 118.461 29.0615 118.163C28.6766 117.863 28.3825 117.428 28.1792 116.859C27.9759 116.288 27.8742 115.598 27.8742 114.79C27.8742 113.986 27.9759 113.3 28.1792 112.731C28.385 112.16 28.6803 111.724 29.0651 111.424C29.4524 111.122 29.9171 110.97 30.4593 110.97C31.0015 110.97 31.465 111.122 31.8499 111.424C32.2371 111.724 32.5324 112.16 32.7358 112.731C32.9415 113.3 33.0444 113.986 33.0444 114.79C33.0444 115.598 32.9427 116.288 32.7394 116.859C32.5361 117.428 32.242 117.863 31.8571 118.163C31.4723 118.461 31.0063 118.609 30.4593 118.609ZM30.4593 117.811C31.0015 117.811 31.4227 117.549 31.7228 117.026C32.0229 116.504 32.173 115.758 32.173 114.79C32.173 114.146 32.104 113.598 31.9661 113.145C31.8305 112.693 31.6344 112.348 31.3779 112.11C31.1237 111.873 30.8175 111.755 30.4593 111.755C29.922 111.755 29.502 112.02 29.1994 112.55C28.8969 113.077 28.7456 113.824 28.7456 114.79C28.7456 115.434 28.8134 115.981 28.9489 116.431C29.0845 116.881 29.2793 117.224 29.5335 117.459C29.79 117.693 30.0987 117.811 30.4593 117.811ZM36.8494 118.609C36.3023 118.609 35.8364 118.461 35.4515 118.163C35.0667 117.863 34.7726 117.428 34.5693 116.859C34.366 116.288 34.2643 115.598 34.2643 114.79C34.2643 113.986 34.366 113.3 34.5693 112.731C34.775 112.16 35.0703 111.724 35.4552 111.424C35.8424 111.122 36.3072 110.97 36.8494 110.97C37.3916 110.97 37.8551 111.122 38.2399 111.424C38.6272 111.724 38.9225 112.16 39.1258 112.731C39.3316 113.3 39.4344 113.986 39.4344 114.79C39.4344 115.598 39.3328 116.288 39.1295 116.859C38.9261 117.428 38.632 117.863 38.2472 118.163C37.8623 118.461 37.3964 118.609 36.8494 118.609ZM36.8494 117.811C37.3916 117.811 37.8127 117.549 38.1129 117.026C38.413 116.504 38.5631 115.758 38.5631 114.79C38.5631 114.146 38.4941 113.598 38.3561 113.145C38.2206 112.693 38.0245 112.348 37.7679 112.11C37.5138 111.873 37.2076 111.755 36.8494 111.755C36.312 111.755 35.8921 112.02 35.5895 112.55C35.2869 113.077 35.1357 113.824 35.1357 114.79C35.1357 115.434 35.2034 115.981 35.339 116.431C35.4745 116.881 35.6694 117.224 35.9235 117.459C36.1801 117.693 36.4887 117.811 36.8494 117.811Z" fill="#475367"/>
<path d="M46.8594 115.008H402.999" stroke="#D0D5DD" stroke-width="0.852008" stroke-dasharray="3.41 3.41"/>
<path d="M24.1155 90.3204C23.6169 90.3204 23.1764 90.2321 22.794 90.0554C22.4139 89.8763 22.1174 89.6306 21.9044 89.3183C21.6914 89.0037 21.5861 88.6454 21.5886 88.2436C21.5861 87.929 21.6479 87.6385 21.7737 87.3723C21.8996 87.1036 22.0714 86.8797 22.2893 86.7006C22.5095 86.519 22.7552 86.4041 23.0263 86.3557V86.3121C22.6705 86.2201 22.3873 86.0204 22.1767 85.713C21.9661 85.4032 21.8621 85.051 21.8645 84.6565C21.8621 84.2789 21.9577 83.9412 22.1513 83.6435C22.345 83.3458 22.6112 83.111 22.9501 82.9392C23.2914 82.7673 23.6798 82.6814 24.1155 82.6814C24.5464 82.6814 24.9312 82.7673 25.2701 82.9392C25.609 83.111 25.8752 83.3458 26.0689 83.6435C26.2649 83.9412 26.3642 84.2789 26.3666 84.6565C26.3642 85.051 26.2564 85.4032 26.0434 85.713C25.8329 86.0204 25.5533 86.2201 25.2047 86.3121V86.3557C25.4734 86.4041 25.7155 86.519 25.9309 86.7006C26.1463 86.8797 26.3182 87.1036 26.4465 87.3723C26.5747 87.6385 26.6401 87.929 26.6425 88.2436C26.6401 88.6454 26.5312 89.0037 26.3157 89.3183C26.1027 89.6306 25.8062 89.8763 25.4262 90.0554C25.0486 90.2321 24.6117 90.3204 24.1155 90.3204ZM24.1155 89.5217C24.452 89.5217 24.7424 89.4672 24.9869 89.3583C25.2314 89.2493 25.4202 89.0956 25.5533 88.8972C25.6864 88.6987 25.7542 88.4663 25.7566 88.2001C25.7542 87.9193 25.6816 87.6712 25.5388 87.4558C25.396 87.2404 25.2011 87.0709 24.9542 86.9475C24.7098 86.824 24.4302 86.7623 24.1155 86.7623C23.7984 86.7623 23.5153 86.824 23.2659 86.9475C23.0191 87.0709 22.8242 87.2404 22.6814 87.4558C22.541 87.6712 22.472 87.9193 22.4744 88.2001C22.472 88.4663 22.5362 88.6987 22.6669 88.8972C22.8 89.0956 22.99 89.2493 23.2369 89.3583C23.4838 89.4672 23.7767 89.5217 24.1155 89.5217ZM24.1155 85.9926C24.3818 85.9926 24.6178 85.9393 24.8235 85.8328C25.0317 85.7263 25.1951 85.5775 25.3137 85.3863C25.4323 85.195 25.4928 84.9712 25.4952 84.7146C25.4928 84.4629 25.4335 84.2438 25.3173 84.0574C25.2011 83.8686 25.0402 83.7234 24.8344 83.6217C24.6287 83.5177 24.389 83.4656 24.1155 83.4656C23.8372 83.4656 23.5939 83.5177 23.3858 83.6217C23.1776 83.7234 23.0166 83.8686 22.9029 84.0574C22.7891 84.2438 22.7334 84.4629 22.7359 84.7146C22.7334 84.9712 22.7903 85.195 22.9065 85.3863C23.0251 85.5775 23.1885 85.7263 23.3967 85.8328C23.6048 85.9393 23.8444 85.9926 24.1155 85.9926ZM30.4593 90.3204C29.9123 90.3204 29.4463 90.1716 29.0615 89.8738C28.6766 89.5737 28.3825 89.1392 28.1792 88.5704C27.9759 87.9992 27.8742 87.3093 27.8742 86.5009C27.8742 85.6973 27.9759 85.0111 28.1792 84.4423C28.385 83.871 28.6803 83.4354 29.0651 83.1352C29.4524 82.8327 29.9171 82.6814 30.4593 82.6814C31.0015 82.6814 31.465 82.8327 31.8499 83.1352C32.2371 83.4354 32.5324 83.871 32.7358 84.4423C32.9415 85.0111 33.0444 85.6973 33.0444 86.5009C33.0444 87.3093 32.9427 87.9992 32.7394 88.5704C32.5361 89.1392 32.242 89.5737 31.8571 89.8738C31.4723 90.1716 31.0063 90.3204 30.4593 90.3204ZM30.4593 89.5217C31.0015 89.5217 31.4227 89.2602 31.7228 88.7374C32.0229 88.2146 32.173 87.4691 32.173 86.5009C32.173 85.857 32.104 85.3088 31.9661 84.8562C31.8305 84.4035 31.6344 84.0586 31.3779 83.8214C31.1237 83.5842 30.8175 83.4656 30.4593 83.4656C29.922 83.4656 29.502 83.7307 29.1994 84.2607C28.8969 84.7884 28.7456 85.5351 28.7456 86.5009C28.7456 87.1447 28.8134 87.6918 28.9489 88.142C29.0845 88.5922 29.2793 88.9347 29.5335 89.1695C29.79 89.4043 30.0987 89.5217 30.4593 89.5217ZM36.8494 90.3204C36.3023 90.3204 35.8364 90.1716 35.4515 89.8738C35.0667 89.5737 34.7726 89.1392 34.5693 88.5704C34.366 87.9992 34.2643 87.3093 34.2643 86.5009C34.2643 85.6973 34.366 85.0111 34.5693 84.4423C34.775 83.871 35.0703 83.4354 35.4552 83.1352C35.8424 82.8327 36.3072 82.6814 36.8494 82.6814C37.3916 82.6814 37.8551 82.8327 38.2399 83.1352C38.6272 83.4354 38.9225 83.871 39.1258 84.4423C39.3316 85.0111 39.4344 85.6973 39.4344 86.5009C39.4344 87.3093 39.3328 87.9992 39.1295 88.5704C38.9261 89.1392 38.632 89.5737 38.2472 89.8738C37.8623 90.1716 37.3964 90.3204 36.8494 90.3204ZM36.8494 89.5217C37.3916 89.5217 37.8127 89.2602 38.1129 88.7374C38.413 88.2146 38.5631 87.4691 38.5631 86.5009C38.5631 85.857 38.4941 85.3088 38.3561 84.8562C38.2206 84.4035 38.0245 84.0586 37.7679 83.8214C37.5138 83.5842 37.2076 83.4656 36.8494 83.4656C36.312 83.4656 35.8921 83.7307 35.5895 84.2607C35.2869 84.7884 35.1357 85.5351 35.1357 86.5009C35.1357 87.1447 35.2034 87.6918 35.339 88.142C35.4745 88.5922 35.6694 88.9347 35.9235 89.1695C36.1801 89.4043 36.4887 89.5217 36.8494 89.5217Z" fill="#475367"/>
<path d="M46.8594 86.7188H402.999" stroke="#D0D5DD" stroke-width="0.852008" stroke-dasharray="3.41 3.41"/>
<path d="M17.3461 54.5018V61.9375H16.4456V55.8088H16.3875C16.3537 55.8766 16.2665 55.9541 16.1261 56.0412C15.9857 56.1259 15.8042 56.201 15.5815 56.2663C15.3588 56.3293 15.1047 56.3607 14.8191 56.3607V55.6055C15.1071 55.6055 15.3564 55.5535 15.567 55.4494C15.7776 55.3453 15.9531 55.2231 16.0935 55.0827C16.2363 54.9423 16.344 54.8152 16.4166 54.7015C16.4916 54.5877 16.5352 54.5212 16.5473 54.5018H17.3461ZM20.3305 60.9209L20.2724 61.313C20.2313 61.589 20.1683 61.8842 20.0836 62.1989C20.0013 62.5136 19.9154 62.8101 19.8258 63.0884C19.7363 63.3668 19.6625 63.5883 19.6044 63.7529H18.9508C18.9823 63.5979 19.0235 63.3934 19.0743 63.1393C19.1251 62.8851 19.1759 62.6007 19.2268 62.286C19.28 61.9738 19.3236 61.6543 19.3575 61.3275L19.401 60.9209H20.3305ZM24.0692 62.0392C23.5222 62.0392 23.0563 61.8903 22.6714 61.5926C22.2866 61.2924 21.9925 60.858 21.7891 60.2892C21.5858 59.7179 21.4842 59.0281 21.4842 58.2196C21.4842 57.416 21.5858 56.7298 21.7891 56.161C21.9949 55.5898 22.2902 55.1541 22.675 54.854C23.0623 54.5514 23.5271 54.4001 24.0692 54.4001C24.6114 54.4001 25.0749 54.5514 25.4598 54.854C25.8471 55.1541 26.1424 55.5898 26.3457 56.161C26.5514 56.7298 26.6543 57.416 26.6543 58.2196C26.6543 59.0281 26.5527 59.7179 26.3493 60.2892C26.146 60.858 25.8519 61.2924 25.4671 61.5926C25.0822 61.8903 24.6163 62.0392 24.0692 62.0392ZM24.0692 61.2404C24.6114 61.2404 25.0326 60.979 25.3327 60.4562C25.6329 59.9333 25.7829 59.1878 25.7829 58.2196C25.7829 57.5758 25.714 57.0276 25.576 56.5749C25.4404 56.1223 25.2444 55.7774 24.9878 55.5402C24.7337 55.303 24.4275 55.1844 24.0692 55.1844C23.5319 55.1844 23.1119 55.4494 22.8094 55.9795C22.5068 56.5072 22.3555 57.2539 22.3555 58.2196C22.3555 58.8635 22.4233 59.4105 22.5589 59.8607C22.6944 60.3109 22.8893 60.6534 23.1434 60.8882C23.4 61.123 23.7086 61.2404 24.0692 61.2404ZM30.4593 62.0392C29.9123 62.0392 29.4463 61.8903 29.0615 61.5926C28.6766 61.2924 28.3825 60.858 28.1792 60.2892C27.9759 59.7179 27.8742 59.0281 27.8742 58.2196C27.8742 57.416 27.9759 56.7298 28.1792 56.161C28.385 55.5898 28.6803 55.1541 29.0651 54.854C29.4524 54.5514 29.9171 54.4001 30.4593 54.4001C31.0015 54.4001 31.465 54.5514 31.8499 54.854C32.2371 55.1541 32.5324 55.5898 32.7358 56.161C32.9415 56.7298 33.0444 57.416 33.0444 58.2196C33.0444 59.0281 32.9427 59.7179 32.7394 60.2892C32.5361 60.858 32.242 61.2924 31.8571 61.5926C31.4723 61.8903 31.0063 62.0392 30.4593 62.0392ZM30.4593 61.2404C31.0015 61.2404 31.4227 60.979 31.7228 60.4562C32.0229 59.9333 32.173 59.1878 32.173 58.2196C32.173 57.5758 32.104 57.0276 31.9661 56.5749C31.8305 56.1223 31.6344 55.7774 31.3779 55.5402C31.1237 55.303 30.8175 55.1844 30.4593 55.1844C29.922 55.1844 29.502 55.4494 29.1994 55.9795C28.8969 56.5072 28.7456 57.2539 28.7456 58.2196C28.7456 58.8635 28.8134 59.4105 28.9489 59.8607C29.0845 60.3109 29.2793 60.6534 29.5335 60.8882C29.79 61.123 30.0987 61.2404 30.4593 61.2404ZM36.8494 62.0392C36.3023 62.0392 35.8364 61.8903 35.4515 61.5926C35.0667 61.2924 34.7726 60.858 34.5693 60.2892C34.366 59.7179 34.2643 59.0281 34.2643 58.2196C34.2643 57.416 34.366 56.7298 34.5693 56.161C34.775 55.5898 35.0703 55.1541 35.4552 54.854C35.8424 54.5514 36.3072 54.4001 36.8494 54.4001C37.3916 54.4001 37.8551 54.5514 38.2399 54.854C38.6272 55.1541 38.9225 55.5898 39.1258 56.161C39.3316 56.7298 39.4344 57.416 39.4344 58.2196C39.4344 59.0281 39.3328 59.7179 39.1295 60.2892C38.9261 60.858 38.632 61.2924 38.2472 61.5926C37.8623 61.8903 37.3964 62.0392 36.8494 62.0392ZM36.8494 61.2404C37.3916 61.2404 37.8127 60.979 38.1129 60.4562C38.413 59.9333 38.5631 59.1878 38.5631 58.2196C38.5631 57.5758 38.4941 57.0276 38.3561 56.5749C38.2206 56.1223 38.0245 55.7774 37.7679 55.5402C37.5138 55.303 37.2076 55.1844 36.8494 55.1844C36.312 55.1844 35.8921 55.4494 35.5895 55.9795C35.2869 56.5072 35.1357 57.2539 35.1357 58.2196C35.1357 58.8635 35.2034 59.4105 35.339 59.8607C35.4745 60.3109 35.6694 60.6534 35.9235 60.8882C36.1801 61.123 36.4887 61.2404 36.8494 61.2404Z" fill="#475367"/>
<path d="M46.8594 58.4375H402.999" stroke="#D0D5DD" stroke-width="0.852008" stroke-dasharray="3.41 3.41"/>
<path d="M54.8669 204.127V211.562H53.9665V205.071H53.9229L52.1076 206.276V205.361L53.9665 204.127H54.8669Z" fill="#98A2B3"/>
<path d="M81.8933 211.562V210.909L84.3476 208.222C84.6357 207.908 84.8729 207.634 85.0593 207.402C85.2456 207.167 85.3836 206.947 85.4732 206.741C85.5651 206.533 85.6111 206.315 85.6111 206.087C85.6111 205.826 85.5482 205.6 85.4223 205.408C85.2989 205.217 85.1295 205.07 84.914 204.965C84.6986 204.861 84.4566 204.809 84.1879 204.809C83.9023 204.809 83.653 204.869 83.44 204.987C83.2294 205.103 83.066 205.267 82.9498 205.477C82.8361 205.688 82.7792 205.935 82.7792 206.218H81.9223C81.9223 205.782 82.0228 205.4 82.2237 205.071C82.4246 204.742 82.6981 204.485 83.0442 204.301C83.3928 204.117 83.7837 204.025 84.2169 204.025C84.6526 204.025 85.0387 204.117 85.3751 204.301C85.7116 204.485 85.9754 204.733 86.1666 205.045C86.3578 205.358 86.4535 205.705 86.4535 206.087C86.4535 206.361 86.4038 206.628 86.3046 206.89C86.2078 207.149 86.0383 207.438 85.7963 207.758C85.5567 208.075 85.2239 208.462 84.7978 208.919L83.1277 210.706V210.764H86.5842V211.562H81.8933Z" fill="#98A2B3"/>
<path d="M114.605 211.664C114.126 211.664 113.699 211.582 113.324 211.417C112.951 211.253 112.654 211.024 112.434 210.731C112.216 210.436 112.098 210.093 112.078 209.704H112.993C113.013 209.943 113.095 210.15 113.24 210.324C113.385 210.496 113.575 210.629 113.81 210.724C114.045 210.818 114.305 210.865 114.591 210.865C114.91 210.865 115.194 210.81 115.44 210.698C115.687 210.587 115.881 210.432 116.021 210.234C116.162 210.035 116.232 209.805 116.232 209.544C116.232 209.27 116.164 209.029 116.029 208.821C115.893 208.611 115.695 208.446 115.433 208.328C115.172 208.209 114.852 208.15 114.475 208.15H113.879V207.351H114.475C114.77 207.351 115.029 207.298 115.252 207.191C115.477 207.085 115.652 206.935 115.778 206.741C115.906 206.547 115.971 206.32 115.971 206.058C115.971 205.807 115.915 205.588 115.803 205.401C115.692 205.215 115.535 205.07 115.331 204.965C115.131 204.861 114.893 204.809 114.62 204.809C114.363 204.809 114.121 204.857 113.894 204.951C113.669 205.043 113.485 205.177 113.342 205.354C113.199 205.528 113.122 205.739 113.109 205.986H112.238C112.253 205.596 112.37 205.255 112.59 204.962C112.811 204.667 113.099 204.437 113.454 204.272C113.813 204.107 114.206 204.025 114.634 204.025C115.094 204.025 115.489 204.118 115.818 204.305C116.147 204.489 116.4 204.732 116.577 205.034C116.754 205.337 116.842 205.664 116.842 206.015C116.842 206.434 116.732 206.791 116.511 207.086C116.294 207.381 115.997 207.586 115.622 207.699V207.758C116.092 207.835 116.458 208.035 116.722 208.357C116.986 208.676 117.118 209.072 117.118 209.544C117.118 209.948 117.008 210.311 116.787 210.633C116.57 210.953 116.272 211.204 115.894 211.388C115.517 211.572 115.087 211.664 114.605 211.664Z" fill="#98A2B3"/>
<path d="M142.253 210.038V209.297L145.521 204.127H146.058V205.274H145.695L143.226 209.181V209.239H147.627V210.038H142.253ZM145.753 211.562V209.812V209.468V204.127H146.61V211.562H145.753Z" fill="#98A2B3"/>
<path d="M175.28 211.664C174.854 211.664 174.47 211.579 174.129 211.41C173.788 211.241 173.514 211.008 173.309 210.713C173.103 210.418 172.99 210.081 172.971 209.704H173.842C173.876 210.04 174.029 210.318 174.3 210.539C174.573 210.756 174.9 210.865 175.28 210.865C175.585 210.865 175.856 210.794 176.093 210.651C176.333 210.508 176.521 210.312 176.656 210.063C176.794 209.811 176.863 209.527 176.863 209.21C176.863 208.885 176.792 208.596 176.649 208.342C176.508 208.085 176.315 207.883 176.068 207.736C175.821 207.588 175.539 207.513 175.222 207.511C174.994 207.508 174.761 207.543 174.521 207.616C174.282 207.686 174.084 207.777 173.929 207.888L173.087 207.787L173.537 204.127H177.4V204.926H174.293L174.031 207.119H174.075C174.227 206.997 174.418 206.897 174.648 206.817C174.878 206.737 175.118 206.697 175.367 206.697C175.822 206.697 176.228 206.806 176.584 207.024C176.942 207.24 177.223 207.535 177.426 207.91C177.632 208.285 177.734 208.714 177.734 209.195C177.734 209.67 177.628 210.093 177.415 210.466C177.204 210.836 176.914 211.129 176.544 211.345C176.173 211.558 175.752 211.664 175.28 211.664Z" fill="#98A2B3"/>
<path d="M205.705 211.664C205.4 211.659 205.095 211.601 204.79 211.49C204.485 211.379 204.207 211.191 203.955 210.927C203.703 210.661 203.501 210.301 203.348 209.849C203.196 209.394 203.12 208.823 203.12 208.135C203.12 207.477 203.181 206.893 203.305 206.385C203.428 205.874 203.607 205.445 203.842 205.096C204.077 204.745 204.36 204.479 204.692 204.297C205.026 204.116 205.402 204.025 205.821 204.025C206.237 204.025 206.608 204.109 206.932 204.276C207.259 204.44 207.525 204.67 207.731 204.965C207.936 205.261 208.07 205.601 208.13 205.986H207.244C207.162 205.652 207.002 205.375 206.765 205.154C206.528 204.934 206.213 204.824 205.821 204.824C205.245 204.824 204.791 205.074 204.459 205.575C204.13 206.076 203.964 206.78 203.962 207.685H204.02C204.156 207.479 204.317 207.304 204.503 207.158C204.692 207.011 204.9 206.897 205.128 206.817C205.355 206.737 205.596 206.697 205.85 206.697C206.276 206.697 206.666 206.804 207.019 207.017C207.373 207.227 207.656 207.519 207.869 207.892C208.082 208.262 208.188 208.687 208.188 209.166C208.188 209.626 208.085 210.047 207.88 210.43C207.674 210.81 207.385 211.112 207.012 211.337C206.642 211.56 206.206 211.669 205.705 211.664ZM205.705 210.865C206.01 210.865 206.283 210.789 206.525 210.637C206.77 210.484 206.962 210.28 207.103 210.023C207.245 209.767 207.317 209.481 207.317 209.166C207.317 208.859 207.248 208.579 207.11 208.328C206.974 208.073 206.787 207.871 206.547 207.721C206.31 207.571 206.039 207.496 205.734 207.496C205.504 207.496 205.29 207.542 205.091 207.634C204.893 207.724 204.718 207.847 204.568 208.004C204.421 208.162 204.305 208.342 204.22 208.545C204.135 208.746 204.093 208.958 204.093 209.181C204.093 209.476 204.162 209.752 204.3 210.009C204.44 210.265 204.631 210.472 204.873 210.629C205.118 210.787 205.395 210.865 205.705 210.865Z" fill="#98A2B3"/>
<path d="M234.097 211.562L237.423 204.984V204.926H233.589V204.127H238.352V204.969L235.041 211.562H234.097Z" fill="#98A2B3"/>
<path d="M266.376 211.664C265.878 211.664 265.437 211.576 265.055 211.399C264.675 211.22 264.378 210.974 264.165 210.662C263.952 210.347 263.847 209.989 263.849 209.587C263.847 209.273 263.909 208.982 264.035 208.716C264.16 208.447 264.332 208.223 264.55 208.044C264.77 207.863 265.016 207.748 265.287 207.699V207.656C264.931 207.564 264.648 207.364 264.438 207.057C264.227 206.747 264.123 206.395 264.125 206C264.123 205.623 264.219 205.285 264.412 204.987C264.606 204.69 264.872 204.455 265.211 204.283C265.552 204.111 265.941 204.025 266.376 204.025C266.807 204.025 267.192 204.111 267.531 204.283C267.87 204.455 268.136 204.69 268.33 204.987C268.526 205.285 268.625 205.623 268.627 206C268.625 206.395 268.517 206.747 268.304 207.057C268.094 207.364 267.814 207.564 267.466 207.656V207.699C267.734 207.748 267.976 207.863 268.192 208.044C268.407 208.223 268.579 208.447 268.707 208.716C268.836 208.982 268.901 209.273 268.903 209.587C268.901 209.989 268.792 210.347 268.577 210.662C268.364 210.974 268.067 211.22 267.687 211.399C267.309 211.576 266.873 211.664 266.376 211.664ZM266.376 210.865C266.713 210.865 267.003 210.811 267.248 210.702C267.492 210.593 267.681 210.439 267.814 210.241C267.947 210.042 268.015 209.81 268.017 209.544C268.015 209.263 267.942 209.015 267.8 208.8C267.657 208.584 267.462 208.415 267.215 208.291C266.971 208.168 266.691 208.106 266.376 208.106C266.059 208.106 265.776 208.168 265.527 208.291C265.28 208.415 265.085 208.584 264.942 208.8C264.802 209.015 264.733 209.263 264.735 209.544C264.733 209.81 264.797 210.042 264.928 210.241C265.061 210.439 265.251 210.593 265.498 210.702C265.745 210.811 266.037 210.865 266.376 210.865ZM266.376 207.336C266.643 207.336 266.879 207.283 267.084 207.177C267.293 207.07 267.456 206.921 267.574 206.73C267.693 206.539 267.754 206.315 267.756 206.058C267.754 205.807 267.694 205.588 267.578 205.401C267.462 205.212 267.301 205.067 267.095 204.965C266.89 204.861 266.65 204.809 266.376 204.809C266.098 204.809 265.855 204.861 265.647 204.965C265.438 205.067 265.277 205.212 265.164 205.401C265.05 205.588 264.994 205.807 264.997 206.058C264.994 206.315 265.051 206.539 265.167 206.73C265.286 206.921 265.449 207.07 265.657 207.177C265.866 207.283 266.105 207.336 266.376 207.336Z" fill="#98A2B3"/>
<path d="M296.681 204.025C296.986 204.028 297.291 204.086 297.596 204.199C297.901 204.313 298.18 204.502 298.431 204.766C298.683 205.027 298.885 205.384 299.038 205.837C299.19 206.289 299.266 206.857 299.266 207.54C299.266 208.2 299.203 208.787 299.078 209.301C298.954 209.811 298.775 210.242 298.54 210.593C298.308 210.944 298.025 211.21 297.691 211.392C297.359 211.573 296.984 211.664 296.565 211.664C296.149 211.664 295.777 211.582 295.45 211.417C295.126 211.25 294.86 211.019 294.652 210.724C294.446 210.426 294.314 210.081 294.256 209.689H295.142C295.222 210.03 295.38 210.312 295.617 210.535C295.857 210.755 296.173 210.865 296.565 210.865C297.139 210.865 297.591 210.615 297.923 210.114C298.257 209.613 298.424 208.905 298.424 207.99H298.366C298.23 208.193 298.069 208.369 297.883 208.516C297.697 208.664 297.49 208.778 297.262 208.858C297.035 208.937 296.793 208.977 296.536 208.977C296.11 208.977 295.719 208.872 295.363 208.662C295.01 208.449 294.727 208.157 294.514 207.787C294.303 207.414 294.198 206.988 294.198 206.509C294.198 206.053 294.3 205.637 294.503 205.26C294.709 204.88 294.997 204.577 295.367 204.352C295.74 204.127 296.178 204.018 296.681 204.025ZM296.681 204.824C296.376 204.824 296.102 204.9 295.857 205.053C295.615 205.203 295.423 205.406 295.28 205.663C295.139 205.917 295.069 206.199 295.069 206.509C295.069 206.818 295.137 207.1 295.273 207.354C295.411 207.606 295.598 207.807 295.835 207.957C296.075 208.105 296.347 208.179 296.652 208.179C296.882 208.179 297.096 208.134 297.295 208.044C297.493 207.952 297.666 207.828 297.814 207.67C297.964 207.511 298.082 207.33 298.166 207.129C298.251 206.926 298.293 206.714 298.293 206.494C298.293 206.204 298.223 205.931 298.083 205.677C297.945 205.423 297.754 205.217 297.509 205.06C297.267 204.903 296.991 204.824 296.681 204.824Z" fill="#98A2B3"/>
<path d="M324.906 204.127V211.562H324.006V205.071H323.962L322.147 206.276V205.361L324.006 204.127H324.906ZM329.47 211.664C328.923 211.664 328.457 211.515 328.072 211.218C327.687 210.917 327.393 210.483 327.19 209.914C326.987 209.343 326.885 208.653 326.885 207.845C326.885 207.041 326.987 206.355 327.19 205.786C327.396 205.215 327.691 204.779 328.076 204.479C328.463 204.176 328.928 204.025 329.47 204.025C330.012 204.025 330.476 204.176 330.861 204.479C331.248 204.779 331.543 205.215 331.747 205.786C331.952 206.355 332.055 207.041 332.055 207.845C332.055 208.653 331.953 209.343 331.75 209.914C331.547 210.483 331.253 210.917 330.868 211.218C330.483 211.515 330.017 211.664 329.47 211.664ZM329.47 210.865C330.012 210.865 330.433 210.604 330.734 210.081C331.034 209.558 331.184 208.813 331.184 207.845C331.184 207.201 331.115 206.653 330.977 206.2C330.841 205.747 330.645 205.402 330.389 205.165C330.134 204.928 329.828 204.809 329.47 204.809C328.933 204.809 328.513 205.074 328.21 205.604C327.908 206.132 327.756 206.879 327.756 207.845C327.756 208.488 327.824 209.036 327.96 209.486C328.095 209.936 328.29 210.278 328.544 210.513C328.801 210.748 329.109 210.865 329.47 210.865Z" fill="#98A2B3"/>
<path d="M356.092 204.127V211.562H355.192V205.071H355.148L353.333 206.276V205.361L355.192 204.127H356.092ZM360.845 204.127V211.562H359.944V205.071H359.901L358.085 206.276V205.361L359.944 204.127H360.845Z" fill="#98A2B3"/>
<path d="M385.733 204.127V211.562H384.832V205.071H384.789L382.973 206.276V205.361L384.832 204.127H385.733ZM387.871 211.562V210.909L390.326 208.222C390.614 207.908 390.851 207.634 391.037 207.402C391.224 207.167 391.361 206.947 391.451 206.741C391.543 206.533 391.589 206.315 391.589 206.087C391.589 205.826 391.526 205.6 391.4 205.408C391.277 205.217 391.107 205.07 390.892 204.965C390.676 204.861 390.434 204.809 390.166 204.809C389.88 204.809 389.631 204.869 389.418 204.987C389.207 205.103 389.044 205.267 388.928 205.477C388.814 205.688 388.757 205.935 388.757 206.218H387.9C387.9 205.782 388.001 205.4 388.202 205.071C388.402 204.742 388.676 204.485 389.022 204.301C389.371 204.117 389.762 204.025 390.195 204.025C390.63 204.025 391.017 204.117 391.353 204.301C391.689 204.485 391.953 204.733 392.144 205.045C392.336 205.358 392.431 205.705 392.431 206.087C392.431 206.361 392.382 206.628 392.282 206.89C392.186 207.149 392.016 207.438 391.774 207.758C391.535 208.075 391.202 208.462 390.776 208.919L389.106 210.706V210.764H392.562V211.562H387.871Z" fill="#98A2B3"/>
<path d="M52.6797 167.978C63.7628 163.577 70.9872 162.059 83.3696 161.53C95.4675 161.012 101.998 166.024 114.06 165.121C126.753 164.172 132.05 157.206 144.749 156.305C156.835 155.448 163.456 161.65 175.439 160.142C189.052 158.429 192.347 146.167 206.129 146.346C220.348 146.532 222.607 162.24 236.819 161.856C252.887 161.422 254.466 140.203 267.509 140.142C280.552 140.081 284.279 154.915 298.199 154.524C318.429 153.956 313.928 118.738 328.889 121.469C343.85 124.199 340.494 192.48 359.579 188.839C378.664 185.199 383.412 121.469 390.269 75.3008" stroke="#15AD07" stroke-width="1.70402" stroke-linejoin="round"/>
</svg>
