<svg width="20" height="20" viewBox="0 0 20 20" fill="none" xmlns="http://www.w3.org/2000/svg">
<path fill-rule="evenodd" clip-rule="evenodd" d="M10.83 2.49935C10.83 2.03911 10.4569 1.66602 9.99671 1.66602C9.53647 1.66602 9.16338 2.03911 9.16338 2.49935V2.97507C6.33661 3.37929 4.16338 5.80954 4.16338 8.74844L4.16338 12.0821C4.16338 12.0821 4.16339 12.082 4.16338 12.0821C4.1633 12.0837 4.16273 12.0949 4.15912 12.1167C4.15478 12.143 4.14708 12.1787 4.13436 12.2246C4.10859 12.3177 4.06757 12.4336 4.01027 12.5706C3.89538 12.8453 3.73342 13.1616 3.55429 13.4807C3.2175 14.0806 3.04774 14.7955 3.17518 15.4754C3.30959 16.1923 3.77108 16.8176 4.55926 17.1177C5.26335 17.3858 6.20057 17.6309 7.43826 17.7769C7.46771 17.8024 7.50254 17.8316 7.54254 17.8636C7.66778 17.9638 7.84671 18.0937 8.07285 18.2229C8.52165 18.4793 9.18523 18.7493 9.99671 18.7493C10.8082 18.7493 11.4718 18.4793 11.9206 18.2229C12.1467 18.0937 12.3256 17.9638 12.4509 17.8636C12.4909 17.8316 12.5257 17.8024 12.5552 17.7769C13.7929 17.6309 14.7301 17.3858 15.4342 17.1177C16.2223 16.8176 16.6838 16.1923 16.8182 15.4754C16.9457 14.7955 16.7759 14.0806 16.4391 13.4807C16.26 13.1616 16.098 12.8453 15.9832 12.5706C15.9258 12.4336 15.8848 12.3177 15.8591 12.2246C15.8463 12.1787 15.8386 12.143 15.8343 12.1167C15.8307 12.0949 15.8301 12.0839 15.8301 12.0823C15.83 12.0822 15.8301 12.0823 15.8301 12.0823L15.83 12.0753V8.74883C15.83 5.81001 13.6569 3.37936 10.83 2.97508V2.49935ZM5.83005 8.74844C5.83005 6.44745 7.69533 4.58268 9.99671 4.58268C12.298 4.58268 14.1634 6.44776 14.1634 8.74883V12.0827C14.1634 12.4685 14.3079 12.8846 14.4455 13.2136C14.595 13.5711 14.7909 13.9494 14.9858 14.2965C15.1753 14.634 15.2205 14.953 15.1801 15.1683C15.1467 15.3465 15.0576 15.4777 14.8411 15.5601C13.9454 15.9012 12.4333 16.2493 9.99671 16.2493C7.56011 16.2493 6.04805 15.9012 5.15233 15.5601C4.93578 15.4777 4.84672 15.3465 4.81332 15.1683C4.77296 14.953 4.81814 14.634 5.00762 14.2965C5.20249 13.9494 5.3984 13.5711 5.54789 13.2136C5.6855 12.8846 5.83005 12.4685 5.83005 12.0827V8.74844Z" fill="#547D74"/>
</svg>
