<svg width="21" height="20" viewBox="0 0 21 20" fill="none" xmlns="http://www.w3.org/2000/svg">
<path fill-rule="evenodd" clip-rule="evenodd" d="M11.33 2.49935C11.33 2.03911 10.9569 1.66602 10.4967 1.66602C10.0365 1.66602 9.66338 2.03911 9.66338 2.49935V2.97507C6.83661 3.37929 4.66338 5.80954 4.66338 8.74844L4.66338 12.0821C4.66338 12.0821 4.66339 12.082 4.66338 12.0821C4.6633 12.0837 4.66273 12.0949 4.65912 12.1167C4.65478 12.143 4.64708 12.1787 4.63436 12.2246C4.60859 12.3177 4.56757 12.4336 4.51027 12.5706C4.39538 12.8453 4.23342 13.1616 4.05429 13.4807C3.7175 14.0806 3.54774 14.7955 3.67518 15.4754C3.80959 16.1923 4.27108 16.8176 5.05926 17.1177C5.76335 17.3858 6.70057 17.6309 7.93826 17.7769C7.96771 17.8024 8.00254 17.8316 8.04254 17.8636C8.16778 17.9638 8.34671 18.0937 8.57285 18.2229C9.02165 18.4793 9.68523 18.7493 10.4967 18.7493C11.3082 18.7493 11.9718 18.4793 12.4206 18.2229C12.6467 18.0937 12.8256 17.9638 12.9509 17.8636C12.9909 17.8316 13.0257 17.8024 13.0552 17.7769C14.2929 17.6309 15.2301 17.3858 15.9342 17.1177C16.7223 16.8176 17.1838 16.1923 17.3182 15.4754C17.4457 14.7955 17.2759 14.0806 16.9391 13.4807C16.76 13.1616 16.598 12.8453 16.4832 12.5706C16.4258 12.4336 16.3848 12.3177 16.3591 12.2246C16.3463 12.1787 16.3386 12.143 16.3343 12.1167C16.3307 12.0949 16.3301 12.0839 16.3301 12.0823C16.33 12.0822 16.3301 12.0823 16.3301 12.0823L16.33 12.0753V8.74883C16.33 5.81001 14.1569 3.37936 11.33 2.97508V2.49935ZM6.33005 8.74844C6.33005 6.44745 8.19533 4.58268 10.4967 4.58268C12.798 4.58268 14.6634 6.44776 14.6634 8.74883V12.0827C14.6634 12.4685 14.8079 12.8846 14.9455 13.2136C15.095 13.5711 15.2909 13.9494 15.4858 14.2965C15.6753 14.634 15.7205 14.953 15.6801 15.1683C15.6467 15.3465 15.5576 15.4777 15.3411 15.5601C14.4454 15.9012 12.9333 16.2493 10.4967 16.2493C8.06011 16.2493 6.54805 15.9012 5.65233 15.5601C5.43578 15.4777 5.34672 15.3465 5.31332 15.1683C5.27296 14.953 5.31814 14.634 5.50762 14.2965C5.70249 13.9494 5.8984 13.5711 6.04789 13.2136C6.1855 12.8846 6.33005 12.4685 6.33005 12.0827V8.74844Z" fill="#139D06"/>
</svg>
