<svg width="16" height="16" viewBox="0 0 16 16" fill="none" xmlns="http://www.w3.org/2000/svg">
<path d="M6.33601 1.16602C6.0589 1.16602 5.81068 1.33743 5.71255 1.59658L5.55949 2.00077C5.23136 1.96798 4.92905 1.93526 4.68432 1.90778C4.50138 1.88724 4.351 1.86967 4.24654 1.85726L4.12604 1.8428L4.08512 1.8378C3.71972 1.79256 3.38631 2.05202 3.34106 2.41742C3.29581 2.78282 3.55534 3.11571 3.92074 3.16096L3.96527 3.16641L4.08926 3.18129C4.19615 3.19399 4.3494 3.21189 4.53555 3.23279C4.90752 3.27455 5.41239 3.32847 5.94208 3.37681C6.6566 3.44202 7.43982 3.49935 8.00267 3.49935C8.56553 3.49935 9.34874 3.44202 10.0633 3.37681C10.593 3.32847 11.0978 3.27455 11.4698 3.23279C11.6559 3.21189 11.8092 3.19399 11.9161 3.18129L12.0401 3.16641L12.0845 3.16097C12.4499 3.11572 12.7095 2.78282 12.6643 2.41742C12.619 2.05202 12.2861 1.79249 11.9208 1.83773L11.8793 1.8428L11.7588 1.85726C11.6543 1.86967 11.504 1.88724 11.321 1.90778C11.0763 1.93526 10.774 1.96798 10.4459 2.00077L10.2928 1.59658C10.1947 1.33743 9.94645 1.16602 9.66934 1.16602H6.33601Z" fill="#CB1A14"/>
<path d="M7.33601 7.83268C7.33601 7.46449 7.03753 7.16602 6.66934 7.16602C6.30115 7.16602 6.00267 7.46449 6.00267 7.83268V11.166C6.00267 11.5342 6.30115 11.8327 6.66934 11.8327C7.03753 11.8327 7.33601 11.5342 7.33601 11.166V7.83268Z" fill="#CB1A14"/>
<path d="M9.33601 7.16602C9.7042 7.16602 10.0027 7.46449 10.0027 7.83268V11.166C10.0027 11.5342 9.7042 11.8327 9.33601 11.8327C8.96782 11.8327 8.66934 11.5342 8.66934 11.166V7.83268C8.66934 7.46449 8.96782 7.16602 9.33601 7.16602Z" fill="#CB1A14"/>
<path fill-rule="evenodd" clip-rule="evenodd" d="M12.6091 5.36639C12.6695 4.52054 11.9403 3.84244 11.1115 3.93821C10.2635 4.03622 8.9549 4.16602 8.00267 4.16602C7.05045 4.16602 5.74183 4.03622 4.89381 3.93821C4.06506 3.84244 3.33582 4.52054 3.39624 5.36639L3.9674 13.3626C4.01069 13.9687 4.46218 14.4812 5.08177 14.5744C5.74617 14.6743 6.9653 14.8339 8.00344 14.8327C9.02883 14.8315 10.2529 14.6726 10.9202 14.5736C11.5409 14.4815 11.9947 13.9687 12.0381 13.3607L12.6091 5.36639ZM11.2646 5.26273C11.2669 5.26246 11.2687 5.26262 11.2687 5.26262L11.2705 5.26302C11.2719 5.26354 11.2743 5.26475 11.2766 5.26693C11.2781 5.26837 11.2792 5.27013 11.2792 5.27013L11.2792 5.27139L10.7088 13.257C10.0483 13.3546 8.91636 13.4983 8.0019 13.4993C7.07753 13.5004 5.95259 13.3566 5.29668 13.2584L4.72618 5.27139L4.72613 5.27013C4.72613 5.27013 4.72727 5.26837 4.72879 5.26693C4.73109 5.26475 4.73341 5.26354 4.73489 5.26302L4.73666 5.26262C4.73666 5.26262 4.73843 5.26246 4.74074 5.26273C5.59026 5.36091 6.9663 5.49935 8.00267 5.49935C9.03904 5.49935 10.4151 5.36091 11.2646 5.26273Z" fill="#CB1A14"/>
</svg>
