<svg width="28" height="28" viewBox="0 0 28 28" fill="none" xmlns="http://www.w3.org/2000/svg">
<path d="M11.0822 2.0415C10.5972 2.0415 10.1628 2.34149 9.9911 2.795L9.72324 3.50232C9.14903 3.44495 8.61998 3.38768 8.19171 3.33959C7.87156 3.30365 7.60839 3.2729 7.42558 3.25119L7.21471 3.22588L7.14309 3.21712C6.50365 3.13795 5.92018 3.59202 5.841 4.23146C5.76181 4.87091 6.21599 5.45347 6.85544 5.53266L6.93336 5.54219L7.15034 5.56823C7.33741 5.59045 7.60559 5.62178 7.93135 5.65836C8.58231 5.73145 9.46582 5.8258 10.3928 5.9104C11.6432 6.02452 13.0138 6.12484 13.9988 6.12484C14.9838 6.12484 16.3544 6.02452 17.6049 5.9104C18.5318 5.8258 19.4153 5.73145 20.0663 5.65836C20.392 5.62178 20.6602 5.59045 20.8473 5.56823L21.0643 5.54219L21.142 5.53268C21.7815 5.45349 22.2358 4.87091 22.1566 4.23146C22.0775 3.59202 21.4949 3.13784 20.8555 3.21701L20.7829 3.22588L20.5721 3.25119C20.3892 3.2729 20.1261 3.30365 19.8059 3.33959C19.3777 3.38768 18.8486 3.44495 18.2744 3.50232L18.0065 2.795C17.8348 2.34149 17.4004 2.0415 16.9155 2.0415H11.0822Z" fill="#D42620"/>
<path d="M12.8322 13.7082C12.8322 13.0638 12.3098 12.5415 11.6655 12.5415C11.0212 12.5415 10.4988 13.0638 10.4988 13.7082V19.5415C10.4988 20.1858 11.0212 20.7082 11.6655 20.7082C12.3098 20.7082 12.8322 20.1858 12.8322 19.5415V13.7082Z" fill="#D42620"/>
<path d="M16.3322 12.5415C16.9765 12.5415 17.4988 13.0638 17.4988 13.7082V19.5415C17.4988 20.1858 16.9765 20.7082 16.3322 20.7082C15.6878 20.7082 15.1655 20.1858 15.1655 19.5415V13.7082C15.1655 13.0638 15.6878 12.5415 16.3322 12.5415Z" fill="#D42620"/>
<path fill-rule="evenodd" clip-rule="evenodd" d="M22.0601 9.39215C22.1658 7.91193 20.8896 6.72524 19.4393 6.89285C17.9553 7.06436 15.6652 7.2915 13.9988 7.2915C12.3324 7.2915 10.0423 7.06436 8.55831 6.89285C7.10799 6.72524 5.83183 7.91192 5.93756 9.39215L6.93708 23.3855C7.01285 24.4462 7.80296 25.3431 8.88724 25.5061C10.0499 25.681 12.1834 25.9603 14.0002 25.9582C15.7946 25.9561 17.9368 25.678 19.1046 25.5048C20.1907 25.3436 20.9848 24.4462 21.0608 23.3823L22.0601 9.39215ZM19.7072 9.21076C19.7112 9.21029 19.7143 9.21057 19.7143 9.21057L19.7174 9.21127C19.72 9.21216 19.7241 9.21429 19.7281 9.21811C19.7308 9.22063 19.7328 9.22371 19.7328 9.22371L19.7327 9.22591L18.7345 23.2008C17.5787 23.3716 15.5978 23.623 13.9975 23.6248C12.3798 23.6267 10.4112 23.375 9.26334 23.2031L8.26496 9.22591L8.26488 9.22371C8.26488 9.22371 8.26686 9.22063 8.26952 9.21811C8.27354 9.21429 8.27761 9.21216 8.2802 9.21127L8.28329 9.21057C8.28329 9.21057 8.28639 9.21029 8.29044 9.21076C9.7771 9.38257 12.1852 9.62484 13.9988 9.62484C15.8125 9.62484 18.2205 9.38257 19.7072 9.21076Z" fill="#D42620"/>
</svg>
