<svg width="20" height="20" viewBox="0 0 20 20" fill="none" xmlns="http://www.w3.org/2000/svg">
<path fill-rule="evenodd" clip-rule="evenodd" d="M6.2474 6.10775C7.21839 5.76455 7.91406 4.83852 7.91406 3.75C7.91406 2.36929 6.79477 1.25 5.41406 1.25C4.03335 1.25 2.91406 2.36929 2.91406 3.75C2.91406 4.83852 3.60974 5.76455 4.58073 6.10775V10.5589C3.60974 10.9021 2.91406 11.8282 2.91406 12.9167C2.91406 14.0059 3.61065 14.9324 4.58264 15.2751C4.58144 15.2934 4.58082 15.3119 4.58082 15.3305V17.9167C4.58082 18.3769 4.95392 18.75 5.41416 18.75C5.87439 18.75 6.24749 18.3769 6.24749 17.9167V15.3305C6.24749 15.3118 6.24688 15.2933 6.24567 15.275C6.88494 15.0496 7.40505 14.5716 7.68619 13.9609C10.7468 13.9712 12.7753 13.2802 13.9862 11.7374C15.1103 10.3054 15.3695 8.3133 15.4084 6.10975C16.3823 5.76816 17.0807 4.84064 17.0807 3.75C17.0807 2.36929 15.9614 1.25 14.5807 1.25C13.2 1.25 12.0807 2.36929 12.0807 3.75C12.0807 4.83613 12.7734 5.76048 13.741 6.10548C13.6989 8.25265 13.4387 9.73571 12.6752 10.7083C11.946 11.6374 10.5915 12.2824 7.83597 12.2943C7.62869 11.4853 7.02672 10.8344 6.2474 10.5589V6.10775ZM6.2474 3.75C6.2474 3.28976 5.8743 2.91667 5.41406 2.91667C4.95383 2.91667 4.58073 3.28976 4.58073 3.75C4.58073 4.21024 4.95383 4.58333 5.41406 4.58333C5.8743 4.58333 6.2474 4.21024 6.2474 3.75ZM14.5807 4.58333C15.041 4.58333 15.4141 4.21024 15.4141 3.75C15.4141 3.28976 15.041 2.91667 14.5807 2.91667C14.1205 2.91667 13.7474 3.28976 13.7474 3.75C13.7474 4.21024 14.1205 4.58333 14.5807 4.58333ZM6.2474 12.9167C6.2474 12.4564 5.8743 12.0833 5.41406 12.0833C4.95383 12.0833 4.58073 12.4564 4.58073 12.9167C4.58073 13.3769 4.95383 13.75 5.41406 13.75C5.8743 13.75 6.2474 13.3769 6.2474 12.9167Z" fill="#547D74"/>
</svg>
