<svg width="21" height="20" viewBox="0 0 21 20" fill="none" xmlns="http://www.w3.org/2000/svg">
<path d="M4.07757 11.6523C4.31561 12.0462 4.18927 12.5585 3.79537 12.7965C3.40148 13.0346 2.88919 12.9082 2.65114 12.5143C2.31273 11.9544 2.08313 11.4718 1.94812 11.1603C1.75479 10.7143 1.78284 10.2121 2.01836 9.7915C2.37775 9.14973 3.28563 7.66611 4.68482 6.33307C6.0808 5.00308 8.04507 3.75 10.4985 3.75C12.9519 3.75 14.9162 5.00308 16.3121 6.33307C17.7113 7.66611 18.6192 9.14973 18.9786 9.7915C19.2141 10.2121 19.2422 10.7143 19.0488 11.1603C18.9138 11.4718 18.6842 11.9544 18.3458 12.5143C18.1078 12.9082 17.5955 13.0346 17.2016 12.7965C16.8077 12.5585 16.6813 12.0462 16.9194 11.6523C17.1916 11.2019 17.3805 10.8124 17.495 10.5537C17.1569 9.95778 16.3561 8.67693 15.1625 7.53975C13.9296 6.36513 12.3568 5.41667 10.4985 5.41667C8.64019 5.41667 7.06736 6.36513 5.83447 7.53975C4.64086 8.67693 3.84007 9.95778 3.50194 10.5537C3.6165 10.8124 3.80538 11.2019 4.07757 11.6523Z" fill="#139D06"/>
<path fill-rule="evenodd" clip-rule="evenodd" d="M10.4985 6.66667C8.19729 6.66667 6.33181 8.53215 6.33181 10.8333C6.33181 13.1345 8.19729 15 10.4985 15C12.7997 15 14.6651 13.1345 14.6651 10.8333C14.6651 8.53215 12.7997 6.66667 10.4985 6.66667ZM7.99848 10.8333C7.99848 9.45262 9.11777 8.33333 10.4985 8.33333C11.8792 8.33333 12.9985 9.45262 12.9985 10.8333C12.9985 12.214 11.8792 13.3333 10.4985 13.3333C9.11777 13.3333 7.99848 12.214 7.99848 10.8333Z" fill="#139D06"/>
</svg>
