<svg width="20" height="20" viewBox="0 0 20 20" fill="none" xmlns="http://www.w3.org/2000/svg">
<path d="M4.1665 14.5833C4.1665 14.1231 4.5396 13.75 4.99984 13.75H10.8332C11.2934 13.75 11.6665 14.1231 11.6665 14.5833C11.6665 15.0436 11.2934 15.4167 10.8332 15.4167H4.99984C4.5396 15.4167 4.1665 15.0436 4.1665 14.5833Z" fill="#15AD07"/>
<path d="M13.3332 13.75C12.8729 13.75 12.4998 14.1231 12.4998 14.5833C12.4998 15.0436 12.8729 15.4167 13.3332 15.4167H14.9998C15.4601 15.4167 15.8332 15.0436 15.8332 14.5833C15.8332 14.1231 15.4601 13.75 14.9998 13.75H13.3332Z" fill="#15AD07"/>
<path fill-rule="evenodd" clip-rule="evenodd" d="M6.6665 1.25C7.12674 1.25 7.49984 1.6231 7.49984 2.08333V2.91667H12.4998V2.08333C12.4998 1.6231 12.8729 1.25 13.3332 1.25C13.7934 1.25 14.1665 1.6231 14.1665 2.08333V2.91667H14.9998C16.8408 2.91667 18.3332 4.40905 18.3332 6.25V15.4167C18.3332 17.2576 16.8408 18.75 14.9998 18.75H4.99984C3.15889 18.75 1.6665 17.2576 1.6665 15.4167V6.25C1.6665 4.40905 3.15889 2.91667 4.99984 2.91667H5.83317V2.08333C5.83317 1.6231 6.20627 1.25 6.6665 1.25ZM12.4998 4.58333C12.4998 5.04357 12.8729 5.41667 13.3332 5.41667C13.7934 5.41667 14.1665 5.04357 14.1665 4.58333H14.9998C15.9203 4.58333 16.6665 5.32953 16.6665 6.25V6.66667H3.33317V6.25C3.33317 5.32953 4.07936 4.58333 4.99984 4.58333H5.83317C5.83317 5.04357 6.20627 5.41667 6.6665 5.41667C7.12674 5.41667 7.49984 5.04357 7.49984 4.58333H12.4998ZM16.6665 8.33333H3.33317V15.4167C3.33317 16.3371 4.07936 17.0833 4.99984 17.0833H14.9998C15.9203 17.0833 16.6665 16.3371 16.6665 15.4167V8.33333Z" fill="#15AD07"/>
</svg>
