<svg width="20" height="20" viewBox="0 0 20 20" fill="none" xmlns="http://www.w3.org/2000/svg">
<path d="M4.9974 12.4993C4.53716 12.4993 4.16406 12.1263 4.16406 11.666C4.16406 11.2058 4.53716 10.8327 4.9974 10.8327C5.45763 10.8327 5.83073 11.2058 5.83073 11.666C5.83073 12.1263 5.45763 12.4993 4.9974 12.4993Z" fill="#547D74"/>
<path d="M7.4974 11.666C7.4974 12.1263 7.87049 12.4993 8.33073 12.4993C8.79097 12.4993 9.16406 12.1263 9.16406 11.666C9.16406 11.2058 8.79097 10.8327 8.33073 10.8327C7.87049 10.8327 7.4974 11.2058 7.4974 11.666Z" fill="#547D74"/>
<path d="M11.6641 12.4993C11.2038 12.4993 10.8307 12.1263 10.8307 11.666C10.8307 11.2058 11.2038 10.8327 11.6641 10.8327C12.1243 10.8327 12.4974 11.2058 12.4974 11.666C12.4974 12.1263 12.1243 12.4993 11.6641 12.4993Z" fill="#547D74"/>
<path fill-rule="evenodd" clip-rule="evenodd" d="M17.0624 11.206L14.9944 11.4645C14.9964 11.5315 14.9974 11.5986 14.9974 11.666C14.9974 15.3479 12.0126 18.3327 8.33073 18.3327C7.77995 18.3327 7.24369 18.2657 6.73012 18.1391L3.1477 17.6913C2.26662 17.5812 1.65429 16.7598 1.80027 15.884L2.02001 14.5655L1.85765 13.2666C1.73103 12.7531 1.66406 12.2168 1.66406 11.666C1.66406 7.98412 4.64883 4.99935 8.33073 4.99935C8.42543 4.99935 8.51967 5.00133 8.61342 5.00524C9.29817 3.06055 11.1507 1.66602 13.3307 1.66602C16.0922 1.66602 18.3307 3.90459 18.3307 6.66602C18.3307 7.07388 18.2817 7.4714 18.1889 7.85256L18.0789 8.73217L18.2302 9.63971C18.3567 10.3988 17.826 11.1106 17.0624 11.206ZM13.3307 3.33268C15.1717 3.33268 16.6641 4.82507 16.6641 6.66602C16.6641 6.95272 16.6281 7.2298 16.5608 7.49352L16.5478 7.54427L16.4195 8.57065C16.4033 8.70055 16.4059 8.83211 16.4275 8.96124L16.5327 9.59262L14.7376 9.817C14.1161 7.65936 12.4341 5.95102 10.2923 5.29261C10.8157 4.13649 11.9801 3.33268 13.3307 3.33268ZM8.33073 6.66602C5.56931 6.66602 3.33073 8.90459 3.33073 11.666C3.33073 12.0954 3.38467 12.511 3.48572 12.907L3.49868 12.9577L3.67569 14.3738C3.69443 14.5237 3.69133 14.6755 3.6665 14.8245L3.4621 16.051L7.03903 16.4981L7.08979 16.511C7.4857 16.6121 7.90132 16.666 8.33073 16.666C11.0922 16.666 13.3307 14.4274 13.3307 11.666C13.3307 8.90459 11.0922 6.66602 8.33073 6.66602Z" fill="#547D74"/>
</svg>
