<svg width="20" height="20" viewBox="0 0 20 20" fill="none" xmlns="http://www.w3.org/2000/svg">
<path d="M13.0602 8.94918C13.3996 8.63833 13.4228 8.1112 13.1119 7.7718C12.8011 7.4324 12.274 7.40925 11.9346 7.72009L8.85783 10.5379L8.06023 9.80746C7.72083 9.49661 7.1937 9.51976 6.88285 9.85916C6.57201 10.1986 6.59516 10.7257 6.93456 11.0365L8.29499 12.2825C8.61352 12.5742 9.10214 12.5742 9.42066 12.2825L13.0602 8.94918Z" fill="#099137"/>
<path fill-rule="evenodd" clip-rule="evenodd" d="M9.9974 1.66797C5.39502 1.66797 1.66406 5.39893 1.66406 10.0013C1.66406 14.6037 5.39502 18.3346 9.9974 18.3346C14.5998 18.3346 18.3307 14.6037 18.3307 10.0013C18.3307 5.39893 14.5998 1.66797 9.9974 1.66797ZM3.33073 10.0013C3.33073 6.3194 6.3155 3.33464 9.9974 3.33464C13.6793 3.33464 16.6641 6.3194 16.6641 10.0013C16.6641 13.6832 13.6793 16.668 9.9974 16.668C6.3155 16.668 3.33073 13.6832 3.33073 10.0013Z" fill="#099137"/>
</svg>
