<svg width="68" height="17" viewBox="0 0 68 17" fill="none" xmlns="http://www.w3.org/2000/svg">
<rect x="0.5" width="67" height="17" rx="8.5" fill="#F0F2F5"/>
<path d="M17.0639 7.1108H15.7343C15.6832 6.8267 15.588 6.5767 15.4488 6.3608C15.3096 6.14489 15.1392 5.96165 14.9374 5.81108C14.7357 5.66051 14.5099 5.54687 14.2599 5.47017C14.0127 5.39347 13.7499 5.35511 13.4715 5.35511C12.9687 5.35511 12.5184 5.48153 12.1207 5.73438C11.7258 5.98722 11.4133 6.35795 11.1832 6.84659C10.9559 7.33523 10.8423 7.93182 10.8423 8.63636C10.8423 9.34659 10.9559 9.94602 11.1832 10.4347C11.4133 10.9233 11.7272 11.2926 12.1249 11.5426C12.5227 11.7926 12.9701 11.9176 13.4673 11.9176C13.7428 11.9176 14.0042 11.8807 14.2514 11.8068C14.5014 11.7301 14.7272 11.6179 14.9289 11.4702C15.1306 11.3224 15.3011 11.142 15.4403 10.929C15.5823 10.7131 15.6803 10.4659 15.7343 10.1875L17.0639 10.1918C16.9928 10.6207 16.8551 11.0156 16.6505 11.3764C16.4488 11.7344 16.1889 12.044 15.8707 12.3054C15.5553 12.5639 15.1946 12.7642 14.7883 12.9062C14.3821 13.0483 13.9389 13.1193 13.4588 13.1193C12.7031 13.1193 12.0298 12.9403 11.4389 12.5824C10.848 12.2216 10.3821 11.706 10.0411 11.0355C9.70307 10.3651 9.53404 9.56534 9.53404 8.63636C9.53404 7.70455 9.70449 6.90483 10.0454 6.23722C10.3863 5.56676 10.8522 5.05256 11.4431 4.6946C12.034 4.33381 12.7059 4.15341 13.4588 4.15341C13.9218 4.15341 14.3536 4.22017 14.7542 4.35369C15.1576 4.48437 15.5198 4.67756 15.8409 4.93324C16.1619 5.18608 16.4275 5.49574 16.6377 5.86222C16.848 6.22585 16.99 6.64205 17.0639 7.1108ZM19.7514 4.27273V13H18.4772V4.27273H19.7514ZM23.3103 13.1449C22.8956 13.1449 22.5206 13.0682 22.1853 12.9148C21.8501 12.7585 21.5845 12.5327 21.3885 12.2372C21.1953 11.9418 21.0987 11.5795 21.0987 11.1506C21.0987 10.7812 21.1697 10.4773 21.3118 10.2386C21.4538 10 21.6456 9.81108 21.8871 9.67188C22.1285 9.53267 22.3984 9.42756 22.6967 9.35653C22.995 9.28551 23.299 9.23153 23.6086 9.1946C24.0007 9.14915 24.3189 9.11222 24.5632 9.08381C24.8075 9.05256 24.9851 9.00284 25.0959 8.93466C25.2067 8.86648 25.2621 8.75568 25.2621 8.60227V8.57244C25.2621 8.20028 25.1569 7.91193 24.9467 7.70739C24.7393 7.50284 24.4297 7.40057 24.0177 7.40057C23.5888 7.40057 23.2507 7.49574 23.0035 7.68608C22.7592 7.87358 22.5902 8.08239 22.4964 8.3125L21.299 8.03977C21.441 7.64205 21.6484 7.32102 21.9211 7.0767C22.1967 6.82955 22.5135 6.65057 22.8714 6.53977C23.2294 6.42614 23.6058 6.36932 24.0007 6.36932C24.2621 6.36932 24.539 6.40057 24.8317 6.46307C25.1271 6.52273 25.4027 6.63352 25.6584 6.79545C25.9169 6.95739 26.1285 7.18892 26.2933 7.49006C26.4581 7.78835 26.5405 8.17614 26.5405 8.65341V13H25.2961V12.1051H25.245C25.1626 12.2699 25.039 12.4318 24.8743 12.5909C24.7095 12.75 24.4978 12.8821 24.2393 12.9872C23.9808 13.0923 23.6711 13.1449 23.3103 13.1449ZM23.5873 12.1222C23.9396 12.1222 24.2407 12.0526 24.4907 11.9134C24.7436 11.7741 24.9353 11.5923 25.066 11.3679C25.1996 11.1406 25.2663 10.8977 25.2663 10.6392V9.79545C25.2209 9.84091 25.1328 9.88352 25.0021 9.9233C24.8743 9.96023 24.728 9.9929 24.5632 10.0213C24.3984 10.0469 24.2379 10.071 24.0817 10.0938C23.9254 10.1136 23.7947 10.1307 23.6896 10.1449C23.4424 10.1761 23.2166 10.2287 23.0121 10.3026C22.8103 10.3764 22.6484 10.483 22.5263 10.6222C22.4069 10.7585 22.3473 10.9403 22.3473 11.1676C22.3473 11.483 22.4638 11.7216 22.6967 11.8835C22.9297 12.0426 23.2265 12.1222 23.5873 12.1222ZM28.1775 13V6.45455H29.4517V13H28.1775ZM28.821 5.4446C28.5994 5.4446 28.4091 5.37074 28.25 5.22301C28.0937 5.07244 28.0156 4.89347 28.0156 4.68608C28.0156 4.47585 28.0937 4.29687 28.25 4.14915C28.4091 3.99858 28.5994 3.9233 28.821 3.9233C29.0426 3.9233 29.2315 3.99858 29.3878 4.14915C29.5469 4.29687 29.6264 4.47585 29.6264 4.68608C29.6264 4.89347 29.5469 5.07244 29.3878 5.22301C29.2315 5.37074 29.0426 5.4446 28.821 5.4446ZM31.1058 13V6.45455H32.3288V7.51989H32.4098C32.5462 7.15909 32.7692 6.87784 33.0788 6.67614C33.3885 6.47159 33.7592 6.36932 34.1911 6.36932C34.6286 6.36932 34.995 6.47159 35.2905 6.67614C35.5888 6.88068 35.809 7.16193 35.951 7.51989H36.0192C36.1754 7.17045 36.424 6.89205 36.7649 6.68466C37.1058 6.47443 37.5121 6.36932 37.9837 6.36932C38.5774 6.36932 39.0618 6.5554 39.4368 6.92756C39.8146 7.29972 40.0036 7.8608 40.0036 8.6108V13H38.7294V8.73011C38.7294 8.28693 38.6087 7.96591 38.3672 7.76705C38.1257 7.56818 37.8374 7.46875 37.5021 7.46875C37.0874 7.46875 36.7649 7.59659 36.5348 7.85227C36.3047 8.10511 36.1896 8.4304 36.1896 8.82812V13H34.9198V8.64915C34.9198 8.29403 34.809 8.00852 34.5874 7.79261C34.3658 7.5767 34.0774 7.46875 33.7223 7.46875C33.4808 7.46875 33.2578 7.53267 33.0533 7.66051C32.8516 7.78551 32.6882 7.96023 32.5632 8.18466C32.4411 8.40909 32.38 8.66903 32.38 8.96449V13H31.1058ZM43.5561 13.1449C43.1414 13.1449 42.7664 13.0682 42.4311 12.9148C42.0959 12.7585 41.8303 12.5327 41.6343 12.2372C41.4411 11.9418 41.3445 11.5795 41.3445 11.1506C41.3445 10.7812 41.4155 10.4773 41.5575 10.2386C41.6996 10 41.8914 9.81108 42.1328 9.67188C42.3743 9.53267 42.6442 9.42756 42.9425 9.35653C43.2408 9.28551 43.5448 9.23153 43.8544 9.1946C44.2465 9.14915 44.5647 9.11222 44.809 9.08381C45.0533 9.05256 45.2308 9.00284 45.3416 8.93466C45.4524 8.86648 45.5078 8.75568 45.5078 8.60227V8.57244C45.5078 8.20028 45.4027 7.91193 45.1925 7.70739C44.9851 7.50284 44.6754 7.40057 44.2635 7.40057C43.8345 7.40057 43.4965 7.49574 43.2493 7.68608C43.005 7.87358 42.836 8.08239 42.7422 8.3125L41.5448 8.03977C41.6868 7.64205 41.8942 7.32102 42.1669 7.0767C42.4425 6.82955 42.7593 6.65057 43.1172 6.53977C43.4752 6.42614 43.8516 6.36932 44.2465 6.36932C44.5078 6.36932 44.7848 6.40057 45.0774 6.46307C45.3729 6.52273 45.6485 6.63352 45.9041 6.79545C46.1627 6.95739 46.3743 7.18892 46.5391 7.49006C46.7039 7.78835 46.7862 8.17614 46.7862 8.65341V13H45.5419V12.1051H45.4908C45.4084 12.2699 45.2848 12.4318 45.12 12.5909C44.9553 12.75 44.7436 12.8821 44.4851 12.9872C44.2266 13.0923 43.9169 13.1449 43.5561 13.1449ZM43.8331 12.1222C44.1854 12.1222 44.4865 12.0526 44.7365 11.9134C44.9894 11.7741 45.1811 11.5923 45.3118 11.3679C45.4453 11.1406 45.5121 10.8977 45.5121 10.6392V9.79545C45.4666 9.84091 45.3786 9.88352 45.2479 9.9233C45.12 9.96023 44.9737 9.9929 44.809 10.0213C44.6442 10.0469 44.4837 10.071 44.3274 10.0938C44.1712 10.1136 44.0405 10.1307 43.9354 10.1449C43.6882 10.1761 43.4624 10.2287 43.2578 10.3026C43.0561 10.3764 42.8942 10.483 42.772 10.6222C42.6527 10.7585 42.5931 10.9403 42.5931 11.1676C42.5931 11.483 42.7095 11.7216 42.9425 11.8835C43.1754 12.0426 43.4723 12.1222 43.8331 12.1222ZM49.6975 9.11364V13H48.4233V6.45455H49.6463V7.51989H49.7273C49.8779 7.1733 50.1137 6.89489 50.4347 6.68466C50.7586 6.47443 51.1662 6.36932 51.6577 6.36932C52.1037 6.36932 52.4944 6.46307 52.8296 6.65057C53.1648 6.83523 53.4247 7.1108 53.6094 7.47727C53.7941 7.84375 53.8864 8.29687 53.8864 8.83665V13H52.6123V8.99006C52.6123 8.51562 52.4887 8.14489 52.2415 7.87784C51.9944 7.60795 51.6549 7.47301 51.223 7.47301C50.9276 7.47301 50.6648 7.53693 50.4347 7.66477C50.2074 7.79261 50.027 7.98011 49.8935 8.22727C49.7628 8.47159 49.6975 8.76705 49.6975 9.11364ZM58.5906 6.45455V7.47727H55.0153V6.45455H58.5906ZM55.9741 4.88636H57.2483V11.0781C57.2483 11.3253 57.2852 11.5114 57.3591 11.6364C57.4329 11.7585 57.5281 11.8423 57.6446 11.8878C57.7639 11.9304 57.8932 11.9517 58.0324 11.9517C58.1346 11.9517 58.2241 11.9446 58.3008 11.9304C58.3775 11.9162 58.4372 11.9048 58.4798 11.8963L58.7099 12.9489C58.6361 12.9773 58.5309 13.0057 58.3946 13.0341C58.2582 13.0653 58.0878 13.0824 57.8832 13.0852C57.548 13.0909 57.2355 13.0312 56.9457 12.9062C56.6559 12.7812 56.4216 12.5881 56.2426 12.3267C56.0636 12.0653 55.9741 11.7372 55.9741 11.3423V4.88636Z" fill="#344054"/>
</svg>
