<svg width="85" height="24" viewBox="0 0 85 24" fill="none" xmlns="http://www.w3.org/2000/svg">
<rect x="0.5" width="84" height="24" rx="12" fill="#F0F2F5"/>
<path d="M22.4962 10.1293H20.945C20.8854 9.79782 20.7744 9.50615 20.6119 9.25426C20.4495 9.00237 20.2507 8.78859 20.0154 8.61293C19.78 8.43726 19.5165 8.30469 19.2249 8.2152C18.9365 8.12571 18.6299 8.08097 18.3051 8.08097C17.7185 8.08097 17.1932 8.22846 16.7291 8.52344C16.2684 8.81842 15.9039 9.25095 15.6354 9.82102C15.3702 10.3911 15.2377 11.0871 15.2377 11.9091C15.2377 12.7377 15.3702 13.437 15.6354 14.0071C15.9039 14.5772 16.2701 15.008 16.7341 15.2997C17.1981 15.5914 17.7201 15.7372 18.3002 15.7372C18.6217 15.7372 18.9266 15.6941 19.2149 15.608C19.5066 15.5185 19.7701 15.3875 20.0054 15.2152C20.2407 15.0429 20.4396 14.8324 20.602 14.5838C20.7677 14.3319 20.8821 14.0436 20.945 13.7188L22.4962 13.7237C22.4133 14.2242 22.2526 14.6849 22.0139 15.1058C21.7786 15.5234 21.4753 15.8847 21.1041 16.1896C20.7362 16.4912 20.3153 16.7249 19.8414 16.8906C19.3674 17.0563 18.8503 17.1392 18.2902 17.1392C17.4086 17.1392 16.6231 16.9304 15.9337 16.5128C15.2443 16.0919 14.7007 15.4903 14.303 14.7081C13.9086 13.9259 13.7114 12.9929 13.7114 11.9091C13.7114 10.822 13.9102 9.88897 14.308 9.11008C14.7057 8.32789 15.2493 7.72798 15.9387 7.31037C16.628 6.88944 17.4119 6.67898 18.2902 6.67898C18.8305 6.67898 19.3343 6.75687 19.8016 6.91264C20.2722 7.0651 20.6948 7.29048 21.0693 7.58878C21.4439 7.88376 21.7538 8.24503 21.999 8.67258C22.2443 9.09683 22.41 9.58239 22.4962 10.1293ZM25.7016 6.81818V17H24.2151V6.81818H25.7016ZM29.9237 17.169C29.4398 17.169 29.0023 17.0795 28.6112 16.9006C28.2201 16.7183 27.9102 16.4548 27.6816 16.1101C27.4562 15.7654 27.3435 15.3428 27.3435 14.8423C27.3435 14.4115 27.4263 14.0568 27.5921 13.7784C27.7578 13.5 27.9815 13.2796 28.2632 13.1172C28.545 12.9548 28.8598 12.8321 29.2078 12.7493C29.5558 12.6664 29.9105 12.6035 30.2718 12.5604C30.7291 12.5073 31.1003 12.4643 31.3854 12.4311C31.6704 12.3946 31.8776 12.3366 32.0068 12.2571C32.1361 12.1776 32.2007 12.0483 32.2007 11.8693V11.8345C32.2007 11.4003 32.0781 11.0639 31.8328 10.8253C31.5909 10.5866 31.2296 10.4673 30.749 10.4673C30.2485 10.4673 29.8541 10.5784 29.5658 10.8004C29.2807 11.0192 29.0835 11.2628 28.9742 11.5312L27.5771 11.2131C27.7429 10.7491 27.9848 10.3745 28.303 10.0895C28.6245 9.80114 28.9941 9.59233 29.4117 9.46307C29.8293 9.33049 30.2684 9.2642 30.7291 9.2642C31.0341 9.2642 31.3572 9.30066 31.6986 9.37358C32.0433 9.44318 32.3648 9.57244 32.6631 9.76136C32.9647 9.95028 33.2116 10.2204 33.4039 10.5717C33.5961 10.9197 33.6922 11.3722 33.6922 11.929V17H32.2405V15.956H32.1808C32.0847 16.1482 31.9405 16.3371 31.7483 16.5227C31.5561 16.7083 31.3092 16.8625 31.0075 16.9851C30.7059 17.1077 30.3447 17.169 29.9237 17.169ZM30.2469 15.9759C30.6579 15.9759 31.0092 15.8946 31.3009 15.7322C31.5959 15.5698 31.8196 15.3577 31.972 15.0959C32.1278 14.8307 32.2057 14.5473 32.2057 14.2457V13.2614C32.1527 13.3144 32.0499 13.3641 31.8975 13.4105C31.7483 13.4536 31.5776 13.4917 31.3854 13.5249C31.1932 13.5547 31.0059 13.5829 30.8236 13.6094C30.6413 13.6326 30.4888 13.6525 30.3662 13.669C30.0779 13.7055 29.8144 13.7668 29.5757 13.853C29.3404 13.9392 29.1515 14.0634 29.009 14.2259C28.8698 14.3849 28.8002 14.5971 28.8002 14.8622C28.8002 15.2301 28.936 15.5085 29.2078 15.6974C29.4796 15.883 29.826 15.9759 30.2469 15.9759ZM35.6721 17V9.36364H37.1586V17H35.6721ZM36.4229 8.18537C36.1643 8.18537 35.9423 8.09919 35.7567 7.92685C35.5744 7.75118 35.4832 7.54238 35.4832 7.30043C35.4832 7.05516 35.5744 6.84635 35.7567 6.67401C35.9423 6.49834 36.1643 6.41051 36.4229 6.41051C36.6814 6.41051 36.9018 6.49834 37.0841 6.67401C37.2697 6.84635 37.3625 7.05516 37.3625 7.30043C37.3625 7.54238 37.2697 7.75118 37.0841 7.92685C36.9018 8.09919 36.6814 8.18537 36.4229 8.18537ZM39.1585 17V9.36364H40.5853V10.6065H40.6798C40.8389 10.1856 41.099 9.85748 41.4603 9.62216C41.8216 9.38352 42.2541 9.2642 42.7579 9.2642C43.2683 9.2642 43.6959 9.38352 44.0406 9.62216C44.3886 9.8608 44.6454 10.1889 44.8112 10.6065H44.8907C45.073 10.1989 45.363 9.87405 45.7607 9.6321C46.1585 9.38684 46.6324 9.2642 47.1826 9.2642C47.8753 9.2642 48.4404 9.4813 48.8779 9.91548C49.3187 10.3497 49.5392 11.0043 49.5392 11.8793V17H48.0526V12.0185C48.0526 11.5014 47.9118 11.1269 47.6301 10.8949C47.3483 10.6629 47.0119 10.5469 46.6208 10.5469C46.1369 10.5469 45.7607 10.696 45.4923 10.9943C45.2238 11.2893 45.0896 11.6688 45.0896 12.1328V17H43.608V11.924C43.608 11.5097 43.4788 11.1766 43.2203 10.9247C42.9617 10.6728 42.6253 10.5469 42.211 10.5469C41.9293 10.5469 41.6691 10.6214 41.4305 10.7706C41.1952 10.9164 41.0046 11.1203 40.8588 11.3821C40.7162 11.6439 40.645 11.9472 40.645 12.2919V17H39.1585ZM53.7538 17.169C53.2699 17.169 52.8324 17.0795 52.4413 16.9006C52.0502 16.7183 51.7403 16.4548 51.5116 16.1101C51.2863 15.7654 51.1736 15.3428 51.1736 14.8423C51.1736 14.4115 51.2564 14.0568 51.4221 13.7784C51.5879 13.5 51.8116 13.2796 52.0933 13.1172C52.375 12.9548 52.6899 12.8321 53.0379 12.7493C53.3859 12.6664 53.7406 12.6035 54.1018 12.5604C54.5592 12.5073 54.9304 12.4643 55.2155 12.4311C55.5005 12.3946 55.7077 12.3366 55.8369 12.2571C55.9662 12.1776 56.0308 12.0483 56.0308 11.8693V11.8345C56.0308 11.4003 55.9082 11.0639 55.6629 10.8253C55.421 10.5866 55.0597 10.4673 54.5791 10.4673C54.0786 10.4673 53.6842 10.5784 53.3959 10.8004C53.1108 11.0192 52.9136 11.2628 52.8042 11.5312L51.4072 11.2131C51.5729 10.7491 51.8149 10.3745 52.1331 10.0895C52.4546 9.80114 52.8241 9.59233 53.2417 9.46307C53.6594 9.33049 54.0985 9.2642 54.5592 9.2642C54.8641 9.2642 55.1873 9.30066 55.5287 9.37358C55.8734 9.44318 56.1949 9.57244 56.4932 9.76136C56.7948 9.95028 57.0417 10.2204 57.2339 10.5717C57.4262 10.9197 57.5223 11.3722 57.5223 11.929V17H56.0706V15.956H56.0109C55.9148 16.1482 55.7706 16.3371 55.5784 16.5227C55.3862 16.7083 55.1392 16.8625 54.8376 16.9851C54.536 17.1077 54.1747 17.169 53.7538 17.169ZM54.077 15.9759C54.488 15.9759 54.8393 15.8946 55.1309 15.7322C55.4259 15.5698 55.6497 15.3577 55.8021 15.0959C55.9579 14.8307 56.0358 14.5473 56.0358 14.2457V13.2614C55.9827 13.3144 55.88 13.3641 55.7275 13.4105C55.5784 13.4536 55.4077 13.4917 55.2155 13.5249C55.0232 13.5547 54.836 13.5829 54.6537 13.6094C54.4714 13.6326 54.3189 13.6525 54.1963 13.669C53.9079 13.7055 53.6444 13.7668 53.4058 13.853C53.1705 13.9392 52.9816 14.0634 52.839 14.2259C52.6998 14.3849 52.6302 14.5971 52.6302 14.8622C52.6302 15.2301 52.7661 15.5085 53.0379 15.6974C53.3097 15.883 53.656 15.9759 54.077 15.9759ZM60.9887 12.4659V17H59.5022V9.36364H60.9291V10.6065H61.0235C61.1992 10.2022 61.4743 9.87737 61.8488 9.6321C62.2267 9.38684 62.7023 9.2642 63.2757 9.2642C63.796 9.2642 64.2517 9.37358 64.6428 9.59233C65.0339 9.80777 65.3372 10.1293 65.5526 10.5568C65.7681 10.9844 65.8758 11.513 65.8758 12.1428V17H64.3893V12.3217C64.3893 11.7682 64.2451 11.3357 63.9568 11.0241C63.6684 10.7093 63.2723 10.5518 62.7686 10.5518C62.4239 10.5518 62.1173 10.6264 61.8488 10.7756C61.5837 10.9247 61.3732 11.1435 61.2174 11.4318C61.065 11.7169 60.9887 12.0616 60.9887 12.4659ZM71.434 9.36364V10.5568H67.2629V9.36364H71.434ZM68.3815 7.53409H69.868V14.7578C69.868 15.0462 69.9111 15.2633 69.9972 15.4091C70.0834 15.5516 70.1945 15.6494 70.3303 15.7024C70.4695 15.7521 70.6204 15.777 70.7828 15.777C70.9021 15.777 71.0065 15.7687 71.096 15.7521C71.1855 15.7356 71.2551 15.7223 71.3048 15.7124L71.5732 16.9403C71.4871 16.9735 71.3644 17.0066 71.2053 17.0398C71.0463 17.0762 70.8474 17.0961 70.6088 17.0994C70.2177 17.1061 69.8531 17.0365 69.515 16.8906C69.1769 16.7448 68.9035 16.5194 68.6947 16.2145C68.4859 15.9096 68.3815 15.5268 68.3815 15.0661V7.53409Z" fill="#344054"/>
</svg>
