<svg width="20" height="20" viewBox="0 0 20 20" fill="none" xmlns="http://www.w3.org/2000/svg">
<path fill-rule="evenodd" clip-rule="evenodd" d="M8.33333 0.833984C7.24482 0.833984 6.31879 1.52966 5.97559 2.50065H5.83333C3.99238 2.50065 2.5 3.99304 2.5 5.83398V15.0007C2.5 16.8416 3.99238 18.334 5.83333 18.334H14.1667C16.0076 18.334 17.5 16.8416 17.5 15.0007V5.83398C17.5 3.99304 16.0076 2.50065 14.1667 2.50065H14.0244C13.6812 1.52966 12.7552 0.833984 11.6667 0.833984H8.33333ZM7.5 3.33398C7.5 2.87375 7.8731 2.50065 8.33333 2.50065H11.6667C12.1269 2.50065 12.5 2.87375 12.5 3.33398C12.5 3.79422 12.1269 4.16732 11.6667 4.16732H8.33333C7.8731 4.16732 7.5 3.79422 7.5 3.33398ZM4.16667 5.83398C4.16667 4.91351 4.91286 4.16732 5.83333 4.16732H5.97559C6.31879 5.13831 7.24482 5.83398 8.33333 5.83398H11.6667C12.7552 5.83398 13.6812 5.13831 14.0244 4.16732H14.1667C15.0871 4.16732 15.8333 4.91351 15.8333 5.83398V15.0007C15.8333 15.9211 15.0871 16.6673 14.1667 16.6673H5.83333C4.91286 16.6673 4.16667 15.9211 4.16667 15.0007V5.83398Z" fill="#547D74"/>
</svg>
