<svg width="32" height="32" viewBox="0 0 32 32" fill="none" xmlns="http://www.w3.org/2000/svg">
<rect x="0.5" y="0.5" width="31" height="31" rx="15.5" fill="white"/>
<rect x="0.5" y="0.5" width="31" height="31" rx="15.5" stroke="#E4E7EC"/>
<path d="M12.7006 11.7578C12.4402 11.4974 12.0181 11.4974 11.7578 11.7578C11.4974 12.0181 11.4974 12.4402 11.7578 12.7006L15.0576 16.0004L11.7578 19.3002C11.4974 19.5606 11.4974 19.9827 11.7578 20.243C12.0181 20.5034 12.4402 20.5034 12.7006 20.243L16.0004 16.9432L19.3002 20.243C19.5606 20.5034 19.9827 20.5034 20.243 20.243C20.5034 19.9827 20.5034 19.5606 20.243 19.3002L16.9432 16.0004L20.243 12.7006C20.5034 12.4402 20.5034 12.0181 20.243 11.7578C19.9827 11.4974 19.5606 11.4974 19.3002 11.7578L16.0004 15.0576L12.7006 11.7578Z" fill="#D42620"/>
</svg>
