<svg width="107" height="24" viewBox="0 0 107 24" fill="none" xmlns="http://www.w3.org/2000/svg">
<rect width="107" height="24" rx="12" fill="#FEF6E7"/>
<path d="M21.8477 10.1293H20.2966C20.2369 9.79782 20.1259 9.50615 19.9635 9.25426C19.8011 9.00237 19.6022 8.78859 19.3669 8.61293C19.1316 8.43726 18.8681 8.30469 18.5764 8.2152C18.2881 8.12571 17.9815 8.08097 17.6567 8.08097C17.07 8.08097 16.5447 8.22846 16.0807 8.52344C15.62 8.81842 15.2554 9.25095 14.9869 9.82102C14.7218 10.3911 14.5892 11.0871 14.5892 11.9091C14.5892 12.7377 14.7218 13.437 14.9869 14.0071C15.2554 14.5772 15.6217 15.008 16.0857 15.2997C16.5497 15.5914 17.0717 15.7372 17.6517 15.7372C17.9732 15.7372 18.2781 15.6941 18.5665 15.608C18.8582 15.5185 19.1217 15.3875 19.357 15.2152C19.5923 15.0429 19.7912 14.8324 19.9536 14.5838C20.1193 14.3319 20.2336 14.0436 20.2966 13.7188L21.8477 13.7237C21.7649 14.2242 21.6041 14.6849 21.3655 15.1058C21.1302 15.5234 20.8269 15.8847 20.4557 16.1896C20.0878 16.4912 19.6669 16.7249 19.1929 16.8906C18.719 17.0563 18.2019 17.1392 17.6418 17.1392C16.7602 17.1392 15.9746 16.9304 15.2852 16.5128C14.5959 16.0919 14.0523 15.4903 13.6546 14.7081C13.2602 13.9259 13.0629 12.9929 13.0629 11.9091C13.0629 10.822 13.2618 9.88897 13.6595 9.11008C14.0573 8.32789 14.6008 7.72798 15.2902 7.31037C15.9796 6.88944 16.7635 6.67898 17.6418 6.67898C18.182 6.67898 18.6858 6.75687 19.1531 6.91264C19.6238 7.0651 20.0464 7.29048 20.4209 7.58878C20.7954 7.88376 21.1053 8.24503 21.3506 8.67258C21.5959 9.09683 21.7616 9.58239 21.8477 10.1293ZM26.7833 17.1541C26.0674 17.1541 25.4426 16.9901 24.909 16.6619C24.3754 16.3338 23.9611 15.8748 23.6661 15.2848C23.3711 14.6948 23.2236 14.0054 23.2236 13.2166C23.2236 12.4245 23.3711 11.7318 23.6661 11.1385C23.9611 10.5452 24.3754 10.0845 24.909 9.75639C25.4426 9.42827 26.0674 9.2642 26.7833 9.2642C27.4992 9.2642 28.124 9.42827 28.6576 9.75639C29.1912 10.0845 29.6055 10.5452 29.9005 11.1385C30.1955 11.7318 30.343 12.4245 30.343 13.2166C30.343 14.0054 30.1955 14.6948 29.9005 15.2848C29.6055 15.8748 29.1912 16.3338 28.6576 16.6619C28.124 16.9901 27.4992 17.1541 26.7833 17.1541ZM26.7883 15.9062C27.2523 15.9062 27.6367 15.7836 27.9417 15.5384C28.2466 15.2931 28.472 14.9666 28.6178 14.5589C28.767 14.1513 28.8415 13.7022 28.8415 13.2116C28.8415 12.7244 28.767 12.277 28.6178 11.8693C28.472 11.4583 28.2466 11.1286 27.9417 10.88C27.6367 10.6314 27.2523 10.5071 26.7883 10.5071C26.3209 10.5071 25.9332 10.6314 25.6249 10.88C25.32 11.1286 25.093 11.4583 24.9438 11.8693C24.798 12.277 24.7251 12.7244 24.7251 13.2116C24.7251 13.7022 24.798 14.1513 24.9438 14.5589C25.093 14.9666 25.32 15.2931 25.6249 15.5384C25.9332 15.7836 26.3209 15.9062 26.7883 15.9062ZM33.4887 12.4659V17H32.0022V9.36364H33.4291V10.6065H33.5235C33.6992 10.2022 33.9743 9.87737 34.3488 9.6321C34.7267 9.38684 35.2023 9.2642 35.7757 9.2642C36.296 9.2642 36.7517 9.37358 37.1428 9.59233C37.5339 9.80777 37.8372 10.1293 38.0526 10.5568C38.2681 10.9844 38.3758 11.513 38.3758 12.1428V17H36.8893V12.3217C36.8893 11.7682 36.7451 11.3357 36.4568 11.0241C36.1684 10.7093 35.7723 10.5518 35.2686 10.5518C34.9239 10.5518 34.6173 10.6264 34.3488 10.7756C34.0837 10.9247 33.8732 11.1435 33.7174 11.4318C33.565 11.7169 33.4887 12.0616 33.4887 12.4659ZM43.586 17.1541C42.8469 17.1541 42.2106 16.9867 41.6769 16.652C41.1466 16.3139 40.739 15.8482 40.4539 15.255C40.1689 14.6617 40.0264 13.9822 40.0264 13.2166C40.0264 12.4411 40.1722 11.7566 40.4639 11.1634C40.7555 10.5668 41.1665 10.1011 41.6968 9.76633C42.2271 9.43158 42.8519 9.2642 43.5711 9.2642C44.1511 9.2642 44.6682 9.37192 45.1222 9.58736C45.5763 9.79948 45.9426 10.0978 46.221 10.4822C46.5027 10.8667 46.6701 11.3158 46.7231 11.8295H45.2764C45.1968 11.4716 45.0145 11.1634 44.7295 10.9048C44.4478 10.6463 44.0699 10.517 43.596 10.517C43.1817 10.517 42.8187 10.6264 42.5072 10.8452C42.199 11.0606 41.9587 11.3688 41.7863 11.7699C41.614 12.1676 41.5278 12.6383 41.5278 13.1818C41.5278 13.7386 41.6123 14.2192 41.7813 14.6236C41.9504 15.0279 42.189 15.3411 42.4972 15.5632C42.8088 15.7853 43.175 15.8963 43.596 15.8963C43.8777 15.8963 44.1329 15.8449 44.3616 15.7422C44.5936 15.6361 44.7875 15.4853 44.9433 15.2898C45.1024 15.0942 45.2134 14.8589 45.2764 14.5838H46.7231C46.6701 15.0777 46.5093 15.5185 46.2409 15.9062C45.9724 16.294 45.6128 16.599 45.162 16.821C44.7146 17.0431 44.1892 17.1541 43.586 17.1541ZM48.3128 17V9.36364H49.7993V17H48.3128ZM49.0635 8.18537C48.805 8.18537 48.5829 8.09919 48.3973 7.92685C48.215 7.75118 48.1238 7.54238 48.1238 7.30043C48.1238 7.05516 48.215 6.84635 48.3973 6.67401C48.5829 6.49834 48.805 6.41051 49.0635 6.41051C49.322 6.41051 49.5424 6.49834 49.7247 6.67401C49.9103 6.84635 50.0031 7.05516 50.0031 7.30043C50.0031 7.54238 49.9103 7.75118 49.7247 7.92685C49.5424 8.09919 49.322 8.18537 49.0635 8.18537ZM53.2856 6.81818V17H51.7991V6.81818H53.2856ZM56.7719 6.81818V17H55.2854V6.81818H56.7719ZM58.7718 17V9.36364H60.2583V17H58.7718ZM59.5225 8.18537C59.2639 8.18537 59.0419 8.09919 58.8563 7.92685C58.674 7.75118 58.5828 7.54238 58.5828 7.30043C58.5828 7.05516 58.674 6.84635 58.8563 6.67401C59.0419 6.49834 59.2639 6.41051 59.5225 6.41051C59.781 6.41051 60.0014 6.49834 60.1837 6.67401C60.3693 6.84635 60.4621 7.05516 60.4621 7.30043C60.4621 7.54238 60.3693 7.75118 60.1837 7.92685C60.0014 8.09919 59.781 8.18537 59.5225 8.18537ZM64.4804 17.169C63.9965 17.169 63.559 17.0795 63.1679 16.9006C62.7768 16.7183 62.4669 16.4548 62.2382 16.1101C62.0128 15.7654 61.9001 15.3428 61.9001 14.8423C61.9001 14.4115 61.983 14.0568 62.1487 13.7784C62.3144 13.5 62.5381 13.2796 62.8199 13.1172C63.1016 12.9548 63.4165 12.8321 63.7645 12.7493C64.1125 12.6664 64.4671 12.6035 64.8284 12.5604C65.2858 12.5073 65.657 12.4643 65.942 12.4311C66.2271 12.3946 66.4342 12.3366 66.5635 12.2571C66.6927 12.1776 66.7574 12.0483 66.7574 11.8693V11.8345C66.7574 11.4003 66.6347 11.0639 66.3895 10.8253C66.1475 10.5866 65.7863 10.4673 65.3057 10.4673C64.8052 10.4673 64.4108 10.5784 64.1224 10.8004C63.8374 11.0192 63.6402 11.2628 63.5308 11.5312L62.1338 11.2131C62.2995 10.7491 62.5415 10.3745 62.8596 10.0895C63.1811 9.80114 63.5507 9.59233 63.9683 9.46307C64.3859 9.33049 64.8251 9.2642 65.2858 9.2642C65.5907 9.2642 65.9139 9.30066 66.2552 9.37358C66.5999 9.44318 66.9214 9.57244 67.2197 9.76136C67.5213 9.95028 67.7683 10.2204 67.9605 10.5717C68.1527 10.9197 68.2488 11.3722 68.2488 11.929V17H66.7971V15.956H66.7375C66.6414 16.1482 66.4972 16.3371 66.305 16.5227C66.1127 16.7083 65.8658 16.8625 65.5642 16.9851C65.2626 17.1077 64.9013 17.169 64.4804 17.169ZM64.8035 15.9759C65.2145 15.9759 65.5658 15.8946 65.8575 15.7322C66.1525 15.5698 66.3762 15.3577 66.5287 15.0959C66.6845 14.8307 66.7623 14.5473 66.7623 14.2457V13.2614C66.7093 13.3144 66.6066 13.3641 66.4541 13.4105C66.305 13.4536 66.1343 13.4917 65.942 13.5249C65.7498 13.5547 65.5625 13.5829 65.3802 13.6094C65.1979 13.6326 65.0455 13.6525 64.9229 13.669C64.6345 13.7055 64.371 13.7668 64.1324 13.853C63.897 13.9392 63.7081 14.0634 63.5656 14.2259C63.4264 14.3849 63.3568 14.5971 63.3568 14.8622C63.3568 15.2301 63.4927 15.5085 63.7645 15.6974C64.0363 15.883 64.3826 15.9759 64.8035 15.9759ZM73.7934 9.36364V10.5568H69.6222V9.36364H73.7934ZM70.7409 7.53409H72.2274V14.7578C72.2274 15.0462 72.2704 15.2633 72.3566 15.4091C72.4428 15.5516 72.5538 15.6494 72.6897 15.7024C72.8289 15.7521 72.9797 15.777 73.1421 15.777C73.2615 15.777 73.3659 15.7687 73.4553 15.7521C73.5448 15.7356 73.6144 15.7223 73.6642 15.7124L73.9326 16.9403C73.8464 16.9735 73.7238 17.0066 73.5647 17.0398C73.4056 17.0762 73.2068 17.0961 72.9681 17.0994C72.577 17.1061 72.2124 17.0365 71.8744 16.8906C71.5363 16.7448 71.2629 16.5194 71.0541 16.2145C70.8453 15.9096 70.7409 15.5268 70.7409 15.0661V7.53409ZM75.4378 17V9.36364H76.9243V17H75.4378ZM76.1885 8.18537C75.93 8.18537 75.7079 8.09919 75.5223 7.92685C75.34 7.75118 75.2488 7.54238 75.2488 7.30043C75.2488 7.05516 75.34 6.84635 75.5223 6.67401C75.7079 6.49834 75.93 6.41051 76.1885 6.41051C76.447 6.41051 76.6674 6.49834 76.8497 6.67401C77.0353 6.84635 77.1281 7.05516 77.1281 7.30043C77.1281 7.54238 77.0353 7.75118 76.8497 7.92685C76.6674 8.09919 76.447 8.18537 76.1885 8.18537ZM82.1407 17.1541C81.4248 17.1541 80.8 16.9901 80.2664 16.6619C79.7328 16.3338 79.3185 15.8748 79.0235 15.2848C78.7285 14.6948 78.5811 14.0054 78.5811 13.2166C78.5811 12.4245 78.7285 11.7318 79.0235 11.1385C79.3185 10.5452 79.7328 10.0845 80.2664 9.75639C80.8 9.42827 81.4248 9.2642 82.1407 9.2642C82.8566 9.2642 83.4814 9.42827 84.015 9.75639C84.5486 10.0845 84.9629 10.5452 85.2579 11.1385C85.5529 11.7318 85.7004 12.4245 85.7004 13.2166C85.7004 14.0054 85.5529 14.6948 85.2579 15.2848C84.9629 15.8748 84.5486 16.3338 84.015 16.6619C83.4814 16.9901 82.8566 17.1541 82.1407 17.1541ZM82.1457 15.9062C82.6097 15.9062 82.9942 15.7836 83.2991 15.5384C83.604 15.2931 83.8294 14.9666 83.9752 14.5589C84.1244 14.1513 84.199 13.7022 84.199 13.2116C84.199 12.7244 84.1244 12.277 83.9752 11.8693C83.8294 11.4583 83.604 11.1286 83.2991 10.88C82.9942 10.6314 82.6097 10.5071 82.1457 10.5071C81.6784 10.5071 81.2906 10.6314 80.9823 10.88C80.6774 11.1286 80.4504 11.4583 80.3012 11.8693C80.1554 12.277 80.0825 12.7244 80.0825 13.2116C80.0825 13.7022 80.1554 14.1513 80.3012 14.5589C80.4504 14.9666 80.6774 15.2931 80.9823 15.5384C81.2906 15.7836 81.6784 15.9062 82.1457 15.9062ZM88.8461 12.4659V17H87.3596V9.36364H88.7865V10.6065H88.8809C89.0566 10.2022 89.3317 9.87737 89.7062 9.6321C90.0841 9.38684 90.5597 9.2642 91.1331 9.2642C91.6534 9.2642 92.1092 9.37358 92.5003 9.59233C92.8914 9.80777 93.1946 10.1293 93.4101 10.5568C93.6255 10.9844 93.7332 11.513 93.7332 12.1428V17H92.2467V12.3217C92.2467 11.7682 92.1025 11.3357 91.8142 11.0241C91.5258 10.7093 91.1298 10.5518 90.626 10.5518C90.2813 10.5518 89.9747 10.6264 89.7062 10.7756C89.4411 10.9247 89.2306 11.1435 89.0748 11.4318C88.9224 11.7169 88.8461 12.0616 88.8461 12.4659Z" fill="#DD900D"/>
</svg>
