<svg width="20" height="20" viewBox="0 0 20 20" fill="none" xmlns="http://www.w3.org/2000/svg">
<path fill-rule="evenodd" clip-rule="evenodd" d="M11.6641 1.66602C9.82311 1.66602 8.33073 3.1584 8.33073 4.99935V6.66602H4.9974C3.15645 6.66602 1.66406 8.1584 1.66406 9.99935V14.9993C1.66406 16.8403 3.15645 18.3327 4.9974 18.3327H8.33073C10.1717 18.3327 11.6641 16.8403 11.6641 14.9993V13.3327H14.9974C16.8383 13.3327 18.3307 11.8403 18.3307 9.99935V4.99935C18.3307 3.1584 16.8383 1.66602 14.9974 1.66602H11.6641ZM11.6641 11.666H14.9974C15.9179 11.666 16.6641 10.9198 16.6641 9.99935V4.99935C16.6641 4.07887 15.9179 3.33268 14.9974 3.33268H11.6641C10.7436 3.33268 9.9974 4.07887 9.9974 4.99935V7.11196C10.9937 7.68831 11.6641 8.76554 11.6641 9.99935V11.666ZM3.33073 9.99935C3.33073 9.07887 4.07692 8.33268 4.9974 8.33268H8.33073C9.2512 8.33268 9.9974 9.07887 9.9974 9.99935V14.9993C9.9974 15.9198 9.2512 16.666 8.33073 16.666H4.9974C4.07692 16.666 3.33073 15.9198 3.33073 14.9993V9.99935Z" fill="#98A2B3"/>
</svg>
