<svg width="122" height="24" viewBox="0 0 122 24" fill="none" xmlns="http://www.w3.org/2000/svg">
<rect width="122" height="24" rx="12" fill="#FEF6E7"/>
<path d="M21.5753 10.1293H20.0241C19.9645 9.79782 19.8535 9.50615 19.6911 9.25426C19.5286 9.00237 19.3298 8.78859 19.0945 8.61293C18.8591 8.43726 18.5956 8.30469 18.304 8.2152C18.0156 8.12571 17.709 8.08097 17.3842 8.08097C16.7976 8.08097 16.2723 8.22846 15.8082 8.52344C15.3475 8.81842 14.983 9.25095 14.7145 9.82102C14.4493 10.3911 14.3168 11.0871 14.3168 11.9091C14.3168 12.7377 14.4493 13.437 14.7145 14.0071C14.983 14.5772 15.3492 15.008 15.8132 15.2997C16.2772 15.5914 16.7992 15.7372 17.3793 15.7372C17.7008 15.7372 18.0057 15.6941 18.294 15.608C18.5857 15.5185 18.8492 15.3875 19.0845 15.2152C19.3198 15.0429 19.5187 14.8324 19.6811 14.5838C19.8468 14.3319 19.9612 14.0436 20.0241 13.7188L21.5753 13.7237C21.4924 14.2242 21.3317 14.6849 21.093 15.1058C20.8577 15.5234 20.5545 15.8847 20.1832 16.1896C19.8153 16.4912 19.3944 16.7249 18.9205 16.8906C18.4465 17.0563 17.9295 17.1392 17.3693 17.1392C16.4877 17.1392 15.7022 16.9304 15.0128 16.5128C14.3234 16.0919 13.7798 15.4903 13.3821 14.7081C12.9877 13.9259 12.7905 12.9929 12.7905 11.9091C12.7905 10.822 12.9893 9.88897 13.3871 9.11008C13.7848 8.32789 14.3284 7.72798 15.0178 7.31037C15.7071 6.88944 16.491 6.67898 17.3693 6.67898C17.9096 6.67898 18.4134 6.75687 18.8807 6.91264C19.3513 7.0651 19.7739 7.29048 20.1484 7.58878C20.523 7.88376 20.8329 8.24503 21.0781 8.67258C21.3234 9.09683 21.4891 9.58239 21.5753 10.1293ZM26.5108 17.1541C25.7949 17.1541 25.1702 16.9901 24.6365 16.6619C24.1029 16.3338 23.6886 15.8748 23.3936 15.2848C23.0987 14.6948 22.9512 14.0054 22.9512 13.2166C22.9512 12.4245 23.0987 11.7318 23.3936 11.1385C23.6886 10.5452 24.1029 10.0845 24.6365 9.75639C25.1702 9.42827 25.7949 9.2642 26.5108 9.2642C27.2267 9.2642 27.8515 9.42827 28.3851 9.75639C28.9187 10.0845 29.333 10.5452 29.628 11.1385C29.923 11.7318 30.0705 12.4245 30.0705 13.2166C30.0705 14.0054 29.923 14.6948 29.628 15.2848C29.333 15.8748 28.9187 16.3338 28.3851 16.6619C27.8515 16.9901 27.2267 17.1541 26.5108 17.1541ZM26.5158 15.9062C26.9798 15.9062 27.3643 15.7836 27.6692 15.5384C27.9741 15.2931 28.1995 14.9666 28.3453 14.5589C28.4945 14.1513 28.5691 13.7022 28.5691 13.2116C28.5691 12.7244 28.4945 12.277 28.3453 11.8693C28.1995 11.4583 27.9741 11.1286 27.6692 10.88C27.3643 10.6314 26.9798 10.5071 26.5158 10.5071C26.0485 10.5071 25.6607 10.6314 25.3525 10.88C25.0475 11.1286 24.8205 11.4583 24.6713 11.8693C24.5255 12.277 24.4526 12.7244 24.4526 13.2116C24.4526 13.7022 24.5255 14.1513 24.6713 14.5589C24.8205 14.9666 25.0475 15.2931 25.3525 15.5384C25.6607 15.7836 26.0485 15.9062 26.5158 15.9062ZM36.5671 13.8331V9.36364H38.0586V17H36.5969V15.6776H36.5174C36.3417 16.0852 36.06 16.425 35.6722 16.6967C35.2878 16.9652 34.8088 17.0994 34.2354 17.0994C33.7449 17.0994 33.3107 16.9917 32.9329 16.7763C32.5584 16.5575 32.2634 16.2344 32.0479 15.8068C31.8358 15.3793 31.7298 14.8506 31.7298 14.2209V9.36364H33.2163V14.0419C33.2163 14.5623 33.3604 14.9766 33.6488 15.2848C33.9371 15.593 34.3117 15.7472 34.7724 15.7472C35.0508 15.7472 35.3275 15.6776 35.6026 15.5384C35.881 15.3991 36.1114 15.1887 36.2937 14.907C36.4793 14.6252 36.5704 14.2673 36.5671 13.8331ZM40.0559 17V9.36364H41.4927V10.5767H41.5723C41.7115 10.1657 41.9567 9.84257 42.3081 9.60724C42.6627 9.36861 43.0637 9.24929 43.5112 9.24929C43.604 9.24929 43.7134 9.2526 43.8393 9.25923C43.9686 9.26586 44.0697 9.27415 44.1426 9.28409V10.706C44.0829 10.6894 43.9769 10.6712 43.8244 10.6513C43.6719 10.6281 43.5195 10.6165 43.367 10.6165C43.0157 10.6165 42.7025 10.6911 42.4274 10.8402C42.1556 10.986 41.9402 11.1899 41.7811 11.4517C41.622 11.7102 41.5424 12.0052 41.5424 12.3366V17H40.0559ZM49.4448 9.36364V10.5568H45.2736V9.36364H49.4448ZM46.3922 7.53409H47.8787V14.7578C47.8787 15.0462 47.9218 15.2633 48.008 15.4091C48.0942 15.5516 48.2052 15.6494 48.3411 15.7024C48.4803 15.7521 48.6311 15.777 48.7935 15.777C48.9128 15.777 49.0172 15.7687 49.1067 15.7521C49.1962 15.7356 49.2658 15.7223 49.3155 15.7124L49.584 16.9403C49.4978 16.9735 49.3752 17.0066 49.2161 17.0398C49.057 17.0762 48.8581 17.0961 48.6195 17.0994C48.2284 17.1061 47.8638 17.0365 47.5257 16.8906C47.1877 16.7448 46.9142 16.5194 46.7054 16.2145C46.4966 15.9096 46.3922 15.5268 46.3922 15.0661V7.53409ZM57.6529 17.1491C57.0364 17.1491 56.4862 16.9917 56.0023 16.6768C55.5217 16.3587 55.1439 15.9062 54.8688 15.3196C54.597 14.7296 54.4611 14.022 54.4611 13.1967C54.4611 12.3714 54.5987 11.6655 54.8738 11.0788C55.1522 10.4922 55.5333 10.0431 56.0172 9.73153C56.5011 9.41998 57.0497 9.2642 57.6628 9.2642C58.1368 9.2642 58.5179 9.34375 58.8063 9.50284C59.098 9.65862 59.3233 9.84091 59.4824 10.0497C59.6448 10.2585 59.7708 10.4425 59.8603 10.6016H59.9498V6.81818H61.4363V17H59.9846V15.8118H59.8603C59.7708 15.9742 59.6415 16.1598 59.4725 16.3686C59.3068 16.5774 59.0781 16.7597 58.7864 16.9155C58.4947 17.0713 58.1169 17.1491 57.6529 17.1491ZM57.981 15.8814C58.4086 15.8814 58.7698 15.7687 59.0648 15.5433C59.3631 15.3146 59.5885 14.9981 59.7409 14.5938C59.8967 14.1894 59.9746 13.7187 59.9746 13.1818C59.9746 12.6515 59.8984 12.1875 59.7459 11.7898C59.5935 11.392 59.3697 11.0821 59.0748 10.8601C58.7798 10.638 58.4152 10.527 57.981 10.527C57.5336 10.527 57.1607 10.643 56.8624 10.875C56.5641 11.107 56.3387 11.4235 56.1863 11.8246C56.0371 12.2256 55.9625 12.678 55.9625 13.1818C55.9625 13.6922 56.0388 14.1513 56.1912 14.5589C56.3437 14.9666 56.5691 15.2898 56.8674 15.5284C57.169 15.7637 57.5402 15.8814 57.981 15.8814ZM66.8491 17.1541C66.0967 17.1541 65.4487 16.9934 64.9052 16.6719C64.3649 16.3471 63.9473 15.8913 63.6523 15.3047C63.3607 14.7147 63.2148 14.0237 63.2148 13.2315C63.2148 12.4493 63.3607 11.7599 63.6523 11.1634C63.9473 10.5668 64.3583 10.1011 64.8853 9.76633C65.4156 9.43158 66.0354 9.2642 66.7447 9.2642C67.1755 9.2642 67.5932 9.33546 67.9975 9.47798C68.4019 9.6205 68.7648 9.84422 69.0863 10.1491C69.4078 10.4541 69.6613 10.8501 69.8469 11.3374C70.0326 11.8213 70.1254 12.4096 70.1254 13.1023V13.6293H64.055V12.5156H68.6687C68.6687 12.1245 68.5891 11.7782 68.43 11.4766C68.271 11.1716 68.0472 10.9313 67.7589 10.7557C67.4738 10.58 67.1391 10.4922 66.7546 10.4922C66.337 10.4922 65.9724 10.5949 65.6609 10.8004C65.3526 11.0026 65.114 11.2678 64.945 11.5959C64.7792 11.9207 64.6964 12.2737 64.6964 12.6548V13.5249C64.6964 14.0353 64.7859 14.4695 64.9648 14.8274C65.1471 15.1854 65.4007 15.4588 65.7255 15.6477C66.0503 15.8333 66.4298 15.9261 66.864 15.9261C67.1457 15.9261 67.4026 15.8864 67.6346 15.8068C67.8666 15.724 68.0671 15.6013 68.2362 15.4389C68.4052 15.2765 68.5344 15.076 68.6239 14.8374L70.0309 15.0909C69.9182 15.5052 69.716 15.8681 69.4244 16.1797C69.136 16.4879 68.7731 16.7282 68.3356 16.9006C67.9014 17.0696 67.4059 17.1541 66.8491 17.1541ZM74.9913 17.1541C74.2522 17.1541 73.6158 16.9867 73.0822 16.652C72.5519 16.3139 72.1442 15.8482 71.8592 15.255C71.5742 14.6617 71.4316 13.9822 71.4316 13.2166C71.4316 12.4411 71.5775 11.7566 71.8691 11.1634C72.1608 10.5668 72.5718 10.1011 73.1021 9.76633C73.6324 9.43158 74.2572 9.2642 74.9764 9.2642C75.5564 9.2642 76.0734 9.37192 76.5275 9.58736C76.9816 9.79948 77.3478 10.0978 77.6262 10.4822C77.908 10.8667 78.0753 11.3158 78.1284 11.8295H76.6816C76.6021 11.4716 76.4198 11.1634 76.1348 10.9048C75.853 10.6463 75.4752 10.517 75.0012 10.517C74.5869 10.517 74.224 10.6264 73.9125 10.8452C73.6042 11.0606 73.3639 11.3688 73.1916 11.7699C73.0192 12.1676 72.9331 12.6383 72.9331 13.1818C72.9331 13.7386 73.0176 14.2192 73.1866 14.6236C73.3556 15.0279 73.5943 15.3411 73.9025 15.5632C74.2141 15.7853 74.5803 15.8963 75.0012 15.8963C75.283 15.8963 75.5382 15.8449 75.7669 15.7422C75.9989 15.6361 76.1928 15.4853 76.3485 15.2898C76.5076 15.0942 76.6187 14.8589 76.6816 14.5838H78.1284C78.0753 15.0777 77.9146 15.5185 77.6461 15.9062C77.3777 16.294 77.0181 16.599 76.5673 16.821C76.1199 17.0431 75.5945 17.1541 74.9913 17.1541ZM79.718 17V9.36364H81.2045V17H79.718ZM80.4688 8.18537C80.2102 8.18537 79.9882 8.09919 79.8026 7.92685C79.6203 7.75118 79.5291 7.54238 79.5291 7.30043C79.5291 7.05516 79.6203 6.84635 79.8026 6.67401C79.9882 6.49834 80.2102 6.41051 80.4688 6.41051C80.7273 6.41051 80.9477 6.49834 81.13 6.67401C81.3156 6.84635 81.4084 7.05516 81.4084 7.30043C81.4084 7.54238 81.3156 7.75118 81.13 7.92685C80.9477 8.09919 80.7273 8.18537 80.4688 8.18537ZM88.9267 11.228L87.5794 11.4666C87.523 11.2943 87.4335 11.1302 87.3109 10.9744C87.1916 10.8187 87.0292 10.6911 86.8237 10.5916C86.6182 10.4922 86.3613 10.4425 86.0531 10.4425C85.6322 10.4425 85.2808 10.5369 84.9991 10.7259C84.7174 10.9115 84.5765 11.1518 84.5765 11.4467C84.5765 11.7019 84.671 11.9074 84.8599 12.0632C85.0488 12.219 85.3538 12.3466 85.7747 12.446L86.9877 12.7244C87.6904 12.8868 88.2141 13.1371 88.5588 13.4751C88.9035 13.8132 89.0758 14.2524 89.0758 14.7926C89.0758 15.25 88.9432 15.6577 88.6781 16.0156C88.4163 16.3703 88.05 16.6487 87.5794 16.8509C87.112 17.053 86.5701 17.1541 85.9537 17.1541C85.0985 17.1541 84.4009 16.9718 83.8606 16.6072C83.3204 16.2393 82.9889 15.7173 82.8663 15.0412L84.3031 14.8224C84.3926 15.197 84.5765 15.4804 84.8549 15.6726C85.1333 15.8615 85.4963 15.956 85.9437 15.956C86.4309 15.956 86.8204 15.8549 87.112 15.6527C87.4037 15.4472 87.5495 15.197 87.5495 14.902C87.5495 14.6634 87.46 14.4628 87.2811 14.3004C87.1054 14.138 86.8353 14.0154 86.4707 13.9325L85.1781 13.6491C84.4655 13.4867 83.9385 13.2282 83.5971 12.8736C83.2591 12.5189 83.09 12.0698 83.09 11.5263C83.09 11.0755 83.216 10.6811 83.4679 10.343C83.7198 10.005 84.0678 9.74148 84.5119 9.55256C84.956 9.36032 85.4648 9.2642 86.0382 9.2642C86.8635 9.2642 87.5131 9.44318 87.987 9.80114C88.461 10.1558 88.7742 10.6314 88.9267 11.228ZM90.7102 17V9.36364H92.1967V17H90.7102ZM91.4609 8.18537C91.2024 8.18537 90.9804 8.09919 90.7947 7.92685C90.6125 7.75118 90.5213 7.54238 90.5213 7.30043C90.5213 7.05516 90.6125 6.84635 90.7947 6.67401C90.9804 6.49834 91.2024 6.41051 91.4609 6.41051C91.7195 6.41051 91.9399 6.49834 92.1222 6.67401C92.3078 6.84635 92.4006 7.05516 92.4006 7.30043C92.4006 7.54238 92.3078 7.75118 92.1222 7.92685C91.9399 8.09919 91.7195 8.18537 91.4609 8.18537ZM97.4132 17.1541C96.6973 17.1541 96.0725 16.9901 95.5389 16.6619C95.0053 16.3338 94.591 15.8748 94.296 15.2848C94.001 14.6948 93.8535 14.0054 93.8535 13.2166C93.8535 12.4245 94.001 11.7318 94.296 11.1385C94.591 10.5452 95.0053 10.0845 95.5389 9.75639C96.0725 9.42827 96.6973 9.2642 97.4132 9.2642C98.1291 9.2642 98.7538 9.42827 99.2875 9.75639C99.8211 10.0845 100.235 10.5452 100.53 11.1385C100.825 11.7318 100.973 12.4245 100.973 13.2166C100.973 14.0054 100.825 14.6948 100.53 15.2848C100.235 15.8748 99.8211 16.3338 99.2875 16.6619C98.7538 16.9901 98.1291 17.1541 97.4132 17.1541ZM97.4181 15.9062C97.8822 15.9062 98.2666 15.7836 98.5716 15.5384C98.8765 15.2931 99.1019 14.9666 99.2477 14.5589C99.3968 14.1513 99.4714 13.7022 99.4714 13.2116C99.4714 12.7244 99.3968 12.277 99.2477 11.8693C99.1019 11.4583 98.8765 11.1286 98.5716 10.88C98.2666 10.6314 97.8822 10.5071 97.4181 10.5071C96.9508 10.5071 96.563 10.6314 96.2548 10.88C95.9499 11.1286 95.7228 11.4583 95.5737 11.8693C95.4279 12.277 95.3549 12.7244 95.3549 13.2116C95.3549 13.7022 95.4279 14.1513 95.5737 14.5589C95.7228 14.9666 95.9499 15.2931 96.2548 15.5384C96.563 15.7836 96.9508 15.9062 97.4181 15.9062ZM104.119 12.4659V17H102.632V9.36364H104.059V10.6065H104.153C104.329 10.2022 104.604 9.87737 104.979 9.6321C105.357 9.38684 105.832 9.2642 106.406 9.2642C106.926 9.2642 107.382 9.37358 107.773 9.59233C108.164 9.80777 108.467 10.1293 108.683 10.5568C108.898 10.9844 109.006 11.513 109.006 12.1428V17H107.519V12.3217C107.519 11.7682 107.375 11.3357 107.087 11.0241C106.798 10.7093 106.402 10.5518 105.898 10.5518C105.554 10.5518 105.247 10.6264 104.979 10.7756C104.714 10.9247 104.503 11.1435 104.347 11.4318C104.195 11.7169 104.119 12.0616 104.119 12.4659Z" fill="#DD900D"/>
</svg>
