<svg width="123" height="24" viewBox="0 0 123 24" fill="none" xmlns="http://www.w3.org/2000/svg">
<rect width="123" height="24" rx="12" fill="#FBEAE9"/>
<path d="M16.5554 17H13.2592V6.81818H16.6598C17.6574 6.81818 18.5142 7.02202 19.2301 7.42969C19.946 7.83404 20.4946 8.41572 20.8757 9.17472C21.2602 9.9304 21.4524 10.8369 21.4524 11.8942C21.4524 12.9548 21.2585 13.8662 20.8707 14.6286C20.4863 15.3909 19.9295 15.9775 19.2003 16.3885C18.4711 16.7962 17.5895 17 16.5554 17ZM14.7955 15.6577H16.4709C17.2464 15.6577 17.8911 15.5118 18.4048 15.2202C18.9186 14.9252 19.303 14.4993 19.5582 13.9425C19.8134 13.3823 19.9411 12.6996 19.9411 11.8942C19.9411 11.0954 19.8134 10.4176 19.5582 9.8608C19.3063 9.30398 18.9302 8.88139 18.4297 8.59304C17.9292 8.30469 17.3078 8.16051 16.5653 8.16051H14.7955V15.6577ZM26.5346 17.1541C25.7823 17.1541 25.1343 16.9934 24.5907 16.6719C24.0505 16.3471 23.6329 15.8913 23.3379 15.3047C23.0462 14.7147 22.9004 14.0237 22.9004 13.2315C22.9004 12.4493 23.0462 11.7599 23.3379 11.1634C23.6329 10.5668 24.0439 10.1011 24.5708 9.76633C25.1011 9.43158 25.7209 9.2642 26.4302 9.2642C26.8611 9.2642 27.2787 9.33546 27.6831 9.47798C28.0874 9.6205 28.4503 9.84422 28.7718 10.1491C29.0933 10.4541 29.3469 10.8501 29.5325 11.3374C29.7181 11.8213 29.8109 12.4096 29.8109 13.1023V13.6293H23.7406V12.5156H28.3542C28.3542 12.1245 28.2747 11.7782 28.1156 11.4766C27.9565 11.1716 27.7328 10.9313 27.4444 10.7557C27.1594 10.58 26.8246 10.4922 26.4402 10.4922C26.0225 10.4922 25.658 10.5949 25.3464 10.8004C25.0382 11.0026 24.7995 11.2678 24.6305 11.5959C24.4648 11.9207 24.3819 12.2737 24.3819 12.6548V13.5249C24.3819 14.0353 24.4714 14.4695 24.6504 14.8274C24.8327 15.1854 25.0862 15.4588 25.411 15.6477C25.7359 15.8333 26.1154 15.9261 26.5495 15.9261C26.8313 15.9261 27.0881 15.8864 27.3201 15.8068C27.5521 15.724 27.7527 15.6013 27.9217 15.4389C28.0907 15.2765 28.22 15.076 28.3095 14.8374L29.7164 15.0909C29.6038 15.5052 29.4016 15.8681 29.1099 16.1797C28.8216 16.4879 28.4586 16.7282 28.0211 16.9006C27.5869 17.0696 27.0914 17.1541 26.5346 17.1541ZM33.6825 17.169C33.1986 17.169 32.7611 17.0795 32.37 16.9006C31.9789 16.7183 31.669 16.4548 31.4403 16.1101C31.215 15.7654 31.1023 15.3428 31.1023 14.8423C31.1023 14.4115 31.1851 14.0568 31.3509 13.7784C31.5166 13.5 31.7403 13.2796 32.022 13.1172C32.3037 12.9548 32.6186 12.8321 32.9666 12.7493C33.3146 12.6664 33.6693 12.6035 34.0305 12.5604C34.4879 12.5073 34.8591 12.4643 35.1442 12.4311C35.4292 12.3946 35.6364 12.3366 35.7656 12.2571C35.8949 12.1776 35.9595 12.0483 35.9595 11.8693V11.8345C35.9595 11.4003 35.8369 11.0639 35.5916 10.8253C35.3497 10.5866 34.9884 10.4673 34.5078 10.4673C34.0073 10.4673 33.6129 10.5784 33.3246 10.8004C33.0395 11.0192 32.8423 11.2628 32.733 11.5312L31.3359 11.2131C31.5017 10.7491 31.7436 10.3745 32.0618 10.0895C32.3833 9.80114 32.7528 9.59233 33.1705 9.46307C33.5881 9.33049 34.0272 9.2642 34.4879 9.2642C34.7929 9.2642 35.116 9.30066 35.4574 9.37358C35.8021 9.44318 36.1236 9.57244 36.4219 9.76136C36.7235 9.95028 36.9704 10.2204 37.1626 10.5717C37.3549 10.9197 37.451 11.3722 37.451 11.929V17H35.9993V15.956H35.9396C35.8435 16.1482 35.6993 16.3371 35.5071 16.5227C35.3149 16.7083 35.0679 16.8625 34.7663 16.9851C34.4647 17.1077 34.1035 17.169 33.6825 17.169ZM34.0057 15.9759C34.4167 15.9759 34.768 15.8946 35.0597 15.7322C35.3546 15.5698 35.5784 15.3577 35.7308 15.0959C35.8866 14.8307 35.9645 14.5473 35.9645 14.2457V13.2614C35.9115 13.3144 35.8087 13.3641 35.6562 13.4105C35.5071 13.4536 35.3364 13.4917 35.1442 13.5249C34.9519 13.5547 34.7647 13.5829 34.5824 13.6094C34.4001 13.6326 34.2476 13.6525 34.125 13.669C33.8366 13.7055 33.5732 13.7668 33.3345 13.853C33.0992 13.9392 32.9103 14.0634 32.7678 14.2259C32.6286 14.3849 32.5589 14.5971 32.5589 14.8622C32.5589 15.2301 32.6948 15.5085 32.9666 15.6974C33.2384 15.883 33.5848 15.9759 34.0057 15.9759ZM42.6475 17.1541C41.9084 17.1541 41.2721 16.9867 40.7385 16.652C40.2082 16.3139 39.8005 15.8482 39.5154 15.255C39.2304 14.6617 39.0879 13.9822 39.0879 13.2166C39.0879 12.4411 39.2337 11.7566 39.5254 11.1634C39.8171 10.5668 40.228 10.1011 40.7583 9.76633C41.2886 9.43158 41.9134 9.2642 42.6326 9.2642C43.2127 9.2642 43.7297 9.37192 44.1838 9.58736C44.6378 9.79948 45.0041 10.0978 45.2825 10.4822C45.5642 10.8667 45.7316 11.3158 45.7846 11.8295H44.3379C44.2583 11.4716 44.0761 11.1634 43.791 10.9048C43.5093 10.6463 43.1315 10.517 42.6575 10.517C42.2432 10.517 41.8803 10.6264 41.5687 10.8452C41.2605 11.0606 41.0202 11.3688 40.8478 11.7699C40.6755 12.1676 40.5893 12.6383 40.5893 13.1818C40.5893 13.7386 40.6738 14.2192 40.8429 14.6236C41.0119 15.0279 41.2505 15.3411 41.5588 15.5632C41.8703 15.7853 42.2366 15.8963 42.6575 15.8963C42.9392 15.8963 43.1944 15.8449 43.4231 15.7422C43.6551 15.6361 43.849 15.4853 44.0048 15.2898C44.1639 15.0942 44.2749 14.8589 44.3379 14.5838H45.7846C45.7316 15.0777 45.5708 15.5185 45.3024 15.9062C45.0339 16.294 44.6743 16.599 44.2235 16.821C43.7761 17.0431 43.2508 17.1541 42.6475 17.1541ZM50.9389 9.36364V10.5568H46.7678V9.36364H50.9389ZM47.8864 7.53409H49.3729V14.7578C49.3729 15.0462 49.416 15.2633 49.5021 15.4091C49.5883 15.5516 49.6993 15.6494 49.8352 15.7024C49.9744 15.7521 50.1252 15.777 50.2876 15.777C50.407 15.777 50.5114 15.7687 50.6009 15.7521C50.6903 15.7356 50.7599 15.7223 50.8097 15.7124L51.0781 16.9403C50.992 16.9735 50.8693 17.0066 50.7102 17.0398C50.5511 17.0762 50.3523 17.0961 50.1136 17.0994C49.7225 17.1061 49.358 17.0365 49.0199 16.8906C48.6818 16.7448 48.4084 16.5194 48.1996 16.2145C47.9908 15.9096 47.8864 15.5268 47.8864 15.0661V7.53409ZM52.5833 17V9.36364H54.0698V17H52.5833ZM53.334 8.18537C53.0755 8.18537 52.8534 8.09919 52.6678 7.92685C52.4855 7.75118 52.3944 7.54238 52.3944 7.30043C52.3944 7.05516 52.4855 6.84635 52.6678 6.67401C52.8534 6.49834 53.0755 6.41051 53.334 6.41051C53.5925 6.41051 53.8129 6.49834 53.9952 6.67401C54.1808 6.84635 54.2736 7.05516 54.2736 7.30043C54.2736 7.54238 54.1808 7.75118 53.9952 7.92685C53.8129 8.09919 53.5925 8.18537 53.334 8.18537ZM62.6023 9.36364L59.8331 17H58.2422L55.468 9.36364H57.0639L58.9979 15.2401H59.0774L61.0064 9.36364H62.6023ZM66.0028 17.169C65.5189 17.169 65.0814 17.0795 64.6903 16.9006C64.2992 16.7183 63.9893 16.4548 63.7607 16.1101C63.5353 15.7654 63.4226 15.3428 63.4226 14.8423C63.4226 14.4115 63.5054 14.0568 63.6712 13.7784C63.8369 13.5 64.0606 13.2796 64.3423 13.1172C64.6241 12.9548 64.9389 12.8321 65.2869 12.7493C65.6349 12.6664 65.9896 12.6035 66.3509 12.5604C66.8082 12.5073 67.1795 12.4643 67.4645 12.4311C67.7495 12.3946 67.9567 12.3366 68.0859 12.2571C68.2152 12.1776 68.2798 12.0483 68.2798 11.8693V11.8345C68.2798 11.4003 68.1572 11.0639 67.9119 10.8253C67.67 10.5866 67.3087 10.4673 66.8281 10.4673C66.3277 10.4673 65.9332 10.5784 65.6449 10.8004C65.3598 11.0192 65.1626 11.2628 65.0533 11.5312L63.6562 11.2131C63.822 10.7491 64.0639 10.3745 64.3821 10.0895C64.7036 9.80114 65.0732 9.59233 65.4908 9.46307C65.9084 9.33049 66.3475 9.2642 66.8082 9.2642C67.1132 9.2642 67.4363 9.30066 67.7777 9.37358C68.1224 9.44318 68.4439 9.57244 68.7422 9.76136C69.0438 9.95028 69.2907 10.2204 69.483 10.5717C69.6752 10.9197 69.7713 11.3722 69.7713 11.929V17H68.3196V15.956H68.2599C68.1638 16.1482 68.0196 16.3371 67.8274 16.5227C67.6352 16.7083 67.3883 16.8625 67.0866 16.9851C66.785 17.1077 66.4238 17.169 66.0028 17.169ZM66.326 15.9759C66.737 15.9759 67.0883 15.8946 67.38 15.7322C67.675 15.5698 67.8987 15.3577 68.0511 15.0959C68.2069 14.8307 68.2848 14.5473 68.2848 14.2457V13.2614C68.2318 13.3144 68.129 13.3641 67.9766 13.4105C67.8274 13.4536 67.6567 13.4917 67.4645 13.5249C67.2723 13.5547 67.085 13.5829 66.9027 13.6094C66.7204 13.6326 66.5679 13.6525 66.4453 13.669C66.157 13.7055 65.8935 13.7668 65.6548 13.853C65.4195 13.9392 65.2306 14.0634 65.0881 14.2259C64.9489 14.3849 64.8793 14.5971 64.8793 14.8622C64.8793 15.2301 65.0152 15.5085 65.2869 15.6974C65.5587 15.883 65.9051 15.9759 66.326 15.9759ZM75.3159 9.36364V10.5568H71.1447V9.36364H75.3159ZM72.2633 7.53409H73.7498V14.7578C73.7498 15.0462 73.7929 15.2633 73.8791 15.4091C73.9653 15.5516 74.0763 15.6494 74.2122 15.7024C74.3514 15.7521 74.5022 15.777 74.6646 15.777C74.7839 15.777 74.8883 15.7687 74.9778 15.7521C75.0673 15.7356 75.1369 15.7223 75.1866 15.7124L75.4551 16.9403C75.3689 16.9735 75.2463 17.0066 75.0872 17.0398C74.9281 17.0762 74.7292 17.0961 74.4906 17.0994C74.0995 17.1061 73.7349 17.0365 73.3968 16.8906C73.0588 16.7448 72.7853 16.5194 72.5765 16.2145C72.3677 15.9096 72.2633 15.5268 72.2633 15.0661V7.53409ZM80.1694 17.1541C79.417 17.1541 78.7691 16.9934 78.2255 16.6719C77.6853 16.3471 77.2676 15.8913 76.9727 15.3047C76.681 14.7147 76.5352 14.0237 76.5352 13.2315C76.5352 12.4493 76.681 11.7599 76.9727 11.1634C77.2676 10.5668 77.6786 10.1011 78.2056 9.76633C78.7359 9.43158 79.3557 9.2642 80.065 9.2642C80.4959 9.2642 80.9135 9.33546 81.3178 9.47798C81.7222 9.6205 82.0851 9.84422 82.4066 10.1491C82.7281 10.4541 82.9817 10.8501 83.1673 11.3374C83.3529 11.8213 83.4457 12.4096 83.4457 13.1023V13.6293H77.3754V12.5156H81.989C81.989 12.1245 81.9094 11.7782 81.7504 11.4766C81.5913 11.1716 81.3675 10.9313 81.0792 10.7557C80.7942 10.58 80.4594 10.4922 80.0749 10.4922C79.6573 10.4922 79.2927 10.5949 78.9812 10.8004C78.6729 11.0026 78.4343 11.2678 78.2653 11.5959C78.0996 11.9207 78.0167 12.2737 78.0167 12.6548V13.5249C78.0167 14.0353 78.1062 14.4695 78.2852 14.8274C78.4674 15.1854 78.721 15.4588 79.0458 15.6477C79.3706 15.8333 79.7501 15.9261 80.1843 15.9261C80.466 15.9261 80.7229 15.8864 80.9549 15.8068C81.1869 15.724 81.3874 15.6013 81.5565 15.4389C81.7255 15.2765 81.8548 15.076 81.9442 14.8374L83.3512 15.0909C83.2385 15.5052 83.0363 15.8681 82.7447 16.1797C82.4563 16.4879 82.0934 16.7282 81.6559 16.9006C81.2217 17.0696 80.7262 17.1541 80.1694 17.1541ZM87.9537 17.1491C87.3372 17.1491 86.787 16.9917 86.3031 16.6768C85.8225 16.3587 85.4447 15.9062 85.1696 15.3196C84.8978 14.7296 84.7619 14.022 84.7619 13.1967C84.7619 12.3714 84.8994 11.6655 85.1745 11.0788C85.4529 10.4922 85.8341 10.0431 86.318 9.73153C86.8019 9.41998 87.3504 9.2642 87.9636 9.2642C88.4376 9.2642 88.8187 9.34375 89.1071 9.50284C89.3987 9.65862 89.6241 9.84091 89.7832 10.0497C89.9456 10.2585 90.0716 10.4425 90.161 10.6016H90.2505V6.81818H91.737V17H90.2853V15.8118H90.161C90.0716 15.9742 89.9423 16.1598 89.7733 16.3686C89.6075 16.5774 89.3788 16.7597 89.0872 16.9155C88.7955 17.0713 88.4177 17.1491 87.9537 17.1491ZM88.2818 15.8814C88.7093 15.8814 89.0706 15.7687 89.3656 15.5433C89.6639 15.3146 89.8893 14.9981 90.0417 14.5938C90.1975 14.1894 90.2754 13.7187 90.2754 13.1818C90.2754 12.6515 90.1992 12.1875 90.0467 11.7898C89.8942 11.392 89.6705 11.0821 89.3755 10.8601C89.0806 10.638 88.716 10.527 88.2818 10.527C87.8343 10.527 87.4615 10.643 87.1632 10.875C86.8649 11.107 86.6395 11.4235 86.487 11.8246C86.3379 12.2256 86.2633 12.678 86.2633 13.1818C86.2633 13.6922 86.3395 14.1513 86.492 14.5589C86.6445 14.9666 86.8699 15.2898 87.1681 15.5284C87.4698 15.7637 87.841 15.8814 88.2818 15.8814Z" fill="#D42620"/>
<path d="M96.8738 9.81815L102.084 14.7215C102.597 15.2047 103.398 15.2047 103.911 14.7215L109.121 9.81815C109.389 9.56581 109.402 9.14389 109.15 8.87578C108.897 8.60766 108.475 8.59487 108.207 8.84722L102.997 13.7505L97.7876 8.84722C97.5195 8.59487 97.0976 8.60766 96.8453 8.87577C96.5929 9.14389 96.6057 9.56581 96.8738 9.81815Z" fill="#9E0A05"/>
</svg>
