<svg width="56" height="56" viewBox="0 0 56 56" fill="none" xmlns="http://www.w3.org/2000/svg">
<rect width="56" height="56" rx="8" fill="#FBEAE9"/>
<path fill-rule="evenodd" clip-rule="evenodd" d="M26.1007 19.6111C26.8949 18.1296 29.0987 18.1296 29.8929 19.6111L37.2559 33.3464C37.9654 34.6699 37.0026 36.3333 35.3598 36.3333H20.6338C18.991 36.3333 18.0282 34.6699 18.7377 33.3464L26.1007 19.6111ZM31.6556 18.6662C30.1073 15.7779 25.8863 15.7779 24.338 18.6662L16.975 32.4015C15.5081 35.1378 17.5716 38.3333 20.6338 38.3333H35.3598C38.422 38.3333 40.4855 35.1378 39.0186 32.4015L31.6556 18.6662ZM27.9968 21.1667C28.5491 21.1667 28.9968 21.6144 28.9968 22.1667V30.3333C28.9968 30.8856 28.5491 31.3333 27.9968 31.3333C27.4445 31.3333 26.9968 30.8856 26.9968 30.3333V22.1667C26.9968 21.6144 27.4445 21.1667 27.9968 21.1667ZM27.9968 35C27.1914 35 26.5385 34.3471 26.5385 33.5417C26.5385 32.7363 27.1914 32.0833 27.9968 32.0833C28.8022 32.0833 29.4552 32.7363 29.4552 33.5417C29.4552 34.3471 28.8022 35 27.9968 35Z" fill="#D42620"/>
</svg>
