<svg width="40" height="40" viewBox="0 0 40 40" fill="none" xmlns="http://www.w3.org/2000/svg">
<rect width="40" height="40" rx="8" fill="#FBEAE9"/>
<path d="M20.8307 18.1019C20.8307 17.6416 20.4576 17.2685 19.9974 17.2685C19.5372 17.2685 19.1641 17.6416 19.1641 18.1019V18.8426C19.1641 19.3028 19.5372 19.6759 19.9974 19.6759C20.4576 19.6759 20.8307 19.3028 20.8307 18.8426V18.1019Z" fill="#D42620"/>
<path fill-rule="evenodd" clip-rule="evenodd" d="M20.7752 12.5C22.1738 12.5 23.353 13.4397 23.7157 14.7222H25.6455C27.1285 14.7222 28.3307 15.9244 28.3307 17.4074V18.5093C28.3307 19.1027 28.0042 19.6199 27.521 19.891L27.0541 24.5024C26.8818 26.2047 25.4487 27.5 23.7377 27.5H16.2571C14.5461 27.5 13.113 26.2047 12.9407 24.5024L12.4738 19.891C11.9906 19.6199 11.6641 19.1027 11.6641 18.5093V17.4074C11.6641 15.9244 12.8663 14.7222 14.3492 14.7222H16.2791C16.6418 13.4397 17.821 12.5 19.2196 12.5H20.7752ZM18.1084 14.7222C18.3618 14.3849 18.7652 14.1667 19.2196 14.1667H20.7752C21.2296 14.1667 21.633 14.3849 21.8864 14.7222H18.1084ZM13.3307 17.4074C13.3307 16.8449 13.7867 16.3889 14.3492 16.3889H25.6455C26.2081 16.3889 26.6641 16.8449 26.6641 17.4074V18.43C26.5856 18.4378 26.5104 18.4565 26.4399 18.4845L20.8782 20.5444C20.6929 20.613 20.4969 20.6481 20.2993 20.6481H19.6955C19.4979 20.6481 19.3019 20.613 19.1166 20.5444L13.5549 18.4845C13.4844 18.4565 13.4092 18.4378 13.3307 18.43V17.4074ZM21.457 22.1073L25.7837 20.5048L25.3959 24.3346C25.3098 25.1857 24.5932 25.8333 23.7377 25.8333H16.2571C15.4016 25.8333 14.685 25.1857 14.5989 24.3346L14.2111 20.5048L18.5378 22.1073C18.9083 22.2446 19.3003 22.3148 19.6955 22.3148H20.2993C20.6945 22.3148 21.0865 22.2446 21.457 22.1073Z" fill="#D42620"/>
</svg>
