<svg width="28" height="28" viewBox="0 0 28 28" fill="none" xmlns="http://www.w3.org/2000/svg">
<path d="M19.4903 15.9918L14.8237 20.6585C14.368 21.1141 13.6294 21.1141 13.1737 20.6585L8.50707 15.9918C8.05146 15.5362 8.05146 14.7975 8.50707 14.3419C8.96268 13.8863 9.70138 13.8863 10.157 14.3419L12.832 17.0169V3.50016C12.832 2.85583 13.3544 2.3335 13.9987 2.3335C14.643 2.3335 15.1654 2.85583 15.1654 3.50016V17.0169L17.8404 14.3419C18.296 13.8863 19.0347 13.8863 19.4903 14.3419C19.9459 14.7975 19.9459 15.5362 19.4903 15.9918Z" fill="#475367"/>
<path d="M4.66536 20.4168C4.66536 19.7725 4.14303 19.2502 3.4987 19.2502C2.85437 19.2502 2.33203 19.7725 2.33203 20.4168V22.1668C2.33203 24.7442 4.42137 26.8335 6.9987 26.8335H20.9987C23.576 26.8335 25.6654 24.7442 25.6654 22.1668V20.4168C25.6654 19.7725 25.143 19.2502 24.4987 19.2502C23.8544 19.2502 23.332 19.7725 23.332 20.4168V22.1668C23.332 23.4555 22.2874 24.5002 20.9987 24.5002H6.9987C5.71003 24.5002 4.66536 23.4555 4.66536 22.1668V20.4168Z" fill="#475367"/>
</svg>
