<svg width="20" height="20" viewBox="0 0 20 20" fill="none" xmlns="http://www.w3.org/2000/svg">
<path d="M5.0026 7.91602C5.0026 5.38471 7.05463 3.33268 9.58594 3.33268C11.8282 3.33268 13.696 4.94367 14.0918 7.07158C14.1473 7.36998 14.3607 7.61459 14.6487 7.71014C16.3077 8.26035 17.5026 9.82473 17.5026 11.666C17.5026 13.9672 15.6371 15.8327 13.3359 15.8327C12.8757 15.8327 12.5026 16.2058 12.5026 16.666C12.5026 17.1263 12.8757 17.4993 13.3359 17.4993C16.5576 17.4993 19.1693 14.8877 19.1693 11.666C19.1693 9.25563 17.7078 7.18849 15.6245 6.299C14.9116 3.63102 12.4791 1.66602 9.58594 1.66602C6.13416 1.66602 3.33594 4.46424 3.33594 7.91602C3.33594 7.99958 3.33758 8.0828 3.34084 8.16564C1.84467 9.02885 0.835938 10.6455 0.835938 12.4993C0.835938 15.2608 3.07451 17.4993 5.83594 17.4993C6.29617 17.4993 6.66927 17.1263 6.66927 16.666C6.66927 16.2058 6.29617 15.8327 5.83594 15.8327C3.99499 15.8327 2.5026 14.3403 2.5026 12.4993C2.5026 11.1182 3.34275 9.93141 4.54315 9.42575C4.89051 9.27942 5.09641 8.91815 5.04527 8.54471C5.01717 8.33956 5.0026 8.12972 5.0026 7.91602Z" fill="#139D06"/>
<path d="M11.8062 17.8444L10.5562 18.9555C10.2405 19.2362 9.76471 19.2362 9.44897 18.9555L8.19897 17.8444C7.85498 17.5386 7.824 17.0119 8.12976 16.6679C8.39725 16.367 8.83385 16.3056 9.16927 16.4997V12.4993C9.16927 12.0391 9.54237 11.666 10.0026 11.666C10.4628 11.666 10.8359 12.0391 10.8359 12.4993V16.4997C11.1714 16.3056 11.608 16.367 11.8754 16.6679C12.1812 17.0119 12.1502 17.5386 11.8062 17.8444Z" fill="#139D06"/>
</svg>
