<svg width="20" height="20" viewBox="0 0 20 20" fill="none" xmlns="http://www.w3.org/2000/svg">
<path d="M3.57757 11.6523C3.81561 12.0462 3.68927 12.5585 3.29537 12.7965C2.90148 13.0346 2.38919 12.9082 2.15114 12.5143C1.81273 11.9544 1.58313 11.4718 1.44812 11.1603C1.25479 10.7143 1.28284 10.2121 1.51836 9.7915C1.87775 9.14973 2.78563 7.66611 4.18482 6.33307C5.5808 5.00308 7.54507 3.75 9.99848 3.75C12.4519 3.75 14.4162 5.00308 15.8121 6.33307C17.2113 7.66611 18.1192 9.14973 18.4786 9.7915C18.7141 10.2121 18.7422 10.7143 18.5488 11.1603C18.4138 11.4718 18.1842 11.9544 17.8458 12.5143C17.6078 12.9082 17.0955 13.0346 16.7016 12.7965C16.3077 12.5585 16.1813 12.0462 16.4194 11.6523C16.6916 11.2019 16.8805 10.8124 16.995 10.5537C16.6569 9.95778 15.8561 8.67693 14.6625 7.53975C13.4296 6.36513 11.8568 5.41667 9.99848 5.41667C8.14019 5.41667 6.56736 6.36513 5.33447 7.53975C4.14086 8.67693 3.34007 9.95778 3.00194 10.5537C3.1165 10.8124 3.30538 11.2019 3.57757 11.6523Z" fill="#667185"/>
<path fill-rule="evenodd" clip-rule="evenodd" d="M9.99848 6.66667C7.69729 6.66667 5.83181 8.53215 5.83181 10.8333C5.83181 13.1345 7.69729 15 9.99848 15C12.2997 15 14.1651 13.1345 14.1651 10.8333C14.1651 8.53215 12.2997 6.66667 9.99848 6.66667ZM7.49848 10.8333C7.49848 9.45262 8.61777 8.33333 9.99848 8.33333C11.3792 8.33333 12.4985 9.45262 12.4985 10.8333C12.4985 12.214 11.3792 13.3333 9.99848 13.3333C8.61777 13.3333 7.49848 12.214 7.49848 10.8333Z" fill="#667185"/>
</svg>
