<svg width="21" height="21" viewBox="0 0 21 21" fill="none" xmlns="http://www.w3.org/2000/svg">
<path d="M4.07757 12.4355C4.31561 12.8294 4.18927 13.3417 3.79537 13.5797C3.40148 13.8178 2.88919 13.6914 2.65114 13.2976C2.31273 12.7376 2.08313 12.255 1.94812 11.9435C1.75479 11.4975 1.78284 10.9953 2.01836 10.5747C2.37775 9.93294 3.28563 8.44932 4.68482 7.11627C6.0808 5.78628 8.04507 4.5332 10.4985 4.5332C12.9519 4.5332 14.9162 5.78628 16.3121 7.11627C17.7113 8.44932 18.6192 9.93294 18.9786 10.5747C19.2141 10.9953 19.2422 11.4975 19.0488 11.9435C18.9138 12.255 18.6842 12.7376 18.3458 13.2976C18.1078 13.6914 17.5955 13.8178 17.2016 13.5797C16.8077 13.3417 16.6813 12.8294 16.9194 12.4355C17.1916 11.9851 17.3805 11.5956 17.495 11.3369C17.1569 10.741 16.3561 9.46013 15.1625 8.32295C13.9296 7.14834 12.3568 6.19987 10.4985 6.19987C8.64019 6.19987 7.06736 7.14834 5.83447 8.32296C4.64086 9.46013 3.84007 10.741 3.50194 11.3369C3.6165 11.5956 3.80538 11.9851 4.07757 12.4355Z" fill="#15AD07"/>
<path fill-rule="evenodd" clip-rule="evenodd" d="M10.4985 7.44987C8.19729 7.44987 6.33181 9.31535 6.33181 11.6165C6.33181 13.9177 8.19729 15.7832 10.4985 15.7832C12.7997 15.7832 14.6651 13.9177 14.6651 11.6165C14.6651 9.31535 12.7997 7.44987 10.4985 7.44987ZM7.99848 11.6165C7.99848 10.2358 9.11777 9.11654 10.4985 9.11654C11.8792 9.11654 12.9985 10.2358 12.9985 11.6165C12.9985 12.9972 11.8792 14.1165 10.4985 14.1165C9.11777 14.1165 7.99848 12.9972 7.99848 11.6165Z" fill="#15AD07"/>
</svg>
