<svg width="57" height="57" viewBox="0 0 57 57" fill="none" xmlns="http://www.w3.org/2000/svg">
<circle cx="28.5" cy="28.2832" r="28" fill="#F0F2F5"/>
<path d="M21.5052 25.3672C21.5052 21.8234 24.378 18.9505 27.9219 18.9505C31.061 18.9505 33.6759 21.2059 34.2301 24.185C34.3078 24.6027 34.6065 24.9452 35.0098 25.079C37.3324 25.8493 39.0052 28.0394 39.0052 30.6172C39.0052 33.8389 36.3935 36.4505 33.1719 36.4505C32.5275 36.4505 32.0052 36.9729 32.0052 37.6172C32.0052 38.2615 32.5275 38.7839 33.1719 38.7839C37.6822 38.7839 41.3385 35.1275 41.3385 30.6172C41.3385 27.2427 39.2925 24.3487 36.3759 23.1034C35.3779 19.3682 31.9722 16.6172 27.9219 16.6172C23.0894 16.6172 19.1719 20.5347 19.1719 25.3672C19.1719 25.4842 19.1742 25.6007 19.1787 25.7167C17.0841 26.9251 15.6719 29.1885 15.6719 31.7839C15.6719 35.6498 18.8059 38.7839 22.6719 38.7839C23.3162 38.7839 23.8385 38.2615 23.8385 37.6172C23.8385 36.9729 23.3162 36.4505 22.6719 36.4505C20.0945 36.4505 18.0052 34.3612 18.0052 31.7839C18.0052 29.8503 19.1814 28.1887 20.862 27.4808C21.3483 27.276 21.6365 26.7702 21.5649 26.2474C21.5256 25.9602 21.5052 25.6664 21.5052 25.3672Z" fill="#475367"/>
<path d="M27.7301 30.9119C28.1722 30.519 28.8383 30.519 29.2803 30.9119L31.0303 32.4674C31.5119 32.8955 31.5553 33.6329 31.1272 34.1145C30.7527 34.5358 30.1415 34.6217 29.6719 34.35V39.9505C29.6719 40.5949 29.1495 41.1172 28.5052 41.1172C27.8609 41.1172 27.3385 40.5949 27.3385 39.9505V34.35C26.869 34.6217 26.2577 34.5358 25.8832 34.1145C25.4552 33.6329 25.4985 32.8955 25.9801 32.4674L27.7301 30.9119Z" fill="#475367"/>
</svg>
