<svg width="20" height="20" viewBox="0 0 20 20" fill="none" xmlns="http://www.w3.org/2000/svg">
<path d="M5.83333 10.0007C5.83333 9.54041 6.20643 9.16732 6.66667 9.16732H13.3333C13.7936 9.16732 14.1667 9.54041 14.1667 10.0007C14.1667 10.4609 13.7936 10.834 13.3333 10.834H6.66667C6.20643 10.834 5.83333 10.4609 5.83333 10.0007Z" fill="#15AD07"/>
<path d="M6.66667 13.334C6.20643 13.334 5.83333 13.7071 5.83333 14.1673C5.83333 14.6276 6.20643 15.0006 6.66667 15.0006H13.3333C13.7936 15.0006 14.1667 14.6276 14.1667 14.1673C14.1667 13.7071 13.7936 13.334 13.3333 13.334H6.66667Z" fill="#15AD07"/>
<path fill-rule="evenodd" clip-rule="evenodd" d="M5.83333 0.833984C3.99238 0.833984 2.5 2.32637 2.5 4.16732V15.834C2.5 17.6749 3.99238 19.1673 5.83333 19.1673H14.1667C16.0076 19.1673 17.5 17.6749 17.5 15.834V7.57244C17.5 6.79265 17.2266 6.03754 16.7274 5.43849L13.8898 2.03337C13.2565 1.27339 12.3183 0.833984 11.3291 0.833984H5.83333ZM4.16667 4.16732C4.16667 3.24684 4.91286 2.50065 5.83333 2.50065H10.8333V5.00065C10.8333 6.8416 12.3257 8.33398 14.1667 8.33398H15.8333V15.834C15.8333 16.7545 15.0871 17.5006 14.1667 17.5006H5.83333C4.91286 17.5006 4.16667 16.7545 4.16667 15.834V4.16732ZM15.5661 6.66732C15.5299 6.61127 15.4901 6.5572 15.447 6.50547L12.6094 3.10034C12.5747 3.0587 12.5382 3.01898 12.5 2.98127V5.00065C12.5 5.92112 13.2462 6.66732 14.1667 6.66732H15.5661Z" fill="#15AD07"/>
</svg>
