<svg width="24" height="24" viewBox="0 0 24 24" fill="none" xmlns="http://www.w3.org/2000/svg">
<path fill-rule="evenodd" clip-rule="evenodd" d="M7 3C5.89543 3 5 3.89543 5 5V19C5 20.1046 5.89543 21 7 21H9C9.55228 21 10 21.4477 10 22C10 22.5523 9.55228 23 9 23H7C4.79086 23 3 21.2091 3 19V5C3 2.79086 4.79086 1 7 1H13.5949C14.782 1 15.9078 1.52729 16.6678 2.43926L20.0729 6.52541C20.6719 7.24427 21 8.1504 21 9.08615V19C21 21.2091 19.2091 23 17 23H15C14.4477 23 14 22.5523 14 22C14 21.4477 14.4477 21 15 21H17C18.1046 21 19 20.1046 19 19V10H17C14.7909 10 13 8.20914 13 6V3H7ZM18.5364 7.80578C18.5882 7.86786 18.6359 7.93274 18.6794 8H17C15.8954 8 15 7.10457 15 6V3.57674C15.0458 3.622 15.0897 3.66966 15.1313 3.71963L18.5364 7.80578Z" fill="#002B22"/>
<path d="M12.6644 14.2526C12.2855 13.9158 11.7145 13.9158 11.3356 14.2526L9.83564 15.5859C9.42285 15.9528 9.38567 16.5849 9.75259 16.9977C10.0736 17.3588 10.5975 17.4325 11 17.1996V22C11 22.5523 11.4477 23 12 23C12.5523 23 13 22.5523 13 22V17.1996C13.4025 17.4325 13.9264 17.3588 14.2474 16.9977C14.6143 16.5849 14.5771 15.9528 14.1644 15.5859L12.6644 14.2526Z" fill="#002B22"/>
</svg>
