<svg width="20" height="20" viewBox="0 0 20 20" fill="none" xmlns="http://www.w3.org/2000/svg">
<path d="M3.33594 5.00033C3.33594 4.54009 3.70903 4.16699 4.16927 4.16699H15.8359C16.2962 4.16699 16.6693 4.54009 16.6693 5.00033C16.6693 5.46056 16.2962 5.83366 15.8359 5.83366H4.16927C3.70903 5.83366 3.33594 5.46056 3.33594 5.00033Z" fill="#98A2B3"/>
<path d="M5.0026 10.0003C5.0026 9.54009 5.3757 9.16699 5.83594 9.16699H14.1693C14.6295 9.16699 15.0026 9.54009 15.0026 10.0003C15.0026 10.4606 14.6295 10.8337 14.1693 10.8337H5.83594C5.3757 10.8337 5.0026 10.4606 5.0026 10.0003Z" fill="#98A2B3"/>
<path d="M7.5026 14.167C7.04237 14.167 6.66927 14.5401 6.66927 15.0003C6.66927 15.4606 7.04237 15.8337 7.5026 15.8337H12.5026C12.9628 15.8337 13.3359 15.4606 13.3359 15.0003C13.3359 14.5401 12.9628 14.167 12.5026 14.167H7.5026Z" fill="#98A2B3"/>
</svg>
