<svg width="20" height="20" viewBox="0 0 20 20" fill="none" xmlns="http://www.w3.org/2000/svg">
<path fill-rule="evenodd" clip-rule="evenodd" d="M4.6365 2.5C2.99487 2.5 1.66406 3.8308 1.66406 5.47243V14.1667C1.66406 16.0076 3.15645 17.5 4.9974 17.5H14.9974C16.8383 17.5 18.3307 16.0076 18.3307 14.1667V8.5C18.3307 6.65955 16.84 5.16667 14.9985 5.16667H10.3303C10.3161 5.1603 10.2988 5.15222 10.2794 5.1423C10.2391 5.12178 10.1999 5.09927 10.1688 5.07964C10.1546 5.07067 10.1445 5.06377 10.1383 5.05943C10.0222 4.95563 9.85279 4.7775 9.61796 4.52691L9.57217 4.47802C9.35446 4.24558 9.10031 3.97424 8.83888 3.71696C8.56156 3.44405 8.25098 3.16171 7.9378 2.94299C7.65518 2.7456 7.23368 2.5 6.75936 2.5H4.6365ZM8.40181 5.66654C8.6226 5.90215 8.85606 6.15095 9.04563 6.31802C9.18034 6.43675 9.37233 6.5507 9.52285 6.62738C9.60662 6.67005 9.70403 6.71477 9.80469 6.75086C9.88535 6.77978 10.0479 6.83333 10.2346 6.83333H14.9985C15.9185 6.83333 16.6641 7.57903 16.6641 8.5V14.1667C16.6641 15.0871 15.9179 15.8333 14.9974 15.8333H4.9974C4.07692 15.8333 3.33073 15.0871 3.33073 14.1667V5.47243C3.33073 4.75128 3.91534 4.16667 4.6365 4.16667H6.73413C6.73487 4.16723 6.7374 4.16825 6.74176 4.17003C6.76534 4.17961 6.84267 4.21105 6.9835 4.3094C7.18316 4.44884 7.41623 4.65529 7.66984 4.90487C7.90609 5.13736 8.13846 5.38542 8.36051 5.62245L8.40181 5.66654Z" fill="#547D74"/>
</svg>
