<svg width="20" height="20" viewBox="0 0 20 20" fill="none" xmlns="http://www.w3.org/2000/svg">
<path d="M17.5 13.334V10.834C17.5 6.69185 14.1421 3.33398 10 3.33398C5.85786 3.33398 2.5 6.69185 2.5 10.834V13.334M17.5 13.334V15.3438C17.5 16.0748 16.9074 16.6673 16.1765 16.6673C15.4455 16.6673 14.8529 16.0748 14.8529 15.3438V13.5331C14.8529 11.8868 17.2538 11.7063 17.5 13.334ZM2.5 13.334V15.3438C2.5 16.0748 3.09256 16.6673 3.82353 16.6673C4.55449 16.6673 5.14706 16.0748 5.14706 15.3438V13.5429C5.14706 11.9018 2.75742 11.7132 2.5 13.334Z" stroke="#547D74" stroke-width="2" stroke-linecap="round" stroke-linejoin="round"/>
</svg>
