<svg width="40" height="40" viewBox="0 0 40 40" fill="none" xmlns="http://www.w3.org/2000/svg">
<rect width="40" height="40" rx="8" fill="#E8F7E6"/>
<path fill-rule="evenodd" clip-rule="evenodd" d="M19.9974 11.6665C19.6003 11.6665 19.2082 11.7542 18.8489 11.9232L13.5781 14.4036C12.4098 14.9534 11.6641 16.1285 11.6641 17.4197V23.3332C11.6641 24.1646 12.1443 24.9213 12.8966 25.2754L18.8489 28.0764C19.2082 28.2455 19.6003 28.3332 19.9974 28.3332C20.3945 28.3332 20.7866 28.2455 21.1459 28.0764L27.0982 25.2754C27.8505 24.9213 28.3307 24.1646 28.3307 23.3332V17.4197C28.3307 16.1285 27.585 14.9534 26.4167 14.4036L21.1459 11.9232C20.7866 11.7542 20.3945 11.6665 19.9974 11.6665ZM26.6641 21.9848L20.8307 19.0681V13.6169L25.7071 15.9117C26.2912 16.1865 26.6641 16.7741 26.6641 17.4197V21.9848ZM19.9974 20.5149L26.4426 23.7375C26.4254 23.7485 26.4074 23.7585 26.3885 23.7673L20.4362 26.5684C20.299 26.633 20.1491 26.6665 19.9974 26.6665C19.8457 26.6665 19.6958 26.633 19.5586 26.5684L13.6062 23.7673C13.5874 23.7585 13.5694 23.7485 13.5522 23.7375L19.9974 20.5149ZM19.1641 19.0681L13.3307 21.9848V17.4197C13.3307 16.7741 13.7036 16.1865 14.2877 15.9117L19.1641 13.6169V19.0681Z" fill="#15AD07"/>
</svg>
