<svg width="20" height="20" viewBox="0 0 20 20" fill="none" xmlns="http://www.w3.org/2000/svg">
<path fill-rule="evenodd" clip-rule="evenodd" d="M11.9137 1.98733C10.766 1.18391 9.23837 1.18391 8.09063 1.98733L2.35932 5.99925C1.39381 6.67511 0.856954 7.81058 0.947345 8.98567L1.53486 16.6234C1.64567 18.0638 2.95084 19.1108 4.38105 18.9065L7.0224 18.5292C8.25402 18.3532 9.16884 17.2984 9.16884 16.0543V14.9998C9.16884 14.5396 9.54194 14.1665 10.0022 14.1665C10.4624 14.1665 10.8355 14.5396 10.8355 14.9998V16.0543C10.8355 17.2984 11.7503 18.3532 12.982 18.5292L15.6233 18.9065C17.0535 19.1108 18.3587 18.0639 18.4695 16.6234L19.057 8.98568C19.1474 7.81059 18.6105 6.67511 17.645 5.99925L11.9137 1.98733ZM9.0464 3.35271C9.62027 2.95101 10.3841 2.95101 10.9579 3.35271L16.6893 7.36463C17.172 7.70256 17.4404 8.2703 17.3952 8.85785L16.8077 16.4955C16.7708 16.9757 16.3357 17.3247 15.859 17.2566L13.2177 16.8793C12.8071 16.8206 12.5022 16.469 12.5022 16.0543V14.9998C12.5022 13.6191 11.3829 12.4998 10.0022 12.4998C8.62146 12.4998 7.50218 13.6191 7.50218 14.9998V16.0543C7.50218 16.469 7.19723 16.8206 6.7867 16.8793L4.14535 17.2566C3.66861 17.3247 3.23355 16.9757 3.19662 16.4955L2.6091 8.85785C2.56391 8.2703 2.83233 7.70256 3.31509 7.36463L9.0464 3.35271Z" fill="#547D74"/>
</svg>
