<svg width="166" height="24" viewBox="0 0 166 24" fill="none" xmlns="http://www.w3.org/2000/svg">
<rect width="166" height="24" rx="12" fill="#E7F6EC"/>
<path d="M15.0562 6.81818V17H13.52V6.81818H15.0562ZM18.6606 12.4659V17H17.1741V9.36364H18.6009V10.6065H18.6954C18.8711 10.2022 19.1462 9.87737 19.5207 9.6321C19.8985 9.38684 20.3741 9.2642 20.9475 9.2642C21.4679 9.2642 21.9236 9.37358 22.3147 9.59233C22.7058 9.80777 23.0091 10.1293 23.2245 10.5568C23.44 10.9844 23.5477 11.513 23.5477 12.1428V17H22.0612V12.3217C22.0612 11.7682 21.917 11.3357 21.6286 11.0241C21.3403 10.7093 20.9442 10.5518 20.4404 10.5518C20.0957 10.5518 19.7892 10.6264 19.5207 10.7756C19.2555 10.9247 19.0451 11.1435 18.8893 11.4318C18.7368 11.7169 18.6606 12.0616 18.6606 12.4659ZM29.1059 9.36364V10.5568H24.9347V9.36364H29.1059ZM26.0534 7.53409H27.5399V14.7578C27.5399 15.0462 27.5829 15.2633 27.6691 15.4091C27.7553 15.5516 27.8663 15.6494 28.0022 15.7024C28.1414 15.7521 28.2922 15.777 28.4546 15.777C28.574 15.777 28.6784 15.7687 28.7678 15.7521C28.8573 15.7356 28.9269 15.7223 28.9767 15.7124L29.2451 16.9403C29.1589 16.9735 29.0363 17.0066 28.8772 17.0398C28.7181 17.0762 28.5193 17.0961 28.2806 17.0994C27.8895 17.1061 27.5249 17.0365 27.1869 16.8906C26.8488 16.7448 26.5754 16.5194 26.3666 16.2145C26.1578 15.9096 26.0534 15.5268 26.0534 15.0661V7.53409ZM33.9594 17.1541C33.2071 17.1541 32.5591 16.9934 32.0155 16.6719C31.4753 16.3471 31.0577 15.8913 30.7627 15.3047C30.471 14.7147 30.3252 14.0237 30.3252 13.2315C30.3252 12.4493 30.471 11.7599 30.7627 11.1634C31.0577 10.5668 31.4687 10.1011 31.9956 9.76633C32.526 9.43158 33.1457 9.2642 33.855 9.2642C34.2859 9.2642 34.7035 9.33546 35.1079 9.47798C35.5122 9.6205 35.8751 9.84422 36.1966 10.1491C36.5181 10.4541 36.7717 10.8501 36.9573 11.3374C37.1429 11.8213 37.2357 12.4096 37.2357 13.1023V13.6293H31.1654V12.5156H35.779C35.779 12.1245 35.6995 11.7782 35.5404 11.4766C35.3813 11.1716 35.1576 10.9313 34.8692 10.7557C34.5842 10.58 34.2494 10.4922 33.865 10.4922C33.4474 10.4922 33.0828 10.5949 32.7712 10.8004C32.463 11.0026 32.2243 11.2678 32.0553 11.5959C31.8896 11.9207 31.8067 12.2737 31.8067 12.6548V13.5249C31.8067 14.0353 31.8962 14.4695 32.0752 14.8274C32.2575 15.1854 32.511 15.4588 32.8358 15.6477C33.1607 15.8333 33.5402 15.9261 33.9743 15.9261C34.2561 15.9261 34.5129 15.8864 34.7449 15.8068C34.9769 15.724 35.1775 15.6013 35.3465 15.4389C35.5155 15.2765 35.6448 15.076 35.7343 14.8374L37.1412 15.0909C37.0286 15.5052 36.8264 15.8681 36.5347 16.1797C36.2464 16.4879 35.8834 16.7282 35.4459 16.9006C35.0117 17.0696 34.5162 17.1541 33.9594 17.1541ZM38.885 17V9.36364H40.3218V10.5767H40.4014C40.5406 10.1657 40.7858 9.84257 41.1372 9.60724C41.4918 9.36861 41.8928 9.24929 42.3403 9.24929C42.4331 9.24929 42.5425 9.2526 42.6684 9.25923C42.7977 9.26586 42.8988 9.27415 42.9717 9.28409V10.706C42.912 10.6894 42.806 10.6712 42.6535 10.6513C42.501 10.6281 42.3486 10.6165 42.1961 10.6165C41.8448 10.6165 41.5316 10.6911 41.2565 10.8402C40.9847 10.986 40.7693 11.1899 40.6102 11.4517C40.4511 11.7102 40.3715 12.0052 40.3715 12.3366V17H38.885ZM45.7446 12.4659V17H44.2581V9.36364H45.6849V10.6065H45.7794C45.955 10.2022 46.2301 9.87737 46.6047 9.6321C46.9825 9.38684 47.4581 9.2642 48.0315 9.2642C48.5519 9.2642 49.0076 9.37358 49.3987 9.59233C49.7898 9.80777 50.0931 10.1293 50.3085 10.5568C50.5239 10.9844 50.6317 11.513 50.6317 12.1428V17H49.1452V12.3217C49.1452 11.7682 49.001 11.3357 48.7126 11.0241C48.4243 10.7093 48.0282 10.5518 47.5244 10.5518C47.1797 10.5518 46.8731 10.6264 46.6047 10.7756C46.3395 10.9247 46.1291 11.1435 45.9733 11.4318C45.8208 11.7169 45.7446 12.0616 45.7446 12.4659ZM54.8476 17.169C54.3637 17.169 53.9262 17.0795 53.5351 16.9006C53.144 16.7183 52.8341 16.4548 52.6054 16.1101C52.38 15.7654 52.2673 15.3428 52.2673 14.8423C52.2673 14.4115 52.3502 14.0568 52.5159 13.7784C52.6816 13.5 52.9053 13.2796 53.1871 13.1172C53.4688 12.9548 53.7836 12.8321 54.1317 12.7493C54.4797 12.6664 54.8343 12.6035 55.1956 12.5604C55.653 12.5073 56.0242 12.4643 56.3092 12.4311C56.5943 12.3946 56.8014 12.3366 56.9307 12.2571C57.0599 12.1776 57.1246 12.0483 57.1246 11.8693V11.8345C57.1246 11.4003 57.0019 11.0639 56.7567 10.8253C56.5147 10.5866 56.1534 10.4673 55.6729 10.4673C55.1724 10.4673 54.778 10.5784 54.4896 10.8004C54.2046 11.0192 54.0074 11.2628 53.898 11.5312L52.501 11.2131C52.6667 10.7491 52.9086 10.3745 53.2268 10.0895C53.5483 9.80114 53.9179 9.59233 54.3355 9.46307C54.7531 9.33049 55.1923 9.2642 55.653 9.2642C55.9579 9.2642 56.281 9.30066 56.6224 9.37358C56.9671 9.44318 57.2886 9.57244 57.5869 9.76136C57.8885 9.95028 58.1354 10.2204 58.3277 10.5717C58.5199 10.9197 58.616 11.3722 58.616 11.929V17H57.1643V15.956H57.1047C57.0086 16.1482 56.8644 16.3371 56.6721 16.5227C56.4799 16.7083 56.233 16.8625 55.9314 16.9851C55.6298 17.1077 55.2685 17.169 54.8476 17.169ZM55.1707 15.9759C55.5817 15.9759 55.933 15.8946 56.2247 15.7322C56.5197 15.5698 56.7434 15.3577 56.8959 15.0959C57.0516 14.8307 57.1295 14.5473 57.1295 14.2457V13.2614C57.0765 13.3144 56.9738 13.3641 56.8213 13.4105C56.6721 13.4536 56.5015 13.4917 56.3092 13.5249C56.117 13.5547 55.9297 13.5829 55.7474 13.6094C55.5651 13.6326 55.4127 13.6525 55.29 13.669C55.0017 13.7055 54.7382 13.7668 54.4996 13.853C54.2642 13.9392 54.0753 14.0634 53.9328 14.2259C53.7936 14.3849 53.724 14.5971 53.724 14.8622C53.724 15.2301 53.8599 15.5085 54.1317 15.6974C54.4034 15.883 54.7498 15.9759 55.1707 15.9759ZM62.0825 6.81818V17H60.596V6.81818H62.0825ZM65.5688 6.81818V17H64.0823V6.81818H65.5688ZM68.5083 19.8636C68.2862 19.8636 68.084 19.8454 67.9017 19.8089C67.7194 19.7758 67.5835 19.7393 67.4941 19.6996L67.852 18.4815C68.1238 18.5545 68.3657 18.5859 68.5779 18.576C68.79 18.5661 68.9772 18.4865 69.1396 18.3374C69.3054 18.1882 69.4512 17.9446 69.5771 17.6065L69.7611 17.0994L66.9671 9.36364H68.558L70.4919 15.2898H70.5715L72.5054 9.36364H74.1013L70.9543 18.0192C70.8084 18.4169 70.6228 18.7533 70.3975 19.0284C70.1721 19.3068 69.9036 19.5156 69.5921 19.6548C69.2805 19.794 68.9192 19.8636 68.5083 19.8636ZM79.2034 17V9.36364H80.6402V10.5767H80.7197C80.8589 10.1657 81.1042 9.84257 81.4555 9.60724C81.8102 9.36861 82.2112 9.24929 82.6586 9.24929C82.7515 9.24929 82.8608 9.2526 82.9868 9.25923C83.116 9.26586 83.2171 9.27415 83.29 9.28409V10.706C83.2304 10.6894 83.1243 10.6712 82.9719 10.6513C82.8194 10.6281 82.6669 10.6165 82.5145 10.6165C82.1631 10.6165 81.8499 10.6911 81.5748 10.8402C81.3031 10.986 81.0876 11.1899 80.9285 11.4517C80.7694 11.7102 80.6899 12.0052 80.6899 12.3366V17H79.2034ZM87.5942 17.1541C86.8418 17.1541 86.1939 16.9934 85.6503 16.6719C85.1101 16.3471 84.6924 15.8913 84.3975 15.3047C84.1058 14.7147 83.96 14.0237 83.96 13.2315C83.96 12.4493 84.1058 11.7599 84.3975 11.1634C84.6924 10.5668 85.1034 10.1011 85.6304 9.76633C86.1607 9.43158 86.7805 9.2642 87.4898 9.2642C87.9207 9.2642 88.3383 9.33546 88.7426 9.47798C89.147 9.6205 89.5099 9.84422 89.8314 10.1491C90.1529 10.4541 90.4065 10.8501 90.5921 11.3374C90.7777 11.8213 90.8705 12.4096 90.8705 13.1023V13.6293H84.8002V12.5156H89.4138C89.4138 12.1245 89.3343 11.7782 89.1752 11.4766C89.0161 11.1716 88.7923 10.9313 88.504 10.7557C88.219 10.58 87.8842 10.4922 87.4997 10.4922C87.0821 10.4922 86.7175 10.5949 86.406 10.8004C86.0977 11.0026 85.8591 11.2678 85.6901 11.5959C85.5244 11.9207 85.4415 12.2737 85.4415 12.6548V13.5249C85.4415 14.0353 85.531 14.4695 85.71 14.8274C85.8923 15.1854 86.1458 15.4588 86.4706 15.6477C86.7954 15.8333 87.1749 15.9261 87.6091 15.9261C87.8908 15.9261 88.1477 15.8864 88.3797 15.8068C88.6117 15.724 88.8122 15.6013 88.9813 15.4389C89.1503 15.2765 89.2796 15.076 89.3691 14.8374L90.776 15.0909C90.6633 15.5052 90.4611 15.8681 90.1695 16.1797C89.8811 16.4879 89.5182 16.7282 89.0807 16.9006C88.6465 17.0696 88.151 17.1541 87.5942 17.1541ZM98.2421 11.228L96.8948 11.4666C96.8385 11.2943 96.749 11.1302 96.6263 10.9744C96.507 10.8187 96.3446 10.6911 96.1391 10.5916C95.9336 10.4922 95.6768 10.4425 95.3685 10.4425C94.9476 10.4425 94.5963 10.5369 94.3145 10.7259C94.0328 10.9115 93.892 11.1518 93.892 11.4467C93.892 11.7019 93.9864 11.9074 94.1753 12.0632C94.3643 12.219 94.6692 12.3466 95.0901 12.446L96.3032 12.7244C97.0058 12.8868 97.5295 13.1371 97.8742 13.4751C98.2189 13.8132 98.3912 14.2524 98.3912 14.7926C98.3912 15.25 98.2587 15.6577 97.9935 16.0156C97.7317 16.3703 97.3654 16.6487 96.8948 16.8509C96.4275 17.053 95.8856 17.1541 95.2691 17.1541C94.414 17.1541 93.7163 16.9718 93.176 16.6072C92.6358 16.2393 92.3044 15.7173 92.1817 15.0412L93.6185 14.8224C93.708 15.197 93.892 15.4804 94.1704 15.6726C94.4488 15.8615 94.8117 15.956 95.2591 15.956C95.7464 15.956 96.1358 15.8549 96.4275 15.6527C96.7191 15.4472 96.865 15.197 96.865 14.902C96.865 14.6634 96.7755 14.4628 96.5965 14.3004C96.4208 14.138 96.1507 14.0154 95.7861 13.9325L94.4935 13.6491C93.7809 13.4867 93.2539 13.2282 92.9126 12.8736C92.5745 12.5189 92.4055 12.0698 92.4055 11.5263C92.4055 11.0755 92.5314 10.6811 92.7833 10.343C93.0352 10.005 93.3832 9.74148 93.8273 9.55256C94.2715 9.36032 94.7802 9.2642 95.3536 9.2642C96.1789 9.2642 96.8285 9.44318 97.3025 9.80114C97.7764 10.1558 98.0896 10.6314 98.2421 11.228ZM103.242 17.1541C102.526 17.1541 101.902 16.9901 101.368 16.6619C100.834 16.3338 100.42 15.8748 100.125 15.2848C99.8301 14.6948 99.6826 14.0054 99.6826 13.2166C99.6826 12.4245 99.8301 11.7318 100.125 11.1385C100.42 10.5452 100.834 10.0845 101.368 9.75639C101.902 9.42827 102.526 9.2642 103.242 9.2642C103.958 9.2642 104.583 9.42827 105.117 9.75639C105.65 10.0845 106.064 10.5452 106.359 11.1385C106.654 11.7318 106.802 12.4245 106.802 13.2166C106.802 14.0054 106.654 14.6948 106.359 15.2848C106.064 15.8748 105.65 16.3338 105.117 16.6619C104.583 16.9901 103.958 17.1541 103.242 17.1541ZM103.247 15.9062C103.711 15.9062 104.096 15.7836 104.401 15.5384C104.706 15.2931 104.931 14.9666 105.077 14.5589C105.226 14.1513 105.301 13.7022 105.301 13.2116C105.301 12.7244 105.226 12.277 105.077 11.8693C104.931 11.4583 104.706 11.1286 104.401 10.88C104.096 10.6314 103.711 10.5071 103.247 10.5071C102.78 10.5071 102.392 10.6314 102.084 10.88C101.779 11.1286 101.552 11.4583 101.403 11.8693C101.257 12.277 101.184 12.7244 101.184 13.2116C101.184 13.7022 101.257 14.1513 101.403 14.5589C101.552 14.9666 101.779 15.2931 102.084 15.5384C102.392 15.7836 102.78 15.9062 103.247 15.9062ZM109.948 6.81818V17H108.461V6.81818H109.948ZM118.48 9.36364L115.711 17H114.12L111.346 9.36364H112.942L114.876 15.2401H114.955L116.884 9.36364H118.48ZM122.909 17.1541C122.156 17.1541 121.508 16.9934 120.965 16.6719C120.425 16.3471 120.007 15.8913 119.712 15.3047C119.42 14.7147 119.274 14.0237 119.274 13.2315C119.274 12.4493 119.42 11.7599 119.712 11.1634C120.007 10.5668 120.418 10.1011 120.945 9.76633C121.475 9.43158 122.095 9.2642 122.804 9.2642C123.235 9.2642 123.653 9.33546 124.057 9.47798C124.461 9.6205 124.824 9.84422 125.146 10.1491C125.467 10.4541 125.721 10.8501 125.907 11.3374C126.092 11.8213 126.185 12.4096 126.185 13.1023V13.6293H120.115V12.5156H124.728C124.728 12.1245 124.649 11.7782 124.49 11.4766C124.331 11.1716 124.107 10.9313 123.818 10.7557C123.533 10.58 123.199 10.4922 122.814 10.4922C122.397 10.4922 122.032 10.5949 121.72 10.8004C121.412 11.0026 121.174 11.2678 121.005 11.5959C120.839 11.9207 120.756 12.2737 120.756 12.6548V13.5249C120.756 14.0353 120.845 14.4695 121.024 14.8274C121.207 15.1854 121.46 15.4588 121.785 15.6477C122.11 15.8333 122.489 15.9261 122.924 15.9261C123.205 15.9261 123.462 15.8864 123.694 15.8068C123.926 15.724 124.127 15.6013 124.296 15.4389C124.465 15.2765 124.594 15.076 124.684 14.8374L126.09 15.0909C125.978 15.5052 125.776 15.8681 125.484 16.1797C125.196 16.4879 124.833 16.7282 124.395 16.9006C123.961 17.0696 123.465 17.1541 122.909 17.1541ZM130.693 17.1491C130.076 17.1491 129.526 16.9917 129.042 16.6768C128.562 16.3587 128.184 15.9062 127.909 15.3196C127.637 14.7296 127.501 14.022 127.501 13.1967C127.501 12.3714 127.639 11.6655 127.914 11.0788C128.192 10.4922 128.573 10.0431 129.057 9.73153C129.541 9.41998 130.09 9.2642 130.703 9.2642C131.177 9.2642 131.558 9.34375 131.846 9.50284C132.138 9.65862 132.363 9.84091 132.522 10.0497C132.685 10.2585 132.811 10.4425 132.9 10.6016H132.99V6.81818H134.476V17H133.025V15.8118H132.9C132.811 15.9742 132.682 16.1598 132.513 16.3686C132.347 16.5774 132.118 16.7597 131.826 16.9155C131.535 17.0713 131.157 17.1491 130.693 17.1491ZM131.021 15.8814C131.449 15.8814 131.81 15.7687 132.105 15.5433C132.403 15.3146 132.629 14.9981 132.781 14.5938C132.937 14.1894 133.015 13.7187 133.015 13.1818C133.015 12.6515 132.938 12.1875 132.786 11.7898C132.633 11.392 132.41 11.0821 132.115 10.8601C131.82 10.638 131.455 10.527 131.021 10.527C130.574 10.527 130.201 10.643 129.902 10.875C129.604 11.107 129.379 11.4235 129.226 11.8246C129.077 12.2256 129.003 12.678 129.003 13.1818C129.003 13.6922 129.079 14.1513 129.231 14.5589C129.384 14.9666 129.609 15.2898 129.907 15.5284C130.209 15.7637 130.58 15.8814 131.021 15.8814Z" fill="#0F973D"/>
<path d="M148.963 10.6019C149.205 10.3614 149.199 9.9771 148.95 9.74363C148.701 9.51015 148.304 9.51589 148.063 9.75645L144.858 12.9496L143.943 12.0371C143.701 11.7965 143.304 11.7908 143.055 12.0242C142.806 12.2577 142.8 12.642 143.042 12.8825L144.408 14.2439C144.526 14.3616 144.689 14.4281 144.858 14.4281C145.028 14.4281 145.19 14.3616 145.309 14.2439L148.963 10.6019Z" fill="#0F973D"/>
<path fill-rule="evenodd" clip-rule="evenodd" d="M147.573 5.94782C146.697 5.12872 145.308 5.12872 144.432 5.94782C144.21 6.15587 143.901 6.25303 143.595 6.21112C142.389 6.04613 141.264 6.83596 141.054 7.99631C141.001 8.29103 140.809 8.5454 140.536 8.68564C139.46 9.23778 139.031 10.5158 139.566 11.5741C139.702 11.843 139.702 12.1574 139.566 12.4262C139.031 13.4846 139.46 14.7625 140.536 15.3147C140.809 15.4549 141.001 15.7093 141.054 16.004C141.264 17.1644 142.389 17.9542 143.595 17.7892C143.901 17.7473 144.21 17.8445 144.432 18.0525C145.308 18.8716 146.697 18.8716 147.573 18.0525C147.795 17.8445 148.104 17.7473 148.411 17.7892C149.617 17.9542 150.741 17.1644 150.951 16.004C151.005 15.7093 151.196 15.4549 151.469 15.3147C152.545 14.7625 152.974 13.4846 152.439 12.4262C152.304 12.1574 152.304 11.843 152.439 11.5741C152.974 10.5158 152.545 9.23778 151.469 8.68564C151.196 8.5454 151.005 8.29103 150.951 7.99631C150.741 6.83596 149.617 6.04613 148.411 6.21112C148.104 6.25303 147.795 6.15587 147.573 5.94782ZM145.305 6.82034C145.694 6.45652 146.311 6.45652 146.7 6.82034C147.201 7.28873 147.897 7.50748 148.586 7.41313C149.122 7.33985 149.621 7.69067 149.715 8.20605C149.835 8.86959 150.265 9.44228 150.881 9.75802C151.359 10.0033 151.549 10.5709 151.312 11.041C151.006 11.6462 151.006 12.3541 151.312 12.9593C151.549 13.4294 151.359 13.9971 150.881 14.2423C150.265 14.558 149.835 15.1307 149.715 15.7943C149.621 16.3097 149.122 16.6605 148.586 16.5872C147.897 16.4928 147.201 16.7116 146.7 17.18C146.311 17.5438 145.694 17.5438 145.305 17.18C144.805 16.7116 144.108 16.4928 143.419 16.5872C142.883 16.6605 142.384 16.3097 142.29 15.7943C142.17 15.1307 141.74 14.558 141.124 14.2423C140.647 13.9971 140.456 13.4294 140.693 12.9593C140.999 12.3541 140.999 11.6462 140.693 11.041C140.456 10.5709 140.647 10.0033 141.124 9.75802C141.74 9.44228 142.17 8.86959 142.29 8.20605C142.384 7.69067 142.883 7.33985 143.419 7.41313C144.108 7.50748 144.805 7.28873 145.305 6.82034Z" fill="#0F973D"/>
</svg>
