<svg width="145" height="24" viewBox="0 0 145 24" fill="none" xmlns="http://www.w3.org/2000/svg">
<rect width="145" height="24" rx="12" fill="#F0F2F5"/>
<path d="M14.6773 6.81818V17H13.1411V6.81818H14.6773ZM18.2817 12.4659V17H16.7952V9.36364H18.222V10.6065H18.3165C18.4922 10.2022 18.7673 9.87737 19.1418 9.6321C19.5196 9.38684 19.9952 9.2642 20.5686 9.2642C21.089 9.2642 21.5447 9.37358 21.9358 9.59233C22.3269 9.80777 22.6302 10.1293 22.8456 10.5568C23.0611 10.9844 23.1688 11.513 23.1688 12.1428V17H21.6823V12.3217C21.6823 11.7682 21.5381 11.3357 21.2497 11.0241C20.9614 10.7093 20.5653 10.5518 20.0615 10.5518C19.7168 10.5518 19.4102 10.6264 19.1418 10.7756C18.8766 10.9247 18.6662 11.1435 18.5104 11.4318C18.3579 11.7169 18.2817 12.0616 18.2817 12.4659ZM28.727 9.36364V10.5568H24.5558V9.36364H28.727ZM25.6744 7.53409H27.161V14.7578C27.161 15.0462 27.204 15.2633 27.2902 15.4091C27.3764 15.5516 27.4874 15.6494 27.6233 15.7024C27.7625 15.7521 27.9133 15.777 28.0757 15.777C28.195 15.777 28.2994 15.7687 28.3889 15.7521C28.4784 15.7356 28.548 15.7223 28.5977 15.7124L28.8662 16.9403C28.78 16.9735 28.6574 17.0066 28.4983 17.0398C28.3392 17.0762 28.1404 17.0961 27.9017 17.0994C27.5106 17.1061 27.146 17.0365 26.808 16.8906C26.4699 16.7448 26.1965 16.5194 25.9877 16.2145C25.7789 15.9096 25.6744 15.5268 25.6744 15.0661V7.53409ZM33.5805 17.1541C32.8282 17.1541 32.1802 16.9934 31.6366 16.6719C31.0964 16.3471 30.6788 15.8913 30.3838 15.3047C30.0921 14.7147 29.9463 14.0237 29.9463 13.2315C29.9463 12.4493 30.0921 11.7599 30.3838 11.1634C30.6788 10.5668 31.0898 10.1011 31.6167 9.76633C32.147 9.43158 32.7668 9.2642 33.4761 9.2642C33.907 9.2642 34.3246 9.33546 34.729 9.47798C35.1333 9.6205 35.4962 9.84422 35.8177 10.1491C36.1392 10.4541 36.3928 10.8501 36.5784 11.3374C36.764 11.8213 36.8568 12.4096 36.8568 13.1023V13.6293H30.7865V12.5156H35.4001C35.4001 12.1245 35.3206 11.7782 35.1615 11.4766C35.0024 11.1716 34.7787 10.9313 34.4903 10.7557C34.2053 10.58 33.8705 10.4922 33.4861 10.4922C33.0684 10.4922 32.7039 10.5949 32.3923 10.8004C32.0841 11.0026 31.8454 11.2678 31.6764 11.5959C31.5107 11.9207 31.4278 12.2737 31.4278 12.6548V13.5249C31.4278 14.0353 31.5173 14.4695 31.6963 14.8274C31.8786 15.1854 32.1321 15.4588 32.4569 15.6477C32.7818 15.8333 33.1613 15.9261 33.5954 15.9261C33.8772 15.9261 34.134 15.8864 34.366 15.8068C34.598 15.724 34.7986 15.6013 34.9676 15.4389C35.1366 15.2765 35.2659 15.076 35.3554 14.8374L36.7623 15.0909C36.6497 15.5052 36.4475 15.8681 36.1558 16.1797C35.8675 16.4879 35.5045 16.7282 35.067 16.9006C34.6328 17.0696 34.1373 17.1541 33.5805 17.1541ZM38.5061 17V9.36364H39.9429V10.5767H40.0225C40.1617 10.1657 40.4069 9.84257 40.7583 9.60724C41.1129 9.36861 41.5139 9.24929 41.9614 9.24929C42.0542 9.24929 42.1636 9.2526 42.2895 9.25923C42.4188 9.26586 42.5199 9.27415 42.5928 9.28409V10.706C42.5331 10.6894 42.4271 10.6712 42.2746 10.6513C42.1221 10.6281 41.9697 10.6165 41.8172 10.6165C41.4659 10.6165 41.1527 10.6911 40.8776 10.8402C40.6058 10.986 40.3904 11.1899 40.2313 11.4517C40.0722 11.7102 39.9926 12.0052 39.9926 12.3366V17H38.5061ZM45.3657 12.4659V17H43.8792V9.36364H45.306V10.6065H45.4005C45.5761 10.2022 45.8512 9.87737 46.2258 9.6321C46.6036 9.38684 47.0792 9.2642 47.6526 9.2642C48.173 9.2642 48.6287 9.37358 49.0198 9.59233C49.4109 9.80777 49.7142 10.1293 49.9296 10.5568C50.145 10.9844 50.2528 11.513 50.2528 12.1428V17H48.7662V12.3217C48.7662 11.7682 48.6221 11.3357 48.3337 11.0241C48.0454 10.7093 47.6493 10.5518 47.1455 10.5518C46.8008 10.5518 46.4942 10.6264 46.2258 10.7756C45.9606 10.9247 45.7501 11.1435 45.5944 11.4318C45.4419 11.7169 45.3657 12.0616 45.3657 12.4659ZM54.4687 17.169C53.9848 17.169 53.5473 17.0795 53.1562 16.9006C52.7651 16.7183 52.4552 16.4548 52.2265 16.1101C52.0011 15.7654 51.8884 15.3428 51.8884 14.8423C51.8884 14.4115 51.9713 14.0568 52.137 13.7784C52.3027 13.5 52.5264 13.2796 52.8081 13.1172C53.0899 12.9548 53.4047 12.8321 53.7528 12.7493C54.1008 12.6664 54.4554 12.6035 54.8167 12.5604C55.2741 12.5073 55.6453 12.4643 55.9303 12.4311C56.2153 12.3946 56.4225 12.3366 56.5518 12.2571C56.681 12.1776 56.7456 12.0483 56.7456 11.8693V11.8345C56.7456 11.4003 56.623 11.0639 56.3778 10.8253C56.1358 10.5866 55.7745 10.4673 55.2939 10.4673C54.7935 10.4673 54.3991 10.5784 54.1107 10.8004C53.8257 11.0192 53.6285 11.2628 53.5191 11.5312L52.1221 11.2131C52.2878 10.7491 52.5297 10.3745 52.8479 10.0895C53.1694 9.80114 53.539 9.59233 53.9566 9.46307C54.3742 9.33049 54.8134 9.2642 55.2741 9.2642C55.579 9.2642 55.9021 9.30066 56.2435 9.37358C56.5882 9.44318 56.9097 9.57244 57.208 9.76136C57.5096 9.95028 57.7565 10.2204 57.9488 10.5717C58.141 10.9197 58.2371 11.3722 58.2371 11.929V17H56.7854V15.956H56.7258C56.6296 16.1482 56.4855 16.3371 56.2932 16.5227C56.101 16.7083 55.8541 16.8625 55.5525 16.9851C55.2509 17.1077 54.8896 17.169 54.4687 17.169ZM54.7918 15.9759C55.2028 15.9759 55.5541 15.8946 55.8458 15.7322C56.1408 15.5698 56.3645 15.3577 56.517 15.0959C56.6727 14.8307 56.7506 14.5473 56.7506 14.2457V13.2614C56.6976 13.3144 56.5948 13.3641 56.4424 13.4105C56.2932 13.4536 56.1225 13.4917 55.9303 13.5249C55.7381 13.5547 55.5508 13.5829 55.3685 13.6094C55.1862 13.6326 55.0338 13.6525 54.9111 13.669C54.6228 13.7055 54.3593 13.7668 54.1206 13.853C53.8853 13.9392 53.6964 14.0634 53.5539 14.2259C53.4147 14.3849 53.3451 14.5971 53.3451 14.8622C53.3451 15.2301 53.481 15.5085 53.7528 15.6974C54.0245 15.883 54.3709 15.9759 54.7918 15.9759ZM61.7036 6.81818V17H60.2171V6.81818H61.7036ZM67.4085 17V9.36364H68.8453V10.5767H68.9248C69.064 10.1657 69.3093 9.84257 69.6606 9.60724C70.0152 9.36861 70.4163 9.24929 70.8637 9.24929C70.9565 9.24929 71.0659 9.2526 71.1919 9.25923C71.3211 9.26586 71.4222 9.27415 71.4951 9.28409V10.706C71.4355 10.6894 71.3294 10.6712 71.1769 10.6513C71.0245 10.6281 70.872 10.6165 70.7195 10.6165C70.3682 10.6165 70.055 10.6911 69.7799 10.8402C69.5081 10.986 69.2927 11.1899 69.1336 11.4517C68.9745 11.7102 68.895 12.0052 68.895 12.3366V17H67.4085ZM75.7993 17.1541C75.0469 17.1541 74.3989 16.9934 73.8554 16.6719C73.3151 16.3471 72.8975 15.8913 72.6025 15.3047C72.3109 14.7147 72.165 14.0237 72.165 13.2315C72.165 12.4493 72.3109 11.7599 72.6025 11.1634C72.8975 10.5668 73.3085 10.1011 73.8355 9.76633C74.3658 9.43158 74.9856 9.2642 75.6949 9.2642C76.1257 9.2642 76.5434 9.33546 76.9477 9.47798C77.3521 9.6205 77.715 9.84422 78.0365 10.1491C78.358 10.4541 78.6115 10.8501 78.7971 11.3374C78.9827 11.8213 79.0756 12.4096 79.0756 13.1023V13.6293H73.0052V12.5156H77.6189C77.6189 12.1245 77.5393 11.7782 77.3802 11.4766C77.2211 11.1716 76.9974 10.9313 76.7091 10.7557C76.424 10.58 76.0893 10.4922 75.7048 10.4922C75.2872 10.4922 74.9226 10.5949 74.6111 10.8004C74.3028 11.0026 74.0642 11.2678 73.8952 11.5959C73.7294 11.9207 73.6466 12.2737 73.6466 12.6548V13.5249C73.6466 14.0353 73.7361 14.4695 73.915 14.8274C74.0973 15.1854 74.3509 15.4588 74.6757 15.6477C75.0005 15.8333 75.38 15.9261 75.8142 15.9261C76.0959 15.9261 76.3528 15.8864 76.5848 15.8068C76.8168 15.724 77.0173 15.6013 77.1863 15.4389C77.3554 15.2765 77.4846 15.076 77.5741 14.8374L78.9811 15.0909C78.8684 15.5052 78.6662 15.8681 78.3746 16.1797C78.0862 16.4879 77.7233 16.7282 77.2858 16.9006C76.8516 17.0696 76.3561 17.1541 75.7993 17.1541ZM86.4472 11.228L85.0999 11.4666C85.0435 11.2943 84.954 11.1302 84.8314 10.9744C84.7121 10.8187 84.5497 10.6911 84.3442 10.5916C84.1387 10.4922 83.8818 10.4425 83.5736 10.4425C83.1527 10.4425 82.8013 10.5369 82.5196 10.7259C82.2379 10.9115 82.097 11.1518 82.097 11.4467C82.097 11.7019 82.1915 11.9074 82.3804 12.0632C82.5693 12.219 82.8743 12.3466 83.2952 12.446L84.5083 12.7244C85.2109 12.8868 85.7346 13.1371 86.0793 13.4751C86.424 13.8132 86.5963 14.2524 86.5963 14.7926C86.5963 15.25 86.4637 15.6577 86.1986 16.0156C85.9368 16.3703 85.5705 16.6487 85.0999 16.8509C84.6325 17.053 84.0906 17.1541 83.4742 17.1541C82.6191 17.1541 81.9214 16.9718 81.3811 16.6072C80.8409 16.2393 80.5094 15.7173 80.3868 15.0412L81.8236 14.8224C81.9131 15.197 82.097 15.4804 82.3754 15.6726C82.6539 15.8615 83.0168 15.956 83.4642 15.956C83.9514 15.956 84.3409 15.8549 84.6325 15.6527C84.9242 15.4472 85.07 15.197 85.07 14.902C85.07 14.6634 84.9806 14.4628 84.8016 14.3004C84.6259 14.138 84.3558 14.0154 83.9912 13.9325L82.6986 13.6491C81.986 13.4867 81.459 13.2282 81.1176 12.8736C80.7796 12.5189 80.6105 12.0698 80.6105 11.5263C80.6105 11.0755 80.7365 10.6811 80.9884 10.343C81.2403 10.005 81.5883 9.74148 82.0324 9.55256C82.4765 9.36032 82.9853 9.2642 83.5587 9.2642C84.384 9.2642 85.0336 9.44318 85.5075 9.80114C85.9815 10.1558 86.2947 10.6314 86.4472 11.228ZM91.4474 17.1541C90.7314 17.1541 90.1067 16.9901 89.5731 16.6619C89.0394 16.3338 88.6251 15.8748 88.3302 15.2848C88.0352 14.6948 87.8877 14.0054 87.8877 13.2166C87.8877 12.4245 88.0352 11.7318 88.3302 11.1385C88.6251 10.5452 89.0394 10.0845 89.5731 9.75639C90.1067 9.42827 90.7314 9.2642 91.4474 9.2642C92.1633 9.2642 92.788 9.42827 93.3216 9.75639C93.8553 10.0845 94.2696 10.5452 94.5645 11.1385C94.8595 11.7318 95.007 12.4245 95.007 13.2166C95.007 14.0054 94.8595 14.6948 94.5645 15.2848C94.2696 15.8748 93.8553 16.3338 93.3216 16.6619C92.788 16.9901 92.1633 17.1541 91.4474 17.1541ZM91.4523 15.9062C91.9163 15.9062 92.3008 15.7836 92.6057 15.5384C92.9107 15.2931 93.136 14.9666 93.2819 14.5589C93.431 14.1513 93.5056 13.7022 93.5056 13.2116C93.5056 12.7244 93.431 12.277 93.2819 11.8693C93.136 11.4583 92.9107 11.1286 92.6057 10.88C92.3008 10.6314 91.9163 10.5071 91.4523 10.5071C90.985 10.5071 90.5972 10.6314 90.289 10.88C89.984 11.1286 89.757 11.4583 89.6079 11.8693C89.462 12.277 89.3891 12.7244 89.3891 13.2116C89.3891 13.7022 89.462 14.1513 89.6079 14.5589C89.757 14.9666 89.984 15.2931 90.289 15.5384C90.5972 15.7836 90.985 15.9062 91.4523 15.9062ZM98.1528 6.81818V17H96.6663V6.81818H98.1528ZM104.99 13.8331V9.36364H106.481V17H105.02V15.6776H104.94C104.765 16.0852 104.483 16.425 104.095 16.6967C103.711 16.9652 103.232 17.0994 102.658 17.0994C102.168 17.0994 101.734 16.9917 101.356 16.7763C100.981 16.5575 100.686 16.2344 100.471 15.8068C100.259 15.3793 100.153 14.8506 100.153 14.2209V9.36364H101.639V14.0419C101.639 14.5623 101.783 14.9766 102.072 15.2848C102.36 15.593 102.735 15.7472 103.195 15.7472C103.474 15.7472 103.75 15.6776 104.025 15.5384C104.304 15.3991 104.534 15.1887 104.717 14.907C104.902 14.6252 104.993 14.2673 104.99 13.8331ZM112.043 9.36364V10.5568H107.872V9.36364H112.043ZM108.991 7.53409H110.477V14.7578C110.477 15.0462 110.52 15.2633 110.607 15.4091C110.693 15.5516 110.804 15.6494 110.94 15.7024C111.079 15.7521 111.23 15.777 111.392 15.777C111.511 15.777 111.616 15.7687 111.705 15.7521C111.795 15.7356 111.864 15.7223 111.914 15.7124L112.183 16.9403C112.096 16.9735 111.974 17.0066 111.815 17.0398C111.656 17.0762 111.457 17.0961 111.218 17.0994C110.827 17.1061 110.462 17.0365 110.124 16.8906C109.786 16.7448 109.513 16.5194 109.304 16.2145C109.095 15.9096 108.991 15.5268 108.991 15.0661V7.53409ZM113.688 17V9.36364H115.174V17H113.688ZM114.438 8.18537C114.18 8.18537 113.958 8.09919 113.772 7.92685C113.59 7.75118 113.499 7.54238 113.499 7.30043C113.499 7.05516 113.59 6.84635 113.772 6.67401C113.958 6.49834 114.18 6.41051 114.438 6.41051C114.697 6.41051 114.917 6.49834 115.1 6.67401C115.285 6.84635 115.378 7.05516 115.378 7.30043C115.378 7.54238 115.285 7.75118 115.1 7.92685C114.917 8.09919 114.697 8.18537 114.438 8.18537ZM120.391 17.1541C119.675 17.1541 119.05 16.9901 118.516 16.6619C117.983 16.3338 117.569 15.8748 117.274 15.2848C116.979 14.6948 116.831 14.0054 116.831 13.2166C116.831 12.4245 116.979 11.7318 117.274 11.1385C117.569 10.5452 117.983 10.0845 118.516 9.75639C119.05 9.42827 119.675 9.2642 120.391 9.2642C121.107 9.2642 121.731 9.42827 122.265 9.75639C122.799 10.0845 123.213 10.5452 123.508 11.1385C123.803 11.7318 123.95 12.4245 123.95 13.2166C123.95 14.0054 123.803 14.6948 123.508 15.2848C123.213 15.8748 122.799 16.3338 122.265 16.6619C121.731 16.9901 121.107 17.1541 120.391 17.1541ZM120.396 15.9062C120.86 15.9062 121.244 15.7836 121.549 15.5384C121.854 15.2931 122.079 14.9666 122.225 14.5589C122.374 14.1513 122.449 13.7022 122.449 13.2116C122.449 12.7244 122.374 12.277 122.225 11.8693C122.079 11.4583 121.854 11.1286 121.549 10.88C121.244 10.6314 120.86 10.5071 120.396 10.5071C119.928 10.5071 119.541 10.6314 119.232 10.88C118.927 11.1286 118.7 11.4583 118.551 11.8693C118.405 12.277 118.332 12.7244 118.332 13.2116C118.332 13.7022 118.405 14.1513 118.551 14.5589C118.7 14.9666 118.927 15.2931 119.232 15.5384C119.541 15.7836 119.928 15.9062 120.396 15.9062ZM127.096 12.4659V17H125.61V9.36364H127.036V10.6065H127.131C127.307 10.2022 127.582 9.87737 127.956 9.6321C128.334 9.38684 128.81 9.2642 129.383 9.2642C129.903 9.2642 130.359 9.37358 130.75 9.59233C131.141 9.80777 131.445 10.1293 131.66 10.5568C131.876 10.9844 131.983 11.513 131.983 12.1428V17H130.497V12.3217C130.497 11.7682 130.353 11.3357 130.064 11.0241C129.776 10.7093 129.38 10.5518 128.876 10.5518C128.531 10.5518 128.225 10.6264 127.956 10.7756C127.691 10.9247 127.481 11.1435 127.325 11.4318C127.172 11.7169 127.096 12.0616 127.096 12.4659Z" fill="#344054"/>
</svg>
