<svg width="20" height="20" viewBox="0 0 20 20" fill="none" xmlns="http://www.w3.org/2000/svg">
<path d="M8.81886 7.64428C8.49342 7.31884 7.96578 7.31884 7.64034 7.64428C7.31491 7.96972 7.31491 8.49735 7.64034 8.82279L8.81886 10.0013L7.64034 11.1798C7.31491 11.5053 7.31491 12.0329 7.64034 12.3583C7.96578 12.6838 8.49342 12.6838 8.81886 12.3583L9.99737 11.1798L11.1759 12.3583C11.5013 12.6838 12.029 12.6838 12.3544 12.3583C12.6798 12.0329 12.6798 11.5053 12.3544 11.1798L11.1759 10.0013L12.3544 8.82279C12.6798 8.49735 12.6798 7.96972 12.3544 7.64428C12.029 7.31884 11.5013 7.31884 11.1759 7.64428L9.99737 8.82279L8.81886 7.64428Z" fill="#CB1A14"/>
<path fill-rule="evenodd" clip-rule="evenodd" d="M9.9974 1.66797C5.39502 1.66797 1.66406 5.39893 1.66406 10.0013C1.66406 14.6037 5.39502 18.3346 9.9974 18.3346C14.5998 18.3346 18.3307 14.6037 18.3307 10.0013C18.3307 5.39893 14.5998 1.66797 9.9974 1.66797ZM3.33073 10.0013C3.33073 6.3194 6.3155 3.33464 9.9974 3.33464C13.6793 3.33464 16.6641 6.3194 16.6641 10.0013C16.6641 13.6832 13.6793 16.668 9.9974 16.668C6.3155 16.668 3.33073 13.6832 3.33073 10.0013Z" fill="#CB1A14"/>
</svg>
