<svg width="37" height="37" viewBox="0 0 37 37" fill="none" xmlns="http://www.w3.org/2000/svg">
<g clip-path="url(#clip0_7422_95200)">
<path fill-rule="evenodd" clip-rule="evenodd" d="M5 0.5C4.17157 0.5 3.5 1.17157 3.5 2V35C3.5 35.8284 4.17157 36.5 5 36.5H32C32.8284 36.5 33.5 35.8284 33.5 35V6.5L27.5 0.5H5Z" fill="#E4E7EC"/>
<path fill-rule="evenodd" clip-rule="evenodd" d="M27.5 0.5V6.5H33.5L27.5 0.5Z" fill="#98A2B3"/>
<rect x="2" y="15.5" width="33" height="15" rx="1.5" fill="#C548F1"/>
<path d="M11.0501 18.7727H12.6183V24.9091C12.6154 25.4716 12.4961 25.956 12.2603 26.3622C12.0245 26.7656 11.695 27.0767 11.2717 27.2955C10.8512 27.5114 10.3612 27.6193 9.80149 27.6193C9.29013 27.6193 8.8299 27.5284 8.42081 27.3466C8.01456 27.1619 7.69212 26.8892 7.45348 26.5284C7.21484 26.1676 7.09553 25.7187 7.09553 25.1818H8.66797C8.67081 25.4176 8.72195 25.6207 8.82138 25.7912C8.92365 25.9616 9.06428 26.0923 9.24325 26.1832C9.42223 26.2741 9.6282 26.3196 9.86115 26.3196C10.114 26.3196 10.3285 26.267 10.5046 26.1619C10.6808 26.054 10.8143 25.8949 10.9052 25.6847C10.9989 25.4744 11.0472 25.2159 11.0501 24.9091V18.7727ZM14.3335 27.5V18.7727H17.6062C18.2766 18.7727 18.8391 18.8977 19.2937 19.1477C19.7511 19.3977 20.0962 19.7415 20.3292 20.179C20.565 20.6136 20.6829 21.108 20.6829 21.6619C20.6829 22.2216 20.565 22.7187 20.3292 23.1534C20.0934 23.5881 19.7454 23.9304 19.2852 24.1804C18.8249 24.4276 18.2582 24.5511 17.5849 24.5511H15.4158V23.2514H17.3718C17.7638 23.2514 18.0849 23.1832 18.3349 23.0469C18.5849 22.9105 18.7695 22.723 18.8888 22.4844C19.011 22.2457 19.0721 21.9716 19.0721 21.6619C19.0721 21.3523 19.011 21.0795 18.8888 20.8438C18.7695 20.608 18.5835 20.4247 18.3306 20.294C18.0806 20.1605 17.7582 20.0938 17.3633 20.0938H15.9144V27.5H14.3335ZM27.9027 21.5597C27.8317 21.3295 27.7337 21.1236 27.6087 20.9418C27.4865 20.7571 27.3388 20.5994 27.1655 20.4688C26.995 20.3381 26.799 20.2401 26.5774 20.1747C26.3558 20.1065 26.1143 20.0724 25.853 20.0724C25.3842 20.0724 24.9666 20.1903 24.6001 20.4261C24.2337 20.6619 23.9453 21.0085 23.7351 21.4659C23.5277 21.9205 23.424 22.4744 23.424 23.1278C23.424 23.7869 23.5277 24.3452 23.7351 24.8026C23.9425 25.2599 24.2308 25.608 24.6001 25.8466C24.9695 26.0824 25.3984 26.2003 25.8871 26.2003C26.3303 26.2003 26.7138 26.1151 27.0376 25.9446C27.3643 25.7741 27.6158 25.5327 27.7919 25.2202C27.968 24.9048 28.0561 24.5355 28.0561 24.1122L28.4141 24.1676H26.0447V22.9318H29.5859V23.9801C29.5859 24.7273 29.4268 25.3736 29.1087 25.919C28.7905 26.4645 28.353 26.8849 27.7962 27.1804C27.2393 27.473 26.6001 27.6193 25.8786 27.6193C25.0746 27.6193 24.3686 27.4389 23.7607 27.0781C23.1555 26.7145 22.6825 26.1989 22.3416 25.5312C22.0036 24.8608 21.8345 24.0653 21.8345 23.1449C21.8345 22.4403 21.9339 21.8111 22.1328 21.2571C22.3345 20.7031 22.6158 20.233 22.9766 19.8466C23.3374 19.4574 23.7607 19.1619 24.2464 18.9602C24.7322 18.7557 25.2607 18.6534 25.8317 18.6534C26.3146 18.6534 26.7649 18.7244 27.1825 18.8665C27.6001 19.0057 27.9709 19.2045 28.2947 19.4631C28.6214 19.7216 28.8899 20.0284 29.1001 20.3835C29.3104 20.7386 29.4482 21.1307 29.5135 21.5597H27.9027Z" fill="white"/>
</g>
<defs>
<clipPath id="clip0_7422_95200">
<rect width="36" height="36" fill="white" transform="translate(0.5 0.5)"/>
</clipPath>
</defs>
</svg>
