<svg width="19" height="18" viewBox="0 0 19 18" fill="none" xmlns="http://www.w3.org/2000/svg">
<path d="M5.2474 2.33268C5.70763 2.33268 6.08073 1.95959 6.08073 1.49935C6.08073 1.03911 5.70763 0.666016 5.2474 0.666016H3.9974C2.15645 0.666016 0.664062 2.1584 0.664062 3.99935V13.9993C0.664062 15.8403 2.15645 17.3327 3.9974 17.3327H5.2474C5.70763 17.3327 6.08073 16.9596 6.08073 16.4993C6.08073 16.0391 5.70763 15.666 5.2474 15.666H3.9974C3.07692 15.666 2.33073 14.9198 2.33073 13.9993L2.33073 3.99935C2.33073 3.07887 3.07692 2.33268 3.9974 2.33268H5.2474Z" fill="#547D74"/>
<path d="M17.92 9.5886C18.2454 9.26317 18.2454 8.73553 17.92 8.41009L14.5867 5.07676C14.2612 4.75132 13.7336 4.75132 13.4081 5.07676C13.0827 5.4022 13.0827 5.92983 13.4081 6.25527L15.3189 8.16602L5.66406 8.16602C5.20382 8.16602 4.83073 8.53911 4.83073 8.99935C4.83073 9.45959 5.20382 9.83268 5.66406 9.83268L15.3189 9.83268L13.4081 11.7434C13.0827 12.0689 13.0827 12.5965 13.4081 12.9219C13.7336 13.2474 14.2612 13.2474 14.5866 12.9219L17.92 9.5886Z" fill="#547D74"/>
</svg>
