<svg width="20" height="20" viewBox="0 0 20 20" fill="none" xmlns="http://www.w3.org/2000/svg">
<path fill-rule="evenodd" clip-rule="evenodd" d="M15.8362 17.5C17.6771 17.5 19.1695 16.0076 19.1695 14.1667V6.68557C19.1698 6.67283 19.1698 6.66005 19.1695 6.64725V5.83333C19.1695 3.99238 17.6771 2.5 15.8362 2.5H4.16949C2.32854 2.5 0.836159 3.99238 0.836159 5.83333V6.64726C0.835863 6.66005 0.835864 6.67282 0.836159 6.68556V14.1667C0.836159 16.0076 2.32854 17.5 4.16949 17.5H15.8362ZM2.50283 14.1667C2.50283 15.0871 3.24902 15.8333 4.16949 15.8333H15.8362C16.7566 15.8333 17.5028 15.0871 17.5028 14.1667V7.89753L11.2408 10.4023C10.4461 10.7202 9.55956 10.7202 8.76486 10.4023L2.50283 7.89753V14.1667ZM10.6218 8.85488L17.5028 6.10247V5.83333C17.5028 4.91286 16.7566 4.16667 15.8362 4.16667H4.16949C3.24902 4.16667 2.50283 4.91286 2.50283 5.83333V6.10247L9.38384 8.85488C9.78119 9.01382 10.2245 9.01382 10.6218 8.85488Z" fill="#98A2B3"/>
</svg>
