<svg width="125" height="24" viewBox="0 0 125 24" fill="none" xmlns="http://www.w3.org/2000/svg">
<rect width="125" height="24" rx="12" fill="#FBEAE9"/>
<path d="M13.354 6.81818H15.2183L18.4598 14.733H18.5791L21.8206 6.81818H23.6849V17H22.2233V9.6321H22.1288L19.126 16.9851H17.9129L14.9101 9.62713H14.8156V17H13.354V6.81818ZM25.7991 17V9.36364H27.2856V17H25.7991ZM26.5498 8.18537C26.2913 8.18537 26.0692 8.09919 25.8836 7.92685C25.7013 7.75118 25.6102 7.54238 25.6102 7.30043C25.6102 7.05516 25.7013 6.84635 25.8836 6.67401C26.0692 6.49834 26.2913 6.41051 26.5498 6.41051C26.8083 6.41051 27.0287 6.49834 27.211 6.67401C27.3966 6.84635 27.4894 7.05516 27.4894 7.30043C27.4894 7.54238 27.3966 7.75118 27.211 7.92685C27.0287 8.09919 26.8083 8.18537 26.5498 8.18537ZM30.7719 12.4659V17H29.2854V9.36364H30.7123V10.6065H30.8067C30.9824 10.2022 31.2575 9.87737 31.632 9.6321C32.0099 9.38684 32.4855 9.2642 33.0589 9.2642C33.5792 9.2642 34.0349 9.37358 34.426 9.59233C34.8171 9.80777 35.1204 10.1293 35.3358 10.5568C35.5513 10.9844 35.659 11.513 35.659 12.1428V17H34.1725V12.3217C34.1725 11.7682 34.0283 11.3357 33.74 11.0241C33.4516 10.7093 33.0555 10.5518 32.5518 10.5518C32.2071 10.5518 31.9005 10.6264 31.632 10.7756C31.3669 10.9247 31.1564 11.1435 31.0006 11.4318C30.8482 11.7169 30.7719 12.0616 30.7719 12.4659ZM37.6526 17V9.36364H39.1391V17H37.6526ZM38.4033 8.18537C38.1448 8.18537 37.9227 8.09919 37.7371 7.92685C37.5548 7.75118 37.4637 7.54238 37.4637 7.30043C37.4637 7.05516 37.5548 6.84635 37.7371 6.67401C37.9227 6.49834 38.1448 6.41051 38.4033 6.41051C38.6618 6.41051 38.8823 6.49834 39.0645 6.67401C39.2501 6.84635 39.343 7.05516 39.343 7.30043C39.343 7.54238 39.2501 7.75118 39.0645 7.92685C38.8823 8.09919 38.6618 8.18537 38.4033 8.18537ZM46.8612 11.228L45.5139 11.4666C45.4576 11.2943 45.3681 11.1302 45.2455 10.9744C45.1262 10.8187 44.9637 10.6911 44.7583 10.5916C44.5528 10.4922 44.2959 10.4425 43.9877 10.4425C43.5667 10.4425 43.2154 10.5369 42.9337 10.7259C42.652 10.9115 42.5111 11.1518 42.5111 11.4467C42.5111 11.7019 42.6056 11.9074 42.7945 12.0632C42.9834 12.219 43.2883 12.3466 43.7093 12.446L44.9223 12.7244C45.625 12.8868 46.1486 13.1371 46.4933 13.4751C46.838 13.8132 47.0104 14.2524 47.0104 14.7926C47.0104 15.25 46.8778 15.6577 46.6127 16.0156C46.3508 16.3703 45.9846 16.6487 45.5139 16.8509C45.0466 17.053 44.5047 17.1541 43.8882 17.1541C43.0331 17.1541 42.3354 16.9718 41.7952 16.6072C41.2549 16.2393 40.9235 15.7173 40.8009 15.0412L42.2377 14.8224C42.3271 15.197 42.5111 15.4804 42.7895 15.6726C43.0679 15.8615 43.4308 15.956 43.8783 15.956C44.3655 15.956 44.7549 15.8549 45.0466 15.6527C45.3383 15.4472 45.4841 15.197 45.4841 14.902C45.4841 14.6634 45.3946 14.4628 45.2156 14.3004C45.04 14.138 44.7699 14.0154 44.4053 13.9325L43.1127 13.6491C42.4001 13.4867 41.8731 13.2282 41.5317 12.8736C41.1936 12.5189 41.0246 12.0698 41.0246 11.5263C41.0246 11.0755 41.1505 10.6811 41.4024 10.343C41.6543 10.005 42.0023 9.74148 42.4465 9.55256C42.8906 9.36032 43.3994 9.2642 43.9727 9.2642C44.798 9.2642 45.4477 9.44318 45.9216 9.80114C46.3956 10.1558 46.7088 10.6314 46.8612 11.228ZM52.2094 9.36364V10.5568H48.0383V9.36364H52.2094ZM49.1569 7.53409H50.6434V14.7578C50.6434 15.0462 50.6865 15.2633 50.7726 15.4091C50.8588 15.5516 50.9698 15.6494 51.1057 15.7024C51.2449 15.7521 51.3957 15.777 51.5581 15.777C51.6775 15.777 51.7819 15.7687 51.8714 15.7521C51.9608 15.7356 52.0305 15.7223 52.0802 15.7124L52.3486 16.9403C52.2625 16.9735 52.1398 17.0066 51.9807 17.0398C51.8216 17.0762 51.6228 17.0961 51.3841 17.0994C50.993 17.1061 50.6285 17.0365 50.2904 16.8906C49.9523 16.7448 49.6789 16.5194 49.4701 16.2145C49.2613 15.9096 49.1569 15.5268 49.1569 15.0661V7.53409ZM53.8538 17V9.36364H55.2906V10.5767H55.3701C55.5093 10.1657 55.7546 9.84257 56.1059 9.60724C56.4606 9.36861 56.8616 9.24929 57.309 9.24929C57.4018 9.24929 57.5112 9.2526 57.6372 9.25923C57.7664 9.26586 57.8675 9.27415 57.9404 9.28409V10.706C57.8808 10.6894 57.7747 10.6712 57.6222 10.6513C57.4698 10.6281 57.3173 10.6165 57.1649 10.6165C56.8135 10.6165 56.5003 10.6911 56.2252 10.8402C55.9535 10.986 55.738 11.1899 55.5789 11.4517C55.4198 11.7102 55.3403 12.0052 55.3403 12.3366V17H53.8538ZM60.3989 19.8636C60.1768 19.8636 59.9746 19.8454 59.7923 19.8089C59.6101 19.7758 59.4742 19.7393 59.3847 19.6996L59.7426 18.4815C60.0144 18.5545 60.2564 18.5859 60.4685 18.576C60.6806 18.5661 60.8679 18.4865 61.0303 18.3374C61.196 18.1882 61.3418 17.9446 61.4678 17.6065L61.6517 17.0994L58.8577 9.36364H60.4486L62.3825 15.2898H62.4621L64.396 9.36364H65.9919L62.8449 18.0192C62.6991 18.4169 62.5135 18.7533 62.2881 19.0284C62.0627 19.3068 61.7942 19.5156 61.4827 19.6548C61.1711 19.794 60.8099 19.8636 60.3989 19.8636ZM72.0734 17H70.4427L74.1068 6.81818H75.8817L79.5457 17H77.915L75.0365 8.66761H74.9569L72.0734 17ZM72.3469 13.0128H77.6366V14.3054H72.3469V13.0128ZM83.6324 17.1491C83.0159 17.1491 82.4657 16.9917 81.9818 16.6768C81.5012 16.3587 81.1234 15.9062 80.8483 15.3196C80.5765 14.7296 80.4406 14.022 80.4406 13.1967C80.4406 12.3714 80.5782 11.6655 80.8532 11.0788C81.1317 10.4922 81.5128 10.0431 81.9967 9.73153C82.4806 9.41998 83.0291 9.2642 83.6423 9.2642C84.1163 9.2642 84.4974 9.34375 84.7858 9.50284C85.0774 9.65862 85.3028 9.84091 85.4619 10.0497C85.6243 10.2585 85.7503 10.4425 85.8398 10.6016H85.9292V6.81818H87.4157V17H85.964V15.8118H85.8398C85.7503 15.9742 85.621 16.1598 85.452 16.3686C85.2863 16.5774 85.0576 16.7597 84.7659 16.9155C84.4742 17.0713 84.0964 17.1491 83.6324 17.1491ZM83.9605 15.8814C84.3881 15.8814 84.7493 15.7687 85.0443 15.5433C85.3426 15.3146 85.568 14.9981 85.7204 14.5938C85.8762 14.1894 85.9541 13.7187 85.9541 13.1818C85.9541 12.6515 85.8779 12.1875 85.7254 11.7898C85.5729 11.392 85.3492 11.0821 85.0542 10.8601C84.7593 10.638 84.3947 10.527 83.9605 10.527C83.5131 10.527 83.1402 10.643 82.8419 10.875C82.5436 11.107 82.3182 11.4235 82.1657 11.8246C82.0166 12.2256 81.942 12.678 81.942 13.1818C81.942 13.6922 82.0183 14.1513 82.1707 14.5589C82.3232 14.9666 82.5486 15.2898 82.8469 15.5284C83.1485 15.7637 83.5197 15.8814 83.9605 15.8814ZM89.5374 17V9.36364H90.9642V10.6065H91.0587C91.2178 10.1856 91.478 9.85748 91.8392 9.62216C92.2005 9.38352 92.633 9.2642 93.1368 9.2642C93.6472 9.2642 94.0748 9.38352 94.4195 9.62216C94.7675 9.8608 95.0244 10.1889 95.1901 10.6065H95.2696C95.4519 10.1989 95.7419 9.87405 96.1396 9.6321C96.5374 9.38684 97.0113 9.2642 97.5615 9.2642C98.2542 9.2642 98.8193 9.4813 99.2568 9.91548C99.6977 10.3497 99.9181 11.0043 99.9181 11.8793V17H98.4316V12.0185C98.4316 11.5014 98.2907 11.1269 98.009 10.8949C97.7272 10.6629 97.3908 10.5469 96.9997 10.5469C96.5158 10.5469 96.1396 10.696 95.8712 10.9943C95.6027 11.2893 95.4685 11.6688 95.4685 12.1328V17H93.9869V11.924C93.9869 11.5097 93.8577 11.1766 93.5992 10.9247C93.3406 10.6728 93.0042 10.5469 92.5899 10.5469C92.3082 10.5469 92.048 10.6214 91.8094 10.7706C91.5741 10.9164 91.3835 11.1203 91.2377 11.3821C91.0951 11.6439 91.0239 11.9472 91.0239 12.2919V17H89.5374ZM101.91 17V9.36364H103.397V17H101.91ZM102.661 8.18537C102.403 8.18537 102.181 8.09919 101.995 7.92685C101.813 7.75118 101.722 7.54238 101.722 7.30043C101.722 7.05516 101.813 6.84635 101.995 6.67401C102.181 6.49834 102.403 6.41051 102.661 6.41051C102.92 6.41051 103.14 6.49834 103.322 6.67401C103.508 6.84635 103.601 7.05516 103.601 7.30043C103.601 7.54238 103.508 7.75118 103.322 7.92685C103.14 8.09919 102.92 8.18537 102.661 8.18537ZM106.883 12.4659V17H105.397V9.36364H106.824V10.6065H106.918C107.094 10.2022 107.369 9.87737 107.743 9.6321C108.121 9.38684 108.597 9.2642 109.17 9.2642C109.691 9.2642 110.146 9.37358 110.537 9.59233C110.928 9.80777 111.232 10.1293 111.447 10.5568C111.663 10.9844 111.77 11.513 111.77 12.1428V17H110.284V12.3217C110.284 11.7682 110.14 11.3357 109.851 11.0241C109.563 10.7093 109.167 10.5518 108.663 10.5518C108.318 10.5518 108.012 10.6264 107.743 10.7756C107.478 10.9247 107.268 11.1435 107.112 11.4318C106.959 11.7169 106.883 12.0616 106.883 12.4659Z" fill="#CB1A14"/>
</svg>
