<svg width="24" height="24" viewBox="0 0 24 24" fill="none" xmlns="http://www.w3.org/2000/svg">
<path d="M7.05086 5.63664C6.66033 5.24612 6.02717 5.24612 5.63664 5.63664C5.24612 6.02717 5.24612 6.66033 5.63664 7.05086L10.5864 12.0006L5.63664 16.9504C5.24612 17.3409 5.24612 17.974 5.63664 18.3646C6.02717 18.7551 6.66033 18.7551 7.05086 18.3646L12.0006 13.4148L16.9504 18.3646C17.3409 18.7551 17.974 18.7551 18.3646 18.3646C18.7551 17.974 18.7551 17.3409 18.3646 16.9504L13.4148 12.0006L18.3646 7.05086C18.7551 6.66033 18.7551 6.02717 18.3646 5.63664C17.974 5.24612 17.3409 5.24612 16.9504 5.63664L12.0006 10.5864L7.05086 5.63664Z" fill="black"/>
</svg>
