<svg width="150" height="36" viewBox="0 0 150 36" fill="none" xmlns="http://www.w3.org/2000/svg">
<path d="M10.9561 9.22986L17.5209 16.4045L23.5775 22.8812C24.6469 24.0248 24.5814 25.8202 23.4314 26.8828L21.8657 28.3296L19.5841 30.417C18.4415 31.4624 16.67 31.3921 15.6138 30.2594L2.88338 16.607C1.8082 15.4539 1.88575 13.6437 3.05561 12.5869L6.98086 9.04077C8.13261 8.00027 9.90832 8.08474 10.9561 9.22986Z" fill="#FEFEFE"/>
<path fill-rule="evenodd" clip-rule="evenodd" d="M5.71846 7.64348C7.63804 5.90931 10.5976 6.05008 12.3439 7.95862L18.9018 15.1258L24.9514 21.5949C26.7337 23.5009 26.6245 26.4933 24.708 28.2643L23.1388 29.7143L20.8538 31.8048C18.9494 33.5471 15.9969 33.4299 14.2366 31.5422L1.50615 17.8897C-0.285819 15.968 -0.156558 12.951 1.79321 11.1896L5.71846 7.64348ZM9.56684 10.4996C9.21758 10.1179 8.62568 10.0897 8.24176 10.4366L4.31651 13.9827C3.92656 14.335 3.90071 14.9384 4.2591 15.3227L16.9895 28.9751C17.3416 29.3527 17.9321 29.3761 18.313 29.0277L20.5877 26.9466L20.5946 26.9403L22.1534 25.4998C22.5367 25.1456 22.5585 24.5471 22.2021 24.1659L16.1385 17.6818L9.56684 10.4996Z" fill="white"/>
<path d="M14.2737 19.4216L17.6103 16.3132L28.4669 5.65251C29.5526 4.58642 31.2879 4.57258 32.3904 5.62121L36.7988 9.8139C37.957 10.9155 37.9705 12.758 36.8285 13.8764L25.4679 25.0028C24.5001 25.768 23.0663 25.3421 22.6732 24.1726L22.5688 23.8618C22.1056 22.4836 20.3786 22.0361 19.3045 23.0161L18.3742 23.8647C17.2332 24.9057 15.4674 24.8364 14.4114 23.7092L14.1379 23.4173C13.0698 22.2772 13.1307 20.4865 14.2737 19.4216Z" fill="#FEFEFE"/>
<path fill-rule="evenodd" clip-rule="evenodd" d="M27.1475 4.30887C28.957 2.53206 31.8491 2.50899 33.6867 4.2567L38.095 8.44939C40.0254 10.2853 40.0479 13.3562 38.1446 15.2202L26.7127 26.4165L26.6344 26.4783C24.6446 28.0517 21.6966 27.1759 20.8885 24.7713L20.784 24.4606C20.773 24.4276 20.7605 24.4139 20.7514 24.4057C20.7391 24.3946 20.7194 24.3826 20.693 24.3758C20.6665 24.3689 20.6435 24.3698 20.6273 24.3736C20.6155 24.3763 20.5978 24.3823 20.5721 24.4057L19.6419 25.2544C17.7401 26.9893 14.7971 26.8738 13.0371 24.9952L12.7636 24.7032C10.9835 22.8031 11.085 19.8186 12.9901 18.0438L16.3085 14.9522L27.1475 4.30887ZM31.0926 6.98419C30.7251 6.63465 30.1467 6.63926 29.7848 6.99462L18.9105 17.6726L15.5559 20.7979C15.1749 21.1529 15.1546 21.7498 15.5106 22.1298L15.7841 22.4217C16.1361 22.7975 16.7247 22.8206 17.105 22.4736L18.0353 21.6249C20.1139 19.7286 23.4557 20.5945 24.3521 23.2615L24.4022 23.4107L35.5109 12.531C35.8915 12.1582 35.887 11.5441 35.501 11.1769L31.0926 6.98419Z" fill="white"/>
<path d="M10.9561 9.22986L17.5209 16.4045L23.5775 22.8812C24.6469 24.0248 24.5814 25.8202 23.4314 26.8828L21.8657 28.3296L19.5841 30.417C18.4415 31.4624 16.67 31.3921 15.6138 30.2594L2.88338 16.607C1.8082 15.4539 1.88575 13.6437 3.05561 12.5869L6.98086 9.04077C8.13261 8.00027 9.90832 8.08474 10.9561 9.22986Z" fill="#15AD07"/>
<path d="M14.2737 19.4216L17.6103 16.3132L28.4669 5.65251C29.5526 4.58642 31.2879 4.57258 32.3904 5.62121L36.7988 9.8139C37.957 10.9155 37.9705 12.758 36.8285 13.8764L25.4679 25.0028C24.5001 25.768 23.0663 25.3421 22.6732 24.1726L22.5688 23.8618C22.1056 22.4836 20.3786 22.0361 19.3045 23.0161L18.3742 23.8647C17.2332 24.9057 15.4674 24.8364 14.4114 23.7092L14.1379 23.4173C13.0698 22.2772 13.1307 20.4865 14.2737 19.4216Z" fill="#002B22"/>
<path d="M75.2132 4.52272V31H70.3779L58.8588 14.3353H58.6649V31H53.0669V4.52272H57.9797L69.4083 21.1744H69.641V4.52272H75.2132ZM88.4961 31H79.1102V4.52272H88.5737C91.237 4.52272 93.5296 5.05278 95.4516 6.1129C97.3736 7.16441 98.8518 8.67703 99.886 10.6508C100.929 12.6245 101.45 14.9861 101.45 17.7355C101.45 20.4936 100.929 22.8638 99.886 24.8461C98.8518 26.8284 97.365 28.3497 95.4257 29.4098C93.4951 30.4699 91.1852 31 88.4961 31ZM84.7081 26.2036H88.2634C89.9183 26.2036 91.3102 25.9105 92.4393 25.3244C93.577 24.7297 94.4303 23.8118 94.9991 22.5707C95.5766 21.321 95.8653 19.7092 95.8653 17.7355C95.8653 15.779 95.5766 14.1802 94.9991 12.9391C94.4303 11.698 93.5813 10.7844 92.4522 10.1983C91.3231 9.61218 89.9312 9.31914 88.2764 9.31914H84.7081V26.2036ZM104.869 31V4.52272H115.315C117.315 4.52272 119.021 4.8804 120.435 5.59577C121.857 6.30252 122.939 7.30662 123.68 8.60808C124.43 9.90091 124.805 11.4222 124.805 13.1718C124.805 14.93 124.425 16.4427 123.667 17.7096C122.908 18.968 121.809 19.9333 120.37 20.6056C118.939 21.2779 117.207 21.614 115.173 21.614H108.179V17.1149H114.268C115.337 17.1149 116.224 16.9684 116.931 16.6754C117.638 16.3823 118.164 15.9428 118.508 15.3567C118.862 14.7706 119.038 14.0423 119.038 13.1718C119.038 12.2927 118.862 11.5514 118.508 10.9481C118.164 10.3448 117.634 9.88798 116.918 9.5777C116.211 9.25881 115.319 9.09936 114.242 9.09936H110.467V31H104.869ZM119.168 18.9508L125.748 31H119.569L113.13 18.9508H119.168ZM142.396 12.1375C142.292 11.0946 141.849 10.2845 141.064 9.70699C140.28 9.12952 139.216 8.84079 137.871 8.84079C136.957 8.84079 136.186 8.97007 135.557 9.22864C134.928 9.47859 134.445 9.82765 134.109 10.2758C133.781 10.724 133.618 11.2325 133.618 11.8014C133.6 12.2754 133.699 12.6891 133.915 13.0425C134.139 13.3959 134.445 13.7019 134.833 13.9604C135.221 14.2104 135.669 14.4301 136.177 14.6198C136.686 14.8008 137.229 14.9559 137.806 15.0852L140.185 15.654C141.34 15.9126 142.4 16.2574 143.366 16.6883C144.331 17.1192 145.167 17.6493 145.874 18.2785C146.58 18.9077 147.128 19.6489 147.516 20.5022C147.912 21.3554 148.115 22.3337 148.123 23.4369C148.115 25.0573 147.701 26.4621 146.882 27.6516C146.072 28.8323 144.9 29.7503 143.366 30.4053C141.84 31.0517 140 31.3749 137.845 31.3749C135.708 31.3749 133.846 31.0474 132.26 30.3924C130.683 29.7373 129.45 28.7677 128.563 27.4835C127.683 26.1906 127.222 24.5918 127.179 22.6871H132.596C132.657 23.5748 132.911 24.316 133.359 24.9107C133.816 25.4968 134.423 25.9407 135.182 26.2424C135.949 26.5354 136.815 26.6819 137.78 26.6819C138.729 26.6819 139.552 26.544 140.25 26.2682C140.957 25.9924 141.504 25.6089 141.892 25.1176C142.28 24.6263 142.473 24.0618 142.473 23.424C142.473 22.8293 142.297 22.3294 141.943 21.9243C141.599 21.5192 141.09 21.1744 140.418 20.89C139.754 20.6056 138.94 20.347 137.974 20.1143L135.091 19.3903C132.859 18.8473 131.097 17.9984 129.804 16.8434C128.511 15.6885 127.869 14.1328 127.877 12.1763C127.869 10.5732 128.295 9.17262 129.157 7.97459C130.028 6.77656 131.221 5.84141 132.738 5.16913C134.255 4.49686 135.979 4.16072 137.91 4.16072C139.875 4.16072 141.59 4.49686 143.055 5.16913C144.529 5.84141 145.675 6.77656 146.494 7.97459C147.313 9.17262 147.735 10.5603 147.761 12.1375H142.396Z" fill="#15AD07"/>
</svg>
