<svg width="66" height="76" viewBox="0 0 66 76" fill="none" xmlns="http://www.w3.org/2000/svg">
<path d="M34.6858 2.99314C34.5872 2.85981 34.4747 2.73759 34.3497 2.62787C33.908 2.24175 33.3108 2.01953 32.6483 2.01953C32.4441 2.01953 32.2302 2.04175 32.0135 2.0862C31.908 2.10842 31.8052 2.1362 31.7038 2.16675C31.6927 2.16953 31.6816 2.17231 31.6705 2.17509C31.6288 2.18898 31.5872 2.20425 31.5455 2.21953C31.5288 2.22509 31.5108 2.23064 31.4941 2.23758C31.426 2.26397 31.358 2.29175 31.2913 2.32092C31.2872 2.32231 31.283 2.32509 31.2802 2.32647C31.1885 2.36814 31.0997 2.41398 31.0122 2.46259C31.0066 2.46536 31.0024 2.46814 30.9969 2.47092C30.976 2.48342 30.9566 2.49731 30.9358 2.50981C30.8816 2.54314 30.8274 2.57647 30.7747 2.6112C30.7649 2.61814 30.7538 2.6237 30.7441 2.63064C30.7233 2.64453 30.7038 2.6612 30.683 2.67647C30.6399 2.70842 30.5969 2.73897 30.5538 2.77231C30.5413 2.78203 30.5274 2.79175 30.5135 2.80148C30.4969 2.81537 30.4802 2.83064 30.4635 2.84453C30.4233 2.87786 30.3844 2.91259 30.3455 2.94731C30.3302 2.9612 30.3149 2.9737 30.2997 2.98759C30.2705 3.01536 30.2413 3.04314 30.2135 3.07231C30.176 3.1112 30.1399 3.15008 30.1038 3.18897C30.0941 3.1987 30.0872 3.20981 30.0774 3.22092C30.0358 3.26814 29.9955 3.31814 29.9566 3.36675C29.9427 3.38481 29.926 3.40147 29.9135 3.41953C29.9094 3.42508 29.9066 3.43064 29.9024 3.4362C29.8427 3.51536 29.7872 3.59731 29.7358 3.68203C29.733 3.6862 29.7302 3.68897 29.7274 3.69314C29.6913 3.75286 29.6566 3.81397 29.6233 3.87508C29.6163 3.88758 29.6108 3.90147 29.6038 3.91397C29.5816 3.95842 29.558 4.00287 29.5385 4.04731C29.533 4.05842 29.5302 4.06953 29.5247 4.08064C29.5149 4.10425 29.5052 4.12786 29.4955 4.15286C29.476 4.20008 29.458 4.24731 29.4413 4.29453C29.4316 4.31953 29.4233 4.34592 29.4149 4.37092C29.3983 4.42092 29.3844 4.46953 29.3705 4.51953C29.3649 4.54314 29.358 4.56536 29.3524 4.58898C29.3344 4.6612 29.3191 4.73481 29.308 4.80842C29.276 5.00564 29.2649 5.20842 29.2802 5.40981L29.3524 6.46259L32.3552 10.5556L32.283 9.50287C32.2677 9.30009 32.2788 9.0987 32.3108 8.90147C32.3219 8.82786 32.3385 8.75425 32.3552 8.68203C32.3608 8.65842 32.3677 8.6362 32.3733 8.61259C32.3872 8.56259 32.401 8.51259 32.4163 8.46397C32.4247 8.43898 32.433 8.41259 32.4427 8.38759C32.4594 8.34037 32.4774 8.29314 32.4969 8.24592C32.5066 8.22231 32.5163 8.1987 32.526 8.17508C32.551 8.11953 32.5774 8.06398 32.6052 8.00842C32.6122 7.99592 32.6177 7.98203 32.6247 7.96953C32.6594 7.90425 32.6969 7.83898 32.7358 7.77509C32.7872 7.69175 32.8441 7.60981 32.9024 7.52925C32.9205 7.50564 32.9385 7.48342 32.958 7.45981C32.9969 7.40981 33.0372 7.3612 33.0788 7.31398C33.1233 7.26398 33.1677 7.21397 33.2149 7.16536C33.258 7.12231 33.3024 7.08203 33.3469 7.04036C33.3858 7.00564 33.4247 6.97092 33.4649 6.93759C33.4941 6.91259 33.5247 6.88759 33.5552 6.86398C33.5969 6.83064 33.6399 6.7987 33.6844 6.76814C33.7149 6.74592 33.7441 6.7237 33.776 6.70287C33.8288 6.66814 33.883 6.63481 33.9372 6.60147C33.9635 6.5862 33.9885 6.56953 34.0149 6.55425C34.1024 6.50564 34.1913 6.45981 34.283 6.41814C34.3538 6.3862 34.4247 6.35564 34.4983 6.32786C34.5149 6.32092 34.533 6.31536 34.5497 6.30981C34.6024 6.29036 34.6552 6.2737 34.7094 6.25703C34.8108 6.22647 34.9135 6.19731 35.0191 6.17648C35.2358 6.13203 35.4497 6.10981 35.6538 6.10981C36.3177 6.10981 36.9149 6.33203 37.3552 6.71814C37.4802 6.82786 37.5927 6.9487 37.6913 7.08342L34.6858 2.99314Z" fill="#D0D5DD"/>
<path d="M32.3551 10.8355C32.269 10.8355 32.1842 10.7952 32.1314 10.7216L29.1287 6.62717C29.0981 6.58411 29.0787 6.53411 29.0759 6.48134L29.0037 5.42856C28.987 5.21467 28.9981 4.98967 29.0342 4.76328C29.0467 4.68828 29.062 4.60911 29.0828 4.523C29.087 4.50495 29.0926 4.4855 29.0967 4.46745L29.1023 4.44661C29.1176 4.39245 29.1328 4.33828 29.1495 4.28411C29.1592 4.25634 29.1689 4.22856 29.1787 4.19939C29.1967 4.148 29.2162 4.09661 29.2384 4.04522L29.2439 4.02995C29.2523 4.00911 29.2606 3.98828 29.2703 3.96745L29.2842 3.93272C29.3064 3.88411 29.3287 3.83967 29.3523 3.79384L29.362 3.77439C29.3676 3.76328 29.3717 3.75356 29.3773 3.74245C29.412 3.67578 29.4495 3.6105 29.4898 3.54522C29.4926 3.53967 29.5009 3.52856 29.5051 3.523C29.5537 3.44522 29.6134 3.35495 29.6801 3.26745C29.6801 3.26606 29.6856 3.25773 29.6926 3.24939C29.7037 3.2355 29.7148 3.22161 29.7273 3.20772L29.7398 3.19245C29.7815 3.13828 29.8245 3.0855 29.8703 3.03411C29.8815 3.01883 29.8898 3.0105 29.8981 3.00078C29.937 2.95634 29.9773 2.91467 30.0176 2.87439C30.0481 2.84384 30.0787 2.81328 30.1106 2.78411C30.1231 2.773 30.1356 2.76189 30.1481 2.75078L30.1606 2.73967C30.2009 2.70217 30.244 2.66467 30.287 2.62856L30.3023 2.61467C30.3148 2.60356 30.3273 2.59244 30.3412 2.58133C30.3523 2.573 30.3634 2.56467 30.3745 2.55633C30.4287 2.51328 30.4759 2.47994 30.5231 2.44661L30.5412 2.43273C30.5565 2.42023 30.5717 2.40911 30.5884 2.398C30.5981 2.39106 30.6078 2.3855 30.6176 2.37856C30.6773 2.33828 30.7356 2.30356 30.7939 2.26745L30.812 2.25633C30.8273 2.24661 30.844 2.2355 30.8606 2.22578C30.8662 2.223 30.8787 2.21606 30.8842 2.21328C30.9717 2.16467 31.069 2.11467 31.1648 2.07022L31.1773 2.06328C31.2495 2.03134 31.3231 2.00078 31.3967 1.973C31.4092 1.96884 31.4231 1.96328 31.4356 1.95911L31.4745 1.94522C31.512 1.93134 31.5495 1.91745 31.5884 1.90634C31.6009 1.90217 31.6134 1.89939 31.6259 1.89661C31.7495 1.85911 31.8564 1.83134 31.9606 1.8105C32.1953 1.76328 32.4273 1.73828 32.6509 1.73828C33.3662 1.73828 34.0356 1.97856 34.5356 2.41467C34.6759 2.53828 34.8037 2.67578 34.912 2.82439L37.9148 6.91745C38.0051 7.04106 37.9787 7.21467 37.8551 7.30634C37.7314 7.39661 37.5578 7.37023 37.4662 7.24662V7.24522C37.3815 7.12995 37.2828 7.02161 37.1731 6.92578C36.7745 6.57717 36.2356 6.3855 35.6537 6.3855C35.4662 6.3855 35.2717 6.40634 35.0745 6.44661C34.9898 6.46467 34.8967 6.48828 34.7912 6.52023C34.7412 6.5355 34.6926 6.55078 34.644 6.56884L34.5967 6.5855C34.5301 6.6105 34.4648 6.63828 34.3995 6.66745C34.3176 6.70495 34.2342 6.74661 34.1523 6.79384C34.1384 6.80078 34.1259 6.80911 34.1134 6.81744L34.0801 6.83689C34.0301 6.86745 33.9801 6.898 33.9314 6.92995C33.9078 6.94523 33.887 6.96189 33.8648 6.97717L33.8481 6.98967C33.8078 7.01884 33.7689 7.048 33.7301 7.07856C33.7023 7.10078 33.6745 7.123 33.6467 7.14662C33.6106 7.17717 33.5745 7.20911 33.5384 7.24106L33.5259 7.25217C33.4884 7.2855 33.4523 7.32022 33.4162 7.35633C33.3731 7.40078 33.3315 7.44661 33.2912 7.49245C33.2523 7.53689 33.2162 7.58134 33.1801 7.62717L33.1578 7.65494C33.1481 7.66744 33.1384 7.67856 33.1287 7.69106C33.0731 7.76606 33.0217 7.84245 32.9745 7.91606C32.9384 7.97439 32.9037 8.03411 32.8717 8.09383L32.8537 8.12995C32.8287 8.17856 32.8037 8.22994 32.7814 8.27994L32.7551 8.34522C32.737 8.38828 32.7203 8.43134 32.7051 8.47439C32.6967 8.498 32.6884 8.52023 32.6814 8.54384C32.6662 8.58967 32.6537 8.63411 32.6412 8.67995L32.6245 8.74245C32.6092 8.80772 32.5953 8.87439 32.5842 8.93967C32.5551 9.123 32.5467 9.30495 32.5592 9.47717L32.6315 10.5313C32.6398 10.6549 32.5662 10.7688 32.4495 10.8105C32.419 10.8299 32.387 10.8355 32.3551 10.8355ZM29.6245 6.36467L32.0134 9.62161L32.0065 9.52439C31.9898 9.3105 32.0009 9.0855 32.037 8.85911C32.0495 8.78411 32.0648 8.70495 32.0856 8.61883C32.0898 8.60078 32.0953 8.58272 32.0995 8.56328L32.1051 8.54245C32.1189 8.48828 32.1356 8.43411 32.1523 8.37994C32.1606 8.35217 32.1703 8.32439 32.1815 8.29522C32.1995 8.24384 32.219 8.19244 32.2412 8.14106L32.2481 8.12439C32.2565 8.10495 32.2648 8.08411 32.2731 8.06467C32.2995 8.00356 32.3287 7.94384 32.3592 7.88411L32.3801 7.84245C32.4176 7.77161 32.4578 7.70078 32.5009 7.63273C32.5551 7.54384 32.6162 7.45495 32.6814 7.36745C32.6953 7.34939 32.7092 7.33134 32.7231 7.31467L32.7412 7.29245C32.7828 7.23967 32.8259 7.18689 32.8717 7.1355C32.9189 7.08134 32.9676 7.02717 33.0189 6.97578C33.0606 6.93272 33.1051 6.89245 33.1495 6.85217L33.162 6.84106C33.2037 6.80356 33.2453 6.76606 33.2884 6.72995C33.3203 6.70356 33.3523 6.67717 33.3856 6.65078C33.4315 6.61467 33.4773 6.58134 33.5245 6.548L33.5412 6.5355C33.569 6.51606 33.5953 6.49661 33.6231 6.47717C33.6801 6.43967 33.7384 6.40356 33.7967 6.36884L33.8231 6.35356C33.8426 6.34245 33.8606 6.32995 33.8815 6.31883C33.9773 6.26467 34.0745 6.21606 34.1703 6.17161C34.2467 6.13689 34.3231 6.10495 34.4023 6.07439L34.4578 6.05495C34.5148 6.03411 34.5717 6.01606 34.6301 5.998C34.7523 5.9605 34.862 5.93133 34.9648 5.9105C35.512 5.798 36.0412 5.82023 36.5217 5.96189L34.4662 3.1605C34.3814 3.04384 34.2814 2.93689 34.1717 2.84106C33.7731 2.49245 33.2328 2.30078 32.6523 2.30078C32.4662 2.30078 32.2703 2.32161 32.0731 2.36189C31.987 2.37995 31.8967 2.40356 31.7898 2.4355C31.7787 2.43828 31.7676 2.44106 31.7565 2.44383C31.7273 2.45217 31.6967 2.46328 31.6662 2.47439L31.5967 2.49939C31.5328 2.523 31.4703 2.54939 31.4092 2.57717C31.3162 2.62022 31.2328 2.66328 31.1523 2.70911C31.1467 2.71189 31.1342 2.71883 31.1287 2.72161C31.1301 2.72161 31.1245 2.72578 31.1176 2.72995C31.1064 2.73828 31.0939 2.74522 31.0814 2.75217C31.0314 2.78272 30.9814 2.81328 30.9328 2.84523C30.9245 2.85078 30.9148 2.85634 30.9064 2.86189C30.8967 2.86745 30.8898 2.87439 30.8828 2.87995C30.8717 2.88828 30.8606 2.89661 30.8495 2.90495C30.8092 2.93411 30.769 2.96328 30.7301 2.99383C30.7203 3.00078 30.712 3.00773 30.7023 3.01467L30.6773 3.0355C30.6676 3.04384 30.6578 3.05356 30.6467 3.06189C30.6106 3.09245 30.5745 3.12439 30.5384 3.15634C30.5287 3.16606 30.5189 3.173 30.5092 3.18133L30.4953 3.19383C30.469 3.21883 30.4426 3.24522 30.4162 3.27161C30.3814 3.30633 30.3481 3.34244 30.3148 3.37994C30.3051 3.39244 30.2981 3.40078 30.2898 3.40911C30.2523 3.45217 30.2162 3.498 30.1801 3.54245C30.1717 3.55356 30.162 3.56467 30.1537 3.57439L30.1398 3.59106C30.1398 3.59106 30.1356 3.598 30.1301 3.60495C30.0731 3.68134 30.0217 3.75633 29.9759 3.83133C29.9731 3.8355 29.969 3.84245 29.9648 3.848C29.9328 3.90078 29.9023 3.95494 29.8731 4.00911L29.8551 4.04522C29.8328 4.08967 29.812 4.12856 29.7953 4.16745L29.7828 4.198C29.7759 4.21328 29.7703 4.22856 29.7634 4.24522L29.7564 4.26189C29.7384 4.30495 29.7217 4.348 29.7065 4.39106C29.6981 4.41467 29.6898 4.43689 29.6828 4.4605C29.6689 4.50494 29.6551 4.55078 29.6426 4.59522L29.6259 4.65772C29.6106 4.723 29.5967 4.78828 29.5856 4.85495C29.5565 5.03828 29.5481 5.22023 29.5606 5.39245L29.6245 6.36467Z" fill="#F9FAFB"/>
<path d="M36.046 8.92005L33.0432 4.82699C33.0112 4.78394 32.9751 4.74366 32.9349 4.70894C32.7904 4.58394 32.5988 4.51172 32.3863 4.51172C32.3182 4.51311 32.2501 4.52005 32.1793 4.53394C32.1418 4.54227 32.1043 4.552 32.0682 4.56311C32.0571 4.56727 32.0474 4.57144 32.0362 4.57561C32.0196 4.58116 32.0043 4.58811 31.989 4.59366C31.9751 4.59922 31.9599 4.60338 31.946 4.61033C31.921 4.62144 31.8988 4.63394 31.8751 4.64644C31.8696 4.64922 31.864 4.652 31.8599 4.65477C31.8571 4.65616 31.8557 4.65755 31.8529 4.65894C31.8251 4.67422 31.7987 4.69088 31.7724 4.70894C31.7599 4.71727 31.7474 4.727 31.7363 4.73672C31.7307 4.74088 31.7238 4.74644 31.7182 4.75061C31.7126 4.75477 31.7057 4.75894 31.7001 4.76311C31.6765 4.78255 31.6543 4.802 31.6321 4.82283C31.621 4.83255 31.6112 4.84366 31.6015 4.85338C31.589 4.86588 31.5765 4.87977 31.564 4.89227C31.5418 4.91588 31.521 4.94227 31.5015 4.96727C31.5001 4.96866 31.4987 4.97144 31.4974 4.97422C31.4932 4.97977 31.4904 4.98533 31.4862 4.99088C31.471 5.01311 31.4557 5.03394 31.4418 5.05755C31.4349 5.06866 31.4293 5.08116 31.4238 5.09227C31.4154 5.10755 31.4071 5.12283 31.3987 5.1381C31.3932 5.14922 31.3863 5.16033 31.3807 5.17144C31.3724 5.19089 31.3654 5.21172 31.3585 5.23116C31.3529 5.24505 31.3474 5.25894 31.3418 5.27422C31.3265 5.32005 31.314 5.36588 31.3071 5.41311C31.2974 5.477 31.2946 5.54227 31.2988 5.60755L31.3571 6.46588L34.3599 10.5589L34.3015 9.70061C34.2974 9.63533 34.3001 9.57005 34.3099 9.50616C34.3168 9.45894 34.3293 9.41311 34.3446 9.36727C34.3487 9.35338 34.3557 9.3395 34.3612 9.32422C34.3737 9.29227 34.3863 9.26172 34.4015 9.23116C34.4099 9.21588 34.4182 9.20061 34.4265 9.18533C34.446 9.15061 34.4668 9.11727 34.4904 9.08394C34.4946 9.07838 34.4974 9.07283 34.5015 9.06727C34.5335 9.02561 34.5668 8.98394 34.6043 8.94644C34.6404 8.90894 34.6793 8.87561 34.721 8.84227C34.7265 8.83811 34.7335 8.83255 34.739 8.82838C34.7779 8.79922 34.8196 8.77144 34.8626 8.74644C34.8682 8.74366 34.8738 8.74088 34.8779 8.73811C34.9154 8.71866 34.9529 8.70061 34.9932 8.68533C35.0085 8.67838 35.0251 8.67283 35.0404 8.66727C35.0863 8.65061 35.1335 8.63672 35.1835 8.62561C35.2543 8.61172 35.3224 8.60477 35.3904 8.60338C35.6029 8.60338 35.7946 8.6756 35.939 8.8006C35.9779 8.8381 36.014 8.877 36.046 8.92005Z" fill="#D0D5DD"/>
<path d="M34.3597 10.8346C34.2736 10.8346 34.1889 10.7944 34.1361 10.7207L31.1333 6.6263C31.1028 6.58325 31.0833 6.53325 31.0805 6.48047L31.0222 5.62214C31.0167 5.53464 31.0194 5.44853 31.0333 5.36519C31.043 5.30825 31.0569 5.24853 31.0778 5.18325C31.0833 5.16658 31.0889 5.1513 31.0944 5.13603L31.1028 5.1138C31.1097 5.09297 31.118 5.07214 31.1278 5.0513C31.1347 5.03741 31.1417 5.02353 31.1486 5.00964C31.1597 4.9888 31.1694 4.96936 31.1805 4.94853C31.1889 4.93186 31.1958 4.91936 31.2042 4.90547C31.2222 4.8763 31.2417 4.84853 31.2611 4.82214C31.2639 4.81797 31.2667 4.8138 31.2708 4.80825C31.2722 4.80547 31.275 4.80269 31.2764 4.79991C31.3055 4.76103 31.3319 4.73047 31.3583 4.69991C31.3736 4.68325 31.3889 4.66658 31.4042 4.6513C31.4153 4.64019 31.4278 4.6263 31.4417 4.61519C31.4694 4.5888 31.4972 4.56519 31.5264 4.54158C31.5305 4.5388 31.5444 4.52769 31.5486 4.52491L31.5805 4.5013C31.5917 4.49297 31.6042 4.48325 31.6167 4.47491C31.65 4.45269 31.6833 4.43186 31.7167 4.41241C31.7222 4.40964 31.7305 4.40408 31.7361 4.40269L31.7472 4.39714C31.7736 4.38325 31.8028 4.36658 31.8333 4.35269C31.8486 4.34575 31.8639 4.34019 31.8792 4.33464C31.9069 4.32352 31.9264 4.31658 31.9472 4.30964C31.9611 4.30408 31.9736 4.29853 31.9875 4.29436C32.0333 4.28047 32.0792 4.26797 32.125 4.25825C32.2097 4.24158 32.293 4.23186 32.3819 4.23047C32.6625 4.23047 32.9208 4.32491 33.1181 4.49575C33.175 4.54575 33.225 4.6013 33.268 4.65963L36.2694 8.75269C36.2694 8.75269 36.2694 8.75408 36.2708 8.75408C36.3611 8.87769 36.3347 9.0513 36.2111 9.14297C36.0875 9.23325 35.9139 9.20686 35.8222 9.08325C35.8028 9.05686 35.7805 9.03186 35.7555 9.00964C35.6597 8.9263 35.5305 8.88047 35.3903 8.88047C35.3403 8.88186 35.2875 8.88741 35.2375 8.89714C35.2083 8.90269 35.1764 8.91241 35.1319 8.92769C35.1194 8.93186 35.1069 8.93742 35.0958 8.94158C35.0667 8.95269 35.0375 8.96658 35.0097 8.98047C35.0069 8.98186 34.9958 8.98741 34.9931 8.9888C34.9681 9.00269 34.9375 9.02353 34.9042 9.04714L34.7194 8.83881L34.8903 9.05825C34.8555 9.08464 34.8278 9.11103 34.8014 9.13742C34.7736 9.16658 34.7472 9.19714 34.7222 9.23047L34.7139 9.24297C34.6972 9.26658 34.6819 9.29158 34.6667 9.31797C34.6611 9.32908 34.6542 9.34019 34.6486 9.35269C34.6375 9.37353 34.6278 9.39714 34.6194 9.41936L34.6125 9.43742C34.5958 9.48603 34.5875 9.51797 34.5833 9.54575C34.5764 9.58603 34.575 9.63186 34.5778 9.67769L34.6361 10.536C34.6444 10.6596 34.5708 10.7735 34.4542 10.8152C34.4236 10.8291 34.3917 10.8346 34.3597 10.8346ZM31.6292 6.3638L34.0222 9.6263C34.0222 9.57075 34.0278 9.51519 34.0361 9.46103C34.0458 9.40408 34.0597 9.34436 34.0819 9.27908C34.0861 9.2638 34.093 9.24991 34.0986 9.23464C34.118 9.18325 34.1347 9.14436 34.1542 9.10547C34.1639 9.08464 34.175 9.06658 34.1847 9.04714C34.2097 9.00269 34.2361 8.96103 34.2653 8.91936C34.2694 8.9138 34.2736 8.90547 34.2792 8.89853C34.318 8.84575 34.3625 8.79436 34.4069 8.74852C34.4486 8.70547 34.4958 8.6638 34.55 8.62075C34.5514 8.61936 34.5653 8.60964 34.5667 8.60825C34.625 8.56519 34.675 8.53186 34.7264 8.50269C34.7305 8.49991 34.743 8.49436 34.7472 8.49158C34.7917 8.46797 34.8389 8.44575 34.8889 8.42631C34.9097 8.41797 34.9292 8.41103 34.9486 8.40408C35.0153 8.38047 35.0708 8.36519 35.1264 8.35269C35.175 8.34297 35.2222 8.33602 35.2722 8.33186L32.8208 4.99019C32.8014 4.9638 32.7792 4.9388 32.7528 4.91658C32.6569 4.83464 32.5278 4.78741 32.3875 4.78741C32.3375 4.7888 32.2847 4.79436 32.2347 4.80408C32.2083 4.80964 32.1805 4.81658 32.1542 4.82491C32.1486 4.82769 32.1389 4.83186 32.1305 4.83464C32.118 4.8388 32.1055 4.84436 32.0944 4.84853L32.0667 4.85964C32.043 4.86936 32.025 4.87908 32.0083 4.8888C32.0055 4.89019 31.9944 4.89575 31.9917 4.89714C31.9903 4.89853 31.9875 4.89991 31.9861 4.89991C31.968 4.91103 31.9486 4.92214 31.9319 4.93464L31.9042 4.95547L31.7194 4.74714L31.8917 4.96519C31.8889 4.96797 31.8778 4.9763 31.875 4.97769C31.8597 4.99019 31.843 5.00547 31.8264 5.02075L31.8028 5.04436C31.7917 5.05547 31.7819 5.06519 31.7736 5.07492C31.7583 5.09158 31.7444 5.10825 31.7305 5.1263C31.7278 5.12908 31.7264 5.13325 31.725 5.13464C31.7222 5.13741 31.718 5.14575 31.7153 5.14853C31.7042 5.16519 31.6917 5.18047 31.6805 5.19852L31.668 5.22352C31.6611 5.23602 31.6555 5.24575 31.65 5.25686L31.6361 5.28325C31.6347 5.28742 31.6319 5.29297 31.6305 5.29991L31.6153 5.34297C31.5986 5.39297 31.5903 5.42353 31.5861 5.45269C31.5792 5.49297 31.5778 5.5388 31.5805 5.58464L31.6292 6.3638Z" fill="#F9FAFB"/>
<path d="M37.1087 9.12474C37.1045 9.05669 37.0948 8.99002 37.0823 8.92474C37.0823 8.92196 37.0809 8.91919 37.0795 8.91641C37.0642 8.84419 37.0462 8.77335 37.0212 8.7053C37.0003 8.64835 36.9767 8.5928 36.949 8.53863C36.9476 8.53446 36.9448 8.53169 36.942 8.52752C36.9351 8.51363 36.9253 8.49974 36.9184 8.48585C36.9017 8.45668 36.8851 8.42613 36.867 8.39835C36.8559 8.38168 36.8434 8.36363 36.8309 8.34696L33.8281 4.25391C33.8601 4.29835 33.8878 4.34557 33.9156 4.3928C33.924 4.40668 33.9323 4.41919 33.9392 4.43446C33.9698 4.49141 33.9962 4.55113 34.0184 4.61224C34.0434 4.6803 34.0615 4.74974 34.0767 4.82335C34.0906 4.89002 34.1003 4.95946 34.1045 5.03029L34.2017 6.46363L37.2045 10.5567L37.1087 9.12474Z" fill="#D0D5DD"/>
<path d="M37.2044 10.8351C37.1182 10.8351 37.0335 10.7949 36.9807 10.7212L33.978 6.6268C33.9474 6.58374 33.928 6.53374 33.9252 6.48097L33.828 5.04763C33.8238 4.99069 33.8169 4.93513 33.8044 4.8768C33.7919 4.81569 33.7766 4.75735 33.7571 4.70458C33.7405 4.65874 33.7196 4.61152 33.6932 4.56152L33.6738 4.52957C33.6516 4.49069 33.628 4.45041 33.6044 4.41707C33.5141 4.29346 33.5405 4.11985 33.6641 4.02819C33.7877 3.93791 33.9613 3.9643 34.053 4.08791C34.053 4.08791 34.053 4.0893 34.0544 4.0893L37.0557 8.18235C37.0696 8.2018 37.0849 8.22263 37.0988 8.24347C37.1182 8.27263 37.1349 8.3018 37.1516 8.33235L37.1613 8.34902C37.1724 8.36707 37.1794 8.37958 37.1863 8.39069C37.1905 8.39763 37.1946 8.40596 37.1974 8.41013C37.2307 8.47402 37.2599 8.54069 37.2849 8.60874C37.3127 8.68513 37.3349 8.76569 37.353 8.85041C37.3557 8.85874 37.3571 8.86708 37.3585 8.87402C37.3724 8.94624 37.3835 9.02541 37.3877 9.10457L37.4849 10.5379C37.4932 10.6615 37.4196 10.7754 37.303 10.8171C37.2682 10.8296 37.2363 10.8351 37.2044 10.8351ZM34.4738 6.3643L36.8627 9.62124L36.8307 9.14346C36.828 9.09069 36.821 9.0393 36.8113 8.9893C36.8099 8.98652 36.8099 8.98235 36.8085 8.97958C36.7946 8.91152 36.7794 8.85458 36.7599 8.8018C36.7446 8.75874 36.7252 8.71569 36.7044 8.67402C36.7016 8.66847 36.6974 8.66152 36.6946 8.65735L36.6641 8.60596C36.6544 8.5893 36.6446 8.57124 36.6335 8.55458C36.6238 8.54069 36.6141 8.5268 36.6044 8.51291L34.4155 5.52819L34.4738 6.3643Z" fill="#F9FAFB"/>
<path d="M17.0304 6.46484H28.4207L28.6998 10.5565L15.9609 13.1662L17.0304 6.46484Z" fill="#F7F9FC"/>
<path d="M15.961 13.4439C15.8901 13.4439 15.8207 13.4161 15.7693 13.3675C15.704 13.305 15.6721 13.2133 15.6874 13.123L16.7568 6.42027C16.7776 6.28555 16.8943 6.18555 17.0318 6.18555H28.4221C28.5679 6.18555 28.6888 6.29805 28.6999 6.44388L28.979 10.5355C28.9888 10.6744 28.8943 10.798 28.7582 10.8272L16.0193 13.4383C15.9985 13.4425 15.979 13.4439 15.961 13.4439ZM17.2665 6.74249L16.2985 12.8147L28.4068 10.3328L28.1624 6.74249H17.2665Z" fill="#F9FAFB"/>
<path d="M28.6998 10.5566L31.7026 14.6497L18.9637 17.2608L15.9609 13.1664L28.6998 10.5566Z" fill="#98A2B3"/>
<path d="M18.9636 17.5387C18.8761 17.5387 18.7928 17.497 18.74 17.4248L15.7372 13.3303C15.6817 13.254 15.6678 13.154 15.7025 13.0665C15.7372 12.9776 15.8136 12.9137 15.9053 12.8942L28.6442 10.2831C28.7497 10.2609 28.8595 10.304 28.9234 10.3915L31.9261 14.4859C31.9817 14.5623 31.9956 14.6623 31.9609 14.7498C31.9261 14.8387 31.8497 14.9026 31.7581 14.922L19.0192 17.5331C19.0011 17.5373 18.9817 17.5387 18.9636 17.5387ZM16.4414 13.3526L19.0831 16.954L31.2234 14.4665L28.5817 10.8651L16.4414 13.3526Z" fill="#F9FAFB"/>
<path d="M30.695 19.7423C30.4033 19.4867 30.2144 19.1256 30.1852 18.6923L29.6172 10.3673L30.6755 10.1506L30.963 14.3562C30.9769 14.5617 31.1422 14.702 31.3519 14.702C31.3839 14.702 31.4172 14.6992 31.4519 14.6909C31.7061 14.6381 31.8991 14.4048 31.8825 14.1673L31.595 9.96172L33.4825 9.57422L34.0519 17.8992C34.0602 18.0339 34.0533 18.1659 34.0325 18.2978C33.9644 18.7214 33.7477 19.1242 33.4339 19.445C33.1172 19.7659 32.7061 20.0034 32.2422 20.0992C32.1005 20.127 31.9589 20.1423 31.8227 20.1423C31.3825 20.1437 30.988 19.9978 30.695 19.7423Z" fill="#D0D5DD"/>
<path d="M31.8197 20.4208C31.3252 20.4208 30.8614 20.2541 30.5128 19.9513L30.5114 19.95C30.1503 19.6333 29.9419 19.2041 29.9086 18.7111L29.3405 10.3861C29.3308 10.2472 29.4252 10.1236 29.5614 10.0944L30.6197 9.87773C30.6975 9.86106 30.7794 9.88051 30.8433 9.92912C30.9072 9.97773 30.9475 10.0513 30.9516 10.1319L31.2391 14.3375C31.2447 14.4152 31.3197 14.4236 31.3516 14.4236C31.3655 14.4236 31.3808 14.4222 31.3961 14.4194C31.5239 14.393 31.6114 14.275 31.6058 14.1875L31.3183 9.9819C31.3086 9.84301 31.403 9.7194 31.5391 9.69023L33.4266 9.30273C33.5044 9.28607 33.5864 9.30551 33.6502 9.35412C33.7141 9.40273 33.7544 9.47634 33.7586 9.5569L34.328 17.8819C34.3377 18.0388 34.3294 18.193 34.3058 18.343C34.2308 18.8125 33.9905 19.2736 33.6308 19.6416C33.2614 20.0152 32.8002 20.268 32.2961 20.3736C32.135 20.4055 31.9752 20.4208 31.8197 20.4208ZM30.8766 19.5333C31.2072 19.8194 31.6878 19.9291 32.185 19.8291C32.5794 19.7472 32.9419 19.5472 33.2336 19.2527C33.5127 18.968 33.6989 18.6138 33.7558 18.2569C33.7739 18.1458 33.7794 18.0333 33.7725 17.9194L33.2252 9.91384L31.8877 10.1875L32.1586 14.1513C32.185 14.5277 31.8975 14.8847 31.5072 14.9652C31.4558 14.9763 31.403 14.9819 31.3516 14.9819C30.9891 14.9819 30.71 14.7277 30.685 14.3777L30.4197 10.4888L29.9114 10.593L30.4627 18.675C30.4864 19.018 30.6294 19.3152 30.8766 19.5333Z" fill="#F9FAFB"/>
<path d="M29.3516 6.46289H30.4252L30.6766 10.149L29.6182 10.3657L29.3516 6.46289Z" fill="#F7F9FC"/>
<path d="M29.618 10.6439C29.5583 10.6439 29.4985 10.6244 29.4499 10.5869C29.386 10.5383 29.3458 10.4647 29.3416 10.3842L29.0749 6.48138C29.0694 6.40499 29.0971 6.3286 29.1485 6.27305C29.2013 6.21749 29.2749 6.18555 29.3513 6.18555H30.4235C30.5694 6.18555 30.6902 6.29804 30.7013 6.44388L30.9527 10.13C30.9624 10.2689 30.868 10.3925 30.7319 10.4217L29.6735 10.6383C29.6555 10.6425 29.6374 10.6439 29.618 10.6439ZM29.6485 6.7411L29.8735 10.03L30.3819 9.92582L30.1638 6.7411H29.6485Z" fill="#F9FAFB"/>
<path d="M39.2117 10.8351C39.1255 10.8351 39.0408 10.7948 38.988 10.7212L35.9853 6.62673C35.9547 6.58368 35.9353 6.53368 35.9325 6.4809L35.7658 4.04201C35.7617 3.97396 35.7547 3.90729 35.745 3.84062L35.7353 3.77813C35.7283 3.73507 35.7214 3.69063 35.713 3.64757C35.7047 3.60451 35.6936 3.56285 35.6825 3.52118L35.6644 3.44618C35.6464 3.3809 35.6255 3.31563 35.6019 3.25313C35.5686 3.16285 35.5283 3.0684 35.4769 2.96563L35.4589 2.92812C35.4186 2.85173 35.3742 2.77396 35.3242 2.69896C35.295 2.65451 35.2714 2.6184 35.245 2.58368C35.1547 2.46007 35.1811 2.28646 35.3047 2.19479C35.3547 2.15868 35.4116 2.14062 35.4686 2.14062C35.5547 2.14062 35.638 2.17951 35.6922 2.25451L38.695 6.34896C38.7228 6.38646 38.7491 6.42535 38.7755 6.46424C38.7797 6.47118 38.7908 6.48923 38.795 6.49618C38.8492 6.57951 38.9033 6.66979 38.9491 6.75868C38.9547 6.76701 38.9589 6.77535 38.963 6.78507C38.9672 6.7934 38.9728 6.8059 38.9783 6.81979C39.0367 6.93507 39.0853 7.04896 39.1255 7.15868C39.1533 7.23507 39.1783 7.31285 39.2005 7.39201C39.2061 7.41146 39.2103 7.42951 39.2144 7.44896L39.22 7.47396C39.2339 7.52674 39.2464 7.57951 39.2575 7.63507C39.2575 7.63646 39.2603 7.64479 39.2616 7.65313C39.2686 7.68646 39.2741 7.72118 39.2783 7.7559C39.2783 7.7559 39.2936 7.84757 39.295 7.86563C39.3061 7.9434 39.313 8.02257 39.3186 8.10312L39.4853 10.5406C39.4936 10.6642 39.42 10.7781 39.3033 10.8198C39.2755 10.8295 39.2436 10.8351 39.2117 10.8351Z" fill="#D0D5DD"/>
<path d="M35.4667 2.42096L38.4695 6.51541C38.4945 6.55013 38.5195 6.58486 38.5431 6.62097C38.5487 6.62791 38.5515 6.63624 38.557 6.64318C38.6098 6.72513 38.6598 6.80846 38.7056 6.89596C38.7084 6.90152 38.7112 6.90569 38.714 6.91124C38.7181 6.91958 38.7209 6.9293 38.7265 6.93902C38.7779 7.0418 38.8251 7.14596 38.864 7.25568C38.889 7.32513 38.9112 7.39735 38.932 7.46957C38.939 7.49458 38.9445 7.51958 38.9501 7.54458C38.9626 7.59319 38.9751 7.6418 38.9848 7.6918C38.9862 7.69735 38.9876 7.70291 38.989 7.70846C38.9973 7.75013 39.0029 7.7918 39.0098 7.83346C39.014 7.85707 39.0181 7.8793 39.0209 7.90291C39.0306 7.97513 39.0376 8.04735 39.0431 8.12096L39.2098 10.5599L36.207 6.4668L36.0404 4.02791C36.0348 3.9543 36.0279 3.88069 36.0181 3.80985C36.0154 3.78624 36.0098 3.76402 36.007 3.74041C36.0001 3.69319 35.9918 3.64596 35.982 3.59874C35.9723 3.54874 35.9598 3.50013 35.9473 3.45152C35.9404 3.42652 35.9362 3.40152 35.9293 3.37791C35.9084 3.30569 35.8862 3.23346 35.8612 3.16402C35.8209 3.0543 35.7751 2.95013 35.7237 2.84735C35.7167 2.83346 35.7098 2.81958 35.7029 2.80569C35.657 2.71819 35.607 2.63485 35.5543 2.55291C35.5251 2.50569 35.4973 2.46263 35.4667 2.42096ZM35.9154 2.0918L35.4667 2.42096L35.0195 2.75013C35.0431 2.78207 35.0654 2.81541 35.0862 2.84874C35.1334 2.92235 35.1751 2.99041 35.2098 3.05846L35.214 3.0668L35.2265 3.0918C35.2737 3.18624 35.3112 3.27096 35.339 3.35013C35.339 3.35152 35.3404 3.35291 35.3404 3.35291C35.3598 3.40708 35.3779 3.46402 35.3945 3.52374C35.3959 3.53069 35.3973 3.53763 35.4001 3.54457C35.4029 3.55846 35.407 3.57096 35.4098 3.58485C35.4209 3.62791 35.4306 3.6668 35.439 3.70708C35.4473 3.74458 35.4529 3.78346 35.4584 3.82235L35.464 3.85985C35.4654 3.8668 35.4667 3.87374 35.4667 3.88069C35.4751 3.94458 35.4806 4.0043 35.4848 4.06263L35.6515 6.50152C35.6584 6.60707 35.6959 6.70707 35.7584 6.7918L38.7612 10.8849C38.8681 11.0307 39.0362 11.1112 39.2098 11.1112C39.2737 11.1112 39.3376 11.1001 39.4001 11.0779C39.632 10.9932 39.7806 10.7654 39.764 10.5182L39.5973 8.0793C39.5917 7.99735 39.5834 7.91124 39.5723 7.82513C39.5695 7.80291 39.5654 7.78207 39.5626 7.75985L39.5598 7.7418L39.5556 7.7168C39.5501 7.67652 39.5431 7.63485 39.5348 7.59596C39.5334 7.58902 39.5306 7.57791 39.5279 7.56541C39.5154 7.50846 39.5029 7.45568 39.489 7.40291L39.4848 7.38346C39.4792 7.35985 39.4737 7.33763 39.4681 7.31541C39.4431 7.22791 39.4167 7.14319 39.3876 7.06263C39.3862 7.06124 39.3862 7.05846 39.3848 7.05708C39.3431 6.9418 39.2931 6.82652 39.2306 6.70152C39.2237 6.68485 39.2168 6.66819 39.2084 6.65291C39.2042 6.64457 39.1973 6.63347 39.1904 6.62097C39.1417 6.5293 39.089 6.43902 39.0306 6.34874C39.0223 6.33485 39.014 6.32096 39.0056 6.30708C38.9779 6.2668 38.9487 6.22513 38.9195 6.18346L35.9154 2.0918Z" fill="#F9FAFB"/>
<path d="M31.3555 6.46289H33.2694L33.4819 9.574L31.5944 9.96011L31.3555 6.46289Z" fill="#F7F9FC"/>
<path d="M31.5941 10.2383C31.5344 10.2383 31.4747 10.2189 31.426 10.1814C31.3622 10.1328 31.3219 10.0592 31.3177 9.9786L31.0788 6.48138C31.0733 6.40499 31.1011 6.3286 31.1524 6.27305C31.2052 6.21749 31.2788 6.18555 31.3552 6.18555H33.2677C33.4135 6.18555 33.5344 6.29804 33.5455 6.44388L33.758 9.55499C33.7677 9.69388 33.6733 9.81749 33.5372 9.84666L31.6497 10.2328C31.6316 10.2369 31.6122 10.2383 31.5941 10.2383ZM31.6524 6.7411L31.8497 9.62582L33.1872 9.35221L33.0094 6.74249H31.6524V6.7411Z" fill="#F9FAFB"/>
<path d="M34.2031 6.46289H35.2767L35.4615 9.16844L34.4031 9.38511L34.2031 6.46289Z" fill="#F7F9FC"/>
<path d="M34.4029 9.66332C34.3431 9.66332 34.2834 9.64388 34.2348 9.60638C34.1709 9.55777 34.1306 9.48416 34.1265 9.4036L33.9265 6.48138C33.9209 6.40499 33.9487 6.3286 34.0001 6.27305C34.0529 6.21749 34.1265 6.18555 34.2029 6.18555H35.2765C35.4223 6.18555 35.5431 6.29804 35.5543 6.44388L35.739 9.14944C35.7487 9.28832 35.6543 9.41194 35.5181 9.4411L34.4598 9.65777C34.4404 9.66194 34.4209 9.66332 34.4029 9.66332ZM34.5001 6.7411L34.6584 9.05083L35.1681 8.94666L35.0181 6.74249H34.5001V6.7411Z" fill="#F9FAFB"/>
<path d="M36.207 6.46484H62.2348L54.8806 52.5773H43.0112L41.1848 64.0273L40.9473 64.2246H39.6362C40.5737 63.6954 41.1918 62.6843 41.1001 61.676L39.1654 40.2801H48.3695C48.7709 40.2801 49.1473 39.9662 49.2084 39.5787C49.2709 39.1898 48.9945 38.8773 48.5931 38.8773H39.039L38.5195 33.1273H49.5112C49.9126 33.1273 50.289 32.8135 50.3515 32.4246C50.4126 32.0371 50.1376 31.7232 49.7362 31.7232H38.3931L37.8737 25.9732H50.6529C51.0543 25.9732 51.4306 25.6593 51.4931 25.2704C51.5543 24.8829 51.2793 24.569 50.8779 24.569H37.7584C37.7765 23.3579 38.782 22.1996 40.0848 21.9315C41.4556 21.6496 42.4959 20.3871 42.407 19.1093L42.3876 18.819H51.7945C52.1959 18.819 52.5723 18.5051 52.6348 18.1162C52.6959 17.7287 52.4209 17.4148 52.0195 17.4148H42.2918L41.8001 10.2218C41.7251 9.11484 40.8292 8.35929 39.7015 8.35929C39.5265 8.35929 39.3459 8.37734 39.1626 8.41484L36.6834 8.92317L36.382 8.98429L36.207 6.46484Z" fill="#F7F9FC"/>
<path d="M40.9468 64.5033H39.6357C39.5093 64.5033 39.3996 64.4186 39.3676 64.2964C39.3357 64.1742 39.3898 64.0464 39.4996 63.9839C40.3704 63.4922 40.9024 62.5742 40.8232 61.702L38.8885 40.3061C38.8815 40.2283 38.9079 40.152 38.9607 40.0936C39.0135 40.0367 39.0885 40.0033 39.1662 40.0033H48.3704C48.6357 40.0033 48.8954 39.7895 48.9357 39.5353C48.9523 39.4311 48.9301 39.3395 48.8704 39.2686C48.8079 39.195 48.7093 39.1547 48.594 39.1547H39.0398C38.8968 39.1547 38.776 39.045 38.7635 38.902L38.244 33.152C38.2371 33.0742 38.2635 32.9978 38.3162 32.9395C38.369 32.8825 38.444 32.8492 38.5218 32.8492H49.5135C49.7787 32.8492 50.0385 32.6339 50.0787 32.3797C50.0954 32.277 50.0718 32.1825 50.0121 32.1131C49.9496 32.0395 49.851 31.9992 49.7371 31.9992H38.394C38.251 31.9992 38.1301 31.8895 38.1176 31.7464L37.5982 25.9964C37.5912 25.9186 37.6176 25.8422 37.6704 25.7839C37.7232 25.727 37.7982 25.6936 37.876 25.6936H50.6551C50.9204 25.6936 51.1801 25.4783 51.2204 25.2242C51.2371 25.1214 51.2135 25.027 51.1551 24.9589C51.0926 24.8853 50.994 24.845 50.8801 24.845H37.7607C37.6857 24.845 37.6148 24.8158 37.5635 24.7617C37.5121 24.7075 37.4829 24.6367 37.4843 24.5631C37.5051 23.2006 38.5996 21.952 40.0315 21.6575C41.269 21.4033 42.2121 20.2686 42.1329 19.127L42.1135 18.8367C42.1079 18.7603 42.1357 18.6839 42.1871 18.6283C42.2399 18.5714 42.3135 18.5408 42.3898 18.5408H51.7968C52.0621 18.5408 52.3218 18.3256 52.3621 18.0714C52.3787 17.9686 52.3551 17.8742 52.2968 17.8047C52.2343 17.7311 52.1357 17.6908 52.0218 17.6908H42.294C42.1482 17.6908 42.0273 17.5783 42.0162 17.4325L41.5246 10.2395C41.4607 9.29501 40.7121 8.63667 39.7024 8.63667C39.544 8.63667 39.3815 8.65334 39.219 8.68668L36.4385 9.25751C36.3593 9.27417 36.2787 9.25473 36.2149 9.20612C36.151 9.15751 36.1107 9.0839 36.1065 9.00334L35.9343 6.48529C35.9287 6.4089 35.9565 6.33251 36.0079 6.27695C36.0607 6.2214 36.1343 6.18945 36.2107 6.18945H62.2385C62.3204 6.18945 62.3968 6.22557 62.4496 6.28668C62.5024 6.34779 62.526 6.42973 62.5121 6.51029L55.1579 52.6228C55.1371 52.7575 55.0204 52.8575 54.8829 52.8575H43.251L41.4621 64.0742C41.451 64.1408 41.4176 64.2006 41.3648 64.2436L41.1274 64.4408C41.0746 64.4797 41.0121 64.5033 40.9468 64.5033ZM40.4635 63.9478H40.8468L40.9274 63.8811L41.0371 63.1895C40.8885 63.4631 40.694 63.72 40.4635 63.9478ZM39.469 40.5575L41.3426 61.277L42.7371 52.5339C42.7579 52.3992 42.8746 52.2992 43.0121 52.2992H54.644L61.9093 6.74223H36.5037L36.6343 8.6464L39.1037 8.13945C39.3024 8.09918 39.5037 8.07834 39.6982 8.07834C40.9926 8.07834 41.9912 8.97001 42.0746 10.1992L42.5482 17.1339H52.0162C52.2926 17.1339 52.5468 17.2464 52.7149 17.4436C52.8815 17.6381 52.9496 17.8922 52.9065 18.1575C52.8232 18.6825 52.3329 19.095 51.7926 19.095H42.6829C42.776 20.502 41.6357 21.895 40.1385 22.202C39.076 22.42 38.2135 23.3075 38.0579 24.2895H50.8746C51.151 24.2895 51.4051 24.402 51.5732 24.5992C51.7398 24.7936 51.8079 25.0478 51.7648 25.3131C51.6815 25.8381 51.1912 26.2506 50.651 26.2506H38.176L38.6454 31.445H49.7343C50.0107 31.445 50.2649 31.5575 50.4329 31.7533C50.5996 31.9478 50.6676 32.202 50.6246 32.4672C50.5412 32.9922 50.051 33.4047 49.5107 33.4047H38.8232L39.2926 38.5992H48.594C48.8704 38.5992 49.1246 38.7117 49.2926 38.9075C49.4579 39.102 49.526 39.3561 49.4843 39.6214C49.401 40.1464 48.9121 40.5575 48.3704 40.5575H39.469Z" fill="#F9FAFB"/>
<path d="M52.0168 17.4102C52.4182 17.4102 52.6946 17.724 52.6321 18.1115C52.5696 18.5004 52.1932 18.8143 51.7918 18.8143H42.3849L42.2891 17.4102H52.0168Z" fill="#D0D5DD"/>
<path d="M51.793 19.0931H42.386C42.2402 19.0931 42.1194 18.9806 42.1083 18.8348L42.0124 17.4306C42.0069 17.3542 42.0346 17.2778 42.086 17.2223C42.1388 17.1667 42.2124 17.1348 42.2888 17.1348H52.0152C52.2916 17.1348 52.5458 17.2473 52.7138 17.4445C52.8805 17.6389 52.9485 17.8931 52.9055 18.1584C52.8221 18.6806 52.3333 19.0931 51.793 19.0931ZM42.6444 18.5375H51.7916C52.0569 18.5375 52.3166 18.3223 52.3569 18.0681C52.3735 17.9653 52.3499 17.8709 52.2916 17.8014C52.2291 17.7278 52.1305 17.6875 52.0166 17.6875H42.5874L42.6444 18.5375Z" fill="#D0D5DD"/>
<path d="M50.8773 24.5645C51.2786 24.5645 51.555 24.8783 51.4925 25.2658C51.43 25.6547 51.0536 25.9686 50.6523 25.9686H37.8731L37.7634 24.7492C37.7592 24.6881 37.7578 24.6256 37.7578 24.5645H50.8773Z" fill="#D0D5DD"/>
<path d="M50.6518 26.2468H37.8726C37.7296 26.2468 37.6088 26.1371 37.5963 25.9941L37.4865 24.7746C37.481 24.6996 37.4796 24.6302 37.481 24.5607C37.4837 24.4093 37.6074 24.2871 37.7587 24.2871H50.8782C51.1546 24.2871 51.4087 24.3996 51.5768 24.5968C51.7435 24.7913 51.8115 25.0454 51.7685 25.3107C51.6824 25.8357 51.1935 26.2468 50.6518 26.2468ZM38.1254 25.6913H50.6518C50.9171 25.6913 51.1768 25.476 51.2171 25.2218C51.2338 25.1191 51.2101 25.0246 51.1518 24.9552C51.0893 24.8816 50.9907 24.8413 50.8768 24.8413H38.0504L38.1254 25.6913Z" fill="#D0D5DD"/>
<path d="M49.7337 31.7207C50.1351 31.7207 50.4115 32.0346 50.349 32.4221C50.2865 32.811 49.9101 33.1249 49.5087 33.1249H38.517L38.3906 31.7207H49.7337Z" fill="#D0D5DD"/>
<path d="M49.5088 33.4031H38.5171C38.3741 33.4031 38.2533 33.2934 38.2408 33.1503L38.1144 31.7461C38.1074 31.6684 38.1338 31.592 38.1866 31.5336C38.2394 31.4767 38.3144 31.4434 38.3922 31.4434H49.7352C50.0116 31.4434 50.2658 31.5559 50.4338 31.7531C50.6005 31.9475 50.6685 32.2017 50.6255 32.467C50.5394 32.992 50.0505 33.4031 49.5088 33.4031ZM38.7713 32.8475H49.5088C49.7741 32.8475 50.0338 32.6322 50.0741 32.3781C50.0908 32.2753 50.0672 32.1809 50.0074 32.1114C49.9449 32.0378 49.8463 31.9975 49.7324 31.9975H38.6949L38.7713 32.8475Z" fill="#D0D5DD"/>
<path d="M48.5932 38.877C48.9946 38.877 49.271 39.1895 49.2085 39.5783C49.1474 39.9658 48.771 40.2797 48.3696 40.2797H39.1655L39.0391 38.877H48.5932Z" fill="#D0D5DD"/>
<path d="M48.3698 40.5579H39.1656C39.0225 40.5579 38.9017 40.4482 38.8892 40.3052L38.7628 38.9024C38.7559 38.8246 38.7823 38.7482 38.835 38.6899C38.8878 38.6329 38.9628 38.5996 39.0406 38.5996H48.5948C48.8712 38.5996 49.1253 38.7121 49.2934 38.9079C49.4586 39.1024 49.5267 39.3566 49.485 39.6218C49.4003 40.1468 48.91 40.5579 48.3698 40.5579ZM39.4198 40.0024H48.3698C48.635 40.0024 48.8948 39.7885 48.935 39.5343C48.9517 39.4302 48.9295 39.3385 48.8698 39.2677C48.8073 39.1941 48.7086 39.1538 48.5934 39.1538H39.3434L39.4198 40.0024Z" fill="#D0D5DD"/>
<path d="M62.2331 6.46484L65.2358 10.5579L57.8817 56.6718L54.8789 52.5773L62.2331 6.46484Z" fill="#E4E7EC"/>
<path d="M57.8818 56.9489C57.7943 56.9489 57.711 56.9073 57.6582 56.835L54.6554 52.7406C54.611 52.6809 54.5929 52.6059 54.6054 52.5322L61.9596 6.41976C61.9777 6.30865 62.0596 6.21976 62.1679 6.19337C62.2763 6.16698 62.3916 6.20865 62.4568 6.29893L65.4596 10.3934C65.504 10.4531 65.5221 10.5281 65.5096 10.6017L58.1554 56.7142C58.1374 56.8253 58.0554 56.9142 57.9471 56.9406C57.9249 56.9461 57.904 56.9489 57.8818 56.9489ZM55.1721 52.5059L57.7124 55.9697L64.9443 10.6281L62.404 7.1642L55.1721 52.5059Z" fill="#F9FAFB"/>
<path d="M54.878 52.5762L41.1836 64.0262L43.0086 52.5762H54.878Z" fill="#D0D5DD"/>
<path d="M41.1847 64.3044C41.1375 64.3044 41.0902 64.2919 41.0472 64.2683C40.9458 64.2113 40.8916 64.0974 40.9097 63.9836L42.7361 52.5336C42.7569 52.3988 42.8736 52.2988 43.0111 52.2988H54.8805C54.9972 52.2988 55.1013 52.3724 55.1416 52.4822C55.1819 52.5919 55.1486 52.7155 55.0583 52.7905L41.3638 64.2405C41.3111 64.2836 41.2472 64.3044 41.1847 64.3044ZM43.2472 52.8544L41.575 63.3377L54.1139 52.8544H43.2472Z" fill="#F9FAFB"/>
<path d="M54.878 52.5762L57.8808 56.6706L44.185 68.1206L41.1836 64.0262L54.878 52.5762Z" fill="#D0D5DD"/>
<path d="M44.1862 68.3982C44.1751 68.3982 44.164 68.3982 44.1529 68.3968C44.0765 68.3871 44.0084 68.3468 43.9626 68.2857L40.9598 64.1913C40.8737 64.0732 40.8932 63.9079 41.0057 63.8135L54.7001 52.3635C54.7584 52.3149 54.8348 52.2913 54.9112 52.301C54.9876 52.3107 55.0557 52.351 55.1015 52.4121L58.1043 56.5065C58.1904 56.6246 58.1709 56.7899 58.0584 56.8843L44.3654 68.3329C44.3154 68.376 44.2515 68.3982 44.1862 68.3982ZM41.5626 64.0718L44.2362 67.7163L57.5043 56.6232L54.8306 52.9788L41.5626 64.0718Z" fill="#F9FAFB"/>
<path d="M41.1881 64.0273L44.1895 68.1218L40.9492 64.226L41.1881 64.0273Z" fill="#E4E7EC"/>
<path d="M44.1898 68.3995C44.1106 68.3995 44.0315 68.3648 43.9759 68.2995L40.7356 64.4037C40.6884 64.3467 40.6662 64.2745 40.6731 64.2009C40.6801 64.1273 40.7162 64.0592 40.7717 64.0134L41.0092 63.8162C41.0676 63.7676 41.1453 63.7453 41.2203 63.7537C41.2967 63.7634 41.3648 63.8037 41.4106 63.8648L44.4134 67.9578C44.5023 68.0787 44.4787 68.2481 44.3606 68.3412C44.3092 68.3801 44.2495 68.3995 44.1898 68.3995Z" fill="#F9FAFB"/>
<path d="M40.9478 64.2266L44.1881 68.1224L42.6395 68.3196L39.6367 64.2266H40.9478Z" fill="#E4E7EC"/>
<path d="M42.6396 68.5967C42.5521 68.5967 42.4688 68.555 42.416 68.4828L39.4132 64.3884C39.3507 64.3036 39.3424 64.1925 39.3896 64.0981C39.4368 64.005 39.5326 63.9453 39.6368 63.9453H40.9479C41.0299 63.9453 41.109 63.9814 41.1618 64.0453L44.4021 67.9411C44.4674 68.0189 44.484 68.1259 44.4465 68.2203C44.409 68.3148 44.3243 68.3814 44.2229 68.3939L42.6729 68.5911C42.6632 68.5953 42.6507 68.5967 42.6396 68.5967ZM40.1854 64.5036L42.7674 68.0231L43.6521 67.9106L40.8188 64.5036H40.1854Z" fill="#F9FAFB"/>
<path d="M40.0552 63.9395C39.9927 63.9895 39.9274 64.0381 39.8608 64.0839C39.7913 64.1311 39.7191 64.177 39.6455 64.2186C39.6413 64.2214 39.6385 64.2228 39.6344 64.2256C39.5566 64.27 39.4774 64.3103 39.3955 64.3464C39.2913 64.3936 39.183 64.4353 39.0733 64.47C38.9774 64.5006 38.8802 64.5256 38.7816 64.5464L7.68854 70.92C7.50521 70.9575 7.32465 70.9756 7.14965 70.9756C6.42743 70.9756 5.79826 70.6658 5.42188 70.1506L8.42465 74.2436C8.80243 74.7589 9.43021 75.0686 10.1524 75.0686C10.3274 75.0686 10.508 75.0506 10.6913 75.0131L41.7844 68.6395C41.883 68.6186 41.9816 68.5936 42.076 68.5631C42.1858 68.5283 42.2941 68.4867 42.3983 68.4395C42.4802 68.402 42.5594 68.3617 42.6372 68.3186C42.6413 68.3158 42.6441 68.3145 42.6483 68.3117C42.7219 68.27 42.7941 68.2242 42.8635 68.177C42.9302 68.1311 42.9955 68.0825 43.058 68.0325L40.0552 63.9395Z" fill="#667185"/>
<path d="M10.1537 75.3471C9.35089 75.3471 8.63839 75.0055 8.20089 74.4096L5.19811 70.3152C5.10783 70.1916 5.13422 70.018 5.25783 69.9263C5.38144 69.836 5.55506 69.8624 5.64672 69.986L5.64811 69.9874C5.98005 70.4374 6.52728 70.6971 7.15089 70.6971C7.30922 70.6971 7.47172 70.6805 7.63422 70.6471L38.7273 64.2735C38.8162 64.2555 38.9051 64.2318 38.9912 64.2041C39.0898 64.1721 39.1884 64.1346 39.2828 64.0916C39.3564 64.0582 39.4287 64.0207 39.4995 63.9818C39.5759 63.9388 39.6426 63.8971 39.7051 63.8541C39.7648 63.8124 39.8245 63.7693 39.8814 63.7221C39.9412 63.6749 40.0162 63.6527 40.0912 63.6624C40.1662 63.6721 40.2342 63.7124 40.2801 63.7735L43.2828 67.8666C43.3703 67.986 43.3495 68.1527 43.2342 68.2471C43.1662 68.3027 43.0953 68.3555 43.0231 68.4055C42.9467 68.4582 42.8676 68.5082 42.7884 68.5527L42.7759 68.5596C42.6912 68.6068 42.6037 68.6513 42.5148 68.6916C42.4009 68.743 42.2814 68.7888 42.162 68.8263C42.0564 68.8596 41.9495 68.8874 41.8412 68.9096L10.7481 75.2832C10.5495 75.3263 10.3495 75.3471 10.1537 75.3471ZM6.52172 71.1791L8.6495 74.0805C8.98144 74.5318 9.52866 74.7916 10.1537 74.7916C10.312 74.7916 10.4745 74.7749 10.637 74.7416L41.7301 68.368C41.8189 68.3499 41.9078 68.3263 41.9939 68.2985C42.0926 68.2666 42.1912 68.2291 42.2856 68.186C42.3592 68.1527 42.4328 68.1152 42.5023 68.0763C42.5634 68.0416 42.6189 68.0082 42.6703 67.9735L39.9967 64.3277C39.9287 64.3735 39.8564 64.418 39.7856 64.4596C39.7842 64.4596 39.7717 64.4666 39.7717 64.468C39.6884 64.5152 39.6009 64.5596 39.512 64.5999C39.3981 64.6513 39.2787 64.6971 39.1592 64.7346C39.0537 64.768 38.9467 64.7957 38.8384 64.818L7.74533 71.1916C7.32728 71.2777 6.90366 71.2721 6.52172 71.1791Z" fill="#F9FAFB"/>
<path d="M41.0999 61.6749C41.1916 62.6832 40.5735 63.6944 39.636 64.2235C39.3735 64.3721 39.086 64.4819 38.7833 64.5444L7.69021 70.918C7.50688 70.9555 7.32632 70.9735 7.15132 70.9735C6.03604 70.9735 5.14715 70.236 5.0541 69.1457L0.770764 18.6263C0.683264 17.3485 1.72354 16.0832 3.09438 15.8027L15.961 13.1652L28.6999 10.5541L29.268 18.8805C29.3124 19.5138 29.593 20.0513 30.0222 20.4277C30.4527 20.8027 31.0333 21.0194 31.6819 21.0207C31.8833 21.0207 32.0902 20.9985 32.3013 20.9555C32.9805 20.8166 33.5944 20.4638 34.0597 19.9916C34.5235 19.5194 34.8444 18.9249 34.9444 18.2971C34.9749 18.1041 34.9846 17.9069 34.9708 17.711L34.4027 9.38602L35.461 9.16936L35.8124 14.3305C35.8263 14.536 35.993 14.6749 36.2027 14.6749C36.5555 14.6124 36.7485 14.3777 36.7319 14.1416L36.3791 8.98047L36.6805 8.91936L39.1597 8.41102C39.343 8.37352 39.5235 8.35547 39.6985 8.35547C40.8277 8.35547 41.7235 9.11102 41.7971 10.218L42.2888 17.411L42.3846 18.8152L42.4041 19.1055C42.4916 20.3832 41.4513 21.6471 40.0819 21.9277C38.7791 22.1957 37.7735 23.3527 37.7555 24.5652C37.7541 24.6263 37.7555 24.6888 37.761 24.7499L37.8708 25.9694L38.3902 31.7194L38.5166 33.1235L39.036 38.8735L39.1624 40.2763L41.0999 61.6749Z" fill="#D0D5DD"/>
<path d="M7.151 71.2517C5.87739 71.2517 4.88017 70.3767 4.77739 69.1698L0.494058 18.6503C0.396836 17.2365 1.5385 15.8392 3.0385 15.5309L28.6441 10.2837C28.7232 10.267 28.8038 10.2865 28.8677 10.3351C28.9316 10.3837 28.9718 10.4573 28.976 10.5378L29.5441 18.8642C29.5816 19.4003 29.8163 19.8823 30.2038 20.2212C30.5899 20.5573 31.1149 20.7434 31.6816 20.7448C31.8607 20.7448 32.051 20.7253 32.2454 20.6851C32.8441 20.5628 33.4177 20.2476 33.8607 19.799C34.2941 19.3587 34.5802 18.8101 34.6691 18.2559C34.6968 18.0781 34.7052 17.9031 34.6927 17.7337L34.1246 9.4059C34.1149 9.26701 34.2093 9.1434 34.3454 9.11423L35.4038 8.89757C35.4816 8.8809 35.5635 8.90035 35.6274 8.94896C35.6913 8.99757 35.7316 9.07118 35.7357 9.15174L36.0885 14.3128C36.0927 14.3767 36.1454 14.3934 36.1816 14.3976C36.3691 14.3573 36.4607 14.2503 36.4538 14.1628L36.101 9.00174C36.0913 8.86285 36.1857 8.73923 36.3218 8.71007L39.1024 8.13924C39.3024 8.09896 39.5024 8.07812 39.6968 8.07812C40.9913 8.07812 41.9899 8.96979 42.0732 10.199L42.6802 19.0878C42.7774 20.4962 41.6357 21.8934 40.1357 22.2017C38.9718 22.4406 38.0482 23.4809 38.0316 24.5712C38.0302 24.6253 38.0316 24.6781 38.0357 24.7323L41.3732 61.6517C41.4718 62.7378 40.8274 63.8698 39.7691 64.467C39.4746 64.6337 39.1607 64.7517 38.8357 64.8184L7.74267 71.192C7.54684 71.2309 7.34683 71.2517 7.151 71.2517ZM28.4427 10.892L3.14822 16.0753C1.91072 16.3295 0.967666 17.4656 1.04683 18.6087L5.33017 69.124C5.40933 70.0503 6.15795 70.6976 7.151 70.6976C7.30933 70.6976 7.47183 70.6809 7.63433 70.6476L38.7274 64.274C38.9954 64.2184 39.2552 64.1212 39.4996 63.9837C40.3704 63.492 40.9024 62.5753 40.8232 61.7017L37.4843 24.7767C37.4788 24.7017 37.4774 24.6323 37.4788 24.5628C37.4996 23.2003 38.5954 21.9517 40.0274 21.6573C41.2649 21.4031 42.2079 20.2684 42.1288 19.1267L41.5218 10.2378C41.4579 9.2934 40.7093 8.63507 39.6996 8.63507C39.5413 8.63507 39.3788 8.65174 39.2163 8.68507L36.6732 9.20729L37.0093 14.1253C37.0371 14.5212 36.7191 14.8684 36.251 14.9503C36.2357 14.9531 36.2191 14.9545 36.2024 14.9545C35.8399 14.9545 35.5579 14.7003 35.5343 14.3503L35.2038 9.5059L34.6941 9.61007L35.2454 17.6934C35.2607 17.9031 35.251 18.1226 35.2163 18.342C35.1093 19.0087 34.7691 19.6642 34.2552 20.1865C33.7357 20.7142 33.0607 21.0837 32.3552 21.2281C32.1232 21.2753 31.8954 21.299 31.6802 21.299C30.9788 21.2976 30.3246 21.0628 29.8371 20.6378C29.3371 20.2003 29.0357 19.5837 28.9885 18.9003L28.4427 10.892Z" fill="#F9FAFB"/>
<path d="M31.6803 21.3C30.9803 21.2986 30.3261 21.0638 29.8386 20.6388C29.3386 20.2013 29.0372 19.5847 28.99 18.9013L28.0831 5.6194C28.0636 5.33885 28.0761 5.05135 28.1219 4.76662C28.2622 3.88607 28.7122 3.02218 29.39 2.33468C30.0747 1.63745 30.9664 1.14857 31.9011 0.956902C32.2011 0.89579 32.4997 0.865234 32.79 0.865234C33.7094 0.865234 34.5692 1.17357 35.2094 1.7319C35.865 2.30412 36.2594 3.11246 36.3178 4.0069L37.0094 14.1236C37.0358 14.5 36.7497 14.8569 36.3581 14.9375C36.3053 14.9472 36.2539 14.9527 36.2039 14.9527C35.8414 14.9527 35.5608 14.6986 35.5358 14.3486L34.8456 4.2319C34.8067 3.67218 34.5733 3.19024 34.1692 2.83746C33.7706 2.48885 33.2317 2.29718 32.6497 2.29718C32.4622 2.29718 32.2678 2.31801 32.0706 2.35829C31.4469 2.48607 30.8733 2.80135 30.4122 3.2694C29.9678 3.72079 29.6733 4.28329 29.5831 4.85273C29.5539 5.03607 29.5456 5.21801 29.5581 5.39023L30.465 18.6722C30.4886 19.0166 30.6317 19.3138 30.8803 19.5319C31.1275 19.7458 31.4622 19.8638 31.8219 19.8638C31.94 19.8638 32.0636 19.8513 32.1872 19.8263C32.5817 19.7444 32.9442 19.5444 33.2358 19.25C33.515 18.9652 33.7011 18.6111 33.7581 18.2541C33.7761 18.1444 33.7817 18.0305 33.7747 17.9166L32.9081 5.23884C32.8983 5.10829 32.8469 4.99857 32.7525 4.91663C32.6581 4.83468 32.5275 4.78746 32.3872 4.78746C32.3372 4.78884 32.2844 4.7944 32.2344 4.80412C32.0706 4.83884 31.9192 4.92218 31.7983 5.04579C31.6803 5.16524 31.6039 5.30968 31.5803 5.45412C31.5733 5.4944 31.5719 5.54023 31.5747 5.58607L32.1594 14.1472C32.1858 14.5236 31.8983 14.8805 31.5081 14.9611C31.4567 14.9722 31.4039 14.9777 31.3525 14.9777C30.99 14.9777 30.7108 14.7236 30.6858 14.3736L30.1011 5.81385C30.0914 5.67079 30.0983 5.52079 30.1219 5.36662C30.1942 4.91107 30.4275 4.46384 30.7761 4.10968C31.1247 3.75273 31.5831 3.50135 32.065 3.40135C32.2247 3.37079 32.3789 3.35413 32.5261 3.35413C33.0067 3.35413 33.4553 3.51663 33.7928 3.80968C34.14 4.11107 34.3483 4.53746 34.3803 5.00968L35.2456 17.6902C35.2608 17.9 35.2511 18.1194 35.2164 18.3388C35.1108 19.0055 34.7692 19.6611 34.2553 20.1833C33.7358 20.7097 33.0622 21.0805 32.3553 21.225C32.1247 21.2763 31.8969 21.3 31.6803 21.3Z" fill="#D0D5DD"/>
<path d="M32.7896 1.14345C33.6646 1.14345 34.4465 1.43511 35.0271 1.94206C35.6063 2.44761 35.9854 3.16983 36.041 4.02678L36.2076 6.46567L36.3799 8.98372L36.7326 14.1448C36.7493 14.3796 36.5563 14.6157 36.3021 14.6684C36.2688 14.6754 36.2354 14.6782 36.2035 14.6782C35.9937 14.6782 35.8271 14.5393 35.8132 14.3337L35.4618 9.17261L35.2771 6.46706L35.1229 4.21705C35.0785 3.56289 34.7937 3.01706 34.3521 2.63234C33.9104 2.24622 33.3132 2.024 32.6507 2.024C32.4465 2.024 32.2326 2.04622 32.016 2.09067C31.316 2.23511 30.6937 2.59345 30.2146 3.07817C29.7368 3.56289 29.4104 4.17261 29.309 4.81289C29.2771 5.01011 29.266 5.21289 29.2813 5.41428L29.3535 6.46706L29.6201 10.3698L30.1882 18.6948C30.2174 19.1282 30.4062 19.4879 30.6979 19.7434C30.991 19.9976 31.3854 20.1448 31.8229 20.1448C31.959 20.1448 32.1007 20.1309 32.2424 20.1018C32.7063 20.0059 33.1174 19.7684 33.434 19.4476C33.7493 19.1268 33.966 18.724 34.0326 18.3004C34.0535 18.1698 34.0604 18.0365 34.0521 17.9018L33.4826 9.57678L33.2701 6.46567L33.1854 5.22261C33.1701 5.00872 33.0785 4.83511 32.9354 4.71011C32.791 4.58511 32.5993 4.51289 32.3868 4.51289C32.3188 4.51428 32.2507 4.52122 32.1799 4.53511C31.9521 4.58233 31.7549 4.69622 31.5993 4.85456C31.4451 5.0115 31.3382 5.20872 31.3049 5.41428C31.2951 5.47817 31.2924 5.54345 31.2965 5.60872L31.3549 6.46706L31.5937 9.96428L31.8812 14.1698C31.8979 14.4073 31.7049 14.6407 31.4507 14.6934C31.416 14.7004 31.3826 14.7032 31.3507 14.7032C31.141 14.7032 30.9757 14.5629 30.9618 14.3573L30.6743 10.1518L30.4229 6.46567L30.3771 5.79761C30.3674 5.66983 30.3757 5.54067 30.3951 5.41428C30.4604 5.00456 30.6701 4.61567 30.9729 4.30872C31.2743 4.00039 31.6771 3.76984 32.1201 3.67817C32.2576 3.65178 32.3924 3.6365 32.5243 3.6365C32.9493 3.6365 33.3271 3.77817 33.6076 4.024C33.8896 4.26845 34.0729 4.61983 34.1007 5.03372L34.1979 6.46706L34.3979 9.38928L34.966 17.7143C34.9813 17.9101 34.9701 18.1073 34.9396 18.3004C34.8396 18.9282 34.5188 19.5212 34.0549 19.9948C33.5896 20.4671 32.9757 20.8198 32.2965 20.9587C32.0854 21.0018 31.8785 21.024 31.6771 21.024C31.0285 21.0226 30.4465 20.8059 30.0174 20.4309C29.5868 20.0546 29.3076 19.5171 29.2632 18.8837L28.6993 10.5559L28.4201 6.46428L28.3618 5.60039C28.3437 5.3365 28.3563 5.07122 28.3979 4.81011C28.5326 3.96567 28.9632 3.16567 29.5896 2.52955C30.216 1.89205 31.0424 1.41706 31.9576 1.22956C32.2396 1.17122 32.5187 1.14345 32.7896 1.14345ZM32.7896 0.587891C32.4812 0.587891 32.1646 0.619835 31.8465 0.683724C30.8562 0.886502 29.9146 1.40317 29.191 2.13928C28.4743 2.86705 27.9965 3.78372 27.8479 4.72122C27.7993 5.02678 27.7854 5.33511 27.8062 5.63789L27.8646 6.50178L28.1437 10.5934L28.7118 18.9198C28.766 19.6782 29.1007 20.3615 29.6549 20.8476C30.1938 21.3171 30.9118 21.5754 31.6799 21.5782C31.916 21.5782 32.1618 21.5532 32.4104 21.5018C33.1715 21.3462 33.8979 20.949 34.4549 20.3837C35.009 19.8198 35.3771 19.1101 35.4924 18.3879C35.5312 18.1462 35.541 17.9059 35.5243 17.6726L35.3174 14.6379C35.4521 14.9907 35.7951 15.2323 36.2035 15.2323C36.2715 15.2323 36.341 15.2254 36.4104 15.2115C36.9396 15.1032 37.3229 14.6171 37.2868 14.1046L36.934 8.94483L36.7618 6.42678L36.5951 3.98789C36.5312 3.01983 36.1035 2.14344 35.3924 1.52261C34.7007 0.919832 33.7757 0.587891 32.7896 0.587891ZM29.8368 5.41011L29.834 5.374C29.8229 5.21845 29.8299 5.06011 29.8562 4.89761C29.9382 4.38372 30.2063 3.87539 30.609 3.46428C31.0313 3.0365 31.5563 2.749 32.1257 2.63095C32.3049 2.59483 32.4799 2.57539 32.6493 2.57539C33.1632 2.57539 33.6382 2.74344 33.9854 3.04622C34.334 3.35039 34.5354 3.76706 34.5674 4.25039L34.5896 4.58511C34.4868 4.20317 34.2757 3.8615 33.9743 3.60039C33.5882 3.26289 33.0743 3.07678 32.5271 3.07678C32.3618 3.07678 32.1896 3.09344 32.016 3.12817C31.4743 3.24067 30.966 3.51845 30.5785 3.91567C30.1896 4.31011 29.9312 4.81011 29.8493 5.32261C29.8451 5.35317 29.841 5.38095 29.8368 5.41011ZM31.3535 15.2559C31.4229 15.2559 31.4951 15.249 31.5646 15.2337C32.0896 15.1254 32.4729 14.6407 32.4382 14.1282L32.1507 9.92261L31.9118 6.42539L31.8535 5.56705C31.8521 5.54205 31.8521 5.51844 31.8563 5.49761C31.8701 5.4115 31.9215 5.31706 31.9965 5.24067C32.0799 5.15456 32.1826 5.099 32.2951 5.07539C32.3229 5.06983 32.3562 5.06567 32.3937 5.06567C32.466 5.06706 32.5271 5.08789 32.5729 5.12678C32.609 5.15872 32.6285 5.20039 32.6326 5.25872L32.7174 6.50039L32.9299 9.6115L33.4993 17.9365C33.5049 18.0254 33.5007 18.1184 33.4854 18.2101C33.4382 18.5101 33.2785 18.8115 33.0382 19.0559C32.7868 19.3115 32.4715 19.4837 32.1299 19.5559C32.0285 19.5768 31.9229 19.5865 31.8229 19.5865C31.5299 19.5865 31.259 19.4921 31.0618 19.3212C30.8729 19.1546 30.7618 18.924 30.7424 18.6546L30.4701 14.6643C30.6035 15.0157 30.9465 15.2559 31.3535 15.2559Z" fill="#F9FAFB"/>
</svg>
