<svg width="92" height="92" viewBox="0 0 92 92" fill="none" xmlns="http://www.w3.org/2000/svg">
<path d="M27.8517 34.3787C28.2448 31.9148 30.6365 29.9107 33.192 29.9023L29.8948 38.4385C28.4212 37.7273 27.5656 36.1746 27.8517 34.3787Z" fill="#D0D5DD"/>
<path d="M29.8939 38.7515C29.8466 38.7515 29.8008 38.7418 29.7578 38.721C28.1133 37.9265 27.2439 36.2029 27.5425 34.3307C27.9578 31.7265 30.4911 29.6001 33.1897 29.5918C33.1897 29.5918 33.1897 29.5918 33.1911 29.5918C33.2939 29.5918 33.3897 29.6418 33.448 29.7265C33.5064 29.8112 33.5189 29.9196 33.4828 30.0168L30.1855 38.5529C30.1536 38.6349 30.0897 38.6987 30.0091 38.7307C29.9716 38.7446 29.9328 38.7515 29.8939 38.7515ZM32.7272 30.2404C30.5022 30.471 28.5064 32.2626 28.1619 34.4279C27.9272 35.9029 28.5383 37.2668 29.7314 37.9946L32.7272 30.2404Z" fill="#F9FAFB"/>
<path d="M76.9445 32.0298L78.9278 26.8965H34.3542L33.7417 28.484C35.7903 28.5826 37.4153 29.6743 38.1889 31.2715C38.4444 31.2062 38.7056 31.1715 38.9597 31.1715C39.6819 31.1715 40.2681 31.4493 40.6042 31.9479C40.9431 32.4534 40.9819 33.1479 40.7083 33.8465C40.1764 35.2173 38.6403 36.2909 37.2125 36.2909C36.4903 36.2909 35.9069 36.0173 35.5722 35.5145C35.2292 35.0104 35.1917 34.3173 35.4639 33.6159C35.7181 32.9673 36.1944 32.3868 36.7778 31.9534C36.1458 30.7201 34.8375 29.9048 33.1931 29.9048L29.8958 38.4395L29.3458 39.8618L28.6389 41.6979C30.6833 41.7923 32.3069 42.8757 33.0889 44.4632C33.3333 44.4062 33.5819 44.3743 33.8236 44.3743C34.5458 44.3743 35.1292 44.6479 35.4667 45.1507C35.8069 45.6562 35.8444 46.3479 35.5736 47.0493C35.0403 48.4201 33.5056 49.4923 32.0778 49.4923C31.3556 49.4923 30.7694 49.2187 30.4347 48.7187C30.0944 48.2132 30.0542 47.5187 30.3278 46.8173C30.5833 46.159 31.0722 45.5687 31.6694 45.1326C31.35 44.5257 30.8653 44.0215 30.2569 43.6715C29.6833 43.3423 29.0028 43.1451 28.2417 43.1215C28.2 43.1201 28.1583 43.1201 28.1153 43.1201H28.0875L24.7917 51.6493L24.2417 53.0715L23.5319 54.9118C25.5806 55.002 27.2097 56.0812 27.9931 57.6715C28.2417 57.6104 28.4931 57.577 28.7431 57.577C29.4653 57.577 30.0472 57.8534 30.3833 58.3534C30.7236 58.859 30.7653 59.5507 30.4917 60.252C29.9583 61.6229 28.4222 62.6965 26.9931 62.6965C26.2708 62.6965 25.6889 62.4201 25.3528 61.9201C25.0125 61.4145 24.9722 60.7201 25.2458 60.0215C25.5 59.3673 25.9819 58.7812 26.5736 58.3479C25.9347 57.134 24.6375 56.3354 22.9764 56.3368L19.5236 65.277L19.1361 66.2798V66.2812L18.4236 68.1243C20.4681 68.2104 22.0972 69.2798 22.8875 70.8576C23.1194 70.8048 23.3542 70.777 23.5847 70.777C24.3069 70.777 24.8903 71.0534 25.2278 71.5534C25.5681 72.059 25.6056 72.7507 25.3319 73.4548C24.8 74.8243 23.2639 75.8979 21.8375 75.8979C21.1153 75.8979 20.5319 75.6215 20.1944 75.1215C19.8542 74.6159 19.8167 73.9243 20.0875 73.2201C20.35 72.552 20.85 71.9534 21.4583 71.5159C20.8125 70.3284 19.5264 69.5479 17.8722 69.5507L14.5639 78.1132L14.0319 79.4895L11.125 87.0132H55.6986L60.9042 73.5382H33.1986L49.3597 32.0312H76.9445V32.0298ZM47.0333 82.7798H24.9028L25.4542 81.352H47.5861L47.0333 82.7798ZM49.3681 76.7409L48.8139 78.1687H26.6847L27.2347 76.7409H49.3681Z" fill="#F7F9FC" stroke="#F9FAFB" stroke-width="4.5" stroke-miterlimit="10" stroke-linecap="round" stroke-linejoin="round"/>
<path d="M37.8213 34.3797C38.2755 34.3797 38.6797 33.9894 38.6852 33.5575C38.6922 33.1075 38.6436 32.6727 38.5436 32.2602C38.6269 32.2491 38.7088 32.2422 38.7894 32.2422C39.1686 32.2422 39.4672 32.3755 39.6311 32.6158C39.8019 32.8714 39.8144 33.2241 39.6616 33.613C39.3227 34.4825 38.2797 35.2186 37.3838 35.2186C37.0061 35.2186 36.7075 35.0852 36.5436 34.8422C36.3713 34.5866 36.3616 34.2339 36.5116 33.845C36.6352 33.5269 36.8533 33.2283 37.1227 32.9755C37.1686 33.2255 37.1908 33.4852 37.1866 33.7533C37.1825 34.1116 37.4491 34.3797 37.8213 34.3797Z" fill="#F7F9FC"/>
<path d="M37.3828 35.5316C36.8967 35.5316 36.5064 35.3497 36.2842 35.0178C36.055 34.6775 36.0314 34.2205 36.2203 33.733C36.3564 33.3816 36.5953 33.0414 36.9106 32.7483C36.9939 32.6705 37.1133 32.6441 37.2217 32.6803C37.33 32.7164 37.4106 32.808 37.4314 32.9205C37.4814 33.1928 37.505 33.4747 37.5008 33.7594C37.4995 33.8469 37.5272 33.9233 37.5814 33.9775C37.6397 34.0358 37.7231 34.0678 37.8217 34.0678C38.1022 34.0678 38.3703 33.8178 38.3731 33.5539C38.3786 33.1358 38.3342 32.7261 38.2397 32.3344C38.2189 32.2483 38.2356 32.158 38.2856 32.0858C38.3356 32.0136 38.4134 31.965 38.5008 31.9525C38.5981 31.9386 38.6967 31.9316 38.7897 31.9316C39.2758 31.9316 39.6661 32.1136 39.8897 32.4428C40.1203 32.7886 40.1425 33.2441 39.9522 33.7289C39.5647 34.7233 38.4133 35.5316 37.3828 35.5316ZM36.8758 33.7983C36.8481 33.8511 36.8245 33.9053 36.8036 33.9594C36.6911 34.2497 36.6911 34.5025 36.8036 34.6691C36.9064 34.8233 37.1133 34.908 37.3842 34.908C38.1508 34.908 39.08 34.2511 39.3717 33.5025C39.4856 33.2122 39.4856 32.9608 39.3717 32.7914C39.287 32.6664 39.13 32.5872 38.9245 32.5636C38.9786 32.89 39.0036 33.2247 38.9981 33.5622C38.9897 34.1636 38.4411 34.6928 37.8217 34.6928C37.555 34.6928 37.312 34.5941 37.137 34.4164C36.9745 34.2525 36.8828 34.0358 36.8758 33.7983Z" fill="#F9FAFB"/>
<path d="M37.2099 36.6041C36.3794 36.6041 35.7044 36.2791 35.3085 35.6902C34.9099 35.1013 34.8599 34.3041 35.1696 33.5041C35.4349 32.825 35.9391 32.1861 36.5877 31.7041C36.6419 31.6638 36.7071 31.643 36.7738 31.643C36.7974 31.643 36.821 31.6458 36.8446 31.6513C36.9335 31.6722 37.0099 31.7319 37.0516 31.8138C37.2294 32.1611 37.3558 32.5347 37.4266 32.925C37.446 33.0291 37.4099 33.1375 37.3321 33.2097C37.0849 33.4402 36.9016 33.7013 36.7988 33.9638C36.6863 34.2541 36.6863 34.5069 36.7988 34.6736C36.903 34.8277 37.1085 34.9125 37.3794 34.9125C38.146 34.9125 39.0752 34.2555 39.3669 33.5069C39.4808 33.2166 39.4808 32.9652 39.3669 32.7958C39.2641 32.6444 39.0571 32.5597 38.7849 32.5597C38.7196 32.5597 38.6516 32.5652 38.5821 32.575C38.5669 32.5763 38.553 32.5777 38.5391 32.5777C38.396 32.5777 38.2696 32.4805 38.2349 32.3388C38.1571 32.0166 38.046 31.7055 37.9044 31.4125C37.8627 31.3277 37.8627 31.2291 37.903 31.1444C37.9433 31.0597 38.0183 30.9958 38.1099 30.9736C38.396 30.9013 38.6808 30.8652 38.9571 30.8652C39.7863 30.8652 40.4627 31.1902 40.8599 31.7791C41.2585 32.3736 41.3071 33.1708 40.9974 33.9666C40.421 35.443 38.7571 36.6041 37.2099 36.6041Z" fill="#D0D5DD"/>
<path d="M38.9552 31.1719C39.6774 31.1719 40.2621 31.4483 40.5983 31.9483C40.9371 32.4538 40.9774 33.1469 40.7038 33.8469C40.1705 35.2177 38.6344 36.2899 37.208 36.2899C36.4858 36.2899 35.9024 36.0149 35.5663 35.5135C35.2246 35.0094 35.1871 34.3163 35.4594 33.6149C35.7121 32.9663 36.1885 32.3858 36.7719 31.9524C36.9344 32.2691 37.051 32.6122 37.1177 32.9774C36.8469 33.2302 36.6302 33.5288 36.5066 33.8469C36.3566 34.2358 36.3663 34.5885 36.5385 34.8441C36.701 35.0872 36.9996 35.2205 37.3774 35.2205C38.2733 35.2205 39.3177 34.4844 39.6552 33.6149C39.8066 33.226 39.7955 32.8733 39.6246 32.6177C39.4608 32.3774 39.1635 32.2441 38.783 32.2441C38.7024 32.2441 38.6205 32.2497 38.5371 32.2622C38.4538 31.9149 38.3344 31.5844 38.183 31.2719C38.4399 31.2066 38.6996 31.1719 38.9552 31.1719ZM38.9552 30.5469C38.6538 30.5469 38.3441 30.5872 38.033 30.6649C37.851 30.7108 37.6983 30.8358 37.6191 31.0066C37.5399 31.1774 37.5413 31.3747 37.6233 31.5441C37.7552 31.8177 37.8594 32.108 37.9316 32.408C37.9996 32.6927 38.2538 32.8872 38.5385 32.8872C38.5677 32.8872 38.5969 32.8858 38.626 32.8816C38.6802 32.8733 38.7344 32.8705 38.7858 32.8705C38.9441 32.8705 39.0677 32.9094 39.1094 32.9705C39.1483 33.0288 39.1608 33.1719 39.076 33.3899C38.8302 34.0219 38.0219 34.5969 37.3802 34.5969C37.2233 34.5969 37.101 34.5594 37.0594 34.4983C37.0205 34.4399 37.0052 34.2955 37.0913 34.0747C37.176 33.8566 37.3344 33.6358 37.5469 33.4372C37.7024 33.2913 37.7733 33.0774 37.7344 32.8677C37.6566 32.4469 37.5205 32.0455 37.3288 31.6705C37.2455 31.5066 37.0941 31.3885 36.9149 31.3469C36.8677 31.3358 36.8205 31.3302 36.7733 31.3302C36.6399 31.3302 36.5094 31.3733 36.401 31.4538C35.7052 31.9705 35.1649 32.658 34.8788 33.3913C34.5302 34.2899 34.5941 35.1927 35.0496 35.8677C35.5038 36.5455 36.2719 36.9191 37.2094 36.9191C38.9038 36.9191 40.658 35.6969 41.2885 34.0774C41.6371 33.1858 41.576 32.283 41.1205 31.6038C40.6594 30.9205 39.8913 30.5469 38.9552 30.5469Z" fill="#F9FAFB"/>
<path d="M24.37 1.00586L34.3505 26.8961L33.7366 28.4836C33.6352 28.4795 33.5311 28.4767 33.4283 28.4767C30.0519 28.4767 26.8866 31.1225 26.3672 34.3795C25.9714 36.8628 27.2255 38.9892 29.3408 39.86L28.6311 41.6947C28.5339 41.6906 28.4366 41.6878 28.338 41.6878C24.9616 41.6878 21.795 44.335 21.2769 47.5906C20.8811 50.0697 22.1297 52.1934 24.238 53.067L23.5269 54.9072C23.4352 54.9045 23.3422 54.9003 23.2477 54.9003C19.8714 54.9003 16.7033 57.5475 16.1839 60.8045C15.7894 63.2767 17.0339 65.3975 19.1339 66.2739L18.4214 68.1183C18.3061 68.1142 18.2352 68.1128 18.1658 68.1128C14.9825 68.1128 11.8866 70.517 11.1755 73.6017C10.5658 76.242 11.8227 78.5517 14.0311 79.4822L11.1241 87.0072L1.05469 61.1503L24.37 1.00586Z" fill="#98A2B3"/>
<path d="M11.1241 87.3239C10.995 87.3239 10.8797 87.2448 10.8325 87.1253L0.763021 61.2684C0.735243 61.1961 0.735243 61.1142 0.763021 61.042L24.0811 0.89336C24.1283 0.772526 24.2436 0.693359 24.3727 0.693359C24.5019 0.693359 24.6172 0.772526 24.6644 0.89336L34.645 26.7836C34.6727 26.8559 34.6727 26.9364 34.645 27.0086L34.0311 28.5961C33.9825 28.7211 33.8602 28.8017 33.7241 28.7961C33.6283 28.792 33.5283 28.7906 33.4311 28.7906C30.2033 28.7906 27.1741 31.3198 26.6783 34.4295C26.3144 36.7073 27.4075 38.7267 29.4616 39.5725C29.6186 39.6378 29.695 39.8156 29.6339 39.9739L28.9241 41.8086C28.8755 41.935 28.7519 42.0142 28.6172 42.0086C28.5255 42.0045 28.4325 42.0031 28.3394 42.0031C25.1116 42.0031 22.0825 44.5323 21.5866 47.642C21.2241 49.9142 22.3116 51.9322 24.3589 52.7809C24.5158 52.8461 24.5922 53.0239 24.5311 53.1822L23.82 55.0225C23.7714 55.1461 23.6505 55.2253 23.5172 55.2225C23.4241 55.2197 23.338 55.217 23.2491 55.217C20.02 55.217 16.9908 57.7475 16.4936 60.8586C16.1325 63.1253 17.2158 65.1392 19.2547 65.9906C19.4102 66.0559 19.4866 66.2336 19.4255 66.392L18.713 68.2364C18.6658 68.3573 18.5505 68.4364 18.4214 68.4364C18.4172 68.4364 18.4144 68.4364 18.4102 68.4364C18.3005 68.4323 18.2325 68.4309 18.1658 68.4309C15.095 68.4309 12.1589 70.735 11.4797 73.6767C10.9269 76.0739 12.0005 78.2934 14.1519 79.2003C14.3075 79.2656 14.3825 79.4434 14.3214 79.6003L11.4144 87.1253C11.37 87.2434 11.2533 87.3239 11.1241 87.3239ZM1.3908 61.1545L11.1227 86.1475L13.6339 79.6503C11.3783 78.5531 10.2727 76.135 10.8727 73.5364C11.6144 70.3225 14.8186 67.8059 18.1686 67.8059C18.1825 67.8059 18.1977 67.8059 18.2116 67.8059L18.738 66.442C16.6033 65.4128 15.4866 63.2156 15.8783 60.7586C16.42 57.3572 19.7283 54.5906 23.2505 54.5906C23.2727 54.5906 23.295 54.5906 23.3172 54.5906L23.8422 53.2336C21.7005 52.2072 20.5783 50.0073 20.9714 47.5434C21.513 44.1434 24.82 41.3767 28.3422 41.3767C28.37 41.3767 28.3964 41.3767 28.4241 41.3767L28.9464 40.0253C26.795 39.0017 25.6686 36.8003 26.063 34.3295C26.6047 30.9295 29.9116 28.1642 33.4325 28.1642C33.4644 28.1642 33.4964 28.1642 33.5283 28.1642L34.0186 26.8948L24.3727 1.87114L1.3908 61.1545Z" fill="#F9FAFB"/>
<path d="M28.0847 43.1191L24.7889 51.6483C23.3208 50.933 22.4722 49.3858 22.7583 47.5928C23.1486 45.1428 25.5166 43.1469 28.0847 43.1191Z" fill="#D0D5DD"/>
<path d="M24.7888 51.9608C24.7416 51.9608 24.6958 51.9497 24.6513 51.9289C23.0152 51.1316 22.1513 49.4108 22.4485 47.5428C22.8596 44.9594 25.386 42.8358 28.0791 42.8066C28.0805 42.8066 28.0819 42.8066 28.0819 42.8066C28.1846 42.8066 28.2805 42.8566 28.3388 42.9414C28.3985 43.0261 28.411 43.1358 28.3735 43.2316L25.0777 51.7608C25.0458 51.8428 24.9819 51.9066 24.8999 51.9386C24.8666 51.9539 24.8277 51.9608 24.7888 51.9608ZM27.618 43.4608C25.3985 43.7066 23.4083 45.4969 23.068 47.6414C22.8333 49.1122 23.4402 50.4733 24.6277 51.2025L27.618 43.4608Z" fill="#F9FAFB"/>
<path d="M32.7278 47.5934C33.1806 47.5934 33.5861 47.2045 33.5917 46.7711C33.5986 46.3142 33.5472 45.8739 33.4458 45.4559C33.5153 45.4475 33.5833 45.4434 33.65 45.4434C34.0278 45.4434 34.3264 45.5767 34.4903 45.8197C34.6625 46.0753 34.6736 46.4281 34.5222 46.817C34.1833 47.6864 33.1403 48.4197 32.2445 48.4197C31.8653 48.4197 31.5667 48.2864 31.4028 48.0447C31.232 47.7892 31.2195 47.4364 31.3722 47.0475C31.5014 46.7156 31.7333 46.4031 32.0208 46.1434C32.0722 46.4086 32.0986 46.6836 32.0945 46.9684C32.0889 47.3239 32.3542 47.5934 32.7278 47.5934Z" fill="#F7F9FC"/>
<path d="M32.2438 48.7328C31.7577 48.7328 31.3674 48.5509 31.1438 48.2217C30.9132 47.8773 30.891 47.4203 31.0813 46.9356C31.2243 46.5703 31.4757 46.2161 31.8118 45.9134C31.8952 45.8384 32.0132 45.8134 32.1202 45.8481C32.2271 45.8842 32.3063 45.9745 32.3285 46.0842C32.3855 46.3731 32.4118 46.6717 32.4077 46.9745C32.4063 47.062 32.4341 47.137 32.4882 47.1911C32.5466 47.2495 32.6299 47.2814 32.7285 47.2814C33.0091 47.2814 33.2771 47.0314 33.2799 46.7675C33.2855 46.3439 33.2396 45.9286 33.1424 45.5314C33.1216 45.4439 33.1382 45.3523 33.1896 45.2786C33.241 45.205 33.3202 45.1564 33.4091 45.1467C33.4896 45.137 33.5716 45.1328 33.6507 45.1328C34.1368 45.1328 34.5271 45.3161 34.7493 45.6467C34.9785 45.987 35.0021 46.4439 34.8132 46.9314C34.4257 47.9245 33.273 48.7328 32.2438 48.7328ZM31.7813 46.9175C31.7341 46.9981 31.6938 47.08 31.6618 47.162C31.548 47.4523 31.548 47.7036 31.6618 47.8717C31.7646 48.0231 31.9716 48.1078 32.2438 48.1078C33.0105 48.1078 33.9396 47.4523 34.2313 46.7036C34.3438 46.4134 34.3438 46.1606 34.2313 45.9939C34.1521 45.8759 34.0118 45.7981 33.8299 45.7689C33.8855 46.0967 33.9105 46.4342 33.9049 46.7745C33.8966 47.3773 33.3466 47.905 32.7285 47.905C32.4618 47.905 32.2188 47.8064 32.0424 47.6286C31.8716 47.455 31.7785 47.2189 31.7813 46.9648C31.7813 46.9495 31.7813 46.9342 31.7813 46.9175Z" fill="#F9FAFB"/>
<path d="M17.6721 60.807C18.0638 58.3515 20.4416 56.3556 22.9832 56.332L19.5291 65.2723L19.6902 64.8543C18.2318 64.1376 17.3874 62.5918 17.6721 60.807Z" fill="#D0D5DD"/>
<path d="M19.5278 65.5848C19.4903 65.5848 19.4528 65.5779 19.4153 65.564C19.2542 65.5015 19.1736 65.3209 19.2361 65.1598L19.2986 64.9987C17.8375 64.1515 17.082 62.5181 17.3625 60.757C17.775 58.1681 20.2958 56.0431 22.9792 56.0195C22.9806 56.0195 22.9806 56.0195 22.982 56.0195C23.0847 56.0195 23.1806 56.0695 23.2389 56.1543C23.2972 56.239 23.3111 56.3487 23.2736 56.4445L19.8195 65.3848C19.7708 65.5098 19.6528 65.5848 19.5278 65.5848ZM17.9792 60.8556C17.7458 62.3195 18.3486 63.6765 19.5264 64.407L22.5153 56.6723C20.3056 56.9168 18.3222 58.707 17.9792 60.8556Z" fill="#F9FAFB"/>
<path d="M27.637 60.8076C28.0898 60.8076 28.4954 60.4173 28.5009 59.984C28.5079 59.5243 28.4551 59.0798 28.3523 58.6604C28.4259 58.6506 28.4995 58.6465 28.5718 58.6465C28.9509 58.6465 29.2481 58.7798 29.412 59.0229C29.5842 59.2784 29.594 59.6312 29.444 60.0201C29.1051 60.8895 28.062 61.6229 27.1662 61.6229C26.7884 61.6229 26.4898 61.4895 26.3259 61.2479C26.1537 60.9923 26.1412 60.6368 26.294 60.2506C26.4218 59.9243 26.6481 59.6159 26.9301 59.359C26.9815 59.6243 27.0065 59.8993 27.0023 60.184C26.9968 60.5395 27.2648 60.8076 27.637 60.8076Z" fill="#F7F9FC"/>
<path d="M27.1663 61.9342C26.6816 61.9342 26.2913 61.7523 26.0677 61.4217C25.8358 61.0787 25.8122 60.6217 26.0024 60.1356C26.1427 59.7759 26.3913 59.4259 26.7191 59.1259C26.8024 59.0495 26.9205 59.0245 27.0274 59.0592C27.1344 59.094 27.2149 59.1856 27.2358 59.2954C27.2927 59.5829 27.3191 59.8815 27.3149 60.1842C27.3136 60.2717 27.3413 60.3467 27.3955 60.4023C27.4538 60.462 27.5372 60.4926 27.6372 60.4926C27.9177 60.4926 28.1858 60.2412 28.1886 59.9759C28.1941 59.5495 28.1469 59.1315 28.0483 58.7315C28.0274 58.6454 28.0441 58.5537 28.0941 58.4801C28.1441 58.4065 28.2247 58.3579 28.3122 58.3467C28.3983 58.3356 28.4858 58.3301 28.5705 58.3301C29.0566 58.3301 29.4469 58.512 29.6691 58.844C29.8997 59.1842 29.9219 59.6412 29.733 60.1287C29.3483 61.1259 28.1955 61.9342 27.1663 61.9342ZM26.6913 60.1426C26.6497 60.2162 26.6149 60.2898 26.5858 60.3634C26.4719 60.6523 26.4733 60.9051 26.5858 61.0731C26.6886 61.2259 26.8955 61.3106 27.1663 61.3106C27.933 61.3106 28.8622 60.6551 29.1538 59.9065C29.2663 59.6162 29.2663 59.3634 29.1538 59.1967C29.0733 59.0759 28.9274 58.9981 28.7372 58.9704C28.7941 59.3037 28.8205 59.644 28.8149 59.9884C28.8066 60.5912 28.2566 61.1204 27.6386 61.1204C27.3719 61.1204 27.1274 61.0217 26.9511 60.844C26.7788 60.6704 26.6872 60.4329 26.6899 60.1787C26.6899 60.1662 26.6899 60.1537 26.6913 60.1426Z" fill="#F9FAFB"/>
<path d="M26.9918 63.0076C26.1626 63.0076 25.4876 62.6826 25.0904 62.0937C24.6918 61.5006 24.6404 60.7034 24.9515 59.9062C25.2181 59.2214 25.7265 58.577 26.3848 58.0937C26.439 58.0534 26.5043 58.0326 26.5695 58.0326C26.5931 58.0326 26.6168 58.0353 26.639 58.0409C26.7279 58.0617 26.8029 58.1187 26.8459 58.2006C27.0265 58.5437 27.1556 58.9131 27.232 59.2992C27.2529 59.4062 27.2168 59.5159 27.1362 59.5895C26.8779 59.8256 26.6862 60.0923 26.5806 60.3645C26.4668 60.6534 26.4668 60.9062 26.5806 61.0742C26.6834 61.227 26.8904 61.3103 27.1612 61.3103C27.9279 61.3103 28.857 60.6548 29.1487 59.9062C29.2612 59.6159 29.2612 59.3631 29.1487 59.1964C29.0459 59.0423 28.839 58.9576 28.5681 58.9576C28.5098 58.9576 28.4501 58.9617 28.3876 58.9687C28.3751 58.9701 28.3612 58.9714 28.3487 58.9714C28.207 58.9714 28.0806 58.8742 28.0459 58.7339C27.9668 58.4117 27.8529 58.1006 27.7084 57.8076C27.6668 57.7228 27.6654 57.6228 27.7056 57.5367C27.7459 57.4506 27.8223 57.3881 27.914 57.3645C28.1918 57.2964 28.4695 57.2617 28.739 57.2617C29.5695 57.2617 30.2445 57.5867 30.6404 58.1756C31.039 58.7673 31.0904 59.5645 30.7793 60.3617C30.2029 61.8464 28.539 63.0076 26.9918 63.0076Z" fill="#D0D5DD"/>
<path d="M28.7424 57.5762C29.4647 57.5762 30.048 57.8512 30.3841 58.3526C30.7244 58.8581 30.7647 59.5498 30.4911 60.2512C29.9577 61.622 28.4216 62.6942 26.9952 62.6942C26.273 62.6942 25.6897 62.4178 25.3536 61.9178C25.0133 61.4123 24.973 60.7192 25.2466 60.0192C25.5008 59.3651 25.9841 58.7789 26.5744 58.3442C26.7383 58.6567 26.8591 58.997 26.9299 59.3581C26.648 59.6151 26.4216 59.9234 26.2938 60.2498C26.1424 60.6373 26.1536 60.9914 26.3258 61.247C26.4883 61.4887 26.7869 61.622 27.1661 61.622C28.0619 61.622 29.1049 60.8873 29.4438 60.0192C29.5938 59.6303 29.5841 59.2776 29.4119 59.022C29.2494 58.7789 28.9522 58.6456 28.573 58.6456C28.5008 58.6456 28.4272 58.6498 28.3536 58.6595C28.2674 58.3123 28.1466 57.9817 27.9924 57.6692C28.2411 57.6081 28.4938 57.5762 28.7424 57.5762ZM28.7424 56.9512C28.448 56.9512 28.1466 56.9887 27.8424 57.0623C27.6577 57.1067 27.5049 57.2331 27.4244 57.4053C27.3438 57.5776 27.3466 57.7762 27.4299 57.9456C27.5647 58.2192 27.6702 58.5095 27.7438 58.8095C27.8133 59.0914 28.0661 59.2845 28.3494 59.2845C28.3758 59.2845 28.4022 59.2831 28.4286 59.279C28.4772 59.2734 28.5244 59.2692 28.5688 59.2692C28.7258 59.2692 28.848 59.3067 28.8897 59.3678C28.9286 59.4262 28.9438 59.5706 28.8577 59.7915C28.6133 60.4206 27.8049 60.9956 27.1633 60.9956C27.0091 60.9956 26.8827 60.9567 26.8411 60.8956C26.8022 60.8387 26.7869 60.6942 26.873 60.4762C26.9605 60.2512 27.1299 60.0178 27.348 59.8178C27.5091 59.6706 27.5813 59.4498 27.5397 59.2359C27.4577 58.8192 27.3188 58.4206 27.1244 58.0512C27.0397 57.8901 26.8883 57.7734 26.7119 57.7331C26.6661 57.722 26.6188 57.7178 26.5716 57.7178C26.4397 57.7178 26.3091 57.7595 26.2008 57.8401C25.4952 58.3595 24.948 59.0526 24.6605 59.7915C24.3119 60.6845 24.3744 61.5873 24.8313 62.2665C25.2883 62.9442 26.0563 63.3178 26.9924 63.3178C28.6869 63.3178 30.4411 62.0956 31.0716 60.4762C31.4202 59.5817 31.3577 58.6803 30.9008 58.0012C30.448 57.3248 29.6799 56.9512 28.7424 56.9512Z" fill="#F9FAFB"/>
<path d="M78.9286 26.8965L81.9814 31.059L79.9981 36.1923L76.9453 32.0298L78.9286 26.8965Z" fill="#D0D5DD"/>
<path d="M79.9971 36.5048C79.8985 36.5048 79.8041 36.4576 79.7458 36.377L76.693 32.2145C76.6305 32.1284 76.6152 32.0159 76.6541 31.9173L78.6374 26.784C78.6791 26.677 78.7749 26.602 78.8874 26.5868C79.0013 26.5715 79.1124 26.6201 79.1805 26.7118L82.2333 30.8743C82.2958 30.9604 82.311 31.0729 82.2721 31.1715L80.2888 36.3048C80.2471 36.4118 80.1513 36.4868 80.0388 36.502C80.0235 36.5034 80.0096 36.5048 79.9971 36.5048ZM77.2971 31.9826L79.911 35.5465L81.6263 31.1048L79.0124 27.5409L77.2971 31.9826Z" fill="#F9FAFB"/>
<path d="M12.5786 74.0191C12.9689 71.5691 15.337 69.576 17.8745 69.5469L14.5661 78.1094L14.5842 78.0622C13.1328 77.3413 12.2939 75.801 12.5786 74.0191Z" fill="#D0D5DD"/>
<path d="M14.5646 78.422C14.5271 78.422 14.4896 78.415 14.4521 78.4011C14.3813 78.3734 14.3271 78.3234 14.2924 78.2623C12.7743 77.4303 11.9826 75.765 12.2688 73.9706C12.6799 71.39 15.1924 69.265 17.8701 69.2345C17.9715 69.2317 18.0715 69.2831 18.1312 69.3692C18.191 69.4539 18.2035 69.5636 18.166 69.6595L14.8576 78.222C14.8076 78.3456 14.6896 78.422 14.5646 78.422ZM12.8854 74.0678C12.6493 75.5498 13.2326 76.8775 14.4201 77.6136L17.4062 69.8873C15.2021 70.1373 13.2271 71.9261 12.8854 74.0678Z" fill="#F9FAFB"/>
<path d="M22.5476 74.0213C23.0004 74.0213 23.4045 73.6324 23.4115 73.199C23.4184 72.731 23.3643 72.281 23.2587 71.8546C23.3115 71.8504 23.3629 71.8477 23.4142 71.8477C23.7934 71.8477 24.092 71.981 24.2559 72.224C24.4268 72.4782 24.4393 72.8324 24.2865 73.2199C23.9476 74.0907 22.9059 74.8254 22.0101 74.8254C21.6309 74.8254 21.3323 74.6921 21.1684 74.449C20.9976 74.1949 20.9851 73.8407 21.1379 73.4532C21.274 73.1046 21.5212 72.7782 21.8281 72.5115C21.8879 72.7949 21.9184 73.0921 21.9129 73.3977C21.9073 73.7532 22.174 74.0213 22.5476 74.0213Z" fill="#F7F9FC"/>
<path d="M22.0094 75.136C21.5219 75.136 21.1316 74.9526 20.9094 74.6221C20.6789 74.2804 20.6566 73.8235 20.8469 73.3374C20.9955 72.954 21.2636 72.586 21.6219 72.2749C21.7052 72.2027 21.8219 72.179 21.9261 72.2138C22.0316 72.2485 22.1094 72.3374 22.133 72.4457C22.1983 72.7554 22.2302 73.0776 22.2247 73.4013C22.2233 73.4874 22.2511 73.5624 22.3052 73.6165C22.3636 73.6763 22.4469 73.7068 22.5469 73.7068C22.8261 73.7068 23.0941 73.4568 23.0983 73.1915C23.1039 72.7596 23.0566 72.3346 22.9539 71.929C22.9316 71.8402 22.9497 71.7471 23.0025 71.6721C23.0552 71.5971 23.1386 71.5499 23.2289 71.5415C23.29 71.536 23.3525 71.5332 23.4136 71.5332C23.9011 71.5332 24.2914 71.7165 24.5136 72.0471C24.7441 72.3888 24.7664 72.8457 24.5761 73.3318C24.19 74.3276 23.0386 75.136 22.0094 75.136ZM21.5983 73.2388C21.5275 73.3471 21.4705 73.4568 21.4275 73.5651C21.3136 73.8554 21.3136 74.1068 21.4261 74.2735C21.5289 74.4276 21.7358 74.511 22.008 74.511C22.2775 74.511 22.5664 74.4304 22.84 74.2929C22.7455 74.3193 22.6455 74.3332 22.5455 74.3332C22.2789 74.3332 22.0344 74.2346 21.858 74.0568C21.6872 73.8832 21.5941 73.6471 21.5969 73.3929C21.5997 73.3415 21.5997 73.2902 21.5983 73.2388ZM23.6455 72.1832C23.7025 72.5165 23.7275 72.8568 23.7233 73.2027C23.7191 73.4138 23.6497 73.6165 23.5344 73.7888C23.7372 73.5832 23.8997 73.3499 23.9941 73.1054C24.108 72.8151 24.108 72.5652 23.9955 72.3971C23.9247 72.2915 23.8039 72.2179 23.6455 72.1832Z" fill="#F9FAFB"/>
<path d="M21.8361 76.2073C21.0055 76.2073 20.3305 75.8823 19.9333 75.2935C19.5347 74.7018 19.4847 73.9032 19.7958 73.1046C20.0694 72.4032 20.5944 71.7476 21.275 71.2587C21.3291 71.2198 21.3916 71.2004 21.4569 71.2004C21.4805 71.2004 21.5041 71.2032 21.5263 71.2087C21.6138 71.2282 21.6888 71.2851 21.7305 71.3643C21.9138 71.7004 22.0472 72.0643 22.1291 72.4448C22.1527 72.5559 22.1138 72.6712 22.0291 72.7462C21.7513 72.9879 21.5375 73.2782 21.425 73.5643C21.3111 73.8546 21.3111 74.1046 21.4236 74.2726C21.5263 74.4268 21.7333 74.5101 22.0055 74.5101C22.7722 74.5101 23.7 73.8532 23.9902 73.1046C24.1041 72.8143 24.1041 72.5643 23.9916 72.3962C23.8888 72.2421 23.6819 72.1587 23.4097 72.1587C23.368 72.1587 23.325 72.1615 23.2819 72.1643C23.2722 72.1657 23.2638 72.1657 23.2541 72.1657C23.1125 72.1657 22.9861 72.0698 22.9513 71.9296C22.8694 71.6046 22.7541 71.2907 22.6055 70.9962C22.5625 70.9101 22.5611 70.8101 22.6027 70.7226C22.643 70.6365 22.7222 70.5726 22.8152 70.5518C23.0736 70.4921 23.3319 70.4629 23.5805 70.4629C24.4111 70.4629 25.0861 70.7879 25.4833 71.3768C25.8819 71.9684 25.9319 72.7671 25.6208 73.5657C25.0444 75.0462 23.3819 76.2073 21.8361 76.2073Z" fill="#D0D5DD"/>
<path d="M23.5826 70.7734C24.3048 70.7734 24.8895 71.0498 25.2256 71.5498C25.5659 72.0554 25.6048 72.7484 25.3312 73.4498C24.7978 74.8207 23.2617 75.8929 21.8367 75.8929C21.1131 75.8929 20.5298 75.6165 20.1937 75.1165C19.8534 74.6109 19.8145 73.9179 20.0881 73.2165C20.3492 72.5471 20.8492 71.9484 21.459 71.5109C21.6256 71.8179 21.7506 72.1526 21.8256 72.5082C21.5201 72.7748 21.2715 73.1012 21.1353 73.4498C20.984 73.8373 20.9951 74.1915 21.1659 74.4457C21.3284 74.6887 21.627 74.8221 22.0076 74.8221C22.9034 74.8221 23.9451 74.0873 24.284 73.2165C24.4353 72.829 24.4242 72.4748 24.2534 72.2207C24.0909 71.9776 23.7923 71.8443 23.4117 71.8443C23.3603 71.8443 23.309 71.847 23.2562 71.8512C23.1687 71.5012 23.0437 71.1665 22.8867 70.854C23.1187 70.8026 23.352 70.7734 23.5826 70.7734ZM23.5826 70.1484C23.3103 70.1484 23.0298 70.1804 22.7478 70.2457C22.5603 70.2887 22.4034 70.4151 22.3215 70.5887C22.2395 70.7623 22.2423 70.9637 22.3284 71.1359C22.4659 71.4096 22.5742 71.7026 22.6506 72.0054C22.7215 72.2859 22.9728 72.4776 23.2562 72.4776C23.2756 72.4776 23.2937 72.4762 23.3131 72.4748C23.3478 72.472 23.3812 72.4707 23.4117 72.4707C23.5701 72.4707 23.6923 72.5082 23.734 72.5693C23.7728 72.6276 23.7881 72.7707 23.702 72.9887C23.4562 73.6221 22.6478 74.1971 22.0076 74.1971C21.8492 74.1971 21.727 74.1595 21.6853 74.0984C21.6465 74.0401 21.6312 73.8971 21.7173 73.679C21.8117 73.4373 21.9951 73.1901 22.2353 72.9818C22.4062 72.8332 22.484 72.6026 22.4367 72.3804C22.3492 71.9707 22.2048 71.579 22.0076 71.2151C21.9215 71.0582 21.7728 70.9443 21.5978 70.904C21.552 70.8929 21.5048 70.8887 21.4576 70.8887C21.3284 70.8887 21.2006 70.929 21.0937 71.0054C20.3645 71.529 19.8006 72.2346 19.5048 72.9915C19.1562 73.8873 19.2173 74.7901 19.6742 75.4679C20.1312 76.1457 20.8992 76.5193 21.8367 76.5193C23.5298 76.5193 25.2826 75.2971 25.9145 73.6776C26.2631 72.7818 26.202 71.879 25.7451 71.2012C25.2867 70.5221 24.5201 70.1484 23.5826 70.1484Z" fill="#F9FAFB"/>
<path d="M49.3616 76.7422L48.8089 78.17H26.6797L27.2297 76.7422H49.3616Z" fill="#D0D5DD"/>
<path d="M48.8093 78.4825H26.6802C26.5774 78.4825 26.4802 78.4311 26.4218 78.3464C26.3635 78.2616 26.351 78.1533 26.3885 78.0575L26.9399 76.6297C26.9857 76.5089 27.1024 76.4297 27.2316 76.4297H49.3635C49.4663 76.4297 49.5635 76.4811 49.6218 76.5658C49.6802 76.6505 49.6927 76.7589 49.6552 76.8547L49.1024 78.2825C49.0552 78.4033 48.9385 78.4825 48.8093 78.4825ZM27.1357 77.8575H48.5955L48.9066 77.0547H27.4455L27.1357 77.8575Z" fill="#D0D5DD"/>
<path d="M47.5818 81.3535L47.029 82.7813H24.8984L25.4498 81.3535H47.5818Z" fill="#D0D5DD"/>
<path d="M47.0295 83.0938H24.8989C24.7961 83.0938 24.6989 83.0424 24.6406 82.9577C24.5823 82.873 24.5698 82.7646 24.6073 82.6688L25.1586 81.241C25.2045 81.1202 25.3211 81.041 25.4503 81.041H47.5823C47.685 81.041 47.7823 81.0924 47.8406 81.1771C47.8989 81.2618 47.9114 81.3702 47.8739 81.466L47.3211 82.8938C47.2739 83.0146 47.1586 83.0938 47.0295 83.0938ZM25.3545 82.4688H46.8142L47.1253 81.666H25.6642L25.3545 82.4688Z" fill="#D0D5DD"/>
<path d="M60.9023 73.5371L63.955 77.6996L58.7481 91.1732L55.6953 87.0121L60.9023 73.5371Z" fill="#D0D5DD"/>
<path d="M58.7471 91.4857C58.6485 91.4857 58.5541 91.4385 58.4958 91.3579L55.443 87.1968C55.3805 87.1107 55.3652 86.9982 55.4041 86.8996L60.611 73.4246C60.6527 73.3177 60.7485 73.2427 60.861 73.2274C60.9749 73.2121 61.086 73.2607 61.1541 73.3524L64.2069 77.5149C64.2694 77.601 64.2846 77.7135 64.2458 77.8121L59.0388 91.2871C58.9971 91.394 58.9013 91.4691 58.7888 91.4843C58.7749 91.4857 58.761 91.4857 58.7471 91.4857ZM56.0471 86.9649L58.661 90.5288L63.5999 77.7454L60.986 74.1816L56.0471 86.9649Z" fill="#F9FAFB"/>
<path d="M55.6986 87.0117L58.7514 91.1728H14.1778L11.125 87.0117H55.6986Z" fill="#D0D5DD"/>
<path d="M58.7509 91.4848H14.1773C14.0773 91.4848 13.9842 91.4375 13.9259 91.357L10.8731 87.1945C10.8037 87.1 10.7926 86.9737 10.8467 86.8681C10.8995 86.7625 11.0078 86.6973 11.1259 86.6973H55.6995C55.7995 86.6973 55.8926 86.7445 55.9509 86.825L59.0037 90.9875C59.0731 91.082 59.0842 91.2084 59.03 91.3139C58.9759 91.4195 58.8689 91.4848 58.7509 91.4848ZM14.3356 90.8598H58.1342L55.5398 87.3223H11.7412L14.3356 90.8598Z" fill="#F9FAFB"/>
<path d="M87.8955 43.584L90.9483 47.7465L79.2872 77.6993L76.2344 73.5368L87.8955 43.584Z" fill="#D0D5DD"/>
<path d="M79.2866 78.0118C79.188 78.0118 79.0935 77.9645 79.0352 77.884L75.9824 73.7215C75.9185 73.6354 75.9046 73.5229 75.9435 73.4229L87.6046 43.4701C87.6463 43.3632 87.7421 43.2882 87.8546 43.2743C87.9671 43.259 88.0796 43.3076 88.1477 43.3993L91.2004 47.5618C91.2643 47.6479 91.2782 47.7604 91.2393 47.8604L79.5782 77.8132C79.5366 77.9201 79.4407 77.9951 79.3282 78.009C79.313 78.0104 79.3005 78.0118 79.2866 78.0118ZM76.5866 73.4895L79.2018 77.0548L90.5949 47.7937L87.9796 44.2284L76.5866 73.4895Z" fill="#F9FAFB"/>
<path d="M76.2328 73.5371H60.9036H33.1953L36.2481 77.6996H63.9564H79.2856L76.2328 73.5371Z" fill="#D0D5DD"/>
<path d="M79.2851 78.0121H36.2476C36.1476 78.0121 36.0545 77.9649 35.9962 77.8843L32.9434 73.7218C32.874 73.6274 32.8629 73.501 32.917 73.3954C32.9698 73.2899 33.0781 73.2246 33.1962 73.2246H76.2337C76.3337 73.2246 76.4268 73.2718 76.4851 73.3524L79.5379 77.5149C79.6073 77.6093 79.6184 77.7357 79.5643 77.8413C79.5101 77.9454 79.4032 78.0121 79.2851 78.0121ZM36.4059 77.3871H78.6684L76.074 73.8496H33.8115L36.4059 77.3871Z" fill="#F9FAFB"/>
<path d="M68.9331 37.0273C71.8483 37.0273 73.8331 38.4996 74.4178 40.7148C74.6442 41.5746 74.6594 42.5454 74.4372 43.5857C74.3456 44.0162 74.2122 44.4579 74.0372 44.9093C72.4706 48.9357 68.0483 52.2565 63.8233 52.7343C63.4983 52.7148 63.1678 52.7051 62.8303 52.7051C62.4928 52.7051 62.1539 52.7148 61.815 52.7343C57.9608 52.2565 56.1247 48.9357 57.6928 44.9093C59.3844 40.5551 64.4178 37.0273 68.9331 37.0273Z" fill="#98A2B3"/>
<path d="M61.8094 53.0448C61.7969 53.0448 61.7844 53.0434 61.7705 53.0421C59.8899 52.8087 58.3927 51.9059 57.5524 50.499C56.6233 48.9434 56.5677 46.9171 57.3941 44.7934C59.1288 40.3379 64.3038 36.7129 68.9288 36.7129C71.9052 36.7129 74.0677 38.1782 74.7149 40.6337C74.9594 41.5629 74.9677 42.5768 74.7372 43.649C74.6413 44.1004 74.501 44.5615 74.3219 45.0212C72.7358 49.099 68.2344 52.5476 63.8511 53.0434C63.833 53.0448 63.8149 53.0462 63.7969 53.0448C63.158 53.0073 62.4913 53.0073 61.8233 53.0448C61.8219 53.0448 61.8163 53.0448 61.8094 53.0448ZM62.8261 52.3907C63.1566 52.3907 63.4886 52.4004 63.8108 52.4184C67.9719 51.9365 72.2372 48.6629 73.7427 44.7948C73.9094 44.3671 74.0399 43.9379 74.1288 43.5184C74.3372 42.5421 74.333 41.6254 74.1136 40.7934C73.5427 38.6309 71.6066 37.3393 68.9316 37.3393C64.5427 37.3393 59.6288 40.7865 57.9788 45.0226C57.2233 46.9629 57.2636 48.7948 58.0913 50.1809C58.8261 51.4115 60.1497 52.2059 61.8219 52.4198C62.158 52.4004 62.4955 52.3907 62.8261 52.3907Z" fill="#F9FAFB"/>
<path d="M77.7557 32.0293L87.8932 43.5835H74.4335C74.6557 42.5432 74.6405 41.5724 74.4141 40.7126L77.7557 32.0293Z" fill="#D0D5DD"/>
<path d="M87.8922 43.8962H74.4325C74.338 43.8962 74.2492 43.8531 74.1894 43.7795C74.1297 43.7059 74.1075 43.6101 74.1269 43.517C74.3353 42.5406 74.3311 41.6239 74.1117 40.792C74.095 40.7281 74.0992 40.6614 74.1228 40.6003L77.4644 31.9156C77.5033 31.8128 77.5936 31.7392 77.7019 31.7198C77.8089 31.7003 77.92 31.7392 77.9922 31.8212L88.1297 43.3753C88.2103 43.467 88.2297 43.5989 88.1797 43.7101C88.1269 43.8253 88.0158 43.8962 87.8922 43.8962ZM74.8103 43.2712H87.2033L77.8617 32.6239L74.7408 40.7323C74.9339 41.5239 74.9561 42.3753 74.8103 43.2712Z" fill="#F9FAFB"/>
<path d="M62.8297 52.7031C63.1672 52.7031 63.4977 52.7129 63.8227 52.7323C72.2283 53.2337 76.3616 60.1198 73.0839 68.5406H40.2422C43.5214 60.1198 53.0172 53.2323 61.813 52.7323C62.1533 52.7129 62.4922 52.7031 62.8297 52.7031Z" fill="#98A2B3"/>
<path d="M73.0843 68.8551H40.2427C40.1399 68.8551 40.0427 68.8037 39.9843 68.719C39.926 68.6342 39.9135 68.5259 39.951 68.4287C43.2482 59.962 52.8427 52.9301 61.7955 52.4217C62.4885 52.3829 63.1788 52.3829 63.8413 52.4217C67.8704 52.662 71.0941 54.3634 72.9204 57.2106C74.8899 60.2842 75.0524 64.3495 73.3746 68.6565C73.3288 68.7759 73.2135 68.8551 73.0843 68.8551ZM40.7052 68.2301H72.8691C74.3899 64.1884 74.2232 60.4023 72.3941 57.5481C70.6788 54.8731 67.6288 53.2745 63.8052 53.0454C63.1663 53.0079 62.4996 53.0079 61.8316 53.0454C53.2552 53.5329 44.0718 60.1648 40.7052 68.2301Z" fill="#F9FAFB"/>
<path d="M77.7564 32.0293L74.4148 40.714C73.83 38.4987 71.8453 37.0265 68.93 37.0265C64.4161 37.0265 59.3814 40.5543 57.687 44.9085C56.1189 48.9349 57.955 52.2557 61.8092 52.7335C53.0134 53.2335 43.5175 60.121 40.2384 68.5418H73.08C76.3592 60.121 72.2245 53.2349 63.8189 52.7335C68.0453 52.2557 72.4675 48.9349 74.0328 44.9085C74.2092 44.4571 74.3411 44.0154 74.4328 43.5849H87.8925L76.2314 73.5376H60.9036H33.1953L49.3564 32.0307H76.9411H77.7564V32.0293Z" fill="#D0D5DD"/>
<path d="M76.2333 73.8487H33.1958C33.093 73.8487 32.9958 73.7974 32.9375 73.7126C32.8791 73.6279 32.8666 73.5196 32.9041 73.4224L49.0652 31.9154C49.1125 31.796 49.2277 31.7168 49.3569 31.7168H77.7569C77.8597 31.7168 77.9569 31.7682 78.0139 31.8529C78.0722 31.9376 78.0847 32.046 78.0486 32.1418L74.7069 40.8265C74.6583 40.9529 74.5305 41.0349 74.3986 41.0265C74.2639 41.0196 74.1486 40.9251 74.1138 40.7946C73.543 38.6307 71.6069 37.3404 68.9319 37.3404C64.543 37.3404 59.6291 40.7876 57.9791 45.0237C57.2236 46.964 57.2639 48.796 58.0916 50.1821C58.8305 51.4196 60.1639 52.2154 61.8486 52.4251C62.0097 52.4446 62.1277 52.5835 62.1222 52.746C62.1166 52.9071 61.9889 53.039 61.8277 53.0474C53.2514 53.5349 44.068 60.1668 40.7014 68.2321H72.8652C74.3861 64.1904 74.2194 60.4043 72.3902 57.5501C70.675 54.8751 67.625 53.2765 63.8014 53.0474C63.6389 53.0376 63.5125 52.9057 63.5069 52.7432C63.5014 52.5807 63.6236 52.4432 63.7847 52.4237C67.9541 51.9529 72.2347 48.6737 73.743 44.796C73.9097 44.3682 74.0402 43.939 74.1291 43.5196C74.1597 43.3751 74.2875 43.2724 74.4347 43.2724H87.8944C87.9972 43.2724 88.0944 43.3237 88.1527 43.4085C88.2111 43.4932 88.2236 43.6015 88.1861 43.6987L76.525 73.6515C76.4777 73.7696 76.3625 73.8487 76.2333 73.8487ZM33.6527 73.2237H76.0194L87.4375 43.896H74.6833C74.5916 44.2682 74.4722 44.6446 74.325 45.021C72.9666 48.5126 69.4708 51.5432 65.743 52.6529C68.8819 53.246 71.3889 54.8251 72.9166 57.2085C74.8861 60.2821 75.0486 64.3474 73.3708 68.6543C73.3236 68.7737 73.2083 68.8529 73.0791 68.8529H40.2389C40.1361 68.8529 40.0389 68.8015 39.9805 68.7168C39.9222 68.6321 39.9097 68.5237 39.9472 68.4265C43.0305 60.5085 51.6236 53.8446 60.0472 52.5987C58.975 52.1585 58.1166 51.4418 57.5541 50.4987C56.625 48.9432 56.5694 46.9168 57.3958 44.7932C59.1305 40.3376 64.3055 36.7126 68.9305 36.7126C71.5569 36.7126 73.55 37.8543 74.4277 39.8099L77.3014 32.3418H49.5708L33.6527 73.2237Z" fill="#F9FAFB"/>
<path d="M29.3468 40.1738C29.3066 40.1738 29.2663 40.1655 29.2274 40.1502C26.8941 39.1905 25.651 36.9057 26.0621 34.3307C26.6052 30.9307 29.9107 28.1641 33.4316 28.1641C33.5552 28.1641 33.6635 28.1668 33.7593 28.1724C35.858 28.2738 37.6191 29.3807 38.4691 31.1349C38.6288 31.4627 38.7566 31.8168 38.8455 32.1863C38.9524 32.6349 39.0024 33.0988 38.9941 33.5641C38.9885 34.1641 38.4399 34.6918 37.8191 34.6918C37.5524 34.6918 37.3093 34.5946 37.1343 34.4168C36.9621 34.2432 36.8691 34.0071 36.8718 33.7516C36.876 33.5057 36.8552 33.2641 36.8135 33.0321C36.7538 32.7057 36.6468 32.3905 36.4955 32.0946C35.8927 30.9196 34.6566 30.2168 33.1885 30.2168C30.7843 30.2238 28.5274 32.1141 28.158 34.4293C27.9038 36.0238 28.6385 37.4877 30.0274 38.1585C30.1732 38.2293 30.2413 38.4002 30.183 38.5516L29.6357 39.9738C29.6052 40.053 29.5455 40.1155 29.4677 40.1488C29.4302 40.1655 29.3885 40.1738 29.3468 40.1738Z" fill="#D0D5DD"/>
<path d="M33.4318 28.4766C33.536 28.4766 33.6402 28.478 33.7416 28.4849C35.7902 28.5835 37.4152 29.6752 38.1888 31.2724C38.3402 31.5835 38.4582 31.9141 38.543 32.2613C38.6416 32.6752 38.6902 33.1085 38.6832 33.5599C38.6791 33.9918 38.2749 34.3807 37.8207 34.3807C37.4471 34.3807 37.1832 34.1127 37.186 33.7557C37.1902 33.4877 37.168 33.228 37.1235 32.978C37.0568 32.6141 36.9388 32.271 36.7763 31.9543C36.1443 30.721 34.8221 29.9057 33.1916 29.9057C30.6374 29.9141 28.2457 31.9168 27.8513 34.3807C27.5652 36.1766 28.4207 37.7293 29.8943 38.4405L29.3471 39.8627C27.2291 38.9918 25.9749 36.8655 26.3707 34.3807C26.8902 31.1238 30.0555 28.4766 33.4318 28.4766ZM33.4318 27.8516C31.6527 27.8516 29.8763 28.5182 28.4291 29.728C26.9791 30.9405 26.0291 32.5571 25.7527 34.2807C25.5388 35.6224 25.7513 36.9182 26.3693 38.0293C26.9749 39.1182 27.9221 39.9516 29.1082 40.4391C29.1846 40.471 29.2652 40.4863 29.3457 40.4863C29.4305 40.4863 29.5138 40.4696 29.593 40.4349C29.7471 40.3682 29.868 40.2418 29.9291 40.0849L30.4763 38.6627C30.593 38.3585 30.4582 38.0168 30.1652 37.8752C28.8832 37.2571 28.2332 35.9543 28.468 34.4766C28.8152 32.3071 30.9346 30.5349 33.193 30.528C34.5388 30.528 35.6707 31.1668 36.2193 32.2363C36.3555 32.5043 36.4527 32.7918 36.5068 33.0877C36.5457 33.2988 36.5624 33.5196 36.5596 33.7432C36.5555 34.0849 36.6805 34.4002 36.9124 34.6335C37.1471 34.871 37.4693 35.0016 37.8193 35.0016C38.618 35.0016 39.2999 34.3418 39.3068 33.5613C39.3152 33.0752 39.2624 32.5863 39.1499 32.1127C39.0541 31.7182 38.9193 31.3432 38.7485 30.9946C37.8485 29.1377 35.986 27.9641 33.7693 27.8571C33.6749 27.8543 33.5624 27.8516 33.4318 27.8516Z" fill="#F9FAFB"/>
<path d="M19.1418 66.5898C19.1015 66.5898 19.0598 66.5815 19.0209 66.5662C16.7056 65.5996 15.4737 63.319 15.882 60.7579C16.4237 57.3565 19.732 54.5898 23.2543 54.5898C23.3529 54.5898 23.4487 54.5926 23.5445 54.5968C25.6487 54.6898 27.4168 55.7871 28.2765 57.5301C28.4404 57.8635 28.5709 58.2176 28.6612 58.5843C28.7723 59.0357 28.8265 59.5079 28.8195 59.9885C28.8112 60.5912 28.2612 61.1204 27.6431 61.1204C27.3765 61.1204 27.132 61.0218 26.9556 60.844C26.7834 60.6704 26.6918 60.4329 26.6945 60.1787C26.6987 59.9204 26.6765 59.6648 26.6279 59.419C26.564 59.0912 26.4543 58.7801 26.3029 58.4912C25.6945 57.3357 24.4709 56.6454 23.0279 56.6454L22.9959 56.6468C20.5945 56.6676 18.3487 58.5579 17.982 60.8579C17.7293 62.4412 18.4543 63.8996 19.8293 64.5759C19.9751 64.6468 20.0418 64.8176 19.9834 64.969L19.4348 66.3926C19.4043 66.4718 19.3431 66.5343 19.2654 66.5676C19.2251 66.5815 19.1834 66.5898 19.1418 66.5898Z" fill="#D0D5DD"/>
<path d="M23.2533 54.9023C23.3477 54.9023 23.4394 54.9051 23.5324 54.9093C25.5838 54.9996 27.2116 56.0801 27.9949 57.669C28.1491 57.9815 28.2699 58.3121 28.356 58.6593C28.4602 59.0801 28.5116 59.5232 28.5047 59.9829C28.4991 60.4162 28.0935 60.8065 27.6408 60.8065C27.2672 60.8065 27.0005 60.5385 27.006 60.1815C27.0102 59.8968 26.9852 59.6218 26.9338 59.3565C26.863 58.9954 26.7422 58.6551 26.5783 58.3426C25.9408 57.1301 24.6422 56.3301 23.0269 56.3301L22.9838 56.3315C20.4408 56.3537 18.0644 58.351 17.6727 60.8065C17.388 62.5912 18.2324 64.1371 19.6908 64.8537L19.5297 65.2718L19.1422 66.276C17.0408 65.3982 15.7977 63.2773 16.1922 60.8051C16.7088 57.5496 19.8755 54.9023 23.2533 54.9023ZM23.2533 54.2773C19.5838 54.2773 16.138 57.1621 15.5727 60.7079C15.3602 62.0426 15.5699 63.3343 16.1824 64.4412C16.7824 65.5273 17.7213 66.3607 18.8991 66.8523C18.9755 66.8843 19.0588 66.901 19.1394 66.901C19.2227 66.901 19.306 66.8843 19.3852 66.8509C19.5408 66.7843 19.6616 66.6579 19.7227 66.501L20.1102 65.4968L20.2713 65.0773C20.388 64.776 20.2547 64.4343 19.9644 64.2912C18.6963 63.6676 18.0533 62.3704 18.288 60.9037C18.6324 58.7468 20.7408 56.976 22.988 56.9565C22.9935 56.9565 23.0005 56.9565 23.006 56.9565L23.038 56.9551C24.3574 56.9593 25.4741 57.5857 26.0255 58.6343C26.163 58.8968 26.263 59.1801 26.3213 59.4773C26.3658 59.7023 26.3866 59.9357 26.3824 60.1732C26.3769 60.5121 26.5019 60.8273 26.7324 61.0621C26.9672 61.301 27.2908 61.4315 27.6422 61.4315C28.4394 61.4315 29.1213 60.7718 29.131 59.9912C29.138 59.4857 29.0824 58.9857 28.9644 58.5093C28.8685 58.1218 28.7324 57.7468 28.5574 57.3926C27.6449 55.5454 25.7783 54.3829 23.5616 54.2857C23.4574 54.2801 23.3574 54.2773 23.2533 54.2773Z" fill="#F9FAFB"/>
<path d="M14.0332 79.8005C13.9916 79.8005 13.9513 79.7922 13.9124 79.7755C11.4707 78.7464 10.2485 76.238 10.8721 73.5352C11.6138 70.3213 14.8179 67.8047 18.1679 67.8047C18.2416 67.8047 18.3152 67.8061 18.3888 67.8088L18.4346 67.8102C20.5304 67.8977 22.2999 68.9852 23.1679 70.7158C23.336 71.0519 23.4679 71.4089 23.561 71.7769C23.6763 72.2339 23.7304 72.7144 23.7235 73.2019C23.7124 73.8047 23.1638 74.3325 22.5471 74.3325C22.2804 74.3325 22.036 74.2338 21.8596 74.0561C21.6874 73.8825 21.5957 73.6464 21.5985 73.3922C21.6027 73.113 21.5763 72.838 21.5207 72.5755C21.4527 72.2533 21.3388 71.9464 21.1846 71.663C20.5707 70.5325 19.3541 69.8589 17.9304 69.8589C17.9263 69.8589 17.8818 69.8602 17.8749 69.8602C15.4888 69.888 13.2499 71.7755 12.8846 74.07C12.6291 75.6714 13.3332 77.095 14.7207 77.7825C14.8652 77.8547 14.9318 78.0241 14.8735 78.1741L14.3249 79.5991C14.2943 79.6783 14.2332 79.7408 14.1554 79.7741C14.1166 79.7922 14.0749 79.8005 14.0332 79.8005Z" fill="#D0D5DD"/>
<path d="M18.1687 68.1172C18.2381 68.1172 18.309 68.1186 18.3798 68.1213L18.4243 68.1227C20.4701 68.2089 22.0979 69.2783 22.8895 70.8561C23.0465 71.17 23.1715 71.5033 23.259 71.8533C23.3659 72.2797 23.4187 72.7297 23.4118 73.1977C23.4048 73.6311 23.0006 74.02 22.5479 74.02C22.1743 74.02 21.9076 73.7519 21.9131 73.3963C21.9173 73.0894 21.8881 72.7936 21.8284 72.5102C21.7534 72.1547 21.6284 71.8213 21.4618 71.513C20.8159 70.3255 19.5298 69.545 17.934 69.545C17.9159 69.545 17.8937 69.545 17.8756 69.5464C15.3381 69.5755 12.9701 71.5686 12.5798 74.0186C12.2951 75.8005 13.134 77.3408 14.5854 78.0602L14.5673 78.1075L14.0368 79.4852C11.827 78.5533 10.5715 76.2436 11.1798 73.6033C11.8909 70.5214 14.9854 68.1172 18.1687 68.1172ZM18.1687 67.4922C14.6798 67.4922 11.3423 70.1158 10.5687 73.4644C9.90898 76.32 11.2048 78.9727 13.7909 80.063C13.8687 80.0963 13.9506 80.1116 14.034 80.1116C14.1173 80.1116 14.2006 80.095 14.2784 80.0616C14.434 79.995 14.5562 79.8686 14.6173 79.7116L15.1479 78.3339L15.1659 78.2866C15.2826 77.9852 15.1493 77.645 14.8604 77.5019C13.5993 76.8769 12.9604 75.5797 13.1937 74.1186C13.5368 71.9686 15.6381 70.1977 17.8798 70.1727C17.8923 70.1727 17.9048 70.1727 17.9173 70.1714H17.9312C19.2381 70.1714 20.3506 70.7852 20.9104 71.813C21.0506 72.07 21.1534 72.3491 21.2145 72.6408C21.2659 72.8811 21.2895 73.1325 21.2854 73.388C21.2812 73.7269 21.4048 74.0422 21.6354 74.2755C21.8701 74.5144 22.1937 74.645 22.5451 74.645C23.3381 74.645 24.0201 73.9866 24.034 73.2088C24.0409 72.6922 23.984 72.1866 23.8618 71.7019C23.7631 71.3102 23.6229 70.9325 23.4451 70.5769C22.5256 68.7422 20.6576 67.5922 18.4479 67.4991L18.3979 67.4977C18.3243 67.4936 18.2465 67.4922 18.1687 67.4922Z" fill="#F9FAFB"/>
<path d="M32.0769 49.8044C31.2449 49.8044 30.5685 49.4794 30.1755 48.8891C29.7769 48.2975 29.7269 47.5003 30.038 46.703C30.306 46.0128 30.8213 45.3655 31.4852 44.8794C31.5394 44.8405 31.6033 44.8197 31.6699 44.8197C31.6935 44.8197 31.7171 44.8225 31.7407 44.828C31.8296 44.8489 31.9046 44.9072 31.9463 44.9864C32.1269 45.328 32.256 45.6975 32.3324 46.0836C32.3533 46.1919 32.3171 46.3016 32.2352 46.3753C31.9713 46.6128 31.7755 46.885 31.6685 47.16C31.5546 47.4503 31.5546 47.7017 31.6685 47.8711C31.7713 48.0225 31.9783 48.1072 32.2505 48.1072C33.0171 48.1072 33.9463 47.4517 34.238 46.703C34.3505 46.4128 34.3505 46.16 34.238 45.9933C34.1352 45.8391 33.9283 45.7544 33.6574 45.7544C33.6033 45.7544 33.5463 45.7572 33.4894 45.7641C33.4769 45.7655 33.4644 45.7669 33.4533 45.7669C33.3116 45.7669 33.1838 45.6697 33.1505 45.528C33.0713 45.2058 32.9588 44.8933 32.8144 44.5989C32.7727 44.5142 32.7713 44.4141 32.8116 44.328C32.8519 44.2419 32.9296 44.1794 33.0213 44.1572C33.2935 44.0919 33.5658 44.0586 33.8296 44.0586C34.6602 44.0586 35.3352 44.3836 35.731 44.9725C36.1283 45.5628 36.1796 46.36 35.8699 47.1586C35.2866 48.6433 33.6241 49.8044 32.0769 49.8044Z" fill="#D0D5DD"/>
<path d="M33.8242 44.373C34.5464 44.373 35.1298 44.648 35.4659 45.1494C35.8062 45.655 35.845 46.348 35.5728 47.048C35.0395 48.4189 33.5034 49.4911 32.077 49.4911C31.3548 49.4911 30.77 49.2161 30.4353 48.7147C30.095 48.2092 30.0548 47.5161 30.3284 46.8161C30.5853 46.1578 31.0728 45.5675 31.6687 45.1314C31.8325 45.4439 31.9534 45.7828 32.0242 46.1439C31.7367 46.4036 31.5048 46.7161 31.3756 47.048C31.2242 47.4369 31.2353 47.7897 31.4062 48.0453C31.57 48.2869 31.8673 48.4203 32.2478 48.4203C33.1437 48.4203 34.1867 47.6855 34.5256 46.8175C34.6756 46.4286 34.6659 46.0758 34.4937 45.8203C34.3312 45.5772 34.0325 45.4439 33.6548 45.4439C33.5867 45.4439 33.5187 45.448 33.4506 45.4564C33.3659 45.1078 33.245 44.7758 33.0909 44.4633C33.3339 44.405 33.5798 44.373 33.8242 44.373ZM33.8242 43.748C33.5367 43.748 33.2395 43.7842 32.9437 43.855C32.7589 43.8994 32.6048 44.0258 32.5242 44.1967C32.4437 44.3675 32.445 44.5675 32.5284 44.7383C32.6631 45.0119 32.7687 45.3036 32.8423 45.6036C32.9117 45.8855 33.1645 46.08 33.4492 46.08C33.4742 46.08 33.4978 46.0786 33.5228 46.0758C33.5673 46.0703 33.6117 46.0675 33.6548 46.0675C33.8117 46.0675 33.9339 46.105 33.9756 46.1661C34.0145 46.2244 34.0298 46.3689 33.9437 46.5897C33.6992 47.2189 32.8909 47.7939 32.2492 47.7939C32.0909 47.7939 31.9673 47.755 31.9256 47.6939C31.8867 47.6355 31.8742 47.4925 31.9589 47.2744C32.0478 47.0467 32.22 46.8092 32.445 46.6064C32.6075 46.4592 32.6812 46.2369 32.6395 46.0217C32.5575 45.6064 32.4173 45.2078 32.2242 44.8397C32.1395 44.6786 31.9895 44.5633 31.8117 44.5217C31.7645 44.5105 31.7173 44.505 31.67 44.505C31.5381 44.505 31.4089 44.5467 31.302 44.6258C30.5895 45.1453 30.0367 45.8425 29.7464 46.5883C29.3978 47.4814 29.4603 48.3842 29.9173 49.0633C30.37 49.7411 31.1381 50.1147 32.0784 50.1147C33.7728 50.1147 35.527 48.8925 36.1575 47.273C36.5048 46.3772 36.4423 45.4758 35.9867 44.798C35.5298 44.123 34.7617 43.748 33.8242 43.748Z" fill="#F9FAFB"/>
<path d="M24.2368 53.3836C24.1965 53.3836 24.1548 53.3753 24.1173 53.36C21.7937 52.3961 20.5576 50.1128 20.9687 47.5447C21.5104 44.1461 24.8159 41.3809 28.3381 41.3809C28.4381 41.3809 28.5409 41.3809 28.6437 41.3864C28.6451 41.3864 28.6465 41.3864 28.6479 41.3864C30.7423 41.4836 32.5048 42.5822 33.3631 44.3253C33.3673 44.3323 33.3701 44.3392 33.3729 44.3475C33.5298 44.6698 33.6562 45.017 33.7465 45.3809C33.8562 45.8253 33.9076 46.2947 33.902 46.7767C33.8937 47.3781 33.3437 47.9059 32.7243 47.9059C32.4576 47.9059 32.2145 47.8073 32.0381 47.6295C31.8673 47.4559 31.7756 47.2198 31.7798 46.9656C31.784 46.7086 31.7604 46.4531 31.7104 46.2072C31.6465 45.8809 31.5368 45.5684 31.3854 45.2781C31.0937 44.7225 30.6465 44.2614 30.0937 43.9434C29.5423 43.6239 28.9145 43.4531 28.227 43.435C28.1881 43.4336 28.1562 43.4336 28.1215 43.4336C28.1173 43.4336 28.0812 43.4336 28.0812 43.4336C25.6812 43.46 23.4298 45.3475 23.0645 47.6434C22.8118 49.2323 23.5409 50.6947 24.9229 51.3684C25.0687 51.4392 25.1368 51.61 25.077 51.7614L24.527 53.1836C24.4965 53.2628 24.4354 53.3253 24.359 53.3586C24.3201 53.3753 24.2784 53.3836 24.2368 53.3836Z" fill="#D0D5DD"/>
<path d="M28.3384 41.6914C28.437 41.6914 28.5356 41.6914 28.6314 41.697H28.6328C30.6772 41.7914 32.3009 42.8747 33.0828 44.4622V44.4636C33.237 44.7747 33.3564 45.1081 33.4425 45.4539C33.5453 45.872 33.5939 46.3122 33.5884 46.7692C33.5828 47.2025 33.1773 47.59 32.7231 47.59C32.3509 47.59 32.0856 47.322 32.0911 46.9678C32.0953 46.6845 32.0689 46.4081 32.0161 46.1428C31.9453 45.7817 31.8245 45.4442 31.662 45.1303C31.3425 44.5233 30.8578 44.0192 30.2495 43.6692C29.6745 43.3358 28.9911 43.14 28.2342 43.1192C28.1925 43.1178 28.1509 43.1178 28.1078 43.1178H28.0828C25.5148 43.1456 23.1467 45.14 22.7564 47.5914C22.4703 49.3831 23.3203 50.9317 24.787 51.647L24.237 53.0692C22.13 52.1942 20.88 50.072 21.2772 47.5914C21.7953 44.3386 24.9606 41.6914 28.3384 41.6914ZM28.3384 41.0664C26.5592 41.0664 24.7814 41.7331 23.3342 42.9428C21.8842 44.1553 20.9342 45.772 20.6592 47.4942C20.4453 48.8331 20.6564 50.1275 21.2717 51.2359C21.8731 52.3234 22.8161 53.1567 23.9981 53.647C24.0745 53.6789 24.1564 53.6942 24.237 53.6942C24.3203 53.6942 24.405 53.6775 24.4828 53.6442C24.637 53.5775 24.7592 53.4525 24.8203 53.2942L25.3703 51.872C25.487 51.5692 25.3536 51.2275 25.0606 51.0845C23.7856 50.4636 23.1384 49.1622 23.3731 47.6886C23.7161 45.5372 25.8314 43.7664 28.0884 43.7414H28.1092C28.1175 43.7414 28.1245 43.7414 28.1328 43.7414C28.1578 43.7414 28.1828 43.7414 28.2064 43.7428C28.2106 43.7428 28.2148 43.7428 28.2189 43.7428C28.8536 43.7595 29.4314 43.9164 29.937 44.2081C30.4398 44.497 30.8439 44.9164 31.1092 45.4192C31.2467 45.6817 31.3453 45.965 31.4036 46.2608C31.4495 46.4872 31.4703 46.7206 31.4661 46.9567C31.4606 47.2928 31.5842 47.6081 31.8147 47.8428C32.0495 48.0817 32.3717 48.2136 32.7231 48.2136C33.5203 48.2136 34.2023 47.5553 34.2134 46.7761C34.2203 46.2678 34.1647 45.772 34.0495 45.3025C33.9536 44.9178 33.8217 44.5525 33.6564 44.2136C33.6523 44.2025 33.6467 44.1928 33.6425 44.1831C32.7328 42.3359 30.8703 41.172 28.6606 41.0692C28.6592 41.0692 28.6578 41.0692 28.6564 41.0692C28.5481 41.0664 28.4411 41.0664 28.3384 41.0664Z" fill="#F9FAFB"/>
</svg>
