<svg width="56" height="56" viewBox="0 0 56 56" fill="none" xmlns="http://www.w3.org/2000/svg">
<rect width="56" height="56" rx="8" fill="#E7F6EC"/>
<path fill-rule="evenodd" clip-rule="evenodd" d="M22.8666 23.0921C22.3575 22.5036 21.6116 22.1322 20.7803 22.1322L19.9004 22.1322C19.689 22.1321 19.5072 22.132 19.3425 22.1485C17.76 22.3071 16.5079 23.5806 16.352 25.1903C16.3358 25.3578 16.3359 25.5427 16.3359 25.7578V34.3287C16.3359 34.5437 16.3358 34.7286 16.352 34.8961C16.5079 36.5058 17.76 37.7794 19.3425 37.9379C19.5072 37.9544 19.689 37.9543 19.9004 37.9542L20.7803 37.9542C21.6919 37.9542 22.5009 37.5076 23.0073 36.8178L25.3121 38.2831C25.7593 38.5681 26.1553 38.8204 26.6097 38.953C27.0642 39.0856 27.5314 39.085 28.0592 39.0844L32.5834 39.0845C33.27 39.0855 33.8788 39.0864 34.4509 38.8677C35.0229 38.6491 35.4806 38.2407 35.9966 37.7801L37.7717 36.2L37.899 36.087C38.5194 35.5367 39.0704 35.048 39.371 34.3741C39.6717 33.7001 39.6705 32.9565 39.6691 32.1193L39.6689 31.9474L39.6689 30.3916C39.669 29.4569 39.669 28.6512 39.5886 28.0025C39.5028 27.3094 39.31 26.6398 38.8102 26.0766C38.7339 25.9905 38.6533 25.9086 38.5688 25.8309C38.015 25.3226 37.3567 25.1265 36.6753 25.0392C36.0375 24.9575 35.2455 24.9575 34.3265 24.9576L34.1134 24.9576C33.3984 24.9576 32.9709 24.9553 32.675 24.9167L32.6487 24.9131L32.6573 24.8875C32.7557 24.601 32.9449 24.2112 33.2646 23.5606L34.108 21.845L34.1198 21.8209C34.9311 20.1527 34.2686 18.1312 32.6356 17.2917L32.6119 17.2796L32.595 17.2711C31.3946 16.6655 29.9544 16.8499 28.939 17.7392L22.8666 23.0921ZM30.3889 19.452C30.7274 19.1556 31.2075 19.0941 31.6076 19.296L31.6181 19.3013L31.6332 19.309C32.1776 19.5889 32.3984 20.2627 32.128 20.8187L31.2475 22.61C30.9672 23.18 30.7106 23.7018 30.5594 24.1422C30.4006 24.6046 30.2693 25.2167 30.5357 25.8485C30.6225 26.0544 30.7389 26.246 30.8812 26.4171C31.3176 26.942 31.9146 27.0963 32.3922 27.1586C32.8471 27.218 33.4207 27.2179 34.0472 27.2179L34.2584 27.2179C35.2648 27.2179 35.9152 27.22 36.3975 27.2818C36.852 27.34 36.9994 27.435 37.08 27.509C37.1082 27.5349 37.1351 27.5622 37.1605 27.5909C37.2332 27.6728 37.3266 27.8228 37.3839 28.285C37.4446 28.7756 37.4467 29.4371 37.4467 30.4608V31.9474C37.4467 33.059 37.4235 33.2695 37.3474 33.4401C37.2713 33.6107 37.1308 33.767 36.3084 34.499L34.6385 35.9852C33.9557 36.5929 33.8145 36.6964 33.6693 36.7519C33.5241 36.8074 33.3509 36.8241 32.4435 36.8241H28.166C27.4717 36.8241 27.338 36.814 27.2223 36.7803C27.1067 36.7465 26.9881 36.683 26.3993 36.3087L23.5581 34.5025V25.4736L30.3889 19.452ZM20.7803 24.3925C21.0872 24.3925 21.3359 24.6455 21.3359 24.9576V35.1289C21.3359 35.4409 21.0872 35.6939 20.7803 35.6939H19.947C19.6626 35.6939 19.601 35.6926 19.5603 35.6885C19.0328 35.6357 18.6155 35.2111 18.5635 34.6746C18.5595 34.6332 18.5581 34.5705 18.5581 34.2813V25.8052C18.5581 25.5159 18.5595 25.4532 18.5635 25.4119C18.6155 24.8753 19.0328 24.4508 19.5603 24.3979C19.601 24.3939 19.6626 24.3925 19.947 24.3925H20.7803Z" fill="#15AD07"/>
</svg>
