<svg width="257" height="25" viewBox="0 0 257 25" fill="none" xmlns="http://www.w3.org/2000/svg">
<rect y="12.2832" width="257" height="1" fill="#F0F2F5"/>
<rect width="34" height="17" transform="translate(111.5 3.7832)" fill="white"/>
<path d="M128.61 12.4196C128.61 13.3599 128.434 14.1653 128.082 14.8358C127.732 15.5034 127.255 16.0147 126.65 16.3699C126.048 16.725 125.365 16.9025 124.6 16.9025C123.836 16.9025 123.151 16.725 122.546 16.3699C121.944 16.0119 121.467 15.4991 121.115 14.8315C120.765 14.161 120.59 13.3571 120.59 12.4196C120.59 11.4792 120.765 10.6752 121.115 10.0076C121.467 9.33718 121.944 8.8244 122.546 8.46928C123.151 8.11417 123.836 7.93661 124.6 7.93661C125.365 7.93661 126.048 8.11417 126.65 8.46928C127.255 8.8244 127.732 9.33718 128.082 10.0076C128.434 10.6752 128.61 11.4792 128.61 12.4196ZM127.021 12.4196C127.021 11.7576 126.917 11.1994 126.71 10.7449C126.505 10.2875 126.221 9.94229 125.857 9.70934C125.494 9.47354 125.075 9.35565 124.6 9.35565C124.126 9.35565 123.707 9.47354 123.343 9.70934C122.98 9.94229 122.694 10.2875 122.487 10.7449C122.282 11.1994 122.18 11.7576 122.18 12.4196C122.18 13.0815 122.282 13.6412 122.487 14.0985C122.694 14.5531 122.98 14.8983 123.343 15.1341C123.707 15.367 124.126 15.4835 124.6 15.4835C125.075 15.4835 125.494 15.367 125.857 15.1341C126.221 14.8983 126.505 14.5531 126.71 14.0985C126.917 13.6412 127.021 13.0815 127.021 12.4196ZM130.105 16.7832V8.05593H133.378C134.048 8.05593 134.611 8.17241 135.065 8.40536C135.523 8.63832 135.868 8.96502 136.101 9.38548C136.336 9.80309 136.454 10.2903 136.454 10.8471C136.454 11.4068 136.335 11.8926 136.096 12.3045C135.861 12.7136 135.513 13.0304 135.052 13.2548C134.592 13.4764 134.027 13.5872 133.356 13.5872H131.025V12.2747H133.143C133.535 12.2747 133.856 12.2207 134.106 12.1127C134.356 12.002 134.541 11.8414 134.66 11.6312C134.782 11.4181 134.844 11.1568 134.844 10.8471C134.844 10.5375 134.782 10.2733 134.66 10.0545C134.538 9.83292 134.352 9.66531 134.102 9.55167C133.852 9.43519 133.53 9.37695 133.135 9.37695H131.686V16.7832H130.105ZM134.613 12.8287L136.774 16.7832H135.01L132.888 12.8287H134.613Z" fill="#98A2B3"/>
</svg>
