<svg width="56" height="56" viewBox="0 0 56 56" fill="none" xmlns="http://www.w3.org/2000/svg">
<rect width="56" height="56" rx="8" fill="#FEF6E7"/>
<path fill-rule="evenodd" clip-rule="evenodd" d="M22.1641 22.1673C22.1641 18.9457 24.7757 16.334 27.9974 16.334C31.2191 16.334 33.8307 18.9457 33.8307 22.1673C33.8307 25.389 31.2191 28.0007 27.9974 28.0007C24.7757 28.0007 22.1641 25.389 22.1641 22.1673ZM27.9974 18.6673C26.0644 18.6673 24.4974 20.2343 24.4974 22.1673C24.4974 24.1003 26.0644 25.6673 27.9974 25.6673C29.9304 25.6673 31.4974 24.1003 31.4974 22.1673C31.4974 20.2343 29.9304 18.6673 27.9974 18.6673Z" fill="#F3A218"/>
<path fill-rule="evenodd" clip-rule="evenodd" d="M21.6454 39.5709C23.5989 40.4259 26.2001 40.834 27.9974 40.834C29.7946 40.834 32.3959 40.4259 34.3494 39.5709C35.3084 39.1512 36.2837 38.5505 36.8503 37.681C37.1484 37.2237 37.3368 36.685 37.3306 36.0836C37.3245 35.4877 37.1284 34.9167 36.7988 34.3856C35.2012 31.8105 31.9328 29.1673 27.9974 29.1673C24.062 29.1673 20.7936 31.8105 19.196 34.3856C18.8664 34.9167 18.6703 35.4877 18.6642 36.0836C18.658 36.685 18.8464 37.2237 19.1444 37.681C19.7111 38.5505 20.6864 39.1512 21.6454 39.5709ZM20.9974 36.1075C20.9983 36.0223 21.0251 35.8633 21.1787 35.6157C22.4879 33.5056 25.099 31.5007 27.9974 31.5007C30.8958 31.5007 33.5069 33.5056 34.8161 35.6157C34.9697 35.8633 34.9965 36.0223 34.9974 36.1075C34.9982 36.1872 34.9777 36.2808 34.8955 36.407C34.7016 36.7045 34.2308 37.0758 33.4138 37.4334C31.8154 38.133 29.5453 38.5007 27.9974 38.5007C26.4495 38.5007 24.1794 38.133 22.5809 37.4334C21.764 37.0758 21.2932 36.7045 21.0993 36.407C21.0171 36.2808 20.9966 36.1872 20.9974 36.1075Z" fill="#F3A218"/>
<path d="M34.9974 18.6673C34.3531 18.6673 33.8307 19.1897 33.8307 19.834C33.8307 20.4783 34.3531 21.0007 34.9974 21.0007H39.6641C40.3084 21.0007 40.8307 20.4783 40.8307 19.834C40.8307 19.1897 40.3084 18.6673 39.6641 18.6673H34.9974Z" fill="#F3A218"/>
</svg>
