<svg width="56" height="56" viewBox="0 0 56 56" fill="none" xmlns="http://www.w3.org/2000/svg">
<rect width="56" height="56" rx="8" fill="#FEF6E7"/>
<path d="M29.1693 31.5013C29.1693 30.857 28.6469 30.3346 28.0026 30.3346C27.3583 30.3346 26.8359 30.857 26.8359 31.5013V33.8346C26.8359 34.479 27.3583 35.0013 28.0026 35.0013C28.6469 35.0013 29.1693 34.479 29.1693 33.8346V31.5013Z" fill="#AD6F07"/>
<path fill-rule="evenodd" clip-rule="evenodd" d="M35.0026 22.168C35.0026 18.302 31.8686 15.168 28.0026 15.168C24.1366 15.168 21.0026 18.302 21.0026 22.168V24.5013C18.4253 24.5013 16.3359 26.5906 16.3359 29.168V36.168C16.3359 38.7453 18.4253 40.8346 21.0026 40.8346H35.0026C37.5799 40.8346 39.6693 38.7453 39.6693 36.168V29.168C39.6693 26.5906 37.5799 24.5013 35.0026 24.5013V22.168ZM23.3359 22.168C23.3359 19.5906 25.4253 17.5013 28.0026 17.5013C30.5799 17.5013 32.6693 19.5906 32.6693 22.168V24.5013H23.3359V22.168ZM18.6693 29.168C18.6693 27.8793 19.7139 26.8346 21.0026 26.8346H35.0026C36.2913 26.8346 37.3359 27.8793 37.3359 29.168V36.168C37.3359 37.4566 36.2913 38.5013 35.0026 38.5013H21.0026C19.7139 38.5013 18.6693 37.4566 18.6693 36.168V29.168Z" fill="#AD6F07"/>
</svg>
