<svg width="37" height="37" viewBox="0 0 37 37" fill="none" xmlns="http://www.w3.org/2000/svg">
<g clip-path="url(#clip0_7422_95170)">
<path fill-rule="evenodd" clip-rule="evenodd" d="M5 0.5C4.17157 0.5 3.5 1.17157 3.5 2V35C3.5 35.8284 4.17157 36.5 5 36.5H32C32.8284 36.5 33.5 35.8284 33.5 35V6.5L27.5 0.5H5Z" fill="#E4E7EC"/>
<path fill-rule="evenodd" clip-rule="evenodd" d="M27.5 0.5V6.5H33.5L27.5 0.5Z" fill="#98A2B3"/>
<rect x="2" y="15.5" width="33" height="15" rx="1.5" fill="#139D06"/>
<path d="M7.49219 27.364V18.6367H10.7649C11.4354 18.6367 11.9979 18.7617 12.4524 19.0117C12.9098 19.2617 13.255 19.6055 13.4879 20.043C13.7237 20.4776 13.8416 20.9719 13.8416 21.5259C13.8416 22.0856 13.7237 22.5827 13.4879 23.0174C13.2521 23.4521 12.9041 23.7944 12.4439 24.0444C11.9837 24.2915 11.4169 24.4151 10.7436 24.4151H8.57457V23.1154H10.5305C10.9226 23.1154 11.2436 23.0472 11.4936 22.9109C11.7436 22.7745 11.9283 22.587 12.0476 22.3484C12.1697 22.1097 12.2308 21.8356 12.2308 21.5259C12.2308 21.2163 12.1697 20.9435 12.0476 20.7077C11.9283 20.4719 11.7422 20.2887 11.4893 20.158C11.2393 20.0245 10.9169 19.9577 10.522 19.9577H9.07315V27.364H7.49219Z" fill="white"/>
<path d="M18.1722 27.364H15.2148V18.6367H18.2319C19.0984 18.6367 19.8427 18.8114 20.4648 19.1609C21.0898 19.5075 21.57 20.006 21.9052 20.6566C22.2404 21.3072 22.408 22.0856 22.408 22.9918C22.408 23.9009 22.239 24.6822 21.9009 25.3356C21.5657 25.989 21.0813 26.4904 20.4478 26.8398C19.8171 27.1893 19.0586 27.364 18.1722 27.364ZM16.7958 25.9961H18.0955C18.7035 25.9961 19.2106 25.8853 19.6168 25.6637C20.0231 25.4393 20.3285 25.1055 20.533 24.6623C20.7376 24.2163 20.8398 23.6594 20.8398 22.9918C20.8398 22.3242 20.7376 21.7702 20.533 21.3299C20.3285 20.8867 20.0259 20.5558 19.6254 20.337C19.2276 20.1154 18.7333 20.0046 18.1424 20.0046H16.7958V25.9961Z" fill="white"/>
<path d="M23.9102 27.364V18.6367H29.5011V19.962H25.4911V22.3313H29.1175V23.6566H25.4911V27.364H23.9102Z" fill="white"/>
</g>
<defs>
<clipPath id="clip0_7422_95170">
<rect width="36" height="36" fill="white" transform="translate(0.5 0.5)"/>
</clipPath>
</defs>
</svg>
