<svg width="20" height="20" viewBox="0 0 20 20" fill="none" xmlns="http://www.w3.org/2000/svg">
<path fill-rule="evenodd" clip-rule="evenodd" d="M17.4848 2.93333C16.118 1.56649 13.9019 1.56649 12.5351 2.93333L12.0087 3.45977L3.81411 11.6543C3.20212 12.2663 2.80514 13.0603 2.68274 13.9171L2.42347 15.732C2.23491 17.0519 3.36628 18.1833 4.68621 17.9947L6.50112 17.7354C7.3579 17.613 8.15187 17.216 8.76386 16.6041L16.9584 8.40952L17.4848 7.88308C18.8517 6.51624 18.8517 4.30016 17.4848 2.93333ZM16.236 6.27287L14.1453 4.1822C14.7308 3.76823 15.5464 3.82335 16.0706 4.34754C16.5948 4.87174 16.6499 5.68739 16.236 6.27287ZM12.7158 5.58109L14.8371 7.70241L7.34964 15.1898C7.04365 15.4958 6.64666 15.6943 6.21827 15.7555L4.40337 16.0148L4.66264 14.1999C4.72384 13.7715 4.92233 13.3745 5.22832 13.0685L12.7158 5.58109Z" fill="#15AD07"/>
</svg>
