<svg width="141" height="24" viewBox="0 0 141 24" fill="none" xmlns="http://www.w3.org/2000/svg">
<rect width="141" height="24" rx="12" fill="#FBEAE9"/>
<path d="M13.5678 17V6.81818H17.1971C17.9892 6.81818 18.6455 6.96236 19.1658 7.25071C19.6862 7.53906 20.0756 7.93347 20.3342 8.43395C20.5927 8.93111 20.7219 9.49124 20.7219 10.1143C20.7219 10.7408 20.591 11.3042 20.3292 11.8047C20.0707 12.3018 19.6796 12.6963 19.1559 12.9879C18.6355 13.2763 17.9809 13.4205 17.1921 13.4205H14.6964V12.1179H17.0529C17.5534 12.1179 17.9594 12.0317 18.271 11.8594C18.5825 11.6837 18.8112 11.4451 18.957 11.1435C19.1029 10.8419 19.1758 10.4988 19.1758 10.1143C19.1758 9.72988 19.1029 9.38849 18.957 9.0902C18.8112 8.7919 18.5808 8.55824 18.266 8.3892C17.9544 8.22017 17.5434 8.13565 17.033 8.13565H15.104V17H13.5678ZM25.5991 17.1541C24.8467 17.1541 24.1987 16.9934 23.6552 16.6719C23.1149 16.3471 22.6973 15.8913 22.4023 15.3047C22.1107 14.7147 21.9648 14.0237 21.9648 13.2315C21.9648 12.4493 22.1107 11.7599 22.4023 11.1634C22.6973 10.5668 23.1083 10.1011 23.6353 9.76633C24.1656 9.43158 24.7854 9.2642 25.4947 9.2642C25.9255 9.2642 26.3432 9.33546 26.7475 9.47798C27.1519 9.6205 27.5148 9.84422 27.8363 10.1491C28.1578 10.4541 28.4113 10.8501 28.5969 11.3374C28.7826 11.8213 28.8754 12.4096 28.8754 13.1023V13.6293H22.805V12.5156H27.4187C27.4187 12.1245 27.3391 11.7782 27.18 11.4766C27.021 11.1716 26.7972 10.9313 26.5089 10.7557C26.2238 10.58 25.8891 10.4922 25.5046 10.4922C25.087 10.4922 24.7224 10.5949 24.4109 10.8004C24.1026 11.0026 23.864 11.2678 23.695 11.5959C23.5292 11.9207 23.4464 12.2737 23.4464 12.6548V13.5249C23.4464 14.0353 23.5359 14.4695 23.7148 14.8274C23.8971 15.1854 24.1507 15.4588 24.4755 15.6477C24.8003 15.8333 25.1798 15.9261 25.614 15.9261C25.8957 15.9261 26.1526 15.8864 26.3846 15.8068C26.6166 15.724 26.8171 15.6013 26.9862 15.4389C27.1552 15.2765 27.2844 15.076 27.3739 14.8374L28.7809 15.0909C28.6682 15.5052 28.466 15.8681 28.1744 16.1797C27.886 16.4879 27.5231 16.7282 27.0856 16.9006C26.6514 17.0696 26.1559 17.1541 25.5991 17.1541ZM32.0112 12.4659V17H30.5247V9.36364H31.9515V10.6065H32.046C32.2217 10.2022 32.4967 9.87737 32.8713 9.6321C33.2491 9.38684 33.7247 9.2642 34.2981 9.2642C34.8185 9.2642 35.2742 9.37358 35.6653 9.59233C36.0564 9.80777 36.3597 10.1293 36.5751 10.5568C36.7905 10.9844 36.8983 11.513 36.8983 12.1428V17H35.4118V12.3217C35.4118 11.7682 35.2676 11.3357 34.9792 11.0241C34.6909 10.7093 34.2948 10.5518 33.791 10.5518C33.4463 10.5518 33.1397 10.6264 32.8713 10.7756C32.6061 10.9247 32.3957 11.1435 32.2399 11.4318C32.0874 11.7169 32.0112 12.0616 32.0112 12.4659ZM41.7505 17.1491C41.1341 17.1491 40.5839 16.9917 40.1 16.6768C39.6194 16.3587 39.2415 15.9062 38.9664 15.3196C38.6947 14.7296 38.5588 14.022 38.5588 13.1967C38.5588 12.3714 38.6963 11.6655 38.9714 11.0788C39.2498 10.4922 39.631 10.0431 40.1149 9.73153C40.5988 9.41998 41.1473 9.2642 41.7605 9.2642C42.2344 9.2642 42.6156 9.34375 42.9039 9.50284C43.1956 9.65862 43.421 9.84091 43.5801 10.0497C43.7425 10.2585 43.8684 10.4425 43.9579 10.6016H44.0474V6.81818H45.5339V17H44.0822V15.8118H43.9579C43.8684 15.9742 43.7392 16.1598 43.5701 16.3686C43.4044 16.5774 43.1757 16.7597 42.8841 16.9155C42.5924 17.0713 42.2145 17.1491 41.7505 17.1491ZM42.0787 15.8814C42.5062 15.8814 42.8675 15.7687 43.1625 15.5433C43.4608 15.3146 43.6861 14.9981 43.8386 14.5938C43.9944 14.1894 44.0723 13.7187 44.0723 13.1818C44.0723 12.6515 43.996 12.1875 43.8436 11.7898C43.6911 11.392 43.4674 11.0821 43.1724 10.8601C42.8774 10.638 42.5128 10.527 42.0787 10.527C41.6312 10.527 41.2583 10.643 40.96 10.875C40.6618 11.107 40.4364 11.4235 40.2839 11.8246C40.1348 12.2256 40.0602 12.678 40.0602 13.1818C40.0602 13.6922 40.1364 14.1513 40.2889 14.5589C40.4413 14.9666 40.6667 15.2898 40.965 15.5284C41.2666 15.7637 41.6378 15.8814 42.0787 15.8814ZM47.6555 17V9.36364H49.142V17H47.6555ZM48.4062 8.18537C48.1477 8.18537 47.9257 8.09919 47.7401 7.92685C47.5578 7.75118 47.4666 7.54238 47.4666 7.30043C47.4666 7.05516 47.5578 6.84635 47.7401 6.67401C47.9257 6.49834 48.1477 6.41051 48.4062 6.41051C48.6648 6.41051 48.8852 6.49834 49.0675 6.67401C49.2531 6.84635 49.3459 7.05516 49.3459 7.30043C49.3459 7.54238 49.2531 7.75118 49.0675 7.92685C48.8852 8.09919 48.6648 8.18537 48.4062 8.18537ZM52.6284 12.4659V17H51.1419V9.36364H52.5687V10.6065H52.6632C52.8388 10.2022 53.1139 9.87737 53.4885 9.6321C53.8663 9.38684 54.3419 9.2642 54.9153 9.2642C55.4357 9.2642 55.8914 9.37358 56.2825 9.59233C56.6736 9.80777 56.9769 10.1293 57.1923 10.5568C57.4077 10.9844 57.5154 11.513 57.5154 12.1428V17H56.0289V12.3217C56.0289 11.7682 55.8848 11.3357 55.5964 11.0241C55.3081 10.7093 54.912 10.5518 54.4082 10.5518C54.0635 10.5518 53.7569 10.6264 53.4885 10.7756C53.2233 10.9247 53.0128 11.1435 52.8571 11.4318C52.7046 11.7169 52.6284 12.0616 52.6284 12.4659ZM62.7108 20.0227C62.1042 20.0227 61.5822 19.9432 61.1447 19.7841C60.7105 19.625 60.3559 19.4145 60.0808 19.1527C59.8057 18.8909 59.6002 18.6042 59.4643 18.2926L60.742 17.7656C60.8315 17.9115 60.9508 18.0656 61.1 18.228C61.2524 18.3937 61.4579 18.5346 61.7164 18.6506C61.9783 18.7666 62.3147 18.8246 62.7257 18.8246C63.2891 18.8246 63.7548 18.687 64.1227 18.4119C64.4906 18.1402 64.6745 17.706 64.6745 17.1094V15.608H64.5801C64.4906 15.7704 64.3613 15.951 64.1923 16.1499C64.0266 16.3487 63.7979 16.5211 63.5062 16.6669C63.2145 16.8127 62.835 16.8857 62.3677 16.8857C61.7645 16.8857 61.2209 16.7448 60.737 16.4631C60.2565 16.178 59.8753 15.7588 59.5936 15.2053C59.3152 14.6484 59.176 13.964 59.176 13.152C59.176 12.34 59.3135 11.6439 59.5886 11.0639C59.867 10.4839 60.2482 10.0398 60.7321 9.73153C61.216 9.41998 61.7645 9.2642 62.3777 9.2642C62.8516 9.2642 63.2344 9.34375 63.5261 9.50284C63.8178 9.65862 64.0448 9.84091 64.2072 10.0497C64.3729 10.2585 64.5005 10.4425 64.59 10.6016H64.6994V9.36364H66.1561V17.169C66.1561 17.8253 66.0036 18.3639 65.6987 18.7848C65.3938 19.2057 64.9811 19.5173 64.4608 19.7195C63.9437 19.9216 63.3604 20.0227 62.7108 20.0227ZM62.6958 15.6527C63.1234 15.6527 63.4847 15.5533 63.7797 15.3544C64.0779 15.1522 64.3033 14.8639 64.4558 14.4893C64.6116 14.1115 64.6895 13.6591 64.6895 13.1321C64.6895 12.6184 64.6132 12.166 64.4608 11.7749C64.3083 11.3838 64.0846 11.0788 63.7896 10.8601C63.4946 10.638 63.13 10.527 62.6958 10.527C62.2484 10.527 61.8755 10.643 61.5772 10.875C61.2789 11.1037 61.0536 11.4152 60.9011 11.8097C60.752 12.2041 60.6774 12.6449 60.6774 13.1321C60.6774 13.6326 60.7536 14.0717 60.9061 14.4496C61.0585 14.8274 61.2839 15.1224 61.5822 15.3345C61.8838 15.5466 62.255 15.6527 62.6958 15.6527ZM74.0771 17.169C73.5932 17.169 73.1557 17.0795 72.7646 16.9006C72.3735 16.7183 72.0636 16.4548 71.8349 16.1101C71.6095 15.7654 71.4968 15.3428 71.4968 14.8423C71.4968 14.4115 71.5797 14.0568 71.7454 13.7784C71.9111 13.5 72.1348 13.2796 72.4165 13.1172C72.6983 12.9548 73.0131 12.8321 73.3612 12.7493C73.7092 12.6664 74.0638 12.6035 74.4251 12.5604C74.8825 12.5073 75.2537 12.4643 75.5387 12.4311C75.8237 12.3946 76.0309 12.3366 76.1602 12.2571C76.2894 12.1776 76.354 12.0483 76.354 11.8693V11.8345C76.354 11.4003 76.2314 11.0639 75.9862 10.8253C75.7442 10.5866 75.3829 10.4673 74.9023 10.4673C74.4019 10.4673 74.0075 10.5784 73.7191 10.8004C73.4341 11.0192 73.2369 11.2628 73.1275 11.5312L71.7305 11.2131C71.8962 10.7491 72.1381 10.3745 72.4563 10.0895C72.7778 9.80114 73.1474 9.59233 73.565 9.46307C73.9826 9.33049 74.4218 9.2642 74.8825 9.2642C75.1874 9.2642 75.5105 9.30066 75.8519 9.37358C76.1966 9.44318 76.5181 9.57244 76.8164 9.76136C77.118 9.95028 77.3649 10.2204 77.5572 10.5717C77.7494 10.9197 77.8455 11.3722 77.8455 11.929V17H76.3938V15.956H76.3342C76.238 16.1482 76.0939 16.3371 75.9016 16.5227C75.7094 16.7083 75.4625 16.8625 75.1609 16.9851C74.8593 17.1077 74.498 17.169 74.0771 17.169ZM74.4002 15.9759C74.8112 15.9759 75.1625 15.8946 75.4542 15.7322C75.7492 15.5698 75.9729 15.3577 76.1254 15.0959C76.2811 14.8307 76.359 14.5473 76.359 14.2457V13.2614C76.306 13.3144 76.2032 13.3641 76.0508 13.4105C75.9016 13.4536 75.7309 13.4917 75.5387 13.5249C75.3465 13.5547 75.1592 13.5829 74.9769 13.6094C74.7946 13.6326 74.6422 13.6525 74.5195 13.669C74.2312 13.7055 73.9677 13.7668 73.729 13.853C73.4937 13.9392 73.3048 14.0634 73.1623 14.2259C73.0231 14.3849 72.9535 14.5971 72.9535 14.8622C72.9535 15.2301 73.0894 15.5085 73.3612 15.6974C73.6329 15.883 73.9793 15.9759 74.4002 15.9759ZM79.8255 19.8636V9.36364H81.2772V10.6016H81.4015C81.4876 10.4425 81.6119 10.2585 81.7743 10.0497C81.9367 9.84091 82.1621 9.65862 82.4505 9.50284C82.7388 9.34375 83.12 9.2642 83.5939 9.2642C84.2104 9.2642 84.7606 9.41998 85.2445 9.73153C85.7284 10.0431 86.1079 10.4922 86.383 11.0788C86.6614 11.6655 86.8006 12.3714 86.8006 13.1967C86.8006 14.022 86.6631 14.7296 86.388 15.3196C86.1129 15.9062 85.735 16.3587 85.2544 16.6768C84.7739 16.9917 84.2253 17.1491 83.6088 17.1491C83.1448 17.1491 82.7653 17.0713 82.4703 16.9155C82.1787 16.7597 81.95 16.5774 81.7843 16.3686C81.6185 16.1598 81.4909 15.9742 81.4015 15.8118H81.312V19.8636H79.8255ZM81.2821 13.1818C81.2821 13.7187 81.36 14.1894 81.5158 14.5938C81.6716 14.9981 81.897 15.3146 82.1919 15.5433C82.4869 15.7687 82.8482 15.8814 83.2757 15.8814C83.7199 15.8814 84.0911 15.7637 84.3894 15.5284C84.6877 15.2898 84.9131 14.9666 85.0655 14.5589C85.2213 14.1513 85.2992 13.6922 85.2992 13.1818C85.2992 12.678 85.223 12.2256 85.0705 11.8246C84.9213 11.4235 84.696 11.107 84.3944 10.875C84.0961 10.643 83.7232 10.527 83.2757 10.527C82.8449 10.527 82.4803 10.638 82.182 10.8601C81.887 11.0821 81.6633 11.392 81.5108 11.7898C81.3584 12.1875 81.2821 12.6515 81.2821 13.1818ZM88.4661 19.8636V9.36364H89.9178V10.6016H90.0421C90.1283 10.4425 90.2525 10.2585 90.415 10.0497C90.5774 9.84091 90.8027 9.65862 91.0911 9.50284C91.3794 9.34375 91.7606 9.2642 92.2346 9.2642C92.851 9.2642 93.4012 9.41998 93.8851 9.73153C94.369 10.0431 94.7485 10.4922 95.0236 11.0788C95.302 11.6655 95.4412 12.3714 95.4412 13.1967C95.4412 14.022 95.3037 14.7296 95.0286 15.3196C94.7535 15.9062 94.3757 16.3587 93.8951 16.6768C93.4145 16.9917 92.8659 17.1491 92.2495 17.1491C91.7855 17.1491 91.406 17.0713 91.111 16.9155C90.8193 16.7597 90.5906 16.5774 90.4249 16.3686C90.2592 16.1598 90.1316 15.9742 90.0421 15.8118H89.9526V19.8636H88.4661ZM89.9228 13.1818C89.9228 13.7187 90.0007 14.1894 90.1564 14.5938C90.3122 14.9981 90.5376 15.3146 90.8326 15.5433C91.1275 15.7687 91.4888 15.8814 91.9164 15.8814C92.3605 15.8814 92.7317 15.7637 93.03 15.5284C93.3283 15.2898 93.5537 14.9666 93.7061 14.5589C93.8619 14.1513 93.9398 13.6922 93.9398 13.1818C93.9398 12.678 93.8636 12.2256 93.7111 11.8246C93.562 11.4235 93.3366 11.107 93.035 10.875C92.7367 10.643 92.3638 10.527 91.9164 10.527C91.4855 10.527 91.1209 10.638 90.8226 10.8601C90.5276 11.0821 90.3039 11.392 90.1515 11.7898C89.999 12.1875 89.9228 12.6515 89.9228 13.1818ZM97.1067 17V9.36364H98.5435V10.5767H98.623C98.7623 10.1657 99.0075 9.84257 99.3588 9.60724C99.7135 9.36861 100.115 9.24929 100.562 9.24929C100.655 9.24929 100.764 9.2526 100.89 9.25923C101.019 9.26586 101.12 9.27415 101.193 9.28409V10.706C101.134 10.6894 101.028 10.6712 100.875 10.6513C100.723 10.6281 100.57 10.6165 100.418 10.6165C100.066 10.6165 99.7533 10.6911 99.4782 10.8402C99.2064 10.986 98.9909 11.1899 98.8319 11.4517C98.6728 11.7102 98.5932 12.0052 98.5932 12.3366V17H97.1067ZM105.423 17.1541C104.707 17.1541 104.082 16.9901 103.549 16.6619C103.015 16.3338 102.601 15.8748 102.306 15.2848C102.011 14.6948 101.863 14.0054 101.863 13.2166C101.863 12.4245 102.011 11.7318 102.306 11.1385C102.601 10.5452 103.015 10.0845 103.549 9.75639C104.082 9.42827 104.707 9.2642 105.423 9.2642C106.139 9.2642 106.764 9.42827 107.297 9.75639C107.831 10.0845 108.245 10.5452 108.54 11.1385C108.835 11.7318 108.983 12.4245 108.983 13.2166C108.983 14.0054 108.835 14.6948 108.54 15.2848C108.245 15.8748 107.831 16.3338 107.297 16.6619C106.764 16.9901 106.139 17.1541 105.423 17.1541ZM105.428 15.9062C105.892 15.9062 106.276 15.7836 106.581 15.5384C106.886 15.2931 107.112 14.9666 107.257 14.5589C107.407 14.1513 107.481 13.7022 107.481 13.2116C107.481 12.7244 107.407 12.277 107.257 11.8693C107.112 11.4583 106.886 11.1286 106.581 10.88C106.276 10.6314 105.892 10.5071 105.428 10.5071C104.961 10.5071 104.573 10.6314 104.265 10.88C103.96 11.1286 103.733 11.4583 103.583 11.8693C103.438 12.277 103.365 12.7244 103.365 13.2116C103.365 13.7022 103.438 14.1513 103.583 14.5589C103.733 14.9666 103.96 15.2931 104.265 15.5384C104.573 15.7836 104.961 15.9062 105.428 15.9062ZM116.915 9.36364L114.146 17H112.555L109.781 9.36364H111.376L113.31 15.2401H113.39L115.319 9.36364H116.915ZM120.315 17.169C119.831 17.169 119.394 17.0795 119.003 16.9006C118.612 16.7183 118.302 16.4548 118.073 16.1101C117.848 15.7654 117.735 15.3428 117.735 14.8423C117.735 14.4115 117.818 14.0568 117.984 13.7784C118.149 13.5 118.373 13.2796 118.655 13.1172C118.937 12.9548 119.251 12.8321 119.599 12.7493C119.947 12.6664 120.302 12.6035 120.663 12.5604C121.121 12.5073 121.492 12.4643 121.777 12.4311C122.062 12.3946 122.269 12.3366 122.398 12.2571C122.528 12.1776 122.592 12.0483 122.592 11.8693V11.8345C122.592 11.4003 122.47 11.0639 122.224 10.8253C121.982 10.5866 121.621 10.4673 121.141 10.4673C120.64 10.4673 120.246 10.5784 119.957 10.8004C119.672 11.0192 119.475 11.2628 119.366 11.5312L117.969 11.2131C118.134 10.7491 118.376 10.3745 118.695 10.0895C119.016 9.80114 119.386 9.59233 119.803 9.46307C120.221 9.33049 120.66 9.2642 121.121 9.2642C121.426 9.2642 121.749 9.30066 122.09 9.37358C122.435 9.44318 122.756 9.57244 123.055 9.76136C123.356 9.95028 123.603 10.2204 123.795 10.5717C123.988 10.9197 124.084 11.3722 124.084 11.929V17H122.632V15.956H122.572C122.476 16.1482 122.332 16.3371 122.14 16.5227C121.948 16.7083 121.701 16.8625 121.399 16.9851C121.098 17.1077 120.736 17.169 120.315 17.169ZM120.638 15.9759C121.049 15.9759 121.401 15.8946 121.692 15.7322C121.987 15.5698 122.211 15.3577 122.364 15.0959C122.519 14.8307 122.597 14.5473 122.597 14.2457V13.2614C122.544 13.3144 122.442 13.3641 122.289 13.4105C122.14 13.4536 121.969 13.4917 121.777 13.5249C121.585 13.5547 121.397 13.5829 121.215 13.6094C121.033 13.6326 120.88 13.6525 120.758 13.669C120.469 13.7055 120.206 13.7668 119.967 13.853C119.732 13.9392 119.543 14.0634 119.401 14.2259C119.261 14.3849 119.192 14.5971 119.192 14.8622C119.192 15.2301 119.328 15.5085 119.599 15.6974C119.871 15.883 120.218 15.9759 120.638 15.9759ZM127.55 6.81818V17H126.064V6.81818H127.55Z" fill="#D42620"/>
</svg>
