<svg width="79" height="24" viewBox="0 0 79 24" fill="none" xmlns="http://www.w3.org/2000/svg">
<rect width="79" height="24" rx="12" fill="#F0F2F5"/>
<path d="M13.268 17V6.81818H16.8973C17.6894 6.81818 18.3457 6.96236 18.866 7.25071C19.3864 7.53906 19.7758 7.93347 20.0344 8.43395C20.2929 8.93111 20.4221 9.49124 20.4221 10.1143C20.4221 10.7408 20.2912 11.3042 20.0294 11.8047C19.7709 12.3018 19.3798 12.6963 18.8561 12.9879C18.3357 13.2763 17.6811 13.4205 16.8923 13.4205H14.3966V12.1179H16.7531C17.2536 12.1179 17.6596 12.0317 17.9711 11.8594C18.2827 11.6837 18.5114 11.4451 18.6572 11.1435C18.8031 10.8419 18.876 10.4988 18.876 10.1143C18.876 9.72988 18.8031 9.38849 18.6572 9.0902C18.5114 8.7919 18.281 8.55824 17.9662 8.3892C17.6546 8.22017 17.2436 8.13565 16.7332 8.13565H14.8042V17H13.268ZM25.2993 17.1541C24.5469 17.1541 23.8989 16.9934 23.3554 16.6719C22.8151 16.3471 22.3975 15.8913 22.1025 15.3047C21.8109 14.7147 21.665 14.0237 21.665 13.2315C21.665 12.4493 21.8109 11.7599 22.1025 11.1634C22.3975 10.5668 22.8085 10.1011 23.3355 9.76633C23.8658 9.43158 24.4856 9.2642 25.1949 9.2642C25.6257 9.2642 26.0434 9.33546 26.4477 9.47798C26.8521 9.6205 27.215 9.84422 27.5365 10.1491C27.858 10.4541 28.1115 10.8501 28.2971 11.3374C28.4827 11.8213 28.5756 12.4096 28.5756 13.1023V13.6293H22.5052V12.5156H27.1189C27.1189 12.1245 27.0393 11.7782 26.8802 11.4766C26.7211 11.1716 26.4974 10.9313 26.2091 10.7557C25.924 10.58 25.5893 10.4922 25.2048 10.4922C24.7872 10.4922 24.4226 10.5949 24.1111 10.8004C23.8028 11.0026 23.5642 11.2678 23.3952 11.5959C23.2294 11.9207 23.1466 12.2737 23.1466 12.6548V13.5249C23.1466 14.0353 23.2361 14.4695 23.415 14.8274C23.5973 15.1854 23.8509 15.4588 24.1757 15.6477C24.5005 15.8333 24.88 15.9261 25.3142 15.9261C25.5959 15.9261 25.8528 15.8864 26.0848 15.8068C26.3168 15.724 26.5173 15.6013 26.6863 15.4389C26.8554 15.2765 26.9846 15.076 27.0741 14.8374L28.4811 15.0909C28.3684 15.5052 28.1662 15.8681 27.8746 16.1797C27.5862 16.4879 27.2233 16.7282 26.7858 16.9006C26.3516 17.0696 25.8561 17.1541 25.2993 17.1541ZM31.7114 12.4659V17H30.2249V9.36364H31.6517V10.6065H31.7462C31.9218 10.2022 32.1969 9.87737 32.5715 9.6321C32.9493 9.38684 33.4249 9.2642 33.9983 9.2642C34.5187 9.2642 34.9744 9.37358 35.3655 9.59233C35.7566 9.80777 36.0599 10.1293 36.2753 10.5568C36.4907 10.9844 36.5985 11.513 36.5985 12.1428V17H35.1119V12.3217C35.1119 11.7682 34.9678 11.3357 34.6794 11.0241C34.3911 10.7093 33.995 10.5518 33.4912 10.5518C33.1465 10.5518 32.8399 10.6264 32.5715 10.7756C32.3063 10.9247 32.0959 11.1435 31.9401 11.4318C31.7876 11.7169 31.7114 12.0616 31.7114 12.4659ZM41.4507 17.1491C40.8343 17.1491 40.2841 16.9917 39.8002 16.6768C39.3196 16.3587 38.9417 15.9062 38.6666 15.3196C38.3949 14.7296 38.259 14.022 38.259 13.1967C38.259 12.3714 38.3965 11.6655 38.6716 11.0788C38.95 10.4922 39.3312 10.0431 39.8151 9.73153C40.299 9.41998 40.8475 9.2642 41.4607 9.2642C41.9346 9.2642 42.3158 9.34375 42.6041 9.50284C42.8958 9.65862 43.1212 9.84091 43.2803 10.0497C43.4427 10.2585 43.5686 10.4425 43.6581 10.6016H43.7476V6.81818H45.2341V17H43.7824V15.8118H43.6581C43.5686 15.9742 43.4394 16.1598 43.2703 16.3686C43.1046 16.5774 42.8759 16.7597 42.5843 16.9155C42.2926 17.0713 41.9147 17.1491 41.4507 17.1491ZM41.7789 15.8814C42.2064 15.8814 42.5677 15.7687 42.8627 15.5433C43.161 15.3146 43.3863 14.9981 43.5388 14.5938C43.6946 14.1894 43.7725 13.7187 43.7725 13.1818C43.7725 12.6515 43.6962 12.1875 43.5438 11.7898C43.3913 11.392 43.1676 11.0821 42.8726 10.8601C42.5776 10.638 42.213 10.527 41.7789 10.527C41.3314 10.527 40.9585 10.643 40.6602 10.875C40.3619 11.107 40.1366 11.4235 39.9841 11.8246C39.835 12.2256 39.7604 12.678 39.7604 13.1818C39.7604 13.6922 39.8366 14.1513 39.9891 14.5589C40.1415 14.9666 40.3669 15.2898 40.6652 15.5284C40.9668 15.7637 41.338 15.8814 41.7789 15.8814ZM47.3557 17V9.36364H48.8422V17H47.3557ZM48.1064 8.18537C47.8479 8.18537 47.6259 8.09919 47.4403 7.92685C47.258 7.75118 47.1668 7.54238 47.1668 7.30043C47.1668 7.05516 47.258 6.84635 47.4403 6.67401C47.6259 6.49834 47.8479 6.41051 48.1064 6.41051C48.365 6.41051 48.5854 6.49834 48.7677 6.67401C48.9533 6.84635 49.0461 7.05516 49.0461 7.30043C49.0461 7.54238 48.9533 7.75118 48.7677 7.92685C48.5854 8.09919 48.365 8.18537 48.1064 8.18537ZM52.3286 12.4659V17H50.8421V9.36364H52.2689V10.6065H52.3634C52.539 10.2022 52.8141 9.87737 53.1887 9.6321C53.5665 9.38684 54.0421 9.2642 54.6155 9.2642C55.1359 9.2642 55.5916 9.37358 55.9827 9.59233C56.3738 9.80777 56.6771 10.1293 56.8925 10.5568C57.1079 10.9844 57.2156 11.513 57.2156 12.1428V17H55.7291V12.3217C55.7291 11.7682 55.585 11.3357 55.2966 11.0241C55.0083 10.7093 54.6122 10.5518 54.1084 10.5518C53.7637 10.5518 53.4571 10.6264 53.1887 10.7756C52.9235 10.9247 52.713 11.1435 52.5573 11.4318C52.4048 11.7169 52.3286 12.0616 52.3286 12.4659ZM62.411 20.0227C61.8044 20.0227 61.2824 19.9432 60.8449 19.7841C60.4107 19.625 60.0561 19.4145 59.781 19.1527C59.5059 18.8909 59.3004 18.6042 59.1645 18.2926L60.4422 17.7656C60.5317 17.9115 60.651 18.0656 60.8002 18.228C60.9526 18.3937 61.1581 18.5346 61.4166 18.6506C61.6785 18.7666 62.0149 18.8246 62.4259 18.8246C62.9893 18.8246 63.455 18.687 63.8229 18.4119C64.1908 18.1402 64.3747 17.706 64.3747 17.1094V15.608H64.2803C64.1908 15.7704 64.0615 15.951 63.8925 16.1499C63.7268 16.3487 63.4981 16.5211 63.2064 16.6669C62.9147 16.8127 62.5352 16.8857 62.0679 16.8857C61.4647 16.8857 60.9211 16.7448 60.4372 16.4631C59.9566 16.178 59.5755 15.7588 59.2938 15.2053C59.0154 14.6484 58.8762 13.964 58.8762 13.152C58.8762 12.34 59.0137 11.6439 59.2888 11.0639C59.5672 10.4839 59.9484 10.0398 60.4323 9.73153C60.9162 9.41998 61.4647 9.2642 62.0779 9.2642C62.5518 9.2642 62.9346 9.34375 63.2263 9.50284C63.518 9.65862 63.745 9.84091 63.9074 10.0497C64.0731 10.2585 64.2007 10.4425 64.2902 10.6016H64.3996V9.36364H65.8563V17.169C65.8563 17.8253 65.7038 18.3639 65.3989 18.7848C65.094 19.2057 64.6813 19.5173 64.161 19.7195C63.6439 19.9216 63.0606 20.0227 62.411 20.0227ZM62.396 15.6527C62.8236 15.6527 63.1849 15.5533 63.4798 15.3544C63.7781 15.1522 64.0035 14.8639 64.156 14.4893C64.3118 14.1115 64.3896 13.6591 64.3896 13.1321C64.3896 12.6184 64.3134 12.166 64.161 11.7749C64.0085 11.3838 63.7848 11.0788 63.4898 10.8601C63.1948 10.638 62.8302 10.527 62.396 10.527C61.9486 10.527 61.5757 10.643 61.2774 10.875C60.9791 11.1037 60.7538 11.4152 60.6013 11.8097C60.4521 12.2041 60.3776 12.6449 60.3776 13.1321C60.3776 13.6326 60.4538 14.0717 60.6063 14.4496C60.7587 14.8274 60.9841 15.1224 61.2824 15.3345C61.584 15.5466 61.9552 15.6527 62.396 15.6527Z" fill="#344054"/>
</svg>
