<svg width="37" height="37" viewBox="0 0 37 37" fill="none" xmlns="http://www.w3.org/2000/svg">
<g clip-path="url(#clip0_7422_95180)">
<path fill-rule="evenodd" clip-rule="evenodd" d="M5 0.5C4.17157 0.5 3.5 1.17157 3.5 2V35C3.5 35.8284 4.17157 36.5 5 36.5H32C32.8284 36.5 33.5 35.8284 33.5 35V6.5L27.5 0.5H5Z" fill="#E4E7EC"/>
<path fill-rule="evenodd" clip-rule="evenodd" d="M27.5 0.5V6.5H33.5L27.5 0.5Z" fill="#98A2B3"/>
<rect x="2" y="15.5" width="33" height="15" rx="1.5" fill="#003D30"/>
<path d="M6.5229 27.5V18.7727H9.79563C10.4661 18.7727 11.0286 18.8977 11.4831 19.1477C11.9405 19.3977 12.2857 19.7415 12.5186 20.179C12.7544 20.6136 12.8723 21.108 12.8723 21.6619C12.8723 22.2216 12.7544 22.7187 12.5186 23.1534C12.2828 23.5881 11.9348 23.9304 11.4746 24.1804C11.0144 24.4276 10.4476 24.5511 9.77433 24.5511H7.60529V23.2514H9.56126C9.9533 23.2514 10.2743 23.1832 10.5243 23.0469C10.7743 22.9105 10.959 22.723 11.0783 22.4844C11.2005 22.2457 11.2615 21.9716 11.2615 21.6619C11.2615 21.3523 11.2005 21.0795 11.0783 20.8438C10.959 20.608 10.7729 20.4247 10.5201 20.294C10.2701 20.1605 9.94762 20.0938 9.55273 20.0938H8.10387V27.5H6.5229ZM21.4174 18.7727V27.5H20.0112L15.899 21.5554H15.8265V27.5H14.2456V18.7727H15.6603L19.7683 24.7216H19.845V18.7727H21.4174ZM28.9867 21.5597C28.9157 21.3295 28.8176 21.1236 28.6926 20.9418C28.5705 20.7571 28.4228 20.5994 28.2495 20.4688C28.079 20.3381 27.883 20.2401 27.6614 20.1747C27.4398 20.1065 27.1983 20.0724 26.937 20.0724C26.4682 20.0724 26.0506 20.1903 25.6841 20.4261C25.3176 20.6619 25.0293 21.0085 24.8191 21.4659C24.6117 21.9205 24.508 22.4744 24.508 23.1278C24.508 23.7869 24.6117 24.3452 24.8191 24.8026C25.0265 25.2599 25.3148 25.608 25.6841 25.8466C26.0534 26.0824 26.4824 26.2003 26.9711 26.2003C27.4142 26.2003 27.7978 26.1151 28.1216 25.9446C28.4483 25.7741 28.6998 25.5327 28.8759 25.2202C29.052 24.9048 29.1401 24.5355 29.1401 24.1122L29.498 24.1676H27.1287V22.9318H30.6699V23.9801C30.6699 24.7273 30.5108 25.3736 30.1926 25.919C29.8745 26.4645 29.437 26.8849 28.8801 27.1804C28.3233 27.473 27.6841 27.6193 26.9625 27.6193C26.1586 27.6193 25.4526 27.4389 24.8446 27.0781C24.2395 26.7145 23.7665 26.1989 23.4256 25.5312C23.0875 24.8608 22.9185 24.0653 22.9185 23.1449C22.9185 22.4403 23.0179 21.8111 23.2168 21.2571C23.4185 20.7031 23.6998 20.233 24.0605 19.8466C24.4213 19.4574 24.8446 19.1619 25.3304 18.9602C25.8162 18.7557 26.3446 18.6534 26.9157 18.6534C27.3986 18.6534 27.8489 18.7244 28.2665 18.8665C28.6841 19.0057 29.0549 19.2045 29.3787 19.4631C29.7054 19.7216 29.9739 20.0284 30.1841 20.3835C30.3944 20.7386 30.5321 21.1307 30.5975 21.5597H28.9867Z" fill="white"/>
</g>
<defs>
<clipPath id="clip0_7422_95180">
<rect width="36" height="36" fill="white" transform="translate(0.5 0.5)"/>
</clipPath>
</defs>
</svg>
