<svg width="56" height="56" viewBox="0 0 56 56" fill="none" xmlns="http://www.w3.org/2000/svg">
<rect width="56" height="56" rx="8" fill="#FEF6E7"/>
<path d="M31.1454 27.074C31.6011 26.6184 31.6011 25.8797 31.1455 25.4241C30.6898 24.9685 29.9511 24.9685 29.4955 25.4241L27.2337 27.686L26.9048 27.3571C26.4492 26.9015 25.7105 26.9015 25.2549 27.3571C24.7993 27.8127 24.7993 28.5514 25.2549 29.007L26.4087 30.1608C26.8643 30.6164 27.603 30.6164 28.0586 30.1608L31.1454 27.074Z" fill="#AD6F07"/>
<path fill-rule="evenodd" clip-rule="evenodd" d="M29.7356 16.3543C28.6216 15.9079 27.3784 15.9079 26.2644 16.3543L22.0334 18.0494C22.0203 18.0547 22.0072 18.0602 21.9942 18.066L20.1888 18.8668C18.6054 19.5692 17.4998 21.1158 17.5 22.9167C17.5002 25.2118 17.6657 29.0965 18.7447 31.7618C19.4621 33.5341 20.7543 35.0702 22.0675 36.2977C23.3902 37.5341 24.7994 38.5174 25.8359 39.1718C27.1642 40.0105 28.8358 40.0105 30.1641 39.1718C31.2006 38.5174 32.6098 37.5341 33.9325 36.2977C35.2457 35.0702 36.5379 33.5341 37.2553 31.7618C38.3343 29.0965 38.4998 25.2118 38.5 22.9167C38.5002 21.1158 37.3946 19.5692 35.8112 18.8668L34.0058 18.066C33.9928 18.0602 33.9797 18.0547 33.9666 18.0494L29.7356 16.3543ZM27.1322 18.5202C27.6892 18.2971 28.3108 18.2971 28.8678 18.5202L33.0791 20.2075L34.8651 20.9997C35.6687 21.3562 36.1667 22.1061 36.1667 22.9165C36.1665 25.2275 35.9818 28.6896 35.0925 30.8863C34.5535 32.2177 33.5285 33.4813 32.3391 34.5931C31.1592 35.696 29.8802 36.5916 28.9183 37.1989C28.3511 37.5571 27.6489 37.5571 27.0817 37.1989C26.1198 36.5916 24.8408 35.696 23.6609 34.5931C22.4715 33.4813 21.4465 32.2177 20.9075 30.8863C20.0182 28.6896 19.8335 25.2275 19.8333 22.9165C19.8333 22.1061 20.3313 21.3562 21.1349 20.9997L22.9209 20.2075L27.1322 18.5202Z" fill="#AD6F07"/>
</svg>
