<svg width="48" height="48" viewBox="0 0 48 48" fill="none" xmlns="http://www.w3.org/2000/svg">
<rect width="48" height="48" rx="8" fill="#E8F7E6"/>
<path d="M13.8085 16.5305C13.418 16.921 13.418 17.5542 13.8085 17.9447C14.199 18.3352 14.8322 18.3352 15.2227 17.9447L17.6976 15.4698C18.0881 15.0793 18.0881 14.4461 17.6976 14.0556C17.3071 13.6651 16.6739 13.6651 16.2834 14.0556L13.8085 16.5305Z" fill="#15AD07"/>
<path d="M24.0029 21C24.0029 20.4477 23.5552 20 23.0029 20C22.4506 20 22.0029 20.4477 22.0029 21V26C22.0029 26.5523 22.4506 27 23.0029 27H26.0029C26.5552 27 27.0029 26.5523 27.0029 26C27.0029 25.4477 26.5552 25 26.0029 25H24.0029V21Z" fill="#15AD07"/>
<path fill-rule="evenodd" clip-rule="evenodd" d="M24.0029 14C18.4801 14 14.0029 18.4772 14.0029 24C14.0029 29.5229 18.4801 34 24.0029 34C29.5258 34 34.0029 29.5229 34.0029 24C34.0029 18.4772 29.5258 14 24.0029 14ZM16.0029 24C16.0029 19.5817 19.5847 16 24.0029 16C28.4212 16 32.0029 19.5817 32.0029 24C32.0029 28.4183 28.4212 32 24.0029 32C19.5847 32 16.0029 28.4183 16.0029 24Z" fill="#15AD07"/>
<path d="M30.2958 14.2929C30.6863 13.9024 31.3195 13.9024 31.71 14.2929L34.1849 16.7678C34.5754 17.1583 34.5754 17.7915 34.1849 18.182C33.7944 18.5725 33.1612 18.5725 32.7707 18.182L30.2958 15.7071C29.9053 15.3166 29.9053 14.6834 30.2958 14.2929Z" fill="#15AD07"/>
</svg>
