<svg width="104" height="24" viewBox="0 0 104 24" fill="none" xmlns="http://www.w3.org/2000/svg">
<rect width="104" height="24" rx="12" fill="#E7F6EC"/>
<path d="M13.5073 17V6.81818H17.1365C17.9254 6.81818 18.58 6.95407 19.1003 7.22585C19.624 7.49763 20.0151 7.87382 20.2736 8.3544C20.5321 8.83168 20.6614 9.38352 20.6614 10.0099C20.6614 10.633 20.5305 11.1816 20.2686 11.6555C20.0101 12.1262 19.619 12.4924 19.0953 12.7543C18.575 13.0161 17.9204 13.147 17.1316 13.147H14.3823V11.8246H16.9924C17.4895 11.8246 17.8939 11.7533 18.2054 11.6108C18.5203 11.4683 18.7507 11.2611 18.8965 10.9893C19.0423 10.7176 19.1152 10.3911 19.1152 10.0099C19.1152 9.62547 19.0407 9.29238 18.8915 9.01065C18.7457 8.72893 18.5153 8.51349 18.2005 8.36435C17.8889 8.21188 17.4796 8.13565 16.9725 8.13565H15.0435V17H13.5073ZM18.5336 12.4062L21.0492 17H19.2992L16.8333 12.4062H18.5336ZM25.6069 17.1541C24.8545 17.1541 24.2066 16.9934 23.663 16.6719C23.1228 16.3471 22.7051 15.8913 22.4102 15.3047C22.1185 14.7147 21.9727 14.0237 21.9727 13.2315C21.9727 12.4493 22.1185 11.7599 22.4102 11.1634C22.7051 10.5668 23.1161 10.1011 23.6431 9.76633C24.1734 9.43158 24.7932 9.2642 25.5025 9.2642C25.9334 9.2642 26.351 9.33546 26.7553 9.47798C27.1597 9.6205 27.5226 9.84422 27.8441 10.1491C28.1656 10.4541 28.4192 10.8501 28.6048 11.3374C28.7904 11.8213 28.8832 12.4096 28.8832 13.1023V13.6293H22.8129V12.5156H27.4265C27.4265 12.1245 27.3469 11.7782 27.1879 11.4766C27.0288 11.1716 26.805 10.9313 26.5167 10.7557C26.2317 10.58 25.8969 10.4922 25.5124 10.4922C25.0948 10.4922 24.7302 10.5949 24.4187 10.8004C24.1104 11.0026 23.8718 11.2678 23.7028 11.5959C23.5371 11.9207 23.4542 12.2737 23.4542 12.6548V13.5249C23.4542 14.0353 23.5437 14.4695 23.7227 14.8274C23.9049 15.1854 24.1585 15.4588 24.4833 15.6477C24.8081 15.8333 25.1876 15.9261 25.6218 15.9261C25.9035 15.9261 26.1604 15.8864 26.3924 15.8068C26.6244 15.724 26.8249 15.6013 26.994 15.4389C27.163 15.2765 27.2923 15.076 27.3817 14.8374L28.7887 15.0909C28.676 15.5052 28.4738 15.8681 28.1822 16.1797C27.8938 16.4879 27.5309 16.7282 27.0934 16.9006C26.6592 17.0696 26.1637 17.1541 25.6069 17.1541ZM36.2548 11.228L34.9075 11.4666C34.8511 11.2943 34.7617 11.1302 34.639 10.9744C34.5197 10.8187 34.3573 10.6911 34.1518 10.5916C33.9463 10.4922 33.6895 10.4425 33.3812 10.4425C32.9603 10.4425 32.609 10.5369 32.3272 10.7259C32.0455 10.9115 31.9047 11.1518 31.9047 11.4467C31.9047 11.7019 31.9991 11.9074 32.188 12.0632C32.377 12.219 32.6819 12.3466 33.1028 12.446L34.3159 12.7244C35.0185 12.8868 35.5422 13.1371 35.8869 13.4751C36.2316 13.8132 36.4039 14.2524 36.4039 14.7926C36.4039 15.25 36.2714 15.6577 36.0062 16.0156C35.7444 16.3703 35.3781 16.6487 34.9075 16.8509C34.4402 17.053 33.8983 17.1541 33.2818 17.1541C32.4267 17.1541 31.729 16.9718 31.1887 16.6072C30.6485 16.2393 30.3171 15.7173 30.1944 15.0412L31.6312 14.8224C31.7207 15.197 31.9047 15.4804 32.1831 15.6726C32.4615 15.8615 32.8244 15.956 33.2718 15.956C33.7591 15.956 34.1485 15.8549 34.4402 15.6527C34.7318 15.4472 34.8777 15.197 34.8777 14.902C34.8777 14.6634 34.7882 14.4628 34.6092 14.3004C34.4335 14.138 34.1634 14.0154 33.7988 13.9325L32.5062 13.6491C31.7936 13.4867 31.2666 13.2282 30.9252 12.8736C30.5872 12.5189 30.4181 12.0698 30.4181 11.5263C30.4181 11.0755 30.5441 10.6811 30.796 10.343C31.0479 10.005 31.3959 9.74148 31.84 9.55256C32.2842 9.36032 32.7929 9.2642 33.3663 9.2642C34.1916 9.2642 34.8412 9.44318 35.3152 9.80114C35.7891 10.1558 36.1023 10.6314 36.2548 11.228ZM41.255 17.1541C40.5391 17.1541 39.9143 16.9901 39.3807 16.6619C38.8471 16.3338 38.4328 15.8748 38.1378 15.2848C37.8428 14.6948 37.6953 14.0054 37.6953 13.2166C37.6953 12.4245 37.8428 11.7318 38.1378 11.1385C38.4328 10.5452 38.8471 10.0845 39.3807 9.75639C39.9143 9.42827 40.5391 9.2642 41.255 9.2642C41.9709 9.2642 42.5956 9.42827 43.1293 9.75639C43.6629 10.0845 44.0772 10.5452 44.3722 11.1385C44.6671 11.7318 44.8146 12.4245 44.8146 13.2166C44.8146 14.0054 44.6671 14.6948 44.3722 15.2848C44.0772 15.8748 43.6629 16.3338 43.1293 16.6619C42.5956 16.9901 41.9709 17.1541 41.255 17.1541ZM41.2599 15.9062C41.724 15.9062 42.1084 15.7836 42.4134 15.5384C42.7183 15.2931 42.9437 14.9666 43.0895 14.5589C43.2386 14.1513 43.3132 13.7022 43.3132 13.2116C43.3132 12.7244 43.2386 12.277 43.0895 11.8693C42.9437 11.4583 42.7183 11.1286 42.4134 10.88C42.1084 10.6314 41.724 10.5071 41.2599 10.5071C40.7926 10.5071 40.4048 10.6314 40.0966 10.88C39.7917 11.1286 39.5646 11.4583 39.4155 11.8693C39.2696 12.277 39.1967 12.7244 39.1967 13.2116C39.1967 13.7022 39.2696 14.1513 39.4155 14.5589C39.5646 14.9666 39.7917 15.2931 40.0966 15.5384C40.4048 15.7836 40.7926 15.9062 41.2599 15.9062ZM47.9604 6.81818V17H46.4739V6.81818H47.9604ZM56.4929 9.36364L53.7237 17H52.1328L49.3587 9.36364H50.9545L52.8885 15.2401H52.968L54.897 9.36364H56.4929ZM60.9213 17.1541C60.169 17.1541 59.521 16.9934 58.9775 16.6719C58.4372 16.3471 58.0196 15.8913 57.7246 15.3047C57.4329 14.7147 57.2871 14.0237 57.2871 13.2315C57.2871 12.4493 57.4329 11.7599 57.7246 11.1634C58.0196 10.5668 58.4306 10.1011 58.9576 9.76633C59.4879 9.43158 60.1077 9.2642 60.8169 9.2642C61.2478 9.2642 61.6654 9.33546 62.0698 9.47798C62.4741 9.6205 62.8371 9.84422 63.1586 10.1491C63.4801 10.4541 63.7336 10.8501 63.9192 11.3374C64.1048 11.8213 64.1976 12.4096 64.1976 13.1023V13.6293H58.1273V12.5156H62.7409C62.7409 12.1245 62.6614 11.7782 62.5023 11.4766C62.3432 11.1716 62.1195 10.9313 61.8311 10.7557C61.5461 10.58 61.2114 10.4922 60.8269 10.4922C60.4093 10.4922 60.0447 10.5949 59.7331 10.8004C59.4249 11.0026 59.1863 11.2678 59.0172 11.5959C58.8515 11.9207 58.7686 12.2737 58.7686 12.6548V13.5249C58.7686 14.0353 58.8581 14.4695 59.0371 14.8274C59.2194 15.1854 59.473 15.4588 59.7978 15.6477C60.1226 15.8333 60.5021 15.9261 60.9363 15.9261C61.218 15.9261 61.4748 15.8864 61.7069 15.8068C61.9389 15.724 62.1394 15.6013 62.3084 15.4389C62.4775 15.2765 62.6067 15.076 62.6962 14.8374L64.1032 15.0909C63.9905 15.5052 63.7883 15.8681 63.4966 16.1797C63.2083 16.4879 62.8453 16.7282 62.4078 16.9006C61.9737 17.0696 61.4782 17.1541 60.9213 17.1541ZM68.7056 17.1491C68.0891 17.1491 67.5389 16.9917 67.055 16.6768C66.5745 16.3587 66.1966 15.9062 65.9215 15.3196C65.6497 14.7296 65.5138 14.022 65.5138 13.1967C65.5138 12.3714 65.6514 11.6655 65.9265 11.0788C66.2049 10.4922 66.5861 10.0431 67.07 9.73153C67.5539 9.41998 68.1024 9.2642 68.7156 9.2642C69.1895 9.2642 69.5707 9.34375 69.859 9.50284C70.1507 9.65862 70.3761 9.84091 70.5352 10.0497C70.6976 10.2585 70.8235 10.4425 70.913 10.6016H71.0025V6.81818H72.489V17H71.0373V15.8118H70.913C70.8235 15.9742 70.6942 16.1598 70.5252 16.3686C70.3595 16.5774 70.1308 16.7597 69.8391 16.9155C69.5475 17.0713 69.1696 17.1491 68.7056 17.1491ZM69.0337 15.8814C69.4613 15.8814 69.8226 15.7687 70.1175 15.5433C70.4158 15.3146 70.6412 14.9981 70.7937 14.5938C70.9495 14.1894 71.0273 13.7187 71.0273 13.1818C71.0273 12.6515 70.9511 12.1875 70.7987 11.7898C70.6462 11.392 70.4225 11.0821 70.1275 10.8601C69.8325 10.638 69.4679 10.527 69.0337 10.527C68.5863 10.527 68.2134 10.643 67.9151 10.875C67.6168 11.107 67.3915 11.4235 67.239 11.8246C67.0898 12.2256 67.0153 12.678 67.0153 13.1818C67.0153 13.6922 67.0915 14.1513 67.244 14.5589C67.3964 14.9666 67.6218 15.2898 67.9201 15.5284C68.2217 15.7637 68.5929 15.8814 69.0337 15.8814Z" fill="#0F973D"/>
<path d="M86.9634 10.6019C87.2048 10.3614 87.1988 9.9771 86.9501 9.74363C86.7014 9.51015 86.3041 9.51589 86.0627 9.75645L82.8583 12.9496L81.9426 12.0371C81.7012 11.7965 81.3038 11.7908 81.0551 12.0242C80.8064 12.2577 80.8004 12.642 81.0418 12.8825L82.4079 14.2439C82.5261 14.3616 82.6886 14.4281 82.8583 14.4281C83.028 14.4281 83.1905 14.3616 83.3087 14.2439L86.9634 10.6019Z" fill="#0F973D"/>
<path fill-rule="evenodd" clip-rule="evenodd" d="M85.5727 5.94782C84.6973 5.12872 83.3079 5.12872 82.4325 5.94782C82.2101 6.15587 81.9009 6.25303 81.5946 6.21112C80.3885 6.04613 79.2645 6.83596 79.054 7.99631C79.0006 8.29103 78.8095 8.5454 78.5362 8.68564C77.4602 9.23778 77.0309 10.5158 77.5658 11.5741C77.7017 11.843 77.7017 12.1574 77.5658 12.4262C77.0309 13.4846 77.4602 14.7625 78.5362 15.3147C78.8095 15.4549 79.0006 15.7093 79.054 16.004C79.2645 17.1644 80.3885 17.9542 81.5946 17.7892C81.9009 17.7473 82.2101 17.8445 82.4325 18.0525C83.3079 18.8716 84.6973 18.8716 85.5727 18.0525C85.7951 17.8445 86.1043 17.7473 86.4106 17.7892C87.6167 17.9542 88.7407 17.1644 88.9512 16.004C89.0046 15.7093 89.1957 15.4549 89.469 15.3147C90.545 14.7625 90.9743 13.4846 90.4394 12.4262C90.3035 12.1574 90.3035 11.843 90.4394 11.5741C90.9743 10.5158 90.545 9.23778 89.469 8.68564C89.1957 8.5454 89.0046 8.29103 88.9512 7.99631C88.7407 6.83596 87.6167 6.04613 86.4106 6.21112C86.1043 6.25303 85.7951 6.15587 85.5727 5.94782ZM83.3052 6.82034C83.694 6.45652 84.3112 6.45652 84.7 6.82034C85.2006 7.28873 85.8967 7.50748 86.5864 7.41313C87.1221 7.33985 87.6214 7.69067 87.7148 8.20605C87.8352 8.86959 88.2654 9.44228 88.8807 9.75802C89.3586 10.0033 89.5493 10.5709 89.3117 11.041C89.0058 11.6462 89.0058 12.3541 89.3117 12.9593C89.5493 13.4294 89.3586 13.9971 88.8807 14.2423C88.2654 14.558 87.8352 15.1307 87.7148 15.7943C87.6214 16.3097 87.1221 16.6605 86.5864 16.5872C85.8967 16.4928 85.2006 16.7116 84.7 17.18C84.3112 17.5438 83.694 17.5438 83.3052 17.18C82.8046 16.7116 82.1085 16.4928 81.4188 16.5872C80.8831 16.6605 80.3838 16.3097 80.2904 15.7943C80.17 15.1307 79.7398 14.558 79.1245 14.2423C78.6466 13.9971 78.4559 13.4294 78.6935 12.9593C78.9994 12.3541 78.9994 11.6462 78.6935 11.041C78.4559 10.5709 78.6466 10.0033 79.1245 9.75802C79.7398 9.44228 80.17 8.86959 80.2904 8.20605C80.3838 7.69067 80.8831 7.33985 81.4188 7.41313C82.1085 7.50748 82.8046 7.28873 83.3052 6.82034Z" fill="#0F973D"/>
</svg>
