<svg width="69" height="17" viewBox="0 0 69 17" fill="none" xmlns="http://www.w3.org/2000/svg">
<rect width="69" height="17" rx="8.5" fill="#E8F7E6"/>
<path d="M9.43052 13V4.27273H12.5413C13.2175 4.27273 13.7785 4.3892 14.2246 4.62216C14.6734 4.85511 15.0086 5.17756 15.2302 5.58949C15.4518 5.99858 15.5626 6.47159 15.5626 7.00852C15.5626 7.54261 15.4504 8.01278 15.226 8.41903C15.0044 8.82244 14.6692 9.13636 14.2203 9.3608C13.7743 9.58523 13.2132 9.69744 12.5371 9.69744H10.1805V8.56392H12.4177C12.8439 8.56392 13.1905 8.50284 13.4575 8.38068C13.7274 8.25852 13.9248 8.08097 14.0498 7.84801C14.1748 7.61506 14.2373 7.33523 14.2373 7.00852C14.2373 6.67898 14.1734 6.39347 14.0456 6.15199C13.9206 5.91051 13.7231 5.72585 13.4533 5.59801C13.1862 5.46733 12.8354 5.40199 12.4007 5.40199H10.7473V13H9.43052ZM13.7388 9.0625L15.895 13H14.395L12.2814 9.0625H13.7388ZM19.7416 13.1321C19.0967 13.1321 18.5413 12.9943 18.0754 12.7188C17.6124 12.4403 17.2544 12.0497 17.0016 11.5469C16.7516 11.0412 16.6266 10.4489 16.6266 9.76989C16.6266 9.09943 16.7516 8.50852 17.0016 7.99716C17.2544 7.4858 17.6067 7.08665 18.0584 6.79972C18.5129 6.51278 19.0442 6.36932 19.6521 6.36932C20.0214 6.36932 20.3794 6.4304 20.726 6.55256C21.0726 6.67472 21.3837 6.86648 21.6592 7.12784C21.9348 7.3892 22.1521 7.72869 22.3112 8.14631C22.4703 8.56108 22.5499 9.06534 22.5499 9.65909V10.1108H17.3467V9.15625H21.3013C21.3013 8.82102 21.2331 8.52415 21.0967 8.26562C20.9604 8.00426 20.7686 7.7983 20.5214 7.64773C20.2771 7.49716 19.9902 7.42188 19.6607 7.42188C19.3027 7.42188 18.9902 7.50994 18.7232 7.68608C18.4589 7.85937 18.2544 8.08665 18.1095 8.3679C17.9675 8.64631 17.8964 8.94886 17.8964 9.27557V10.0213C17.8964 10.4588 17.9732 10.831 18.1266 11.1378C18.2828 11.4446 18.5001 11.679 18.7786 11.8409C19.057 12 19.3822 12.0795 19.7544 12.0795C19.9959 12.0795 20.2161 12.0455 20.4149 11.9773C20.6138 11.9062 20.7857 11.8011 20.9305 11.6619C21.0754 11.5227 21.1862 11.3509 21.2629 11.1463L22.4689 11.3636C22.3723 11.7187 22.199 12.0298 21.949 12.2969C21.7018 12.5611 21.3908 12.767 21.0158 12.9148C20.6436 13.0597 20.2189 13.1321 19.7416 13.1321ZM28.8084 8.05256L27.6536 8.2571C27.6053 8.10937 27.5286 7.96875 27.4235 7.83523C27.3212 7.7017 27.182 7.59233 27.0058 7.5071C26.8297 7.42187 26.6095 7.37926 26.3453 7.37926C25.9845 7.37926 25.6834 7.46023 25.4419 7.62216C25.2004 7.78125 25.0797 7.98722 25.0797 8.24006C25.0797 8.45881 25.1607 8.63494 25.3226 8.76847C25.4845 8.90199 25.7459 9.01136 26.1067 9.09659L27.1465 9.33523C27.7487 9.47443 28.1976 9.68892 28.4931 9.97869C28.7885 10.2685 28.9362 10.6449 28.9362 11.108C28.9362 11.5 28.8226 11.8494 28.5953 12.1562C28.3709 12.4602 28.057 12.6989 27.6536 12.8722C27.253 13.0455 26.7885 13.1321 26.2601 13.1321C25.5271 13.1321 24.9291 12.9759 24.4661 12.6634C24.003 12.348 23.7189 11.9006 23.6138 11.321L24.8453 11.1335C24.922 11.4545 25.0797 11.6974 25.3183 11.8622C25.557 12.0241 25.8681 12.1051 26.2516 12.1051C26.6692 12.1051 27.003 12.0185 27.253 11.8452C27.503 11.669 27.628 11.4545 27.628 11.2017C27.628 10.9972 27.5513 10.8253 27.3979 10.6861C27.2473 10.5469 27.0158 10.4418 26.7033 10.3707L25.5953 10.1278C24.9845 9.98864 24.5328 9.76705 24.2402 9.46307C23.9504 9.15909 23.8056 8.77415 23.8056 8.30824C23.8056 7.92187 23.9135 7.58381 24.1294 7.29403C24.3453 7.00426 24.6436 6.77841 25.0243 6.61648C25.405 6.4517 25.8411 6.36932 26.3325 6.36932C27.0399 6.36932 27.5967 6.52273 28.003 6.82955C28.4092 7.13352 28.6777 7.54119 28.8084 8.05256ZM33.0343 13.1321C32.4206 13.1321 31.8851 12.9915 31.4277 12.7102C30.9703 12.429 30.6152 12.0355 30.3624 11.5298C30.1095 11.0241 29.9831 10.4332 29.9831 9.7571C29.9831 9.07812 30.1095 8.48437 30.3624 7.97585C30.6152 7.46733 30.9703 7.07244 31.4277 6.79119C31.8851 6.50994 32.4206 6.36932 33.0343 6.36932C33.6479 6.36932 34.1834 6.50994 34.6408 6.79119C35.0982 7.07244 35.4533 7.46733 35.7061 7.97585C35.959 8.48437 36.0854 9.07812 36.0854 9.7571C36.0854 10.4332 35.959 11.0241 35.7061 11.5298C35.4533 12.0355 35.0982 12.429 34.6408 12.7102C34.1834 12.9915 33.6479 13.1321 33.0343 13.1321ZM33.0385 12.0625C33.4362 12.0625 33.7658 11.9574 34.0272 11.7472C34.2885 11.5369 34.4817 11.2571 34.6067 10.9077C34.7345 10.5582 34.7985 10.1733 34.7985 9.75284C34.7985 9.33523 34.7345 8.9517 34.6067 8.60227C34.4817 8.25 34.2885 7.96733 34.0272 7.75426C33.7658 7.54119 33.4362 7.43466 33.0385 7.43466C32.638 7.43466 32.3056 7.54119 32.0414 7.75426C31.78 7.96733 31.5854 8.25 31.4576 8.60227C31.3326 8.9517 31.2701 9.33523 31.2701 9.75284C31.2701 10.1733 31.3326 10.5582 31.4576 10.9077C31.5854 11.2571 31.78 11.5369 32.0414 11.7472C32.3056 11.9574 32.638 12.0625 33.0385 12.0625ZM38.7218 4.27273V13H37.4476V4.27273H38.7218ZM45.9753 6.45455L43.6018 13H42.2381L39.8603 6.45455H41.2282L42.8859 11.4915H42.954L44.6074 6.45455H45.9753ZM49.7111 13.1321C49.0663 13.1321 48.5109 12.9943 48.045 12.7188C47.5819 12.4403 47.2239 12.0497 46.9711 11.5469C46.7211 11.0412 46.5961 10.4489 46.5961 9.76989C46.5961 9.09943 46.7211 8.50852 46.9711 7.99716C47.2239 7.4858 47.5762 7.08665 48.0279 6.79972C48.4825 6.51278 49.0137 6.36932 49.6217 6.36932C49.991 6.36932 50.3489 6.4304 50.6955 6.55256C51.0421 6.67472 51.3532 6.86648 51.6288 7.12784C51.9043 7.3892 52.1217 7.72869 52.2808 8.14631C52.4398 8.56108 52.5194 9.06534 52.5194 9.65909V10.1108H47.3163V9.15625H51.2708C51.2708 8.82102 51.2026 8.52415 51.0663 8.26562C50.9299 8.00426 50.7381 7.7983 50.491 7.64773C50.2467 7.49716 49.9597 7.42188 49.6302 7.42188C49.2722 7.42188 48.9597 7.50994 48.6927 7.68608C48.4285 7.85937 48.2239 8.08665 48.079 8.3679C47.937 8.64631 47.866 8.94886 47.866 9.27557V10.0213C47.866 10.4588 47.9427 10.831 48.0961 11.1378C48.2523 11.4446 48.4697 11.679 48.7481 11.8409C49.0265 12 49.3518 12.0795 49.7239 12.0795C49.9654 12.0795 50.1856 12.0455 50.3844 11.9773C50.5833 11.9062 50.7552 11.8011 50.9001 11.6619C51.045 11.5227 51.1558 11.3509 51.2325 11.1463L52.4384 11.3636C52.3418 11.7187 52.1685 12.0298 51.9185 12.2969C51.6714 12.5611 51.3603 12.767 50.9853 12.9148C50.6131 13.0597 50.1884 13.1321 49.7111 13.1321ZM56.3234 13.1278C55.795 13.1278 55.3234 12.9929 54.9086 12.723C54.4967 12.4503 54.1728 12.0625 53.937 11.5597C53.7041 11.054 53.5876 10.4474 53.5876 9.74006C53.5876 9.03267 53.7055 8.42756 53.9413 7.92472C54.1799 7.42187 54.5066 7.03693 54.9214 6.76989C55.3362 6.50284 55.8063 6.36932 56.3319 6.36932C56.7382 6.36932 57.0649 6.4375 57.312 6.57386C57.562 6.70739 57.7552 6.86364 57.8916 7.04261C58.0308 7.22159 58.1387 7.37926 58.2154 7.51562H58.2921V4.27273H59.5663V13H58.322V11.9815H58.2154C58.1387 12.1207 58.0279 12.2798 57.883 12.4588C57.741 12.6378 57.545 12.794 57.295 12.9276C57.045 13.0611 56.7211 13.1278 56.3234 13.1278ZM56.6046 12.0412C56.9711 12.0412 57.2808 11.9446 57.5336 11.7514C57.7893 11.5554 57.9825 11.2841 58.1132 10.9375C58.2467 10.5909 58.3134 10.1875 58.3134 9.72727C58.3134 9.27273 58.2481 8.875 58.1174 8.53409C57.9867 8.19318 57.795 7.92756 57.5421 7.73722C57.2893 7.54687 56.9768 7.4517 56.6046 7.4517C56.2211 7.4517 55.9015 7.55114 55.6458 7.75C55.3901 7.94886 55.197 8.22017 55.0663 8.56392C54.9384 8.90767 54.8745 9.29545 54.8745 9.72727C54.8745 10.1648 54.9399 10.5582 55.0705 10.9077C55.2012 11.2571 55.3944 11.5341 55.6501 11.7386C55.9086 11.9403 56.2268 12.0412 56.6046 12.0412Z" fill="#15AD07"/>
</svg>
