<svg width="113" height="24" viewBox="0 0 113 24" fill="none" xmlns="http://www.w3.org/2000/svg">
<rect width="113" height="24" rx="12" fill="#F0F2F5"/>
<path d="M13.602 17V6.81818H17.2313C18.0201 6.81818 18.6747 6.95407 19.195 7.22585C19.7187 7.49763 20.1098 7.87382 20.3683 8.3544C20.6269 8.83168 20.7561 9.38352 20.7561 10.0099C20.7561 10.633 20.6252 11.1816 20.3634 11.6555C20.1048 12.1262 19.7137 12.4924 19.1901 12.7543C18.6697 13.0161 18.0151 13.147 17.2263 13.147H14.477V11.8246H17.0871C17.5843 11.8246 17.9886 11.7533 18.3002 11.6108C18.615 11.4683 18.8454 11.2611 18.9912 10.9893C19.137 10.7176 19.21 10.3911 19.21 10.0099C19.21 9.62547 19.1354 9.29238 18.9862 9.01065C18.8404 8.72893 18.6101 8.51349 18.2952 8.36435C17.9836 8.21188 17.5743 8.13565 17.0672 8.13565H15.1382V17H13.602ZM18.6283 12.4062L21.1439 17H19.3939L16.928 12.4062H18.6283ZM25.7016 17.1541C24.9492 17.1541 24.3013 16.9934 23.7577 16.6719C23.2175 16.3471 22.7999 15.8913 22.5049 15.3047C22.2132 14.7147 22.0674 14.0237 22.0674 13.2315C22.0674 12.4493 22.2132 11.7599 22.5049 11.1634C22.7999 10.5668 23.2108 10.1011 23.7378 9.76633C24.2681 9.43158 24.8879 9.2642 25.5972 9.2642C26.0281 9.2642 26.4457 9.33546 26.8501 9.47798C27.2544 9.6205 27.6173 9.84422 27.9388 10.1491C28.2603 10.4541 28.5139 10.8501 28.6995 11.3374C28.8851 11.8213 28.9779 12.4096 28.9779 13.1023V13.6293H22.9076V12.5156H27.5212C27.5212 12.1245 27.4417 11.7782 27.2826 11.4766C27.1235 11.1716 26.8998 10.9313 26.6114 10.7557C26.3264 10.58 25.9916 10.4922 25.6072 10.4922C25.1895 10.4922 24.825 10.5949 24.5134 10.8004C24.2052 11.0026 23.9665 11.2678 23.7975 11.5959C23.6318 11.9207 23.5489 12.2737 23.5489 12.6548V13.5249C23.5489 14.0353 23.6384 14.4695 23.8174 14.8274C23.9997 15.1854 24.2532 15.4588 24.578 15.6477C24.9028 15.8333 25.2823 15.9261 25.7165 15.9261C25.9983 15.9261 26.2551 15.8864 26.4871 15.8068C26.7191 15.724 26.9197 15.6013 27.0887 15.4389C27.2577 15.2765 27.387 15.076 27.4765 14.8374L28.8834 15.0909C28.7707 15.5052 28.5686 15.8681 28.2769 16.1797C27.9885 16.4879 27.6256 16.7282 27.1881 16.9006C26.7539 17.0696 26.2584 17.1541 25.7016 17.1541ZM36.3495 11.228L35.0022 11.4666C34.9459 11.2943 34.8564 11.1302 34.7338 10.9744C34.6144 10.8187 34.452 10.6911 34.2465 10.5916C34.041 10.4922 33.7842 10.4425 33.4759 10.4425C33.055 10.4425 32.7037 10.5369 32.422 10.7259C32.1402 10.9115 31.9994 11.1518 31.9994 11.4467C31.9994 11.7019 32.0938 11.9074 32.2828 12.0632C32.4717 12.219 32.7766 12.3466 33.1975 12.446L34.4106 12.7244C35.1133 12.8868 35.6369 13.1371 35.9816 13.4751C36.3263 13.8132 36.4987 14.2524 36.4987 14.7926C36.4987 15.25 36.3661 15.6577 36.1009 16.0156C35.8391 16.3703 35.4729 16.6487 35.0022 16.8509C34.5349 17.053 33.993 17.1541 33.3765 17.1541C32.5214 17.1541 31.8237 16.9718 31.2835 16.6072C30.7432 16.2393 30.4118 15.7173 30.2892 15.0412L31.7259 14.8224C31.8154 15.197 31.9994 15.4804 32.2778 15.6726C32.5562 15.8615 32.9191 15.956 33.3666 15.956C33.8538 15.956 34.2432 15.8549 34.5349 15.6527C34.8266 15.4472 34.9724 15.197 34.9724 14.902C34.9724 14.6634 34.8829 14.4628 34.7039 14.3004C34.5283 14.138 34.2581 14.0154 33.8936 13.9325L32.6009 13.6491C31.8883 13.4867 31.3614 13.2282 31.02 12.8736C30.6819 12.5189 30.5129 12.0698 30.5129 11.5263C30.5129 11.0755 30.6388 10.6811 30.8907 10.343C31.1426 10.005 31.4906 9.74148 31.9347 9.55256C32.3789 9.36032 32.8876 9.2642 33.461 9.2642C34.2863 9.2642 34.9359 9.44318 35.4099 9.80114C35.8838 10.1558 36.1971 10.6314 36.3495 11.228ZM38.1331 19.8636V9.36364H39.5848V10.6016H39.7091C39.7952 10.4425 39.9195 10.2585 40.0819 10.0497C40.2443 9.84091 40.4697 9.65862 40.7581 9.50284C41.0464 9.34375 41.4276 9.2642 41.9015 9.2642C42.518 9.2642 43.0682 9.41998 43.5521 9.73153C44.036 10.0431 44.4155 10.4922 44.6906 11.0788C44.969 11.6655 45.1082 12.3714 45.1082 13.1967C45.1082 14.022 44.9707 14.7296 44.6956 15.3196C44.4205 15.9062 44.0426 16.3587 43.5621 16.6768C43.0815 16.9917 42.5329 17.1491 41.9165 17.1491C41.4524 17.1491 41.0729 17.0713 40.778 16.9155C40.4863 16.7597 40.2576 16.5774 40.0919 16.3686C39.9262 16.1598 39.7986 15.9742 39.7091 15.8118H39.6196V19.8636H38.1331ZM39.5898 13.1818C39.5898 13.7187 39.6676 14.1894 39.8234 14.5938C39.9792 14.9981 40.2046 15.3146 40.4996 15.5433C40.7945 15.7687 41.1558 15.8814 41.5834 15.8814C42.0275 15.8814 42.3987 15.7637 42.697 15.5284C42.9953 15.2898 43.2207 14.9666 43.3731 14.5589C43.5289 14.1513 43.6068 13.6922 43.6068 13.1818C43.6068 12.678 43.5306 12.2256 43.3781 11.8246C43.229 11.4235 43.0036 11.107 42.702 10.875C42.4037 10.643 42.0308 10.527 41.5834 10.527C41.1525 10.527 40.7879 10.638 40.4896 10.8601C40.1946 11.0821 39.9709 11.392 39.8184 11.7898C39.666 12.1875 39.5898 12.6515 39.5898 13.1818ZM49.9903 17.1541C49.2744 17.1541 48.6497 16.9901 48.116 16.6619C47.5824 16.3338 47.1681 15.8748 46.8731 15.2848C46.5782 14.6948 46.4307 14.0054 46.4307 13.2166C46.4307 12.4245 46.5782 11.7318 46.8731 11.1385C47.1681 10.5452 47.5824 10.0845 48.116 9.75639C48.6497 9.42827 49.2744 9.2642 49.9903 9.2642C50.7062 9.2642 51.331 9.42827 51.8646 9.75639C52.3982 10.0845 52.8125 10.5452 53.1075 11.1385C53.4025 11.7318 53.55 12.4245 53.55 13.2166C53.55 14.0054 53.4025 14.6948 53.1075 15.2848C52.8125 15.8748 52.3982 16.3338 51.8646 16.6619C51.331 16.9901 50.7062 17.1541 49.9903 17.1541ZM49.9953 15.9062C50.4593 15.9062 50.8438 15.7836 51.1487 15.5384C51.4536 15.2931 51.679 14.9666 51.8248 14.5589C51.974 14.1513 52.0486 13.7022 52.0486 13.2116C52.0486 12.7244 51.974 12.277 51.8248 11.8693C51.679 11.4583 51.4536 11.1286 51.1487 10.88C50.8438 10.6314 50.4593 10.5071 49.9953 10.5071C49.528 10.5071 49.1402 10.6314 48.8319 10.88C48.527 11.1286 48.3 11.4583 48.1508 11.8693C48.005 12.277 47.9321 12.7244 47.9321 13.2116C47.9321 13.7022 48.005 14.1513 48.1508 14.5589C48.3 14.9666 48.527 15.2931 48.8319 15.5384C49.1402 15.7836 49.528 15.9062 49.9953 15.9062ZM56.6958 12.4659V17H55.2093V9.36364H56.6361V10.6065H56.7306C56.9062 10.2022 57.1813 9.87737 57.5558 9.6321C57.9337 9.38684 58.4093 9.2642 58.9827 9.2642C59.503 9.2642 59.9588 9.37358 60.3499 9.59233C60.741 9.80777 61.0442 10.1293 61.2597 10.5568C61.4751 10.9844 61.5828 11.513 61.5828 12.1428V17H60.0963V12.3217C60.0963 11.7682 59.9521 11.3357 59.6638 11.0241C59.3754 10.7093 58.9794 10.5518 58.4756 10.5518C58.1309 10.5518 57.8243 10.6264 57.5558 10.7756C57.2907 10.9247 57.0802 11.1435 56.9244 11.4318C56.772 11.7169 56.6958 12.0616 56.6958 12.4659ZM66.4351 17.1491C65.8186 17.1491 65.2684 16.9917 64.7845 16.6768C64.3039 16.3587 63.9261 15.9062 63.651 15.3196C63.3792 14.7296 63.2433 14.022 63.2433 13.1967C63.2433 12.3714 63.3809 11.6655 63.656 11.0788C63.9344 10.4922 64.3155 10.0431 64.7994 9.73153C65.2834 9.41998 65.8319 9.2642 66.445 9.2642C66.919 9.2642 67.3002 9.34375 67.5885 9.50284C67.8802 9.65862 68.1056 9.84091 68.2646 10.0497C68.4271 10.2585 68.553 10.4425 68.6425 10.6016H68.732V6.81818H70.2185V17H68.7668V15.8118H68.6425C68.553 15.9742 68.4237 16.1598 68.2547 16.3686C68.089 16.5774 67.8603 16.7597 67.5686 16.9155C67.277 17.0713 66.8991 17.1491 66.4351 17.1491ZM66.7632 15.8814C67.1908 15.8814 67.5521 15.7687 67.847 15.5433C68.1453 15.3146 68.3707 14.9981 68.5232 14.5938C68.6789 14.1894 68.7568 13.7187 68.7568 13.1818C68.7568 12.6515 68.6806 12.1875 68.5281 11.7898C68.3757 11.392 68.152 11.0821 67.857 10.8601C67.562 10.638 67.1974 10.527 66.7632 10.527C66.3158 10.527 65.9429 10.643 65.6446 10.875C65.3463 11.107 65.1209 11.4235 64.9685 11.8246C64.8193 12.2256 64.7448 12.678 64.7448 13.1818C64.7448 13.6922 64.821 14.1513 64.9735 14.5589C65.1259 14.9666 65.3513 15.2898 65.6496 15.5284C65.9512 15.7637 66.3224 15.8814 66.7632 15.8814ZM75.6313 17.1541C74.8789 17.1541 74.231 16.9934 73.6874 16.6719C73.1472 16.3471 72.7296 15.8913 72.4346 15.3047C72.1429 14.7147 71.9971 14.0237 71.9971 13.2315C71.9971 12.4493 72.1429 11.7599 72.4346 11.1634C72.7296 10.5668 73.1405 10.1011 73.6675 9.76633C74.1978 9.43158 74.8176 9.2642 75.5269 9.2642C75.9578 9.2642 76.3754 9.33546 76.7797 9.47798C77.1841 9.6205 77.547 9.84422 77.8685 10.1491C78.19 10.4541 78.4436 10.8501 78.6292 11.3374C78.8148 11.8213 78.9076 12.4096 78.9076 13.1023V13.6293H72.8373V12.5156H77.4509C77.4509 12.1245 77.3714 11.7782 77.2123 11.4766C77.0532 11.1716 76.8295 10.9313 76.5411 10.7557C76.2561 10.58 75.9213 10.4922 75.5368 10.4922C75.1192 10.4922 74.7546 10.5949 74.4431 10.8004C74.1349 11.0026 73.8962 11.2678 73.7272 11.5959C73.5615 11.9207 73.4786 12.2737 73.4786 12.6548V13.5249C73.4786 14.0353 73.5681 14.4695 73.7471 14.8274C73.9294 15.1854 74.1829 15.4588 74.5077 15.6477C74.8325 15.8333 75.212 15.9261 75.6462 15.9261C75.9279 15.9261 76.1848 15.8864 76.4168 15.8068C76.6488 15.724 76.8493 15.6013 77.0184 15.4389C77.1874 15.2765 77.3167 15.076 77.4062 14.8374L78.8131 15.0909C78.7004 15.5052 78.4983 15.8681 78.2066 16.1797C77.9182 16.4879 77.5553 16.7282 77.1178 16.9006C76.6836 17.0696 76.1881 17.1541 75.6313 17.1541ZM82.0434 12.4659V17H80.5569V9.36364H81.9838V10.6065H82.0782C82.2539 10.2022 82.529 9.87737 82.9035 9.6321C83.2813 9.38684 83.757 9.2642 84.3303 9.2642C84.8507 9.2642 85.3064 9.37358 85.6975 9.59233C86.0886 9.80777 86.3919 10.1293 86.6073 10.5568C86.8228 10.9844 86.9305 11.513 86.9305 12.1428V17H85.444V12.3217C85.444 11.7682 85.2998 11.3357 85.0115 11.0241C84.7231 10.7093 84.327 10.5518 83.8232 10.5518C83.4785 10.5518 83.172 10.6264 82.9035 10.7756C82.6383 10.9247 82.4279 11.1435 82.2721 11.4318C82.1196 11.7169 82.0434 12.0616 82.0434 12.4659ZM92.4887 9.36364V10.5568H88.3176V9.36364H92.4887ZM89.4362 7.53409H90.9227V14.7578C90.9227 15.0462 90.9658 15.2633 91.0519 15.4091C91.1381 15.5516 91.2491 15.6494 91.385 15.7024C91.5242 15.7521 91.675 15.777 91.8374 15.777C91.9568 15.777 92.0612 15.7687 92.1507 15.7521C92.2401 15.7356 92.3097 15.7223 92.3595 15.7124L92.6279 16.9403C92.5418 16.9735 92.4191 17.0066 92.26 17.0398C92.1009 17.0762 91.9021 17.0961 91.6634 17.0994C91.2723 17.1061 90.9078 17.0365 90.5697 16.8906C90.2316 16.7448 89.9582 16.5194 89.7494 16.2145C89.5406 15.9096 89.4362 15.5268 89.4362 15.0661V7.53409ZM99.7323 11.228L98.385 11.4666C98.3287 11.2943 98.2392 11.1302 98.1166 10.9744C97.9972 10.8187 97.8348 10.6911 97.6294 10.5916C97.4239 10.4922 97.167 10.4425 96.8588 10.4425C96.4378 10.4425 96.0865 10.5369 95.8048 10.7259C95.5231 10.9115 95.3822 11.1518 95.3822 11.4467C95.3822 11.7019 95.4767 11.9074 95.6656 12.0632C95.8545 12.219 96.1594 12.3466 96.5803 12.446L97.7934 12.7244C98.4961 12.8868 99.0197 13.1371 99.3644 13.4751C99.7091 13.8132 99.8815 14.2524 99.8815 14.7926C99.8815 15.25 99.7489 15.6577 99.4838 16.0156C99.2219 16.3703 98.8557 16.6487 98.385 16.8509C97.9177 17.053 97.3758 17.1541 96.7593 17.1541C95.9042 17.1541 95.2065 16.9718 94.6663 16.6072C94.126 16.2393 93.7946 15.7173 93.672 15.0412L95.1088 14.8224C95.1982 15.197 95.3822 15.4804 95.6606 15.6726C95.939 15.8615 96.3019 15.956 96.7494 15.956C97.2366 15.956 97.626 15.8549 97.9177 15.6527C98.2094 15.4472 98.3552 15.197 98.3552 14.902C98.3552 14.6634 98.2657 14.4628 98.0867 14.3004C97.9111 14.138 97.641 14.0154 97.2764 13.9325L95.9838 13.6491C95.2712 13.4867 94.7442 13.2282 94.4028 12.8736C94.0647 12.5189 93.8957 12.0698 93.8957 11.5263C93.8957 11.0755 94.0216 10.6811 94.2735 10.343C94.5254 10.005 94.8734 9.74148 95.3176 9.55256C95.7617 9.36032 96.2704 9.2642 96.8438 9.2642C97.6691 9.2642 98.3187 9.44318 98.7927 9.80114C99.2667 10.1558 99.5799 10.6314 99.7323 11.228Z" fill="#344054"/>
</svg>
