<svg width="20" height="20" viewBox="0 0 20 20" fill="none" xmlns="http://www.w3.org/2000/svg">
<path fill-rule="evenodd" clip-rule="evenodd" d="M9.16406 1.66602C5.02193 1.66602 1.66406 5.02388 1.66406 9.16602C1.66406 13.3082 5.02193 16.666 9.16406 16.666C10.9349 16.666 12.5624 16.0523 13.8455 15.0259L16.9081 18.0886C17.2336 18.414 17.7612 18.414 18.0867 18.0886C18.4121 17.7632 18.4121 17.2355 18.0867 16.9101L15.024 13.8474C16.0503 12.5644 16.6641 10.9369 16.6641 9.16602C16.6641 5.02388 13.3062 1.66602 9.16406 1.66602ZM3.33073 9.16602C3.33073 5.94436 5.9424 3.33268 9.16406 3.33268C12.3857 3.33268 14.9974 5.94436 14.9974 9.16602C14.9974 12.3877 12.3857 14.9993 9.16406 14.9993C5.9424 14.9993 3.33073 12.3877 3.33073 9.16602Z" fill="#15AD07"/>
</svg>
