<svg width="24" height="24" viewBox="0 0 24 24" fill="none" xmlns="http://www.w3.org/2000/svg">
<path fill-rule="evenodd" clip-rule="evenodd" d="M20.3716 14.2808C22.3371 13.3964 22.3371 10.6057 20.3716 9.72122L6.2324 3.35857C4.32809 2.50163 2.27466 4.21882 2.78113 6.24471L3.7652 10.181C3.99224 11.0891 4.70223 11.7813 5.58769 12.001C4.70223 12.2207 3.99224 12.9129 3.7652 13.8211L2.78113 17.7573C2.27466 19.7832 4.32809 21.5004 6.2324 20.6435L20.3716 14.2808ZM5.41167 5.18241L17.9752 10.836L6.15837 10.0736C5.94133 10.0596 5.75823 9.90691 5.70548 9.69592L4.72142 5.75964C4.62012 5.35447 5.03081 5.01103 5.41167 5.18241ZM6.15837 13.9284L17.9752 13.1661L5.41167 18.8196C5.03081 18.991 4.62012 18.6476 4.72142 18.2424L5.70548 14.3061C5.75823 14.0951 5.94133 13.9424 6.15837 13.9284Z" fill="#93D98D"/>
</svg>
