<svg width="20" height="20" viewBox="0 0 20 20" fill="none" xmlns="http://www.w3.org/2000/svg">
<path d="M15.8332 2.49935C15.8332 2.03911 15.4601 1.66602 14.9998 1.66602C14.5396 1.66602 14.1665 2.03911 14.1665 2.49935V17.4993C14.1665 17.9596 14.5396 18.3327 14.9998 18.3327C15.4601 18.3327 15.8332 17.9596 15.8332 17.4993V2.49935Z" fill="#15AD07"/>
<path d="M11.6665 6.66602C12.1267 6.66602 12.4998 7.03911 12.4998 7.49935V17.4993C12.4998 17.9596 12.1267 18.3327 11.6665 18.3327C11.2063 18.3327 10.8332 17.9596 10.8332 17.4993V7.49935C10.8332 7.03911 11.2063 6.66602 11.6665 6.66602Z" fill="#15AD07"/>
<path d="M9.1665 10.8327C9.1665 10.3724 8.79341 9.99935 8.33317 9.99935C7.87293 9.99935 7.49984 10.3724 7.49984 10.8327V17.4993C7.49984 17.9596 7.87293 18.3327 8.33317 18.3327C8.79341 18.3327 9.1665 17.9596 9.1665 17.4993V10.8327Z" fill="#15AD07"/>
<path d="M5.83317 14.166C5.83317 13.7058 5.46007 13.3327 4.99984 13.3327C4.5396 13.3327 4.1665 13.7058 4.1665 14.166V17.4993C4.1665 17.9596 4.5396 18.3327 4.99984 18.3327C5.46007 18.3327 5.83317 17.9596 5.83317 17.4993V14.166Z" fill="#15AD07"/>
</svg>
