<svg width="21" height="20" viewBox="0 0 21 20" fill="none" xmlns="http://www.w3.org/2000/svg">
<path d="M11.0867 2.74408C10.9304 2.5878 10.7184 2.5 10.4974 2.5C10.2764 2.5 10.0644 2.5878 9.90814 2.74408L4.90814 7.74408C4.5827 8.06952 4.5827 8.59715 4.90814 8.92259C5.23358 9.24803 5.76121 9.24803 6.08665 8.92259L10.4974 4.51184L14.9081 8.92259C15.2336 9.24803 15.7612 9.24803 16.0867 8.92259C16.4121 8.59715 16.4121 8.06952 16.0867 7.74408L11.0867 2.74408Z" fill="#98A2B3"/>
<path d="M11.0867 18.0893C10.9304 18.2455 10.7184 18.3333 10.4974 18.3333C10.2764 18.3333 10.0644 18.2455 9.90814 18.0893L4.90814 13.0893C4.5827 12.7638 4.5827 12.2362 4.90814 11.9107C5.23358 11.5853 5.76121 11.5853 6.08665 11.9107L10.4974 16.3215L14.9081 11.9107C15.2336 11.5853 15.7612 11.5853 16.0867 11.9107C16.4121 12.2362 16.4121 12.7638 16.0867 13.0893L11.0867 18.0893Z" fill="#98A2B3"/>
</svg>
