<svg width="56" height="56" viewBox="0 0 56 56" fill="none" xmlns="http://www.w3.org/2000/svg">
<rect width="56" height="56" rx="8" fill="#E7F6EC"/>
<path d="M32.2906 26.5257C32.7657 26.0905 32.7981 25.3526 32.363 24.8774C31.9278 24.4022 31.1898 24.3698 30.7146 24.805L26.4072 28.75L25.2906 27.7273C24.8154 27.2921 24.0774 27.3245 23.6422 27.7997C23.2071 28.2749 23.2395 29.0128 23.7146 29.448L25.6192 31.1924C26.0652 31.6008 26.7492 31.6008 27.1952 31.1924L32.2906 26.5257Z" fill="#15AD07"/>
<path fill-rule="evenodd" clip-rule="evenodd" d="M28.0026 16.332C21.5593 16.332 16.3359 21.5554 16.3359 27.9987C16.3359 34.442 21.5593 39.6654 28.0026 39.6654C34.4459 39.6654 39.6693 34.442 39.6693 27.9987C39.6693 21.5554 34.4459 16.332 28.0026 16.332ZM18.6693 27.9987C18.6693 22.844 22.8479 18.6654 28.0026 18.6654C33.1573 18.6654 37.3359 22.844 37.3359 27.9987C37.3359 33.1534 33.1573 37.332 28.0026 37.332C22.8479 37.332 18.6693 33.1534 18.6693 27.9987Z" fill="#15AD07"/>
</svg>
