<svg width="20" height="20" viewBox="0 0 20 20" fill="none" xmlns="http://www.w3.org/2000/svg">
<path d="M10.8307 8.10185C10.8307 7.64161 10.4576 7.26852 9.9974 7.26852C9.53716 7.26852 9.16406 7.64161 9.16406 8.10185V8.84259C9.16406 9.30283 9.53716 9.67593 9.9974 9.67593C10.4576 9.67593 10.8307 9.30283 10.8307 8.84259V8.10185Z" fill="#547D74"/>
<path fill-rule="evenodd" clip-rule="evenodd" d="M10.7752 2.5C12.1738 2.5 13.353 3.43972 13.7157 4.72222H15.6455C17.1285 4.72222 18.3307 5.92442 18.3307 7.40741V8.50926C18.3307 9.10273 18.0042 9.61994 17.521 9.89105L17.0541 14.5024C16.8818 16.2047 15.4487 17.5 13.7377 17.5H6.25705C4.54613 17.5 3.11303 16.2047 2.94068 14.5024L2.47377 9.89105C1.99058 9.61994 1.66406 9.10273 1.66406 8.50926V7.40741C1.66406 5.92442 2.86626 4.72222 4.34925 4.72222H6.27908C6.64182 3.43972 7.82098 2.5 9.21962 2.5H10.7752ZM8.10841 4.72222C8.3618 4.38488 8.76522 4.16667 9.21962 4.16667H10.7752C11.2296 4.16667 11.633 4.38488 11.8864 4.72222H8.10841ZM3.33073 7.40741C3.33073 6.8449 3.78674 6.38889 4.34925 6.38889H15.6455C16.2081 6.38889 16.6641 6.8449 16.6641 7.40741V8.43004C16.5856 8.43783 16.5104 8.45648 16.4399 8.48448L10.8782 10.5444C10.6929 10.613 10.4969 10.6481 10.2993 10.6481H9.69549C9.49791 10.6481 9.30191 10.613 9.11663 10.5444L3.55487 8.48449C3.48437 8.45648 3.40915 8.43783 3.33073 8.43004V7.40741ZM11.457 12.1073L15.7837 10.5048L15.3959 14.3346C15.3098 15.1857 14.5932 15.8333 13.7377 15.8333H6.25705C5.40159 15.8333 4.68504 15.1857 4.59886 14.3346L4.21111 10.5048L8.53777 12.1073C8.90833 12.2446 9.30033 12.3148 9.69549 12.3148H10.2993C10.6945 12.3148 11.0865 12.2446 11.457 12.1073Z" fill="#547D74"/>
</svg>
