<svg width="118" height="24" viewBox="0 0 118 24" fill="none" xmlns="http://www.w3.org/2000/svg">
<rect width="118" height="24" rx="12" fill="#FEF6E7"/>
<path d="M18.7666 9.4929C18.7136 9.02225 18.4948 8.65767 18.1104 8.39915C17.7259 8.13731 17.242 8.00639 16.6586 8.00639C16.241 8.00639 15.8798 8.07268 15.5748 8.20526C15.2699 8.33452 15.0329 8.51349 14.8639 8.74219C14.6982 8.96757 14.6153 9.22443 14.6153 9.51278C14.6153 9.75473 14.6717 9.96354 14.7844 10.1392C14.9004 10.3149 15.0512 10.4624 15.2368 10.5817C15.4257 10.6977 15.6279 10.7955 15.8433 10.875C16.0587 10.9512 16.2659 11.0142 16.4648 11.0639L17.4591 11.3224C17.7839 11.402 18.117 11.5097 18.4584 11.6456C18.7997 11.7815 19.1163 11.9605 19.4079 12.1825C19.6996 12.4046 19.9349 12.6797 20.1139 13.0078C20.2962 13.3359 20.3873 13.7287 20.3873 14.1861C20.3873 14.7628 20.2382 15.2749 19.9399 15.7223C19.6449 16.1697 19.2157 16.5227 18.6523 16.7812C18.0921 17.0398 17.4143 17.169 16.6189 17.169C15.8566 17.169 15.197 17.0481 14.6402 16.8061C14.0834 16.5642 13.6475 16.2211 13.3327 15.777C13.0178 15.3295 12.8438 14.7992 12.8106 14.1861H14.3518C14.3817 14.554 14.501 14.8606 14.7098 15.1058C14.9219 15.3478 15.192 15.5284 15.5202 15.6477C15.8516 15.7637 16.2145 15.8217 16.6089 15.8217C17.0431 15.8217 17.4292 15.7538 17.7673 15.6179C18.1087 15.4787 18.3772 15.2865 18.5727 15.0412C18.7683 14.7926 18.866 14.5026 18.866 14.1712C18.866 13.8696 18.7799 13.6226 18.6075 13.4304C18.4385 13.2382 18.2081 13.0791 17.9165 12.9531C17.6281 12.8272 17.3016 12.7161 16.9371 12.62L15.7339 12.2919C14.9186 12.0698 14.2723 11.7434 13.795 11.3125C13.3211 10.8816 13.0841 10.3116 13.0841 9.60227C13.0841 9.01562 13.2432 8.50355 13.5613 8.06605C13.8795 7.62855 14.3104 7.28883 14.854 7.04688C15.3975 6.80161 16.0107 6.67898 16.6934 6.67898C17.3828 6.67898 17.991 6.79995 18.518 7.0419C19.0483 7.28385 19.4659 7.61695 19.7709 8.04119C20.0758 8.46212 20.2349 8.94602 20.2481 9.4929H18.7666ZM26.9411 13.8331V9.36364H28.4326V17H26.971V15.6776H26.8914C26.7158 16.0852 26.434 16.425 26.0463 16.6967C25.6618 16.9652 25.1829 17.0994 24.6095 17.0994C24.1189 17.0994 23.6847 16.9917 23.3069 16.7763C22.9324 16.5575 22.6374 16.2344 22.422 15.8068C22.2098 15.3793 22.1038 14.8506 22.1038 14.2209V9.36364H23.5903V14.0419C23.5903 14.5623 23.7345 14.9766 24.0228 15.2848C24.3112 15.593 24.6857 15.7472 25.1464 15.7472C25.4248 15.7472 25.7016 15.6776 25.9767 15.5384C26.2551 15.3991 26.4854 15.1887 26.6677 14.907C26.8533 14.6252 26.9445 14.2673 26.9411 13.8331ZM36.1523 11.228L34.805 11.4666C34.7486 11.2943 34.6591 11.1302 34.5365 10.9744C34.4172 10.8187 34.2548 10.6911 34.0493 10.5916C33.8438 10.4922 33.5869 10.4425 33.2787 10.4425C32.8577 10.4425 32.5064 10.5369 32.2247 10.7259C31.943 10.9115 31.8021 11.1518 31.8021 11.4467C31.8021 11.7019 31.8966 11.9074 32.0855 12.0632C32.2744 12.219 32.5793 12.3466 33.0003 12.446L34.2133 12.7244C34.916 12.8868 35.4397 13.1371 35.7844 13.4751C36.1291 13.8132 36.3014 14.2524 36.3014 14.7926C36.3014 15.25 36.1688 15.6577 35.9037 16.0156C35.6418 16.3703 35.2756 16.6487 34.805 16.8509C34.3376 17.053 33.7957 17.1541 33.1792 17.1541C32.3241 17.1541 31.6265 16.9718 31.0862 16.6072C30.546 16.2393 30.2145 15.7173 30.0919 15.0412L31.5287 14.8224C31.6182 15.197 31.8021 15.4804 32.0805 15.6726C32.3589 15.8615 32.7219 15.956 33.1693 15.956C33.6565 15.956 34.046 15.8549 34.3376 15.6527C34.6293 15.4472 34.7751 15.197 34.7751 14.902C34.7751 14.6634 34.6856 14.4628 34.5067 14.3004C34.331 14.138 34.0609 14.0154 33.6963 13.9325L32.4037 13.6491C31.6911 13.4867 31.1641 13.2282 30.8227 12.8736C30.4846 12.5189 30.3156 12.0698 30.3156 11.5263C30.3156 11.0755 30.4416 10.6811 30.6934 10.343C30.9453 10.005 31.2934 9.74148 31.7375 9.55256C32.1816 9.36032 32.6904 9.2642 33.2638 9.2642C34.089 9.2642 34.7387 9.44318 35.2126 9.80114C35.6866 10.1558 35.9998 10.6314 36.1523 11.228ZM37.9358 19.8636V9.36364H39.3875V10.6016H39.5118C39.598 10.4425 39.7223 10.2585 39.8847 10.0497C40.0471 9.84091 40.2725 9.65862 40.5608 9.50284C40.8492 9.34375 41.2303 9.2642 41.7043 9.2642C42.3208 9.2642 42.8709 9.41998 43.3548 9.73153C43.8387 10.0431 44.2182 10.4922 44.4933 11.0788C44.7718 11.6655 44.911 12.3714 44.911 13.1967C44.911 14.022 44.7734 14.7296 44.4983 15.3196C44.2232 15.9062 43.8454 16.3587 43.3648 16.6768C42.8842 16.9917 42.3357 17.1491 41.7192 17.1491C41.2552 17.1491 40.8757 17.0713 40.5807 16.9155C40.289 16.7597 40.0603 16.5774 39.8946 16.3686C39.7289 16.1598 39.6013 15.9742 39.5118 15.8118H39.4223V19.8636H37.9358ZM39.3925 13.1818C39.3925 13.7187 39.4704 14.1894 39.6262 14.5938C39.7819 14.9981 40.0073 15.3146 40.3023 15.5433C40.5973 15.7687 40.9585 15.8814 41.3861 15.8814C41.8302 15.8814 42.2014 15.7637 42.4997 15.5284C42.798 15.2898 43.0234 14.9666 43.1759 14.5589C43.3316 14.1513 43.4095 13.6922 43.4095 13.1818C43.4095 12.678 43.3333 12.2256 43.1808 11.8246C43.0317 11.4235 42.8063 11.107 42.5047 10.875C42.2064 10.643 41.8335 10.527 41.3861 10.527C40.9552 10.527 40.5906 10.638 40.2923 10.8601C39.9974 11.0821 39.7736 11.392 39.6212 11.7898C39.4687 12.1875 39.3925 12.6515 39.3925 13.1818ZM49.8676 17.1541C49.1153 17.1541 48.4673 16.9934 47.9237 16.6719C47.3835 16.3471 46.9659 15.8913 46.6709 15.3047C46.3792 14.7147 46.2334 14.0237 46.2334 13.2315C46.2334 12.4493 46.3792 11.7599 46.6709 11.1634C46.9659 10.5668 47.3769 10.1011 47.9039 9.76633C48.4342 9.43158 49.0539 9.2642 49.7632 9.2642C50.1941 9.2642 50.6117 9.33546 51.0161 9.47798C51.4204 9.6205 51.7834 9.84422 52.1048 10.1491C52.4263 10.4541 52.6799 10.8501 52.8655 11.3374C53.0511 11.8213 53.1439 12.4096 53.1439 13.1023V13.6293H47.0736V12.5156H51.6872C51.6872 12.1245 51.6077 11.7782 51.4486 11.4766C51.2895 11.1716 51.0658 10.9313 50.7774 10.7557C50.4924 10.58 50.1576 10.4922 49.7732 10.4922C49.3556 10.4922 48.991 10.5949 48.6794 10.8004C48.3712 11.0026 48.1325 11.2678 47.9635 11.5959C47.7978 11.9207 47.7149 12.2737 47.7149 12.6548V13.5249C47.7149 14.0353 47.8044 14.4695 47.9834 14.8274C48.1657 15.1854 48.4192 15.4588 48.7441 15.6477C49.0689 15.8333 49.4484 15.9261 49.8825 15.9261C50.1643 15.9261 50.4211 15.8864 50.6531 15.8068C50.8852 15.724 51.0857 15.6013 51.2547 15.4389C51.4237 15.2765 51.553 15.076 51.6425 14.8374L53.0494 15.0909C52.9368 15.5052 52.7346 15.8681 52.4429 16.1797C52.1546 16.4879 51.7916 16.7282 51.3541 16.9006C50.92 17.0696 50.4244 17.1541 49.8676 17.1541ZM56.2797 12.4659V17H54.7932V9.36364H56.2201V10.6065H56.3145C56.4902 10.2022 56.7653 9.87737 57.1398 9.6321C57.5177 9.38684 57.9933 9.2642 58.5667 9.2642C59.087 9.2642 59.5428 9.37358 59.9339 9.59233C60.325 9.80777 60.6282 10.1293 60.8437 10.5568C61.0591 10.9844 61.1668 11.513 61.1668 12.1428V17H59.6803V12.3217C59.6803 11.7682 59.5361 11.3357 59.2478 11.0241C58.9594 10.7093 58.5634 10.5518 58.0596 10.5518C57.7149 10.5518 57.4083 10.6264 57.1398 10.7756C56.8747 10.9247 56.6642 11.1435 56.5084 11.4318C56.356 11.7169 56.2797 12.0616 56.2797 12.4659ZM66.0191 17.1491C65.4026 17.1491 64.8524 16.9917 64.3685 16.6768C63.8879 16.3587 63.5101 15.9062 63.235 15.3196C62.9632 14.7296 62.8273 14.022 62.8273 13.1967C62.8273 12.3714 62.9649 11.6655 63.24 11.0788C63.5184 10.4922 63.8995 10.0431 64.3834 9.73153C64.8673 9.41998 65.4159 9.2642 66.029 9.2642C66.503 9.2642 66.8841 9.34375 67.1725 9.50284C67.4642 9.65862 67.6895 9.84091 67.8486 10.0497C68.011 10.2585 68.137 10.4425 68.2265 10.6016H68.316V6.81818H69.8025V17H68.3508V15.8118H68.2265C68.137 15.9742 68.0077 16.1598 67.8387 16.3686C67.673 16.5774 67.4443 16.7597 67.1526 16.9155C66.8609 17.0713 66.4831 17.1491 66.0191 17.1491ZM66.3472 15.8814C66.7748 15.8814 67.136 15.7687 67.431 15.5433C67.7293 15.3146 67.9547 14.9981 68.1072 14.5938C68.2629 14.1894 68.3408 13.7187 68.3408 13.1818C68.3408 12.6515 68.2646 12.1875 68.1121 11.7898C67.9597 11.392 67.7359 11.0821 67.441 10.8601C67.146 10.638 66.7814 10.527 66.3472 10.527C65.8998 10.527 65.5269 10.643 65.2286 10.875C64.9303 11.107 64.7049 11.4235 64.5525 11.8246C64.4033 12.2256 64.3287 12.678 64.3287 13.1818C64.3287 13.6922 64.405 14.1513 64.5574 14.5589C64.7099 14.9666 64.9353 15.2898 65.2336 15.5284C65.5352 15.7637 65.9064 15.8814 66.3472 15.8814ZM75.2153 17.1541C74.4629 17.1541 73.815 16.9934 73.2714 16.6719C72.7311 16.3471 72.3135 15.8913 72.0186 15.3047C71.7269 14.7147 71.5811 14.0237 71.5811 13.2315C71.5811 12.4493 71.7269 11.7599 72.0186 11.1634C72.3135 10.5668 72.7245 10.1011 73.2515 9.76633C73.7818 9.43158 74.4016 9.2642 75.1109 9.2642C75.5418 9.2642 75.9594 9.33546 76.3637 9.47798C76.7681 9.6205 77.131 9.84422 77.4525 10.1491C77.774 10.4541 78.0276 10.8501 78.2132 11.3374C78.3988 11.8213 78.4916 12.4096 78.4916 13.1023V13.6293H72.4213V12.5156H77.0349C77.0349 12.1245 76.9553 11.7782 76.7963 11.4766C76.6372 11.1716 76.4134 10.9313 76.1251 10.7557C75.8401 10.58 75.5053 10.4922 75.1208 10.4922C74.7032 10.4922 74.3386 10.5949 74.0271 10.8004C73.7188 11.0026 73.4802 11.2678 73.3112 11.5959C73.1454 11.9207 73.0626 12.2737 73.0626 12.6548V13.5249C73.0626 14.0353 73.1521 14.4695 73.3311 14.8274C73.5133 15.1854 73.7669 15.4588 74.0917 15.6477C74.4165 15.8333 74.796 15.9261 75.2302 15.9261C75.5119 15.9261 75.7688 15.8864 76.0008 15.8068C76.2328 15.724 76.4333 15.6013 76.6024 15.4389C76.7714 15.2765 76.9007 15.076 76.9901 14.8374L78.3971 15.0909C78.2844 15.5052 78.0822 15.8681 77.7906 16.1797C77.5022 16.4879 77.1393 16.7282 76.7018 16.9006C76.2676 17.0696 75.7721 17.1541 75.2153 17.1541ZM82.9996 17.1491C82.3831 17.1491 81.8329 16.9917 81.349 16.6768C80.8684 16.3587 80.4906 15.9062 80.2155 15.3196C79.9437 14.7296 79.8078 14.022 79.8078 13.1967C79.8078 12.3714 79.9453 11.6655 80.2204 11.0788C80.4988 10.4922 80.88 10.0431 81.3639 9.73153C81.8478 9.41998 82.3963 9.2642 83.0095 9.2642C83.4835 9.2642 83.8646 9.34375 84.153 9.50284C84.4446 9.65862 84.67 9.84091 84.8291 10.0497C84.9915 10.2585 85.1175 10.4425 85.2069 10.6016H85.2964V6.81818H86.7829V17H85.3312V15.8118H85.2069C85.1175 15.9742 84.9882 16.1598 84.8192 16.3686C84.6534 16.5774 84.4247 16.7597 84.1331 16.9155C83.8414 17.0713 83.4636 17.1491 82.9996 17.1491ZM83.3277 15.8814C83.7552 15.8814 84.1165 15.7687 84.4115 15.5433C84.7098 15.3146 84.9352 14.9981 85.0876 14.5938C85.2434 14.1894 85.3213 13.7187 85.3213 13.1818C85.3213 12.6515 85.2451 12.1875 85.0926 11.7898C84.9401 11.392 84.7164 11.0821 84.4214 10.8601C84.1265 10.638 83.7619 10.527 83.3277 10.527C82.8802 10.527 82.5074 10.643 82.2091 10.875C81.9108 11.107 81.6854 11.4235 81.5329 11.8246C81.3838 12.2256 81.3092 12.678 81.3092 13.1818C81.3092 13.6922 81.3854 14.1513 81.5379 14.5589C81.6904 14.9666 81.9157 15.2898 82.214 15.5284C82.5157 15.7637 82.8869 15.8814 83.3277 15.8814Z" fill="#DD900D"/>
<path d="M91.8738 9.81815L97.0836 14.7215C97.597 15.2047 98.3978 15.2047 98.9112 14.7215L104.121 9.81815C104.389 9.56581 104.402 9.14389 104.15 8.87578C103.897 8.60766 103.475 8.59487 103.207 8.84722L97.9974 13.7505L92.7876 8.84722C92.5195 8.59487 92.0976 8.60766 91.8453 8.87577C91.5929 9.14389 91.6057 9.56581 91.8738 9.81815Z" fill="#865503"/>
</svg>
