<svg width="21" height="21" viewBox="0 0 21 21" fill="none" xmlns="http://www.w3.org/2000/svg">
<path d="M8.41415 2.24219C8.06776 2.24219 7.7575 2.45646 7.63482 2.7804L7.4435 3.28563C7.03335 3.24465 6.65545 3.20374 6.34954 3.16939C6.12087 3.14372 5.93289 3.12176 5.80231 3.10625L5.65169 3.08817L5.60053 3.08192C5.14379 3.02536 4.72703 3.3497 4.67047 3.80644C4.6139 4.26319 4.93832 4.67931 5.39507 4.73587L5.45073 4.74268L5.60571 4.76128C5.73933 4.77715 5.93089 4.79953 6.16358 4.82565C6.62855 4.87786 7.25963 4.94526 7.92174 5.00569C8.81489 5.0872 9.79392 5.15885 10.4975 5.15885C11.201 5.15885 12.1801 5.0872 13.0732 5.00569C13.7353 4.94526 14.3664 4.87786 14.8314 4.82565C15.0641 4.79953 15.2556 4.77715 15.3893 4.76128L15.5442 4.74268L15.5998 4.73588C16.0565 4.67932 16.3811 4.26319 16.3245 3.80644C16.2679 3.3497 15.8518 3.02528 15.3951 3.08184L15.3433 3.08817L15.1927 3.10625C15.0621 3.12176 14.8741 3.14372 14.6454 3.16939C14.3395 3.20374 13.9616 3.24465 13.5515 3.28563L13.3601 2.7804C13.2375 2.45646 12.9272 2.24219 12.5808 2.24219H8.41415Z" fill="#98A2B3"/>
<path d="M9.66415 10.5755C9.66415 10.1153 9.29105 9.74219 8.83082 9.74219C8.37058 9.74219 7.99748 10.1153 7.99748 10.5755V14.7422C7.99748 15.2024 8.37058 15.5755 8.83082 15.5755C9.29105 15.5755 9.66415 15.2024 9.66415 14.7422V10.5755Z" fill="#98A2B3"/>
<path d="M12.1641 9.74219C12.6244 9.74219 12.9975 10.1153 12.9975 10.5755V14.7422C12.9975 15.2024 12.6244 15.5755 12.1641 15.5755C11.7039 15.5755 11.3308 15.2024 11.3308 14.7422V10.5755C11.3308 10.1153 11.7039 9.74219 12.1641 9.74219Z" fill="#98A2B3"/>
<path fill-rule="evenodd" clip-rule="evenodd" d="M16.2555 7.49265C16.331 6.43535 15.4195 5.58771 14.3836 5.70744C13.3235 5.82994 11.6878 5.99219 10.4975 5.99219C9.3072 5.99219 7.67143 5.82994 6.6114 5.70744C5.57546 5.58772 4.66392 6.43535 4.73944 7.49265L5.45338 17.4879C5.5075 18.2456 6.07187 18.8862 6.84635 19.0027C7.67686 19.1275 9.20077 19.327 10.4984 19.3255C11.7802 19.324 13.3103 19.1254 14.1445 19.0016C14.9203 18.8866 15.4875 18.2455 15.5417 17.4856L16.2555 7.49265ZM14.5749 7.36308C14.5778 7.36275 14.58 7.36295 14.58 7.36295L14.5822 7.36345C14.5841 7.36409 14.587 7.36561 14.5898 7.36833C14.5917 7.37013 14.5932 7.37233 14.5932 7.37233L14.5931 7.37391L13.8801 17.356C13.0545 17.478 11.6396 17.6575 10.4965 17.6589C9.34106 17.6602 7.93488 17.4804 7.11499 17.3576L6.40187 7.37391L6.40181 7.37233C6.40181 7.37233 6.40323 7.37013 6.40513 7.36833C6.408 7.36561 6.41091 7.36409 6.41276 7.36345L6.41496 7.36295C6.41496 7.36295 6.41718 7.36275 6.42007 7.36308C7.48197 7.4858 9.20202 7.65885 10.4975 7.65885C11.7929 7.65885 13.513 7.4858 14.5749 7.36308Z" fill="#98A2B3"/>
</svg>
