<svg width="40" height="40" viewBox="0 0 40 40" fill="none" xmlns="http://www.w3.org/2000/svg">
<rect width="40" height="40" rx="8" fill="#FEF6E7"/>
<path fill-rule="evenodd" clip-rule="evenodd" d="M16.2474 16.1077C17.2184 15.7645 17.9141 14.8385 17.9141 13.75C17.9141 12.3693 16.7948 11.25 15.4141 11.25C14.0334 11.25 12.9141 12.3693 12.9141 13.75C12.9141 14.8385 13.6097 15.7645 14.5807 16.1077V20.5589C13.6097 20.9021 12.9141 21.8282 12.9141 22.9167C12.9141 24.0059 13.6106 24.9324 14.5826 25.2751C14.5814 25.2934 14.5808 25.3119 14.5808 25.3305V27.9167C14.5808 28.3769 14.9539 28.75 15.4142 28.75C15.8744 28.75 16.2475 28.3769 16.2475 27.9167V25.3305C16.2475 25.3118 16.2469 25.2933 16.2457 25.275C16.8849 25.0496 17.4051 24.5716 17.6862 23.9609C20.7468 23.9712 22.7753 23.2802 23.9862 21.7374C25.1103 20.3054 25.3695 18.3133 25.4084 16.1097C26.3823 15.7682 27.0807 14.8406 27.0807 13.75C27.0807 12.3693 25.9614 11.25 24.5807 11.25C23.2 11.25 22.0807 12.3693 22.0807 13.75C22.0807 14.8361 22.7734 15.7605 23.741 16.1055C23.6989 18.2526 23.4387 19.7357 22.6752 20.7083C21.946 21.6374 20.5915 22.2824 17.836 22.2943C17.6287 21.4853 17.0267 20.8344 16.2474 20.5589V16.1077ZM16.2474 13.75C16.2474 13.2898 15.8743 12.9167 15.4141 12.9167C14.9538 12.9167 14.5807 13.2898 14.5807 13.75C14.5807 14.2102 14.9538 14.5833 15.4141 14.5833C15.8743 14.5833 16.2474 14.2102 16.2474 13.75ZM24.5807 14.5833C25.041 14.5833 25.4141 14.2102 25.4141 13.75C25.4141 13.2898 25.041 12.9167 24.5807 12.9167C24.1205 12.9167 23.7474 13.2898 23.7474 13.75C23.7474 14.2102 24.1205 14.5833 24.5807 14.5833ZM16.2474 22.9167C16.2474 22.4564 15.8743 22.0833 15.4141 22.0833C14.9538 22.0833 14.5807 22.4564 14.5807 22.9167C14.5807 23.3769 14.9538 23.75 15.4141 23.75C15.8743 23.75 16.2474 23.3769 16.2474 22.9167Z" fill="#F3A218"/>
</svg>
