<svg width="257" height="78" viewBox="0 0 257 78" fill="none" xmlns="http://www.w3.org/2000/svg">
<path d="M70.5561 7.23775C70.505 6.80593 70.2976 6.4707 69.9339 6.23207C69.5703 5.99343 69.1243 5.87411 68.5959 5.87411C68.2095 5.87411 67.8714 5.93661 67.5817 6.06161C67.2947 6.18661 67.0703 6.35849 66.9084 6.57724C66.7493 6.79599 66.6697 7.04457 66.6697 7.32298C66.6697 7.55593 66.7251 7.75621 66.8359 7.92383C66.9496 8.0886 67.0945 8.22638 67.2706 8.33718C67.4467 8.44513 67.6314 8.53462 67.8246 8.60565C68.0178 8.67383 68.1953 8.72923 68.3572 8.77184L69.2436 9.01048C69.4709 9.07013 69.7237 9.15252 70.0021 9.25763C70.2834 9.36275 70.5518 9.50621 70.8075 9.68803C71.0661 9.86701 71.2791 10.0971 71.4467 10.3784C71.6143 10.6596 71.6982 11.0048 71.6982 11.4139C71.6982 11.8855 71.5746 12.3116 71.3274 12.6923C71.0831 13.073 70.7251 13.3755 70.2536 13.6C69.7848 13.8244 69.2152 13.9366 68.5447 13.9366C67.9197 13.9366 67.3786 13.8358 66.9212 13.6341C66.4666 13.4324 66.1087 13.1511 65.8473 12.7903C65.5888 12.4295 65.4425 12.0105 65.4084 11.5332H66.4993C66.5277 11.8627 66.6385 12.1355 66.8317 12.3514C67.0277 12.5645 67.2749 12.7235 67.5732 12.8287C67.8743 12.9309 68.1982 12.9821 68.5447 12.9821C68.9482 12.9821 69.3104 12.9167 69.6314 12.786C69.9524 12.6525 70.2067 12.4679 70.3942 12.2321C70.5817 11.9934 70.6754 11.715 70.6754 11.3968C70.6754 11.1071 70.5945 10.8713 70.4325 10.6895C70.2706 10.5076 70.0575 10.3599 69.7933 10.2463C69.5291 10.1326 69.2436 10.0332 68.9368 9.94798L67.8629 9.64116C67.1811 9.44513 66.6413 9.16531 66.2436 8.80167C65.8459 8.43803 65.647 7.96218 65.647 7.37411C65.647 6.88548 65.7791 6.45934 66.0433 6.0957C66.3104 5.72923 66.6683 5.44513 67.1172 5.24343C67.5689 5.03888 68.0732 4.93661 68.63 4.93661C69.1925 4.93661 69.6925 5.03746 70.13 5.23917C70.5675 5.43803 70.9141 5.71076 71.1697 6.05735C71.4283 6.40394 71.5646 6.79741 71.5788 7.23775H70.5561ZM77.4244 11.1071V7.23775H78.43V13.7832H77.4244V12.6752H77.3562C77.2028 13.0076 76.9641 13.2903 76.6403 13.5233C76.3164 13.7534 75.9073 13.8684 75.413 13.8684C75.0039 13.8684 74.6403 13.7789 74.3221 13.6C74.0039 13.4181 73.7539 13.1454 73.5721 12.7818C73.3903 12.4153 73.2994 11.9537 73.2994 11.3968V7.23775H74.305V11.3287C74.305 11.8059 74.4386 12.1866 74.7056 12.4707C74.9755 12.7548 75.3192 12.8968 75.7369 12.8968C75.9869 12.8968 76.2411 12.8329 76.4996 12.7051C76.761 12.5772 76.9798 12.3812 77.1559 12.117C77.3349 11.8528 77.4244 11.5162 77.4244 11.1071ZM82.9311 13.9196C82.3175 13.9196 81.7891 13.7747 81.3459 13.4849C80.9027 13.1951 80.5618 12.796 80.3232 12.2875C80.0845 11.7789 79.9652 11.198 79.9652 10.5446C79.9652 9.87979 80.0874 9.29315 80.3317 8.78462C80.5788 8.27326 80.9226 7.87411 81.3629 7.58718C81.8061 7.29741 82.3232 7.15252 82.9141 7.15252C83.3743 7.15252 83.7891 7.23775 84.1584 7.4082C84.5277 7.57866 84.8303 7.81729 85.0661 8.12411C85.3018 8.43093 85.4482 8.78888 85.505 9.19798H84.4993C84.4226 8.89968 84.2521 8.63548 83.9879 8.40536C83.7266 8.17241 83.3743 8.05593 82.9311 8.05593C82.5391 8.05593 82.1953 8.1582 81.8999 8.36275C81.6072 8.56445 81.3786 8.84996 81.2138 9.21928C81.0518 9.58576 80.9709 10.0162 80.9709 10.5105C80.9709 11.0162 81.0504 11.4565 81.2095 11.8315C81.3714 12.2065 81.5987 12.4977 81.8913 12.7051C82.1868 12.9125 82.5334 13.0162 82.9311 13.0162C83.1925 13.0162 83.4297 12.9707 83.6428 12.8798C83.8558 12.7889 84.0362 12.6582 84.1839 12.4877C84.3317 12.3173 84.4368 12.1127 84.4993 11.8741H85.505C85.4482 12.2605 85.3075 12.6085 85.0831 12.9181C84.8615 13.225 84.5675 13.4693 84.201 13.6511C83.8374 13.8301 83.4141 13.9196 82.9311 13.9196ZM89.6342 13.9196C89.0206 13.9196 88.4922 13.7747 88.049 13.4849C87.6058 13.1951 87.2649 12.796 87.0263 12.2875C86.7876 11.7789 86.6683 11.198 86.6683 10.5446C86.6683 9.87979 86.7905 9.29315 87.0348 8.78462C87.282 8.27326 87.6257 7.87411 88.0661 7.58718C88.5092 7.29741 89.0263 7.15252 89.6172 7.15252C90.0774 7.15252 90.4922 7.23775 90.8615 7.4082C91.2308 7.57866 91.5334 7.81729 91.7692 8.12411C92.005 8.43093 92.1513 8.78888 92.2081 9.19798H91.2024C91.1257 8.89968 90.9553 8.63548 90.6911 8.40536C90.4297 8.17241 90.0774 8.05593 89.6342 8.05593C89.2422 8.05593 88.8984 8.1582 88.603 8.36275C88.3104 8.56445 88.0817 8.84996 87.9169 9.21928C87.755 9.58576 87.674 10.0162 87.674 10.5105C87.674 11.0162 87.7536 11.4565 87.9126 11.8315C88.0746 12.2065 88.3018 12.4977 88.5945 12.7051C88.8899 12.9125 89.2365 13.0162 89.6342 13.0162C89.8956 13.0162 90.1328 12.9707 90.3459 12.8798C90.5589 12.7889 90.7393 12.6582 90.8871 12.4877C91.0348 12.3173 91.1399 12.1127 91.2024 11.8741H92.2081C92.1513 12.2605 92.0107 12.6085 91.7862 12.9181C91.5646 13.225 91.2706 13.4693 90.9041 13.6511C90.5405 13.8301 90.1172 13.9196 89.6342 13.9196ZM96.4226 13.9196C95.7919 13.9196 95.2479 13.7804 94.7905 13.502C94.3359 13.2207 93.9851 12.8287 93.7379 12.3258C93.4936 11.8201 93.3714 11.2321 93.3714 10.5616C93.3714 9.89116 93.4936 9.30025 93.7379 8.78888C93.9851 8.27468 94.3288 7.87411 94.7692 7.58718C95.2124 7.29741 95.7294 7.15252 96.3203 7.15252C96.6612 7.15252 96.9979 7.20934 97.3303 7.32298C97.6626 7.43661 97.9652 7.62127 98.2379 7.87695C98.5107 8.12979 98.728 8.46502 98.8899 8.88263C99.0518 9.30025 99.1328 9.81445 99.1328 10.4252V10.8514H94.0874V9.98207H98.1101C98.1101 9.61275 98.0362 9.2832 97.8885 8.99343C97.7436 8.70366 97.5362 8.47496 97.2663 8.30735C96.9993 8.13974 96.6839 8.05593 96.3203 8.05593C95.9197 8.05593 95.5732 8.15536 95.2805 8.35423C94.9908 8.55025 94.7678 8.80593 94.6115 9.12127C94.4553 9.43661 94.3771 9.77468 94.3771 10.1355V10.715C94.3771 11.2093 94.4624 11.6284 94.6328 11.9721C94.8061 12.313 95.0462 12.573 95.353 12.752C95.6598 12.9281 96.0163 13.0162 96.4226 13.0162C96.6868 13.0162 96.9254 12.9792 97.1385 12.9054C97.3544 12.8287 97.5405 12.715 97.6967 12.5645C97.853 12.411 97.9737 12.2207 98.0589 11.9934L99.0305 12.2662C98.9283 12.5957 98.7564 12.8855 98.5149 13.1355C98.2734 13.3826 97.9751 13.5758 97.62 13.715C97.2649 13.8514 96.8658 13.9196 96.4226 13.9196ZM105.299 8.70366L104.396 8.95934C104.339 8.80877 104.255 8.66246 104.144 8.52042C104.036 8.37553 103.888 8.25621 103.701 8.16246C103.513 8.06871 103.273 8.02184 102.981 8.02184C102.58 8.02184 102.246 8.11417 101.979 8.29883C101.715 8.48065 101.583 8.71218 101.583 8.99343C101.583 9.24343 101.674 9.44087 101.856 9.58576C102.038 9.73065 102.322 9.85138 102.708 9.94798L103.68 10.1866C104.265 10.3287 104.701 10.546 104.988 10.8386C105.275 11.1284 105.418 11.502 105.418 11.9593C105.418 12.3343 105.31 12.6696 105.094 12.965C104.881 13.2605 104.583 13.4934 104.2 13.6639C103.816 13.8343 103.37 13.9196 102.862 13.9196C102.194 13.9196 101.641 13.7747 101.204 13.4849C100.766 13.1951 100.489 12.7718 100.373 12.215L101.327 11.9764C101.418 12.3287 101.59 12.5929 101.843 12.769C102.099 12.9451 102.433 13.0332 102.844 13.0332C103.313 13.0332 103.685 12.9338 103.961 12.7349C104.239 12.5332 104.379 12.2917 104.379 12.0105C104.379 11.7832 104.299 11.5929 104.14 11.4395C103.981 11.2832 103.737 11.1667 103.407 11.09L102.316 10.8343C101.717 10.6923 101.276 10.4721 100.995 10.1738C100.717 9.87269 100.577 9.49627 100.577 9.04457C100.577 8.67525 100.681 8.34854 100.888 8.06445C101.099 7.78036 101.384 7.55735 101.745 7.39542C102.109 7.23349 102.521 7.15252 102.981 7.15252C103.629 7.15252 104.137 7.29457 104.506 7.57866C104.879 7.86275 105.143 8.23775 105.299 8.70366ZM111.569 8.70366L110.665 8.95934C110.608 8.80877 110.525 8.66246 110.414 8.52042C110.306 8.37553 110.158 8.25621 109.971 8.16246C109.783 8.06871 109.543 8.02184 109.25 8.02184C108.85 8.02184 108.516 8.11417 108.249 8.29883C107.985 8.48065 107.853 8.71218 107.853 8.99343C107.853 9.24343 107.944 9.44087 108.125 9.58576C108.307 9.73065 108.591 9.85138 108.978 9.94798L109.949 10.1866C110.534 10.3287 110.971 10.546 111.257 10.8386C111.544 11.1284 111.688 11.502 111.688 11.9593C111.688 12.3343 111.58 12.6696 111.364 12.965C111.151 13.2605 110.853 13.4934 110.469 13.6639C110.086 13.8343 109.64 13.9196 109.131 13.9196C108.463 13.9196 107.911 13.7747 107.473 13.4849C107.036 13.1951 106.759 12.7718 106.642 12.215L107.597 11.9764C107.688 12.3287 107.86 12.5929 108.113 12.769C108.368 12.9451 108.702 13.0332 109.114 13.0332C109.583 13.0332 109.955 12.9338 110.23 12.7349C110.509 12.5332 110.648 12.2917 110.648 12.0105C110.648 11.7832 110.569 11.5929 110.409 11.4395C110.25 11.2832 110.006 11.1667 109.676 11.09L108.586 10.8343C107.986 10.6923 107.546 10.4721 107.265 10.1738C106.986 9.87269 106.847 9.49627 106.847 9.04457C106.847 8.67525 106.951 8.34854 107.158 8.06445C107.368 7.78036 107.654 7.55735 108.015 7.39542C108.378 7.23349 108.79 7.15252 109.25 7.15252C109.898 7.15252 110.407 7.29457 110.776 7.57866C111.148 7.86275 111.412 8.23775 111.569 8.70366ZM116.116 7.23775V8.09002H112.588V7.23775H116.116ZM113.645 13.7832V6.33434C113.645 5.95934 113.733 5.64684 113.909 5.39684C114.085 5.14684 114.314 4.95934 114.595 4.83434C114.876 4.70934 115.173 4.64684 115.486 4.64684C115.733 4.64684 115.935 4.66673 116.091 4.7065C116.247 4.74627 116.364 4.7832 116.44 4.81729L116.151 5.68661C116.099 5.66957 116.028 5.64826 115.938 5.62269C115.849 5.59712 115.733 5.58434 115.588 5.58434C115.256 5.58434 115.016 5.66815 114.868 5.83576C114.723 6.00337 114.651 6.24911 114.651 6.57298V13.7832H113.645ZM121.651 11.1071V7.23775H122.657V13.7832H121.651V12.6752H121.583C121.429 13.0076 121.191 13.2903 120.867 13.5233C120.543 13.7534 120.134 13.8684 119.64 13.8684C119.23 13.8684 118.867 13.7789 118.549 13.6C118.23 13.4181 117.98 13.1454 117.799 12.7818C117.617 12.4153 117.526 11.9537 117.526 11.3968V7.23775H118.532V11.3287C118.532 11.8059 118.665 12.1866 118.932 12.4707C119.202 12.7548 119.546 12.8968 119.963 12.8968C120.213 12.8968 120.468 12.8329 120.726 12.7051C120.988 12.5772 121.206 12.3812 121.382 12.117C121.561 11.8528 121.651 11.5162 121.651 11.1071ZM125.504 5.05593V13.7832H124.499V5.05593H125.504ZM128.352 5.05593V13.7832H127.346V5.05593H128.352ZM130.842 16.2377C130.671 16.2377 130.519 16.2235 130.386 16.1951C130.252 16.1696 130.16 16.144 130.109 16.1184L130.364 15.2321C130.609 15.2946 130.825 15.3173 131.012 15.3002C131.2 15.2832 131.366 15.1994 131.511 15.0488C131.658 14.9011 131.793 14.661 131.915 14.3287L132.103 13.8173L129.683 7.23775H130.773L132.58 12.4537H132.648L134.455 7.23775H135.546L132.768 14.7377C132.643 15.0758 132.488 15.3556 132.303 15.5772C132.119 15.8017 131.904 15.9679 131.66 16.0758C131.418 16.1838 131.146 16.2377 130.842 16.2377ZM144.374 11.1071V7.23775H145.379V13.7832H144.374V12.6752H144.305C144.152 13.0076 143.913 13.2903 143.589 13.5233C143.266 13.7534 142.857 13.8684 142.362 13.8684C141.953 13.8684 141.589 13.7789 141.271 13.6C140.953 13.4181 140.703 13.1454 140.521 12.7818C140.339 12.4153 140.249 11.9537 140.249 11.3968V7.23775H141.254V11.3287C141.254 11.8059 141.388 12.1866 141.655 12.4707C141.925 12.7548 142.268 12.8968 142.686 12.8968C142.936 12.8968 143.19 12.8329 143.449 12.7051C143.71 12.5772 143.929 12.3812 144.105 12.117C144.284 11.8528 144.374 11.5162 144.374 11.1071ZM147.221 16.2377V7.23775H148.193V8.27752H148.312C148.386 8.16388 148.488 8.019 148.619 7.84286C148.752 7.66388 148.943 7.50479 149.19 7.36559C149.44 7.22354 149.778 7.15252 150.204 7.15252C150.755 7.15252 151.241 7.29031 151.662 7.56587C152.082 7.84144 152.41 8.23207 152.646 8.73775C152.882 9.24343 153 9.84002 153 10.5275C153 11.2207 152.882 11.8216 152.646 12.3301C152.41 12.8358 152.083 13.2278 151.666 13.5062C151.248 13.7818 150.767 13.9196 150.221 13.9196C149.801 13.9196 149.464 13.85 149.211 13.7108C148.958 13.5687 148.764 13.4082 148.627 13.2292C148.491 13.0474 148.386 12.8968 148.312 12.7775H148.227V16.2377H147.221ZM148.21 10.5105C148.21 11.0048 148.282 11.4409 148.427 11.8187C148.572 12.1937 148.784 12.4877 149.062 12.7008C149.341 12.911 149.681 13.0162 150.085 13.0162C150.505 13.0162 150.856 12.9054 151.137 12.6838C151.422 12.4593 151.635 12.1582 151.777 11.7804C151.922 11.3997 151.994 10.9764 151.994 10.5105C151.994 10.0502 151.923 9.63548 151.781 9.26616C151.642 8.894 151.43 8.59996 151.146 8.38406C150.865 8.16531 150.511 8.05593 150.085 8.05593C149.676 8.05593 149.332 8.15962 149.054 8.36701C148.775 8.57156 148.565 8.85849 148.423 9.22781C148.281 9.59428 148.21 10.0218 148.21 10.5105ZM155.539 5.05593V13.7832H154.534V5.05593H155.539ZM160.04 13.9196C159.45 13.9196 158.931 13.7789 158.485 13.4977C158.042 13.2164 157.695 12.823 157.445 12.3173C157.198 11.8116 157.075 11.2207 157.075 10.5446C157.075 9.86275 157.198 9.26758 157.445 8.75906C157.695 8.25053 158.042 7.85565 158.485 7.5744C158.931 7.29315 159.45 7.15252 160.04 7.15252C160.631 7.15252 161.148 7.29315 161.592 7.5744C162.038 7.85565 162.384 8.25053 162.631 8.75906C162.881 9.26758 163.006 9.86275 163.006 10.5446C163.006 11.2207 162.881 11.8116 162.631 12.3173C162.384 12.823 162.038 13.2164 161.592 13.4977C161.148 13.7789 160.631 13.9196 160.04 13.9196ZM160.04 13.0162C160.489 13.0162 160.859 12.9011 161.148 12.671C161.438 12.4409 161.653 12.1383 161.792 11.7633C161.931 11.3883 162.001 10.9821 162.001 10.5446C162.001 10.1071 161.931 9.6994 161.792 9.32156C161.653 8.94371 161.438 8.63832 161.148 8.40536C160.859 8.17241 160.489 8.05593 160.04 8.05593C159.592 8.05593 159.222 8.17241 158.933 8.40536C158.643 8.63832 158.428 8.94371 158.289 9.32156C158.15 9.6994 158.08 10.1071 158.08 10.5446C158.08 10.9821 158.15 11.3883 158.289 11.7633C158.428 12.1383 158.643 12.4409 158.933 12.671C159.222 12.9011 159.592 13.0162 160.04 13.0162ZM166.468 13.9366C166.053 13.9366 165.676 13.8585 165.338 13.7022C165 13.5431 164.732 13.3145 164.533 13.0162C164.334 12.715 164.235 12.3514 164.235 11.9252C164.235 11.5502 164.309 11.2463 164.456 11.0133C164.604 10.7775 164.801 10.5929 165.049 10.4593C165.296 10.3258 165.569 10.2264 165.867 10.161C166.168 10.0929 166.471 10.0389 166.775 9.99911C167.172 9.94798 167.495 9.90962 167.742 9.88406C167.992 9.85565 168.174 9.80877 168.287 9.74343C168.404 9.67809 168.462 9.56445 168.462 9.40252V9.36843C168.462 8.94798 168.347 8.62127 168.117 8.38832C167.89 8.15536 167.544 8.03888 167.081 8.03888C166.601 8.03888 166.225 8.144 165.952 8.35423C165.679 8.56445 165.488 8.78888 165.377 9.02752L164.422 8.68661C164.593 8.28888 164.82 7.97923 165.104 7.75763C165.391 7.5332 165.703 7.37695 166.042 7.28888C166.382 7.19798 166.718 7.15252 167.047 7.15252C167.257 7.15252 167.499 7.17809 167.772 7.22923C168.047 7.27752 168.313 7.37837 168.569 7.53178C168.827 7.68519 169.042 7.91673 169.212 8.22638C169.382 8.53604 169.468 8.95082 169.468 9.4707V13.7832H168.462V12.8968H168.411C168.343 13.0389 168.229 13.1909 168.07 13.3528C167.911 13.5147 167.699 13.6525 167.435 13.7662C167.171 13.8798 166.848 13.9366 166.468 13.9366ZM166.621 13.0332C167.019 13.0332 167.354 12.9551 167.627 12.7988C167.902 12.6426 168.11 12.4409 168.249 12.1937C168.391 11.9466 168.462 11.6866 168.462 11.4139V10.4934C168.419 10.5446 168.326 10.5914 168.181 10.6341C168.039 10.6738 167.874 10.7093 167.686 10.7406C167.502 10.769 167.321 10.7946 167.145 10.8173C166.972 10.8372 166.831 10.8542 166.723 10.8684C166.462 10.9025 166.218 10.9579 165.99 11.0346C165.766 11.1085 165.584 11.2207 165.445 11.3713C165.309 11.519 165.24 11.7207 165.24 11.9764C165.24 12.3258 165.37 12.59 165.628 12.769C165.89 12.9451 166.221 13.0332 166.621 13.0332ZM173.775 13.9196C173.229 13.9196 172.748 13.7818 172.33 13.5062C171.913 13.2278 171.586 12.8358 171.35 12.3301C171.114 11.8216 170.996 11.2207 170.996 10.5275C170.996 9.84002 171.114 9.24343 171.35 8.73775C171.586 8.23207 171.914 7.84144 172.335 7.56587C172.755 7.29031 173.241 7.15252 173.792 7.15252C174.218 7.15252 174.555 7.22354 174.802 7.36559C175.052 7.50479 175.242 7.66388 175.373 7.84286C175.506 8.019 175.61 8.16388 175.684 8.27752H175.769V5.05593H176.775V13.7832H175.803V12.7775H175.684C175.61 12.8968 175.505 13.0474 175.369 13.2292C175.232 13.4082 175.038 13.5687 174.785 13.7108C174.532 13.85 174.195 13.9196 173.775 13.9196ZM173.911 13.0162C174.315 13.0162 174.656 12.911 174.934 12.7008C175.212 12.4877 175.424 12.1937 175.569 11.8187C175.714 11.4409 175.786 11.0048 175.786 10.5105C175.786 10.0218 175.715 9.59428 175.573 9.22781C175.431 8.85849 175.221 8.57156 174.942 8.36701C174.664 8.15962 174.32 8.05593 173.911 8.05593C173.485 8.05593 173.13 8.16531 172.846 8.38406C172.565 8.59996 172.353 8.894 172.211 9.26616C172.072 9.63548 172.002 10.0502 172.002 10.5105C172.002 10.9764 172.073 11.3997 172.215 11.7804C172.36 12.1582 172.573 12.4593 172.854 12.6838C173.138 12.9054 173.491 13.0162 173.911 13.0162ZM181.501 13.9196C180.87 13.9196 180.326 13.7804 179.869 13.502C179.414 13.2207 179.063 12.8287 178.816 12.3258C178.572 11.8201 178.45 11.2321 178.45 10.5616C178.45 9.89116 178.572 9.30025 178.816 8.78888C179.063 8.27468 179.407 7.87411 179.847 7.58718C180.29 7.29741 180.808 7.15252 181.398 7.15252C181.739 7.15252 182.076 7.20934 182.408 7.32298C182.741 7.43661 183.043 7.62127 183.316 7.87695C183.589 8.12979 183.806 8.46502 183.968 8.88263C184.13 9.30025 184.211 9.81445 184.211 10.4252V10.8514H179.165V9.98207H183.188C183.188 9.61275 183.114 9.2832 182.967 8.99343C182.822 8.70366 182.614 8.47496 182.344 8.30735C182.077 8.13974 181.762 8.05593 181.398 8.05593C180.998 8.05593 180.651 8.15536 180.359 8.35423C180.069 8.55025 179.846 8.80593 179.69 9.12127C179.533 9.43661 179.455 9.77468 179.455 10.1355V10.715C179.455 11.2093 179.54 11.6284 179.711 11.9721C179.884 12.313 180.124 12.573 180.431 12.752C180.738 12.9281 181.094 13.0162 181.501 13.0162C181.765 13.0162 182.004 12.9792 182.217 12.9054C182.433 12.8287 182.619 12.715 182.775 12.5645C182.931 12.411 183.052 12.2207 183.137 11.9934L184.109 12.2662C184.006 12.5957 183.835 12.8855 183.593 13.1355C183.352 13.3826 183.053 13.5758 182.698 13.715C182.343 13.8514 181.944 13.9196 181.501 13.9196ZM188.212 13.9196C187.667 13.9196 187.185 13.7818 186.768 13.5062C186.35 13.2278 186.023 12.8358 185.788 12.3301C185.552 11.8216 185.434 11.2207 185.434 10.5275C185.434 9.84002 185.552 9.24343 185.788 8.73775C186.023 8.23207 186.352 7.84144 186.772 7.56587C187.192 7.29031 187.678 7.15252 188.229 7.15252C188.656 7.15252 188.992 7.22354 189.239 7.36559C189.489 7.50479 189.68 7.66388 189.81 7.84286C189.944 8.019 190.048 8.16388 190.121 8.27752H190.207V5.05593H191.212V13.7832H190.241V12.7775H190.121C190.048 12.8968 189.942 13.0474 189.806 13.2292C189.67 13.4082 189.475 13.5687 189.222 13.7108C188.969 13.85 188.633 13.9196 188.212 13.9196ZM188.349 13.0162C188.752 13.0162 189.093 12.911 189.371 12.7008C189.65 12.4877 189.862 12.1937 190.006 11.8187C190.151 11.4409 190.224 11.0048 190.224 10.5105C190.224 10.0218 190.153 9.59428 190.011 9.22781C189.869 8.85849 189.658 8.57156 189.38 8.36701C189.102 8.15962 188.758 8.05593 188.349 8.05593C187.923 8.05593 187.567 8.16531 187.283 8.38406C187.002 8.59996 186.79 8.894 186.648 9.26616C186.509 9.63548 186.44 10.0502 186.44 10.5105C186.44 10.9764 186.511 11.3997 186.653 11.7804C186.798 12.1582 187.011 12.4593 187.292 12.6838C187.576 12.9054 187.928 13.0162 188.349 13.0162Z" fill="#15AD07"/>
<circle cx="128.5" cy="49.7832" r="28" fill="#E7F6EC"/>
<path fill-rule="evenodd" clip-rule="evenodd" d="M128.5 62.9082C135.749 62.9082 141.625 57.0319 141.625 49.7832C141.625 42.5345 135.749 36.6582 128.5 36.6582C121.251 36.6582 115.375 42.5345 115.375 49.7832C115.375 57.0319 121.251 62.9082 128.5 62.9082ZM133.86 47.942C134.454 47.398 134.494 46.4755 133.95 45.8816C133.406 45.2876 132.484 45.2471 131.89 45.7911L126.506 50.7223L125.11 49.444C124.516 48.9 123.594 48.9405 123.05 49.5345C122.506 50.1284 122.546 51.0509 123.14 51.5949L125.521 53.7753C126.078 54.2858 126.933 54.2858 127.491 53.7753L133.86 47.942Z" fill="#0F973D"/>
</svg>
