<svg width="56" height="56" viewBox="0 0 56 56" fill="none" xmlns="http://www.w3.org/2000/svg">
<rect width="56" height="56" rx="8" fill="#E8F7E6"/>
<path fill-rule="evenodd" clip-rule="evenodd" d="M27.9974 16.332C24.7757 16.332 22.1641 18.9437 22.1641 22.1654C22.1641 25.387 24.7757 27.9987 27.9974 27.9987C31.2191 27.9987 33.8307 25.387 33.8307 22.1654C33.8307 18.9437 31.2191 16.332 27.9974 16.332ZM24.4974 22.1654C24.4974 20.2324 26.0644 18.6654 27.9974 18.6654C29.9304 18.6654 31.4974 20.2324 31.4974 22.1654C31.4974 24.0984 29.9304 25.6654 27.9974 25.6654C26.0644 25.6654 24.4974 24.0984 24.4974 22.1654Z" fill="#15AD07"/>
<path fill-rule="evenodd" clip-rule="evenodd" d="M27.9974 40.832C26.2001 40.832 23.5989 40.4239 21.6454 39.569C20.6864 39.1492 19.7111 38.5485 19.1444 37.679C18.8464 37.2217 18.658 36.683 18.6642 36.0816C18.6703 35.4857 18.8664 34.9148 19.196 34.3836C20.7936 31.8086 24.062 29.1654 27.9974 29.1654C31.9328 29.1654 35.2012 31.8086 36.7988 34.3836C37.1284 34.9148 37.3245 35.4857 37.3306 36.0816C37.3368 36.683 37.1484 37.2217 36.8503 37.679C36.2837 38.5485 35.3084 39.1493 34.3494 39.569C32.3959 40.4239 29.7946 40.832 27.9974 40.832ZM21.1787 35.6138C21.0251 35.8614 20.9983 36.0204 20.9974 36.1056C20.9966 36.1853 21.0171 36.2789 21.0993 36.4051C21.2932 36.7026 21.764 37.0738 22.5809 37.4314C24.1794 38.131 26.4495 38.4987 27.9974 38.4987C29.5453 38.4987 31.8154 38.131 33.4138 37.4314C34.2308 37.0738 34.7016 36.7026 34.8955 36.4051C34.9777 36.2789 34.9982 36.1853 34.9974 36.1056C34.9965 36.0204 34.9697 35.8614 34.8161 35.6138C33.5069 33.5037 30.8958 31.4987 27.9974 31.4987C25.099 31.4987 22.4879 33.5037 21.1787 35.6138Z" fill="#15AD07"/>
</svg>
