<svg width="40" height="40" viewBox="0 0 40 40" fill="none" xmlns="http://www.w3.org/2000/svg">
<rect width="40" height="40" rx="8" fill="#E8F7E6"/>
<path fill-rule="evenodd" clip-rule="evenodd" d="M21.6673 12.5C18.9058 12.5 16.6673 14.7386 16.6673 17.5C16.6673 20.2614 18.9058 22.5 21.6673 22.5C24.4287 22.5 26.6673 20.2614 26.6673 17.5C26.6673 14.7386 24.4287 12.5 21.6673 12.5ZM18.3339 17.5C18.3339 15.6591 19.8263 14.1667 21.6673 14.1667C23.5082 14.1667 25.0006 15.6591 25.0006 17.5C25.0006 19.3409 23.5082 20.8333 21.6673 20.8333C19.8263 20.8333 18.3339 19.3409 18.3339 17.5Z" fill="#15AD07"/>
<path d="M16.7968 27.106C16.5541 27.4971 16.0404 27.6174 15.6493 27.3748C15.2582 27.1321 15.1379 26.6184 15.3805 26.2273C16.5217 24.388 18.8563 22.5 21.6673 22.5C24.4783 22.5 26.8128 24.388 27.954 26.2273C28.1967 26.6184 28.0763 27.1321 27.6852 27.3748C27.2942 27.6174 26.7804 27.4971 26.5378 27.106C25.6027 25.5988 23.7376 24.1667 21.6673 24.1667C19.597 24.1667 17.7319 25.5988 16.7968 27.106Z" fill="#15AD07"/>
<path d="M16.5822 15.4664C16.7848 15.8797 16.6141 16.3789 16.2008 16.5815C15.4436 16.9529 15.0006 17.6265 15.0006 18.3333C15.0006 19.0402 15.4436 19.7138 16.2008 20.0851C16.6141 20.2878 16.7848 20.787 16.5822 21.2002C16.3795 21.6135 15.8803 21.7842 15.467 21.5815C14.2364 20.9781 13.3339 19.7779 13.3339 18.3333C13.3339 16.8887 14.2364 15.6886 15.467 15.0851C15.8803 14.8825 16.3795 15.0532 16.5822 15.4664Z" fill="#15AD07"/>
<path d="M13.4634 27.106C13.2208 27.4971 12.7071 27.6174 12.316 27.3748C11.9249 27.1321 11.8046 26.6184 12.0472 26.2273C12.5298 25.4495 13.3019 24.8003 14.1633 24.2966C14.5606 24.0643 15.071 24.198 15.3033 24.5953C15.5356 24.9926 15.4019 25.503 15.0046 25.7354C14.2848 26.1562 13.7553 26.6356 13.4634 27.106Z" fill="#15AD07"/>
</svg>
