<svg width="20" height="20" viewBox="0 0 20 20" fill="none" xmlns="http://www.w3.org/2000/svg">
<path fill-rule="evenodd" clip-rule="evenodd" d="M11.6673 2.5C8.90585 2.5 6.66727 4.73858 6.66727 7.5C6.66727 10.2614 8.90585 12.5 11.6673 12.5C14.4287 12.5 16.6673 10.2614 16.6673 7.5C16.6673 4.73858 14.4287 2.5 11.6673 2.5ZM8.33394 7.5C8.33394 5.65905 9.82632 4.16667 11.6673 4.16667C13.5082 4.16667 15.0006 5.65905 15.0006 7.5C15.0006 9.34095 13.5082 10.8333 11.6673 10.8333C9.82632 10.8333 8.33394 9.34095 8.33394 7.5Z" fill="#547D74"/>
<path d="M6.79677 17.106C6.55413 17.4971 6.0404 17.6174 5.64932 17.3748C5.25824 17.1321 5.1379 16.6184 5.38054 16.2273C6.52171 14.388 8.85626 12.5 11.6673 12.5C14.4783 12.5 16.8128 14.388 17.954 16.2273C18.1967 16.6184 18.0763 17.1321 17.6852 17.3748C17.2942 17.6174 16.7804 17.4971 16.5378 17.106C15.6027 15.5988 13.7376 14.1667 11.6673 14.1667C9.597 14.1667 7.7319 15.5988 6.79677 17.106Z" fill="#547D74"/>
<path d="M6.58215 5.46643C6.78479 5.87966 6.61407 6.37891 6.20084 6.58155C5.44362 6.95287 5.0006 7.62649 5.0006 8.33333C5.0006 9.04017 5.44362 9.7138 6.20084 10.0851C6.61407 10.2878 6.78479 10.787 6.58215 11.2002C6.37952 11.6135 5.88026 11.7842 5.46703 11.5815C4.23636 10.9781 3.33394 9.77794 3.33394 8.33333C3.33394 6.88872 4.23636 5.6886 5.46703 5.08512C5.88026 4.88248 6.37952 5.0532 6.58215 5.46643Z" fill="#547D74"/>
<path d="M3.46344 17.106C3.2208 17.4971 2.70707 17.6174 2.31599 17.3748C1.9249 17.1321 1.80457 16.6184 2.04721 16.2273C2.52979 15.4495 3.3019 14.8003 4.1633 14.2966C4.5606 14.0643 5.071 14.198 5.30332 14.5953C5.53564 14.9926 5.40189 15.503 5.00459 15.7354C4.28484 16.1562 3.75528 16.6356 3.46344 17.106Z" fill="#547D74"/>
</svg>
