<svg width="21" height="21" viewBox="0 0 21 21" fill="none" xmlns="http://www.w3.org/2000/svg">
<path fill-rule="evenodd" clip-rule="evenodd" d="M10.5026 2.1665C8.20142 2.1665 6.33594 4.03198 6.33594 6.33317C6.33594 8.63436 8.20142 10.4998 10.5026 10.4998C12.8038 10.4998 14.6693 8.63436 14.6693 6.33317C14.6693 4.03198 12.8038 2.1665 10.5026 2.1665ZM8.0026 6.33317C8.0026 4.95246 9.12189 3.83317 10.5026 3.83317C11.8833 3.83317 13.0026 4.95246 13.0026 6.33317C13.0026 7.71388 11.8833 8.83317 10.5026 8.83317C9.12189 8.83317 8.0026 7.71388 8.0026 6.33317Z" fill="#98A2B3"/>
<path fill-rule="evenodd" clip-rule="evenodd" d="M10.5026 19.6665C9.21885 19.6665 7.36079 19.375 5.96546 18.7643C5.28046 18.4645 4.58381 18.0354 4.17907 17.4143C3.9662 17.0877 3.83163 16.7029 3.83604 16.2733C3.84041 15.8477 3.98047 15.4399 4.21587 15.0605C5.35703 13.2212 7.6916 11.3332 10.5026 11.3332C13.3136 11.3332 15.6482 13.2212 16.7893 15.0605C17.0247 15.4399 17.1648 15.8477 17.1692 16.2733C17.1736 16.7029 17.039 17.0877 16.8261 17.4143C16.4214 18.0354 15.7247 18.4645 15.0397 18.7643C13.6444 19.375 11.7864 19.6665 10.5026 19.6665ZM5.6321 15.9392C5.52237 16.116 5.50325 16.2296 5.50262 16.2905C5.50204 16.3474 5.51666 16.4142 5.57541 16.5044C5.71389 16.7169 6.05016 16.9821 6.63371 17.2375C7.77547 17.7372 9.39697 17.9998 10.5026 17.9998C11.6082 17.9998 13.2297 17.7372 14.3715 17.2375C14.955 16.9821 15.2913 16.7169 15.4298 16.5044C15.4886 16.4142 15.5032 16.3474 15.5026 16.2905C15.502 16.2296 15.4828 16.116 15.3731 15.9392C14.438 14.432 12.5729 12.9998 10.5026 12.9998C8.43232 12.9998 6.56722 14.432 5.6321 15.9392Z" fill="#98A2B3"/>
</svg>
