<svg width="21" height="20" viewBox="0 0 21 20" fill="none" xmlns="http://www.w3.org/2000/svg">
<path fill-rule="evenodd" clip-rule="evenodd" d="M12.1673 2.5C9.40585 2.5 7.16727 4.73858 7.16727 7.5C7.16727 10.2614 9.40585 12.5 12.1673 12.5C14.9287 12.5 17.1673 10.2614 17.1673 7.5C17.1673 4.73858 14.9287 2.5 12.1673 2.5ZM8.83394 7.5C8.83394 5.65905 10.3263 4.16667 12.1673 4.16667C14.0082 4.16667 15.5006 5.65905 15.5006 7.5C15.5006 9.34095 14.0082 10.8333 12.1673 10.8333C10.3263 10.8333 8.83394 9.34095 8.83394 7.5Z" fill="#98A2B3"/>
<path d="M7.29677 17.106C7.05413 17.4971 6.5404 17.6174 6.14932 17.3748C5.75824 17.1321 5.6379 16.6184 5.88054 16.2273C7.02171 14.388 9.35626 12.5 12.1673 12.5C14.9783 12.5 17.3128 14.388 18.454 16.2273C18.6967 16.6184 18.5763 17.1321 18.1852 17.3748C17.7942 17.6174 17.2804 17.4971 17.0378 17.106C16.1027 15.5988 14.2376 14.1667 12.1673 14.1667C10.097 14.1667 8.2319 15.5988 7.29677 17.106Z" fill="#98A2B3"/>
<path d="M7.08215 5.46643C7.28479 5.87966 7.11407 6.37891 6.70084 6.58155C5.94362 6.95287 5.5006 7.62649 5.5006 8.33333C5.5006 9.04017 5.94362 9.7138 6.70084 10.0851C7.11407 10.2878 7.28479 10.787 7.08215 11.2002C6.87952 11.6135 6.38026 11.7842 5.96703 11.5815C4.73636 10.9781 3.83394 9.77794 3.83394 8.33333C3.83394 6.88872 4.73636 5.6886 5.96703 5.08512C6.38026 4.88248 6.87952 5.0532 7.08215 5.46643Z" fill="#98A2B3"/>
<path d="M3.96344 17.106C3.7208 17.4971 3.20707 17.6174 2.81599 17.3748C2.4249 17.1321 2.30457 16.6184 2.54721 16.2273C3.02979 15.4495 3.8019 14.8003 4.6633 14.2966C5.0606 14.0643 5.571 14.198 5.80332 14.5953C6.03564 14.9926 5.90189 15.503 5.50459 15.7354C4.78484 16.1562 4.25528 16.6356 3.96344 17.106Z" fill="#98A2B3"/>
</svg>
