<svg width="130" height="24" viewBox="0 0 130 24" fill="none" xmlns="http://www.w3.org/2000/svg">
<rect width="130" height="24" rx="12" fill="#E8F1FB"/>
<path d="M14.0368 6.81818L16.8706 15.1108H16.985L19.8188 6.81818H21.4793L17.8153 17H16.0404L12.3763 6.81818H14.0368ZM25.2813 17.1541C24.5654 17.1541 23.9407 16.9901 23.407 16.6619C22.8734 16.3338 22.4591 15.8748 22.1642 15.2848C21.8692 14.6948 21.7217 14.0054 21.7217 13.2166C21.7217 12.4245 21.8692 11.7318 22.1642 11.1385C22.4591 10.5452 22.8734 10.0845 23.407 9.75639C23.9407 9.42827 24.5654 9.2642 25.2813 9.2642C25.9972 9.2642 26.622 9.42827 27.1556 9.75639C27.6892 10.0845 28.1035 10.5452 28.3985 11.1385C28.6935 11.7318 28.841 12.4245 28.841 13.2166C28.841 14.0054 28.6935 14.6948 28.3985 15.2848C28.1035 15.8748 27.6892 16.3338 27.1556 16.6619C26.622 16.9901 25.9972 17.1541 25.2813 17.1541ZM25.2863 15.9062C25.7503 15.9062 26.1348 15.7836 26.4397 15.5384C26.7446 15.2931 26.97 14.9666 27.1159 14.5589C27.265 14.1513 27.3396 13.7022 27.3396 13.2116C27.3396 12.7244 27.265 12.277 27.1159 11.8693C26.97 11.4583 26.7446 11.1286 26.4397 10.88C26.1348 10.6314 25.7503 10.5071 25.2863 10.5071C24.819 10.5071 24.4312 10.6314 24.123 10.88C23.818 11.1286 23.591 11.4583 23.4419 11.8693C23.296 12.277 23.2231 12.7244 23.2231 13.2116C23.2231 13.7022 23.296 14.1513 23.4419 14.5589C23.591 14.9666 23.818 15.2931 24.123 15.5384C24.4312 15.7836 24.819 15.9062 25.2863 15.9062ZM34.0649 9.36364V10.5568H29.8937V9.36364H34.0649ZM31.0123 7.53409H32.4988V14.7578C32.4988 15.0462 32.5419 15.2633 32.6281 15.4091C32.7143 15.5516 32.8253 15.6494 32.9612 15.7024C33.1004 15.7521 33.2512 15.777 33.4136 15.777C33.5329 15.777 33.6373 15.7687 33.7268 15.7521C33.8163 15.7356 33.8859 15.7223 33.9356 15.7124L34.2041 16.9403C34.1179 16.9735 33.9953 17.0066 33.8362 17.0398C33.6771 17.0762 33.4782 17.0961 33.2396 17.0994C32.8485 17.1061 32.4839 17.0365 32.1459 16.8906C31.8078 16.7448 31.5344 16.5194 31.3256 16.2145C31.1167 15.9096 31.0123 15.5268 31.0123 15.0661V7.53409ZM35.7093 17V9.36364H37.1958V17H35.7093ZM36.46 8.18537C36.2014 8.18537 35.9794 8.09919 35.7938 7.92685C35.6115 7.75118 35.5203 7.54238 35.5203 7.30043C35.5203 7.05516 35.6115 6.84635 35.7938 6.67401C35.9794 6.49834 36.2014 6.41051 36.46 6.41051C36.7185 6.41051 36.9389 6.49834 37.1212 6.67401C37.3068 6.84635 37.3996 7.05516 37.3996 7.30043C37.3996 7.54238 37.3068 7.75118 37.1212 7.92685C36.9389 8.09919 36.7185 8.18537 36.46 8.18537ZM40.6821 12.4659V17H39.1956V9.36364H40.6224V10.6065H40.7169C40.8925 10.2022 41.1676 9.87737 41.5422 9.6321C41.92 9.38684 42.3956 9.2642 42.969 9.2642C43.4894 9.2642 43.9451 9.37358 44.3362 9.59233C44.7273 9.80777 45.0306 10.1293 45.246 10.5568C45.4614 10.9844 45.5692 11.513 45.5692 12.1428V17H44.0827V12.3217C44.0827 11.7682 43.9385 11.3357 43.6501 11.0241C43.3618 10.7093 42.9657 10.5518 42.4619 10.5518C42.1172 10.5518 41.8106 10.6264 41.5422 10.7756C41.277 10.9247 41.0666 11.1435 40.9108 11.4318C40.7583 11.7169 40.6821 12.0616 40.6821 12.4659ZM50.7645 20.0227C50.1579 20.0227 49.6359 19.9432 49.1984 19.7841C48.7642 19.625 48.4096 19.4145 48.1345 19.1527C47.8594 18.8909 47.6539 18.6042 47.518 18.2926L48.7957 17.7656C48.8852 17.9115 49.0045 18.0656 49.1537 18.228C49.3061 18.3937 49.5116 18.5346 49.7702 18.6506C50.032 18.7666 50.3684 18.8246 50.7794 18.8246C51.3428 18.8246 51.8085 18.687 52.1764 18.4119C52.5443 18.1402 52.7282 17.706 52.7282 17.1094V15.608H52.6338C52.5443 15.7704 52.415 15.951 52.246 16.1499C52.0803 16.3487 51.8516 16.5211 51.5599 16.6669C51.2683 16.8127 50.8888 16.8857 50.4214 16.8857C49.8182 16.8857 49.2747 16.7448 48.7907 16.4631C48.3102 16.178 47.929 15.7588 47.6473 15.2053C47.3689 14.6484 47.2297 13.964 47.2297 13.152C47.2297 12.34 47.3672 11.6439 47.6423 11.0639C47.9207 10.4839 48.3019 10.0398 48.7858 9.73153C49.2697 9.41998 49.8182 9.2642 50.4314 9.2642C50.9053 9.2642 51.2881 9.34375 51.5798 9.50284C51.8715 9.65862 52.0985 9.84091 52.2609 10.0497C52.4266 10.2585 52.5542 10.4425 52.6437 10.6016H52.7531V9.36364H54.2098V17.169C54.2098 17.8253 54.0573 18.3639 53.7524 18.7848C53.4475 19.2057 53.0348 19.5173 52.5145 19.7195C51.9974 19.9216 51.4141 20.0227 50.7645 20.0227ZM50.7496 15.6527C51.1771 15.6527 51.5384 15.5533 51.8334 15.3544C52.1317 15.1522 52.357 14.8639 52.5095 14.4893C52.6653 14.1115 52.7432 13.6591 52.7432 13.1321C52.7432 12.6184 52.6669 12.166 52.5145 11.7749C52.362 11.3838 52.1383 11.0788 51.8433 10.8601C51.5483 10.638 51.1837 10.527 50.7496 10.527C50.3021 10.527 49.9292 10.643 49.6309 10.875C49.3327 11.1037 49.1073 11.4152 48.9548 11.8097C48.8057 12.2041 48.7311 12.6449 48.7311 13.1321C48.7311 13.6326 48.8073 14.0717 48.9598 14.4496C49.1122 14.8274 49.3376 15.1224 49.6359 15.3345C49.9375 15.5466 50.3087 15.6527 50.7496 15.6527ZM63.5427 9.36364V10.5568H59.2274V9.36364H63.5427ZM60.4106 17V8.47869C60.4106 8.00142 60.515 7.60535 60.7238 7.29048C60.9326 6.9723 61.2094 6.73532 61.5541 6.57955C61.8988 6.42045 62.2733 6.34091 62.6776 6.34091C62.9759 6.34091 63.2311 6.36577 63.4433 6.41548C63.6554 6.46188 63.8128 6.50497 63.9156 6.54474L63.5676 7.74787C63.498 7.72798 63.4085 7.70478 63.2991 7.67827C63.1897 7.64844 63.0571 7.63352 62.9014 7.63352C62.5401 7.63352 62.2816 7.72301 62.1258 7.90199C61.9733 8.08097 61.8971 8.33949 61.8971 8.67756V17H60.4106ZM67.9923 17.1541C67.2764 17.1541 66.6516 16.9901 66.118 16.6619C65.5844 16.3338 65.1701 15.8748 64.8751 15.2848C64.5801 14.6948 64.4326 14.0054 64.4326 13.2166C64.4326 12.4245 64.5801 11.7318 64.8751 11.1385C65.1701 10.5452 65.5844 10.0845 66.118 9.75639C66.6516 9.42827 67.2764 9.2642 67.9923 9.2642C68.7082 9.2642 69.3329 9.42827 69.8666 9.75639C70.4002 10.0845 70.8145 10.5452 71.1095 11.1385C71.4044 11.7318 71.5519 12.4245 71.5519 13.2166C71.5519 14.0054 71.4044 14.6948 71.1095 15.2848C70.8145 15.8748 70.4002 16.3338 69.8666 16.6619C69.3329 16.9901 68.7082 17.1541 67.9923 17.1541ZM67.9972 15.9062C68.4613 15.9062 68.8457 15.7836 69.1507 15.5384C69.4556 15.2931 69.681 14.9666 69.8268 14.5589C69.9759 14.1513 70.0505 13.7022 70.0505 13.2116C70.0505 12.7244 69.9759 12.277 69.8268 11.8693C69.681 11.4583 69.4556 11.1286 69.1507 10.88C68.8457 10.6314 68.4613 10.5071 67.9972 10.5071C67.5299 10.5071 67.1421 10.6314 66.8339 10.88C66.529 11.1286 66.3019 11.4583 66.1528 11.8693C66.007 12.277 65.934 12.7244 65.934 13.2116C65.934 13.7022 66.007 14.1513 66.1528 14.5589C66.3019 14.9666 66.529 15.2931 66.8339 15.5384C67.1421 15.7836 67.5299 15.9062 67.9972 15.9062ZM73.2112 17V9.36364H74.648V10.5767H74.7275C74.8667 10.1657 75.112 9.84257 75.4633 9.60724C75.818 9.36861 76.219 9.24929 76.6665 9.24929C76.7593 9.24929 76.8686 9.2526 76.9946 9.25923C77.1238 9.26586 77.2249 9.27415 77.2979 9.28409V10.706C77.2382 10.6894 77.1321 10.6712 76.9797 10.6513C76.8272 10.6281 76.6747 10.6165 76.5223 10.6165C76.171 10.6165 75.8577 10.6911 75.5827 10.8402C75.3109 10.986 75.0954 11.1899 74.9363 11.4517C74.7773 11.7102 74.6977 12.0052 74.6977 12.3366V17H73.2112ZM82.2893 19.8636V9.36364H83.741V10.6016H83.8653C83.9515 10.4425 84.0758 10.2585 84.2382 10.0497C84.4006 9.84091 84.626 9.65862 84.9143 9.50284C85.2027 9.34375 85.5838 9.2642 86.0578 9.2642C86.6743 9.2642 87.2245 9.41998 87.7084 9.73153C88.1923 10.0431 88.5718 10.4922 88.8469 11.0788C89.1253 11.6655 89.2645 12.3714 89.2645 13.1967C89.2645 14.022 89.1269 14.7296 88.8518 15.3196C88.5767 15.9062 88.1989 16.3587 87.7183 16.6768C87.2377 16.9917 86.6892 17.1491 86.0727 17.1491C85.6087 17.1491 85.2292 17.0713 84.9342 16.9155C84.6425 16.7597 84.4139 16.5774 84.2481 16.3686C84.0824 16.1598 83.9548 15.9742 83.8653 15.8118H83.7758V19.8636H82.2893ZM83.746 13.1818C83.746 13.7187 83.8239 14.1894 83.9797 14.5938C84.1354 14.9981 84.3608 15.3146 84.6558 15.5433C84.9508 15.7687 85.3121 15.8814 85.7396 15.8814C86.1837 15.8814 86.555 15.7637 86.8532 15.5284C87.1515 15.2898 87.3769 14.9666 87.5294 14.5589C87.6852 14.1513 87.7631 13.6922 87.7631 13.1818C87.7631 12.678 87.6868 12.2256 87.5344 11.8246C87.3852 11.4235 87.1598 11.107 86.8582 10.875C86.5599 10.643 86.1871 10.527 85.7396 10.527C85.3087 10.527 84.9442 10.638 84.6459 10.8601C84.3509 11.0821 84.1272 11.392 83.9747 11.7898C83.8222 12.1875 83.746 12.6515 83.746 13.1818ZM93.1523 17.169C92.6684 17.169 92.2309 17.0795 91.8398 16.9006C91.4487 16.7183 91.1388 16.4548 90.9101 16.1101C90.6847 15.7654 90.572 15.3428 90.572 14.8423C90.572 14.4115 90.6549 14.0568 90.8206 13.7784C90.9863 13.5 91.21 13.2796 91.4917 13.1172C91.7735 12.9548 92.0883 12.8321 92.4363 12.7493C92.7844 12.6664 93.139 12.6035 93.5003 12.5604C93.9577 12.5073 94.3289 12.4643 94.6139 12.4311C94.8989 12.3946 95.1061 12.3366 95.2354 12.2571C95.3646 12.1776 95.4292 12.0483 95.4292 11.8693V11.8345C95.4292 11.4003 95.3066 11.0639 95.0613 10.8253C94.8194 10.5866 94.4581 10.4673 93.9775 10.4673C93.4771 10.4673 93.0827 10.5784 92.7943 10.8004C92.5093 11.0192 92.3121 11.2628 92.2027 11.5312L90.8057 11.2131C90.9714 10.7491 91.2133 10.3745 91.5315 10.0895C91.853 9.80114 92.2226 9.59233 92.6402 9.46307C93.0578 9.33049 93.497 9.2642 93.9577 9.2642C94.2626 9.2642 94.5857 9.30066 94.9271 9.37358C95.2718 9.44318 95.5933 9.57244 95.8916 9.76136C96.1932 9.95028 96.4401 10.2204 96.6324 10.5717C96.8246 10.9197 96.9207 11.3722 96.9207 11.929V17H95.469V15.956H95.4094C95.3132 16.1482 95.1691 16.3371 94.9768 16.5227C94.7846 16.7083 94.5377 16.8625 94.2361 16.9851C93.9345 17.1077 93.5732 17.169 93.1523 17.169ZM93.4754 15.9759C93.8864 15.9759 94.2377 15.8946 94.5294 15.7322C94.8244 15.5698 95.0481 15.3577 95.2006 15.0959C95.3563 14.8307 95.4342 14.5473 95.4342 14.2457V13.2614C95.3812 13.3144 95.2784 13.3641 95.126 13.4105C94.9768 13.4536 94.8061 13.4917 94.6139 13.5249C94.4217 13.5547 94.2344 13.5829 94.0521 13.6094C93.8698 13.6326 93.7174 13.6525 93.5947 13.669C93.3064 13.7055 93.0429 13.7668 92.8042 13.853C92.5689 13.9392 92.38 14.0634 92.2375 14.2259C92.0983 14.3849 92.0287 14.5971 92.0287 14.8622C92.0287 15.2301 92.1646 15.5085 92.4363 15.6974C92.7081 15.883 93.0545 15.9759 93.4754 15.9759ZM100.387 12.4659V17H98.9007V9.36364H100.328V10.6065H100.422C100.598 10.2022 100.873 9.87737 101.247 9.6321C101.625 9.38684 102.101 9.2642 102.674 9.2642C103.194 9.2642 103.65 9.37358 104.041 9.59233C104.432 9.80777 104.736 10.1293 104.951 10.5568C105.167 10.9844 105.274 11.513 105.274 12.1428V17H103.788V12.3217C103.788 11.7682 103.644 11.3357 103.355 11.0241C103.067 10.7093 102.671 10.5518 102.167 10.5518C101.822 10.5518 101.516 10.6264 101.247 10.7756C100.982 10.9247 100.772 11.1435 100.616 11.4318C100.463 11.7169 100.387 12.0616 100.387 12.4659ZM110.559 17.1541C109.807 17.1541 109.159 16.9934 108.615 16.6719C108.075 16.3471 107.657 15.8913 107.362 15.3047C107.071 14.7147 106.925 14.0237 106.925 13.2315C106.925 12.4493 107.071 11.7599 107.362 11.1634C107.657 10.5668 108.068 10.1011 108.595 9.76633C109.126 9.43158 109.745 9.2642 110.455 9.2642C110.886 9.2642 111.303 9.33546 111.707 9.47798C112.112 9.6205 112.475 9.84422 112.796 10.1491C113.118 10.4541 113.371 10.8501 113.557 11.3374C113.743 11.8213 113.835 12.4096 113.835 13.1023V13.6293H107.765V12.5156H112.379C112.379 12.1245 112.299 11.7782 112.14 11.4766C111.981 11.1716 111.757 10.9313 111.469 10.7557C111.184 10.58 110.849 10.4922 110.465 10.4922C110.047 10.4922 109.682 10.5949 109.371 10.8004C109.063 11.0026 108.824 11.2678 108.655 11.5959C108.489 11.9207 108.406 12.2737 108.406 12.6548V13.5249C108.406 14.0353 108.496 14.4695 108.675 14.8274C108.857 15.1854 109.111 15.4588 109.435 15.6477C109.76 15.8333 110.14 15.9261 110.574 15.9261C110.856 15.9261 111.113 15.8864 111.345 15.8068C111.577 15.724 111.777 15.6013 111.946 15.4389C112.115 15.2765 112.244 15.076 112.334 14.8374L113.741 15.0909C113.628 15.5052 113.426 15.8681 113.134 16.1797C112.846 16.4879 112.483 16.7282 112.046 16.9006C111.611 17.0696 111.116 17.1541 110.559 17.1541ZM116.971 6.81818V17H115.485V6.81818H116.971Z" fill="#1671D9"/>
</svg>
