<svg width="18" height="18" viewBox="0 0 18 18" fill="none" xmlns="http://www.w3.org/2000/svg">
<path d="M5.28814 4.22748C4.99525 3.93459 4.52038 3.93459 4.22748 4.22748C3.93459 4.52038 3.93459 4.99525 4.22748 5.28814L7.93979 9.00045L4.22748 12.7128C3.93459 13.0057 3.93459 13.4805 4.22748 13.7734C4.52038 14.0663 4.99525 14.0663 5.28814 13.7734L9.00045 10.0611L12.7128 13.7734C13.0057 14.0663 13.4805 14.0663 13.7734 13.7734C14.0663 13.4805 14.0663 13.0057 13.7734 12.7128L10.0611 9.00045L13.7734 5.28814C14.0663 4.99525 14.0663 4.52038 13.7734 4.22748C13.4805 3.93459 13.0057 3.93459 12.7128 4.22748L9.00045 7.93979L5.28814 4.22748Z" fill="#475367"/>
</svg>
